<svg width="105" height="82" viewBox="0 0 105 82" fill="none" xmlns="http://www.w3.org/2000/svg">
<circle cx="52.5003" cy="40.8334" r="40.8334" fill="#00ABB3"/>
<path d="M20.6453 54.5234C16.2252 54.5234 12.6271 58.0948 12.6271 62.4866C12.6271 66.8784 16.2232 70.4498 20.6453 70.4498C25.0674 70.4498 28.6634 66.8784 28.6634 62.4866C28.6634 58.0948 25.0674 54.5234 20.6453 54.5234ZM20.6453 67.1763C18.0417 67.1763 15.9211 65.0723 15.9211 62.4846C15.9211 59.8968 18.0397 57.7928 20.6453 57.7928C23.2508 57.7928 25.3694 59.8968 25.3694 62.4846C25.3694 65.0723 23.2508 67.1763 20.6453 67.1763Z" fill="white"/>
<path d="M72.3086 60.8468C72.3086 60.8468 72.2943 60.8468 72.2881 60.8468H69.103C69.0886 60.8468 69.0763 60.8468 69.064 60.8468C69.0517 60.8468 69.0373 60.8468 69.0249 60.8468H65.8399C65.7433 60.8468 65.6488 60.8366 65.5563 60.8203C65.4659 60.8366 65.3734 60.8468 65.2789 60.8468H31.618C31.6981 61.3815 31.7413 61.9285 31.7413 62.4836C31.7413 63.0387 31.6981 63.5856 31.618 64.1203H38.9169C38.9662 64.1203 39.0155 64.1223 39.0628 64.1284C39.1142 64.1223 39.1655 64.1203 39.219 64.1203H42.404C42.4184 64.1203 42.4307 64.1203 42.4431 64.1203C42.4554 64.1203 42.4698 64.1203 42.4821 64.1203H45.6672C45.6672 64.1203 45.6733 64.1203 45.6774 64.1203H76.5643C76.4841 63.5856 76.441 63.0407 76.441 62.4836C76.441 61.9264 76.4841 61.3815 76.5643 60.8468H72.3086Z" fill="white"/>
<path d="M87.5362 54.5234C83.1162 54.5234 79.5181 58.0948 79.5181 62.4866C79.5181 66.8784 83.1141 70.4498 87.5362 70.4498C91.9583 70.4498 95.5543 66.8784 95.5543 62.4866C95.5543 58.0948 91.9583 54.5234 87.5362 54.5234ZM87.5362 67.1763C84.9327 67.1763 82.812 65.0723 82.812 62.4846C82.812 59.8968 84.9306 57.7928 87.5362 57.7928C90.1418 57.7928 92.2604 59.8968 92.2604 62.4846C92.2604 65.0723 90.1418 67.1763 87.5362 67.1763Z" fill="white"/>
<path d="M87.5353 60.8486C86.6271 60.8486 85.8873 61.5833 85.8873 62.4854C85.8873 63.3874 86.6271 64.1221 87.5353 64.1221C88.4436 64.1221 89.1834 63.3874 89.1834 62.4854C89.1834 61.5833 88.4436 60.8486 87.5353 60.8486Z" fill="white"/>
<path d="M66.7775 38.8117H90.6202L82.5671 29.2139H66.7775V38.8117Z" fill="white"/>
<path d="M20.6451 60.8486C19.7369 60.8486 18.9971 61.5833 18.9971 62.4854C18.9971 63.3874 19.7369 64.1221 20.6451 64.1221C21.5534 64.1221 22.2932 63.3874 22.2932 62.4854C22.2932 61.5833 21.5534 60.8486 20.6451 60.8486Z" fill="white"/>
<path d="M3.32117 60.8472C3.96229 62.7512 5.76852 64.1206 7.89121 64.1206H9.67484C9.5947 63.5859 9.55155 63.041 9.55155 62.4839C9.55155 61.9267 9.5947 61.3819 9.67484 60.8472H3.32117Z" fill="white"/>
<path d="M39.706 51.6114C39.706 48.1829 36.897 45.3931 33.4448 45.3931H25.665C20.5895 45.3931 16.4592 41.2911 16.4592 36.2504V36.2198C16.4592 32.7912 13.6502 30.0015 10.198 30.0015H3.07166V57.795H10.611C12.3885 54.0604 16.2167 51.4685 20.645 51.4685C25.0732 51.4685 28.9014 54.0604 30.6789 57.795H39.706V51.6114Z" fill="white"/>
<path d="M95.5535 52.9936V46.6672C95.5535 45.8243 96.2418 45.1386 97.0926 45.1386H101.471C101.12 44.5896 100.586 44.1611 99.9344 43.9427L93.6568 41.8652H65.242C64.3933 41.8652 63.7029 41.1815 63.7029 40.3366V27.6837C63.7029 26.8409 64.3913 26.1552 65.242 26.1552H80.0063L78.7076 24.6062C77.789 23.5103 76.439 22.8838 75.0067 22.8838H33.8332V22.9042H29.894C29.8097 22.9042 29.7255 22.896 29.6433 22.8838H29.0186C29.0042 22.8838 28.9919 22.8838 28.9796 22.8838C28.9672 22.8838 28.9529 22.8838 28.9405 22.8838H22.7862C22.7718 22.8838 22.7595 22.8838 22.7471 22.8838C22.7348 22.8838 22.7204 22.8838 22.7081 22.8838H18.2696C18.2552 22.8838 18.2428 22.8838 18.2305 22.8838C18.2182 22.8838 18.2038 22.8838 18.1915 22.8838H7.8986C5.44508 22.8838 3.41691 24.7144 3.11896 27.0695H10.2062C15.2818 27.0695 19.4121 31.1714 19.4121 36.2122V36.2428C19.4121 39.6713 22.2211 42.4611 25.6733 42.4611H33.453C38.5286 42.4611 42.6589 46.5631 42.6589 51.6038V57.7874H65.2851C65.3817 57.7874 65.4762 57.7976 65.5687 57.814C65.6591 57.7976 65.7516 57.7874 65.8461 57.7874H69.0312C69.0455 57.7874 69.0579 57.7874 69.0702 57.7874C69.0825 57.7874 69.0969 57.7874 69.1093 57.7874H71.9676C71.9676 57.7874 71.982 57.7874 71.9881 57.7874H77.5075C79.285 54.0528 83.1132 51.461 87.5415 51.461C91.9697 51.461 95.798 54.0528 97.5754 57.7874H101.93V54.5161H97.0967C96.248 54.5161 95.5576 53.8324 95.5576 52.9875L95.5535 52.9936ZM57.0574 34.7102L53.8723 41.0244C53.6032 41.5591 53.0607 41.8672 52.4956 41.8672C52.2634 41.8672 52.0291 41.8142 51.8072 41.706C51.0469 41.3285 50.7407 40.4101 51.1209 39.655L53.1901 35.553H49.3105C48.7783 35.553 48.2831 35.2796 48.0016 34.8285C47.7221 34.3775 47.6954 33.8163 47.9338 33.3428L51.1188 27.0041C51.499 26.2491 52.4216 25.9429 53.1819 26.3184C53.9422 26.696 54.2504 27.6123 53.8723 28.3674L51.7969 32.498H55.6806C56.2149 32.498 56.7101 32.7714 56.9896 33.2224C57.2691 33.6735 57.2958 34.2347 57.0553 34.7102H57.0574ZM68.4229 48.1957H65.2379C64.3892 48.1957 63.6988 47.5121 63.6988 46.6672C63.6988 45.8223 64.3871 45.1386 65.2379 45.1386H68.4229C69.2716 45.1386 69.962 45.8223 69.962 46.6672C69.962 47.5121 69.2736 48.1957 68.4229 48.1957Z" fill="white"/>
<path d="M101.925 48.1963H98.6307V51.4677H101.925V48.1963Z" fill="white"/>
<path d="M98.6293 62.4839C98.6293 63.039 98.5861 63.5859 98.506 64.1206H101.923V60.8472H98.506C98.5861 61.3819 98.6293 61.9288 98.6293 62.4839Z" fill="white"/>
<path d="M20.6454 57.7939C18.0418 57.7939 15.9212 59.898 15.9212 62.4857C15.9212 65.0735 18.0398 67.1775 20.6454 67.1775C23.2509 67.1775 25.3695 65.0735 25.3695 62.4857C25.3695 59.898 23.2509 57.7939 20.6454 57.7939ZM20.6454 64.1204C19.7371 64.1204 18.9974 63.3857 18.9974 62.4837C18.9974 61.5817 19.7371 60.847 20.6454 60.847C21.5536 60.847 22.2934 61.5817 22.2934 62.4837C22.2934 63.3857 21.5536 64.1204 20.6454 64.1204Z" fill="#353950"/>
<path d="M87.5354 57.7939C84.9319 57.7939 82.8113 59.898 82.8113 62.4857C82.8113 65.0735 84.9299 67.1775 87.5354 67.1775C90.141 67.1775 92.2596 65.0735 92.2596 62.4857C92.2596 59.898 90.141 57.7939 87.5354 57.7939ZM87.5354 64.1204C86.6272 64.1204 85.8874 63.3857 85.8874 62.4837C85.8874 61.5817 86.6272 60.847 87.5354 60.847C88.4437 60.847 89.1835 61.5817 89.1835 62.4837C89.1835 63.3857 88.4437 64.1204 87.5354 64.1204Z" fill="#353950"/>
<path d="M68.4235 45.1406H65.2384C64.3898 45.1406 63.6993 45.8243 63.6993 46.6692C63.6993 47.5141 64.3877 48.1977 65.2384 48.1977H68.4235C69.2722 48.1977 69.9626 47.5141 69.9626 46.6692C69.9626 45.8243 69.2742 45.1406 68.4235 45.1406Z" fill="#353950"/>
<path d="M55.6829 32.498H51.7992L53.8746 28.3675C54.2548 27.6124 53.9445 26.6961 53.1842 26.3185C52.4239 25.941 51.5012 26.2491 51.1211 27.0042L47.936 33.3429C47.6976 33.8164 47.7244 34.3796 48.0038 34.8286C48.2833 35.2796 48.7785 35.5531 49.3128 35.5531H53.1924L51.1231 39.6551C50.743 40.4102 51.0491 41.3265 51.8094 41.7061C52.0314 41.8163 52.2656 41.8673 52.4978 41.8673C53.0609 41.8673 53.6054 41.5591 53.8746 41.0245L57.0597 34.7102C57.298 34.2368 57.2734 33.6735 56.9939 33.2225C56.7144 32.7715 56.2192 32.498 55.6849 32.498H55.6829Z" fill="#353950"/>
<path d="M105 46.6821V46.6679C105 46.6515 105 46.6352 104.998 46.6189C104.967 44.0863 103.332 41.8536 100.905 41.0475L94.8058 39.0292L84.4883 26.7334C84.478 26.7212 84.4677 26.7089 84.4575 26.6967L81.0669 22.6559C79.5628 20.8621 77.3517 19.8335 75.003 19.8335H29.0149C29.0005 19.8335 28.9881 19.8335 28.9758 19.8335C28.9635 19.8335 28.9491 19.8335 28.9368 19.8335H22.7824C22.768 19.8335 22.7557 19.8335 22.7434 19.8335C22.731 19.8335 22.7167 19.8335 22.7043 19.8335H18.2658C18.2514 19.8335 18.2391 19.8335 18.2268 19.8335C18.2144 19.8335 18.2 19.8335 18.1877 19.8335H7.89483C3.54055 19.8335 0 23.3518 0 27.6742V59.3208C0 59.3208 0 59.3249 0 59.3269C0 59.3289 0 59.331 0 59.333C0 63.6575 3.54261 67.1737 7.89483 67.1737H10.6134C12.3909 70.9084 16.2191 73.5002 20.6474 73.5002C25.0757 73.5002 28.9039 70.9084 30.6814 67.1737H38.9152C38.9687 67.1737 39.02 67.1717 39.0714 67.1656C39.1187 67.1697 39.168 67.1737 39.2173 67.1737H42.4024C42.4168 67.1737 42.4291 67.1737 42.4414 67.1737C42.4537 67.1737 42.4681 67.1737 42.4805 67.1737H45.6039C45.6039 67.1737 45.61 67.1737 45.6141 67.1737H77.4976C79.2751 70.9084 83.1033 73.5002 87.5316 73.5002C91.9598 73.5002 95.7881 70.9084 97.5655 67.1737H103.457C104.306 67.1737 104.996 66.4901 104.996 65.6452V46.6862C104.996 46.6862 104.996 46.6801 104.996 46.6781L105 46.6821ZM82.567 29.215L90.6221 38.8129H66.7794V29.215H82.569H82.567ZM9.67436 64.1207H7.89072C5.76804 64.1207 3.9618 62.7513 3.32068 60.8473H9.67436C9.59422 61.382 9.55106 61.9289 9.55106 62.484C9.55106 63.0391 9.59422 63.586 9.67436 64.1207ZM20.6453 70.4472C16.2253 70.4472 12.6272 66.8758 12.6272 62.484C12.6272 58.0922 16.2232 54.5208 20.6453 54.5208C25.0674 54.5208 28.6635 58.0922 28.6635 62.484C28.6635 66.8758 25.0674 70.4472 20.6453 70.4472ZM30.6814 57.7922C28.9039 54.0576 25.0757 51.4658 20.6474 51.4658C16.2191 51.4658 12.3909 54.0576 10.6134 57.7922H3.07204V29.9987H10.1984C13.6505 29.9987 16.4596 32.7884 16.4596 36.217V36.2476C16.4596 41.2883 20.5899 45.3903 25.6654 45.3903H33.4452C36.8974 45.3903 39.7064 48.1801 39.7064 51.6086V57.7922H30.6793H30.6814ZM76.5647 64.1207H45.6778C45.6778 64.1207 45.6717 64.1207 45.6676 64.1207H42.4825C42.4681 64.1207 42.4558 64.1207 42.4435 64.1207C42.4311 64.1207 42.4168 64.1207 42.4044 64.1207H39.2194C39.1659 64.1207 39.1146 64.1228 39.0632 64.1289C39.0159 64.1248 38.9666 64.1207 38.9173 64.1207H31.6184C31.6985 63.586 31.7417 63.0411 31.7417 62.484C31.7417 61.9269 31.6985 61.382 31.6184 60.8473H65.2793C65.3738 60.8473 65.4663 60.8371 65.5567 60.8208C65.6492 60.8371 65.7437 60.8473 65.8403 60.8473H69.0253C69.0397 60.8473 69.0521 60.8473 69.0644 60.8473C69.0767 60.8473 69.0911 60.8473 69.1034 60.8473H72.2885C72.2885 60.8473 72.3029 60.8473 72.309 60.8473H76.5647C76.4846 61.382 76.4414 61.9289 76.4414 62.484C76.4414 63.0391 76.4846 63.586 76.5647 64.1207ZM87.5357 70.4472C83.1156 70.4472 79.5175 66.8758 79.5175 62.484C79.5175 58.0922 83.1136 54.5208 87.5357 54.5208C91.9578 54.5208 95.5538 58.0922 95.5538 62.484C95.5538 66.8758 91.9578 70.4472 87.5357 70.4472ZM101.924 64.1207H98.5067C98.5868 63.586 98.63 63.0411 98.63 62.484C98.63 61.9269 98.5868 61.382 98.5067 60.8473H101.924V64.1207ZM101.924 57.7922H97.5696C95.7922 54.0576 91.9639 51.4658 87.5357 51.4658C83.1074 51.4658 79.2792 54.0576 77.5017 57.7922H71.9823C71.9823 57.7922 71.9679 57.7922 71.9618 57.7922H69.1034C69.0891 57.7922 69.0767 57.7922 69.0644 57.7922C69.0521 57.7922 69.0377 57.7922 69.0253 57.7922H65.8403C65.7458 57.7922 65.6533 57.8024 65.5629 57.8188C65.4704 57.8024 65.3759 57.7922 65.2793 57.7922H42.6531V51.6086C42.6531 46.5679 38.5228 42.4659 33.4472 42.4659H25.6675C22.2153 42.4659 19.4063 39.6761 19.4063 36.2476V36.217C19.4063 31.1762 15.276 27.0742 10.2004 27.0742H3.11108C3.40904 24.7171 5.43926 22.8886 7.89072 22.8886H18.1836C18.198 22.8886 18.2103 22.8886 18.2226 22.8886C18.235 22.8886 18.2494 22.8886 18.2617 22.8886H22.7002C22.7146 22.8886 22.7269 22.8886 22.7393 22.8886C22.7516 22.8886 22.766 22.8886 22.7783 22.8886H28.9327C28.947 22.8886 28.9594 22.8886 28.9717 22.8886C28.984 22.8886 28.9984 22.8886 29.0107 22.8886H29.6354C29.7176 22.9008 29.8019 22.909 29.8861 22.909H33.8253V22.8886H74.9989C76.4332 22.8886 77.7812 23.5171 78.6997 24.611L79.9984 26.1599H65.2341C64.3854 26.1599 63.695 26.8436 63.695 27.6885V40.3414C63.695 41.1843 64.3834 41.87 65.2341 41.87H93.6489L99.9266 43.9475C100.58 44.1638 101.114 44.5944 101.464 45.1434H97.0847C96.236 45.1434 95.5456 45.8271 95.5456 46.6719V52.9984C95.5456 53.8412 96.234 54.527 97.0847 54.527H101.918V57.7983L101.924 57.7922ZM101.924 48.1964V51.4678H98.63V48.1964H101.924Z" fill="#353950"/>
</svg>
