<svg width="86" height="86" viewBox="0 0 86 86" fill="none" xmlns="http://www.w3.org/2000/svg">
<g clip-path="url(#clip0_2311_5879)">
<path d="M43 86C66.7482 86 86 66.7482 86 43C86 19.2518 66.7482 0 43 0C19.2518 0 0 19.2518 0 43C0 66.7482 19.2518 86 43 86Z" fill="#00ABB3"/>
<path d="M63.3726 37.9911L49.3104 34.4349C49.1128 34.3884 49.0083 34.1792 49.0664 33.9933L58.538 6.45006C58.538 6.45006 58.5612 6.36871 58.5612 6.32222C58.5612 6.28736 58.5612 6.24087 58.538 6.20601C58.445 5.99682 58.1545 5.90384 57.9685 6.11303L23.0455 45.7079C22.8712 45.8938 22.9758 46.196 23.2199 46.2657L37.6655 49.9149C37.8631 49.9614 37.9677 50.1706 37.898 50.3565L27.4153 79.4803C27.2874 79.8406 27.7523 80.1079 27.9964 79.8174L63.5585 38.549C63.7212 38.3514 63.6283 38.0609 63.3842 37.9911H63.3726Z" fill="white"/>
<path d="M40.4196 65.3949C39.9199 64.9649 39.1645 65.023 38.7345 65.5228L30.1112 75.529L39.025 50.7749C39.1761 50.3682 39.1412 49.9149 38.932 49.5314C38.7228 49.1479 38.3742 48.869 37.9558 48.7644L24.8699 45.4522L42.8253 25.1028C43.2669 24.603 43.2204 23.8476 42.7207 23.406C42.2209 22.9644 41.4655 23.0109 41.0239 23.5106L22.1388 44.9176C21.7785 45.3244 21.6623 45.8706 21.825 46.3936C21.9877 46.9049 22.3945 47.3001 22.9174 47.4279L36.445 50.8447L26.2877 79.0736C26.032 79.7825 26.3109 80.5379 26.9618 80.9214C27.0896 81.0028 27.2291 81.0492 27.3685 81.0841C27.9147 81.2236 28.5074 81.0493 28.9026 80.596L40.5474 67.0801C40.9774 66.5803 40.9193 65.8249 40.4196 65.3949Z" fill="#353950"/>
<path d="M44.5221 21.3375C45.0218 21.7792 45.7772 21.7327 46.2188 21.2329L55.9926 10.1459L47.9272 33.61C47.7878 34.0167 47.8226 34.47 48.0318 34.8419C48.241 35.2138 48.5896 35.4927 49.008 35.5973L53.4707 36.7246C54.1099 36.8873 54.7607 36.5038 54.9234 35.8529C55.0861 35.2021 54.7026 34.5629 54.0518 34.4002L50.4956 33.5054L59.665 6.84538C59.9091 6.13646 59.6302 5.39267 58.9794 5.00916C58.3402 4.63727 57.5383 4.7651 57.0502 5.32294L44.4175 19.6408C43.9759 20.1405 44.0223 20.8959 44.5221 21.3375Z" fill="#353950"/>
<path d="M64.755 37.8637C64.5923 37.3523 64.1855 36.9688 63.6625 36.841L59.0139 35.6672C58.3747 35.5045 57.7239 35.888 57.5612 36.5388C57.3985 37.1896 57.782 37.8288 58.4328 37.9915L61.745 38.8283L42.0812 61.6532C41.6512 62.1529 41.7093 62.9083 42.209 63.3383C42.3601 63.4661 42.5228 63.5475 42.6971 63.594C43.1271 63.6986 43.592 63.5707 43.8942 63.2105L64.4644 39.328C64.8131 38.9213 64.9293 38.375 64.7666 37.8637H64.755Z" fill="#353950"/>
</g>
<defs>
<clipPath id="clip0_2311_5879">
<rect width="86" height="86" fill="white"/>
</clipPath>
</defs>
</svg>
