<svg width="97" height="82" viewBox="0 0 97 82" fill="none" xmlns="http://www.w3.org/2000/svg">
<path d="M48.2162 78.1003C69.3278 78.1003 86.4421 60.9643 86.4421 39.8258C86.4421 18.6874 69.3278 1.55127 48.2162 1.55127C27.1046 1.55127 9.99023 18.6874 9.99023 39.8258C9.99023 60.9643 27.1046 78.1003 48.2162 78.1003Z" fill="#00ABB3"/>
<path d="M19.7742 32.0057H48.2164V22.1061C46.0468 21.1958 43.6603 20.6992 41.1601 20.6992H19.7846C9.6392 20.6992 1.42578 28.9334 1.42578 39.0813C1.42578 49.2293 9.64953 57.4635 19.7846 57.4635H30.4775L34.2485 51.805H36.1288L35.0026 50.6775L36.1288 48.981H33.3083L30.4878 46.157H19.7949C15.9 46.157 12.7283 42.9812 12.7283 39.0813C12.7283 35.1815 15.9 32.0057 19.7949 32.0057H19.7742Z" fill="white"/>
<path d="M76.659 20.6992H65.966L60.3148 26.3576L65.966 32.0161H76.659C80.5539 32.0161 83.7256 35.1918 83.7256 39.0917C83.7256 42.9916 80.5539 46.1673 76.659 46.1673H48.2168V56.067C50.3864 56.9773 52.7729 57.4738 55.2731 57.4738H76.6486C86.794 57.4738 95.0074 49.2396 95.0074 39.0917C95.0074 28.9438 86.7837 20.7096 76.6486 20.7096L76.659 20.6992Z" fill="white"/>
<path d="M55.2831 20.6993C45.1377 20.6993 36.9243 28.9335 36.9243 39.0814C36.9243 40.3331 37.0483 41.5641 37.2859 42.7434C37.5235 43.9226 37.8748 45.0709 38.3294 46.157L49.6319 48.9811L58.1139 32.0058H65.976V20.689H55.2831V20.6993Z" fill="white"/>
<path d="M59.157 35.4195C58.9194 34.2403 58.5681 33.092 58.1135 32.0059H55.2828C51.3878 32.0059 48.2161 35.1816 48.2161 39.0815C48.2161 42.9813 45.0444 46.1571 41.1495 46.1571H30.4565V57.4739H41.1495C51.2949 57.4739 59.5083 49.2397 59.5083 39.0918C59.5083 37.8401 59.3843 36.6091 59.1467 35.4299L59.157 35.4195Z" fill="white"/>
<path d="M76.6586 58.8809H55.283C52.6486 58.8809 50.0864 58.3741 47.6792 57.3603C46.956 57.0603 46.6151 56.2328 46.9147 55.5086C47.2143 54.7845 48.0408 54.4535 48.764 54.7432C50.8302 55.6017 53.0205 56.0466 55.283 56.0466H76.6586C86.0085 56.0466 93.6123 48.433 93.6123 39.0713C93.6123 29.7095 86.0085 22.096 76.6586 22.096H55.283C45.9332 22.096 38.3293 29.7095 38.3293 39.0713C38.3293 41.3367 38.7632 43.5298 39.6311 45.5986C39.9307 46.3228 39.5897 47.1503 38.8666 47.4503C38.1434 47.7503 37.3169 47.4089 37.0172 46.6848C36.0151 44.2746 35.4985 41.7091 35.4985 39.0713C35.4985 28.1579 44.3732 19.272 55.2727 19.272H76.6483C87.5478 19.272 96.4224 28.1579 96.4224 39.0713C96.4224 49.9847 87.5478 58.8706 76.6483 58.8706L76.6586 58.8809Z" fill="#353950"/>
<path d="M76.6587 47.5632H58.114C57.3391 47.5632 56.6986 46.9322 56.6986 46.146C56.6986 45.3598 57.3288 44.7288 58.114 44.7288H76.6587C79.7788 44.7288 82.31 42.1944 82.31 39.0704C82.31 35.9463 79.7788 33.4119 76.6587 33.4119H55.2832C52.1631 33.4119 49.6319 35.9463 49.6319 39.0704C49.6319 43.7461 45.83 47.5528 41.1602 47.5528H19.7847C15.1149 47.5528 11.313 43.7461 11.313 39.0704C11.313 34.3947 15.1149 30.5879 19.7847 30.5879H38.3294C39.1043 30.5879 39.7448 31.2189 39.7448 32.0051C39.7448 32.7913 39.1146 33.4223 38.3294 33.4223H19.7847C16.6646 33.4223 14.1334 35.9567 14.1334 39.0807C14.1334 42.2047 16.6646 44.7391 19.7847 44.7391H41.1602C44.2803 44.7391 46.8115 42.2047 46.8115 39.0807C46.8115 34.405 50.6134 30.5982 55.2832 30.5982H76.6587C81.3285 30.5982 85.1304 34.405 85.1304 39.0807C85.1304 43.7564 81.3285 47.5632 76.6587 47.5632Z" fill="#353950"/>
<path d="M30.4672 58.8802C29.6923 58.8802 29.0518 58.2492 29.0518 57.463V46.1462C29.0518 45.3704 29.682 44.729 30.4672 44.729C31.2523 44.729 31.8825 45.36 31.8825 46.1462V57.463C31.8825 58.2389 31.2523 58.8802 30.4672 58.8802Z" fill="#353950"/>
<path d="M65.9657 33.4232C65.1908 33.4232 64.5503 32.7922 64.5503 32.006V20.6892C64.5503 19.9133 65.1805 19.272 65.9657 19.272C66.7509 19.272 67.3811 19.903 67.3811 20.6892V32.006C67.3811 32.7819 66.7509 33.4232 65.9657 33.4232Z" fill="#353950"/>
<path d="M8.94681 25.6539C8.51289 25.6539 8.07898 25.4574 7.81036 25.0746C7.34545 24.4436 7.49009 23.554 8.1203 23.0988C11.5296 20.6058 15.5589 19.2817 19.7844 19.2817H41.1599C43.7944 19.2817 46.3566 19.7886 48.7638 20.8024C49.487 21.1024 49.8279 21.9299 49.5283 22.654C49.2287 23.3781 48.4022 23.7195 47.679 23.4195C45.6127 22.5609 43.4225 22.1161 41.1599 22.1161H19.7844C16.1581 22.1161 12.6971 23.2437 9.78365 25.385C9.5357 25.5712 9.23609 25.6539 8.94681 25.6539Z" fill="#353950"/>
<path d="M41.1497 58.8804H19.7742C8.87462 58.8804 0 50.0049 0 39.0811C0 34.8502 1.31208 30.8055 3.81226 27.4022C4.27717 26.7712 5.15534 26.6367 5.78555 27.0919C6.41576 27.5574 6.55007 28.4367 6.09549 29.0677C3.9569 31.9848 2.83079 35.4502 2.83079 39.0811C2.83079 48.4429 10.4347 56.0564 19.7845 56.0564H41.1601C50.5099 56.0564 58.1138 48.4429 58.1138 39.0811C58.1138 36.8157 57.6799 34.6227 56.812 32.5538C56.5124 31.8296 56.8534 31.0021 57.5765 30.7021C58.2997 30.4021 59.1263 30.7435 59.4259 31.4676C60.428 33.8882 60.9446 36.4433 60.9446 39.0811C60.9446 49.9945 52.0699 58.8804 41.1704 58.8804H41.1497Z" fill="#353950"/>
<path d="M30.4672 16.1581C29.6097 16.1581 28.9175 15.465 28.9175 14.6064V1.55167C28.9175 0.69308 29.6097 0 30.4672 0C31.3247 0 32.0169 0.69308 32.0169 1.55167V14.6064C32.0169 15.465 31.3247 16.1581 30.4672 16.1581Z" fill="#353950"/>
<path d="M36.9863 9.6302H23.9481C23.0906 9.6302 22.3984 8.93712 22.3984 8.07853C22.3984 7.21993 23.0906 6.52686 23.9481 6.52686H36.9863C37.8438 6.52686 38.536 7.21993 38.536 8.07853C38.536 8.93712 37.8438 9.6302 36.9863 9.6302Z" fill="#353950"/>
<path d="M62.3183 16.0548C61.8947 16.0548 61.5435 15.7031 61.5435 15.279V10.4585C61.5435 10.0343 61.8947 9.68262 62.3183 9.68262C62.7419 9.68262 63.0932 10.0343 63.0932 10.4585V15.279C63.0932 15.7031 62.7419 16.0548 62.3183 16.0548Z" fill="#353950"/>
<path d="M64.726 13.644H59.9116C59.488 13.644 59.1367 13.2922 59.1367 12.8681C59.1367 12.444 59.488 12.0923 59.9116 12.0923H64.726C65.1496 12.0923 65.5008 12.444 65.5008 12.8681C65.5008 13.2922 65.1496 13.644 64.726 13.644Z" fill="#353950"/>
<path d="M60.9346 81.9998C59.8911 81.9998 59.0439 81.1515 59.0439 80.1067V64.1762C59.0439 63.1315 59.8911 62.2832 60.9346 62.2832C61.978 62.2832 62.8252 63.1315 62.8252 64.1762V80.1067C62.8252 81.1515 61.978 81.9998 60.9346 81.9998Z" fill="#353950"/>
<path d="M68.8898 74.0253H52.9795C51.936 74.0253 51.0889 73.1771 51.0889 72.1323C51.0889 71.0875 51.936 70.2393 52.9795 70.2393H68.8898C69.9332 70.2393 70.7804 71.0875 70.7804 72.1323C70.7804 73.1771 69.9332 74.0253 68.8898 74.0253Z" fill="#353950"/>
<path d="M36.9139 71.3251C34.3104 71.3251 32.1821 69.2045 32.1821 66.5874C32.1821 63.9702 34.3001 61.8496 36.9139 61.8496C39.5277 61.8496 41.6456 63.9702 41.6456 66.5874C41.6456 69.2045 39.5277 71.3251 36.9139 71.3251ZM36.9139 63.9185C35.4468 63.9185 34.2484 65.1185 34.2484 66.5874C34.2484 68.0563 35.4468 69.2562 36.9139 69.2562C38.3809 69.2562 39.5794 68.0563 39.5794 66.5874C39.5794 65.1185 38.3809 63.9185 36.9139 63.9185Z" fill="#353950"/>
</svg>
