<svg width="91" height="90" viewBox="0 0 91 90" fill="none" xmlns="http://www.w3.org/2000/svg">
<g clip-path="url(#clip0_2311_5913)">
<path d="M45.5003 90C70.5108 90 90.7858 69.8528 90.7858 45C90.7858 20.1472 70.5108 0 45.5003 0C20.4898 0 0.214844 20.1472 0.214844 45C0.214844 69.8528 20.4898 90 45.5003 90Z" fill="#00ABB3"/>
<path d="M87.2937 75.0194H3.70625C2.39535 75.0194 1.33472 73.9655 1.33472 72.6628V16.5905C1.33472 15.2878 2.39535 14.2339 3.70625 14.2339H87.2937C88.6046 14.2339 89.6653 15.2878 89.6653 16.5905V72.6628C89.6653 73.9655 88.6046 75.0194 87.2937 75.0194Z" fill="white"/>
<path d="M82.9439 62.0644C83.1227 62.0644 83.2538 61.9223 83.2538 61.7565V27.5091C83.2538 27.3315 83.1108 27.2012 82.9439 27.2012C79.5237 27.2012 76.7231 24.5249 76.5682 21.1499C76.5682 20.9841 76.4252 20.8657 76.2584 20.8657H14.4079C14.2411 20.8657 14.11 20.996 14.0981 21.1499C13.955 24.4184 11.3094 27.0473 8.02027 27.1894C7.85343 27.1894 7.73425 27.3315 7.73425 27.4973V61.7684C7.73425 61.9341 7.86534 62.0644 8.02027 62.0762C11.3094 62.2183 13.955 64.8473 14.0981 68.1157C14.0981 68.2815 14.2411 68.3999 14.4079 68.3999H76.2703C76.4371 68.3999 76.5682 68.2697 76.5801 68.1157C76.735 64.7526 79.5237 62.0644 82.9558 62.0644H82.9439Z" fill="white"/>
<path d="M66.2833 84.7776L63.8403 80.7987C63.7926 80.7158 63.6854 80.6684 63.59 80.6803L59.1807 81.379C58.9781 81.4145 58.8231 81.2013 58.9185 81.0237L65.4968 67.3105L73.3145 71.0171L66.7243 84.7421C66.6409 84.9198 66.3906 84.9316 66.2833 84.7658V84.7776Z" fill="white"/>
<path d="M76.7235 84.7776L79.1666 80.7987C79.2143 80.7158 79.3215 80.6684 79.4168 80.6803L83.8262 81.379C84.0288 81.4145 84.1837 81.2013 84.0884 81.0237L77.5101 67.3105L69.6924 71.0171L76.2826 84.7421C76.366 84.9198 76.6163 84.9316 76.7235 84.7658V84.7776Z" fill="white"/>
<path d="M73.4817 51.4182C74.1491 51.8919 74.9714 52.105 75.7817 52.034C77.2356 51.9037 78.6061 52.6853 79.2139 53.9998C79.5595 54.7458 80.1554 55.3379 80.8942 55.6695C82.217 56.2735 83.0155 57.6353 82.8725 59.08C82.801 59.8971 83.0155 60.7024 83.4922 61.3656C84.3383 62.5379 84.3383 64.1248 83.4922 65.2971C83.0155 65.9603 82.801 66.7774 82.8725 67.5827C83.0036 69.0274 82.217 70.3892 80.8942 70.9932C80.1434 71.3366 79.5476 71.9287 79.2139 72.6629C78.6061 73.9774 77.2356 74.7708 75.7817 74.6287C74.9595 74.5577 74.1491 74.7708 73.4817 75.2445C72.3019 76.0853 70.705 76.0853 69.5252 75.2445C68.8578 74.7708 68.0355 74.5577 67.2252 74.6287C65.7713 74.759 64.4008 73.9774 63.793 72.6629C63.4474 71.9169 62.8515 71.3248 62.1127 70.9932C60.7899 70.3892 59.9914 69.0274 60.1344 67.5827C60.2059 66.7656 59.9914 65.9603 59.5147 65.2971C58.6686 64.1248 58.6686 62.5379 59.5147 61.3656C59.9914 60.7024 60.2059 59.8853 60.1344 59.08C60.0033 57.6353 60.7899 56.2735 62.1127 55.6695C62.8635 55.3261 63.4593 54.734 63.793 53.9998C64.4008 52.6853 65.7713 51.8919 67.2252 52.034C68.0475 52.105 68.8578 51.8919 69.5252 51.4182C70.705 50.5774 72.3019 50.5774 73.4817 51.4182Z" fill="white"/>
<path d="M67.0941 74.6525C67.0941 74.6525 67.1775 74.6525 67.2252 74.6525C67.3205 74.6525 67.4159 74.6406 67.5112 74.6406C67.3801 74.6406 67.2371 74.6406 67.106 74.6643L67.0941 74.6525Z" fill="#EA2828"/>
<path d="M67.4993 52.046C67.4039 52.046 67.3086 52.046 67.2132 52.0342C67.2132 52.0342 67.1298 52.0342 67.0822 52.0342C67.2132 52.046 67.3562 52.0579 67.4873 52.0579L67.4993 52.046Z" fill="#EA2828"/>
<path d="M83.5037 61.3656C83.027 60.7024 82.8125 59.8853 82.884 59.08C83.0151 57.6353 82.2285 56.2735 80.9057 55.6695C80.1549 55.3261 79.5591 54.734 79.2254 53.9998C78.6176 52.6853 77.2471 51.8919 75.7932 52.034C74.9709 52.105 74.1606 51.8919 73.4932 51.4182C72.3134 50.5774 70.7165 50.5774 69.5367 51.4182C69.06 51.7616 68.4999 51.9629 67.9279 52.0221C69.3341 51.9392 70.645 52.7208 71.2289 53.9998C71.5745 54.7458 72.1704 55.3379 72.9093 55.6695C74.2321 56.2735 75.0305 57.6353 74.8875 59.08C74.816 59.8971 75.0305 60.7024 75.5072 61.3656C76.3533 62.5379 76.3533 64.1248 75.5072 65.2971C75.0305 65.9603 74.816 66.7774 74.8875 67.5827C75.0186 69.0274 74.2321 70.3892 72.9093 70.9932C72.1585 71.3366 71.5626 71.9287 71.2289 72.6629C70.645 73.9419 69.3222 74.7116 67.9279 74.6406C68.4999 74.6998 69.06 74.9129 69.5367 75.2445C70.7165 76.0853 72.3134 76.0853 73.4932 75.2445C74.1606 74.7708 74.9829 74.5577 75.7932 74.6287C77.2471 74.759 78.6176 73.9774 79.2254 72.6629C79.571 71.9169 80.1669 71.3248 80.9057 70.9932C82.2285 70.3892 83.027 69.0274 82.884 67.5827C82.8125 66.7656 83.027 65.9603 83.5037 65.2971C84.3498 64.1129 84.3498 62.5379 83.5037 61.3656Z" fill="white"/>
<path d="M71.408 70.2588C75.2517 70.2588 78.3677 67.1625 78.3677 63.343C78.3677 59.5236 75.2517 56.4272 71.408 56.4272C67.5643 56.4272 64.4484 59.5236 64.4484 63.343C64.4484 67.1625 67.5643 70.2588 71.408 70.2588Z" fill="white"/>
<path d="M71.4084 56.4275C69.7638 56.4275 68.2503 56.9959 67.0586 57.9433C68.6436 59.2104 69.6685 61.1525 69.6685 63.3314C69.6685 65.5104 68.6555 67.4525 67.0586 68.7196C68.2503 69.667 69.7638 70.2354 71.4084 70.2354C75.2457 70.2354 78.3681 67.1446 78.3681 63.3196C78.3681 59.4946 75.2576 56.4038 71.4084 56.4038V56.4275Z" fill="white"/>
<path d="M71.4077 28.5864H19.5916C18.8527 28.5864 18.2568 29.1785 18.2568 29.9127C18.2568 30.647 18.8527 31.2391 19.5916 31.2391H71.4077C72.1466 31.2391 72.7424 30.647 72.7424 29.9127C72.7424 29.1785 72.1466 28.5864 71.4077 28.5864Z" fill="#353950"/>
<path d="M71.4077 43.0103H19.5916C18.8527 43.0103 18.2568 43.6024 18.2568 44.3366C18.2568 45.0708 18.8527 45.6629 19.5916 45.6629H71.4077C72.1466 45.6629 72.7424 45.0708 72.7424 44.3366C72.7424 43.6024 72.1466 43.0103 71.4077 43.0103Z" fill="#353950"/>
<path d="M54.4141 52.3774H36.574C35.8351 52.3774 35.2393 52.9695 35.2393 53.7038C35.2393 54.438 35.8351 55.0301 36.574 55.0301H54.4141C55.153 55.0301 55.7488 54.438 55.7488 53.7038C55.7488 52.9695 55.153 52.3774 54.4141 52.3774Z" fill="#353950"/>
<path d="M71.4081 35.7632H32.7605C32.0216 35.7632 31.4258 36.3553 31.4258 37.0895C31.4258 37.8237 32.0216 38.4158 32.7605 38.4158H71.4081C72.147 38.4158 72.7428 37.8237 72.7428 37.0895C72.7428 36.3553 72.147 35.7632 71.4081 35.7632Z" fill="#353950"/>
<path d="M19.5916 38.4158H26.5512C27.2901 38.4158 27.886 37.8237 27.886 37.0895C27.886 36.3553 27.2901 35.7632 26.5512 35.7632H19.5916C18.8527 35.7632 18.2568 36.3553 18.2568 37.0895C18.2568 37.8237 18.8527 38.4158 19.5916 38.4158Z" fill="#353950"/>
<path d="M82.9558 25.8746C80.2506 25.8746 78.034 23.7785 77.9149 21.0904C77.8791 20.2141 77.1522 19.5391 76.2703 19.5391H14.4079C13.526 19.5391 12.811 20.2259 12.7633 21.0904C12.6442 23.6483 10.5348 25.7562 7.96069 25.8627C7.07882 25.8983 6.39954 26.6206 6.39954 27.497V61.768C6.39954 62.6443 7.09074 63.3549 7.96069 63.4022C10.5348 63.5206 12.6561 65.6167 12.7633 68.1746C12.7991 69.0509 13.526 69.7259 14.4079 69.7259H53.7825C54.5213 69.7259 55.1172 69.1338 55.1172 68.3996C55.1172 67.6654 54.5213 67.0733 53.7825 67.0733H15.3255C14.7774 63.8759 12.2747 61.4009 9.05708 60.8443V28.397C12.2747 27.8522 14.7654 25.3654 15.3255 22.168H75.3527C75.9247 25.4601 78.5941 28.0062 81.931 28.4443V50.9562C81.931 51.6904 82.5268 52.2825 83.2657 52.2825C84.0046 52.2825 84.6004 51.6904 84.6004 50.9562V27.497C84.6004 27.0588 84.4217 26.6443 84.1118 26.3364C83.802 26.0285 83.3849 25.8627 82.9558 25.8627V25.8746Z" fill="#353950"/>
<path d="M87.2937 12.9196H3.70626C1.66841 12.9196 0 14.5656 0 16.6025V72.6748C0 74.6998 1.6565 76.3577 3.70626 76.3577H59.6934L57.7152 80.4906C57.4649 81.0235 57.5245 81.6393 57.882 82.113C58.2395 82.5866 58.8235 82.8117 59.4074 82.7288L63.1018 82.1367L65.1634 85.4998C65.4495 85.9735 65.9619 86.2577 66.522 86.2577C66.5458 86.2577 66.5816 86.2577 66.6054 86.2577C67.1894 86.234 67.7018 85.8906 67.9521 85.3577L71.5272 77.909L75.1024 85.3577C75.3527 85.8788 75.8651 86.2222 76.4491 86.2577C76.4729 86.2577 76.5087 86.2577 76.5325 86.2577C77.0807 86.2577 77.5931 85.9735 77.891 85.4998L79.9527 82.1367L83.6471 82.7288C84.231 82.8235 84.815 82.5866 85.1725 82.113C85.53 81.6393 85.5896 81.0235 85.3274 80.4906L83.3491 76.3577H87.3295C89.3673 76.3577 91.0358 74.7117 91.0358 72.6748V16.5906C91.0358 14.5656 89.3793 12.9077 87.3295 12.9077L87.2937 12.9196ZM66.379 82.3972L64.9847 80.1235C64.651 79.5788 64.0194 79.2827 63.3759 79.3893L61.0043 79.7682L63.495 74.5695C64.4842 75.5643 65.8785 76.109 67.3324 75.9669C67.8329 75.9196 68.3334 76.0498 68.7386 76.3459C68.8697 76.4406 69.0127 76.5235 69.1557 76.6064L66.3671 82.409L66.379 82.3972ZM71.8252 74.534C71.8252 74.534 71.8252 74.534 71.8133 74.534C71.6107 74.5696 71.4081 74.5696 71.2055 74.534C71.2055 74.534 71.2055 74.534 71.1936 74.534C70.8837 74.4867 70.5739 74.3682 70.3117 74.1788C69.5013 73.6103 68.536 73.3024 67.5588 73.3024C67.4158 73.3024 67.2609 73.3024 67.1059 73.3261C66.2241 73.409 65.378 72.9235 65.0204 72.1301C64.8536 71.7748 64.651 71.4432 64.4007 71.1472C64.4007 71.1353 64.3769 71.1235 64.365 71.0998C64.3531 71.088 64.3411 71.0643 64.3292 71.0524C64.3173 71.0288 64.2935 71.0169 64.2816 71.0051C63.8406 70.4959 63.2924 70.0932 62.6727 69.809C61.8624 69.4419 61.3857 68.613 61.4691 67.7367C61.5764 66.6117 61.2665 65.4748 60.6111 64.5511C60.0986 63.8288 60.0986 62.8696 60.6111 62.1472C61.2665 61.2235 61.5764 60.0985 61.4691 58.9617C61.3857 58.0853 61.8743 57.2446 62.6727 56.8893C63.7095 56.4156 64.5437 55.5867 65.0204 54.5564C65.3899 53.7511 66.236 53.2775 67.1059 53.3603C68.2381 53.4669 69.3821 53.159 70.3117 52.5077C71.0386 51.9985 72.0039 51.9985 72.7309 52.5077C73.6604 53.159 74.7926 53.4669 75.9366 53.3603C76.8185 53.2775 77.6646 53.763 78.0221 54.5564C78.4988 55.5867 79.333 56.4156 80.3698 56.8893C81.1802 57.2564 81.6569 58.0853 81.5735 58.9617C81.4662 60.0867 81.7761 61.2235 82.4315 62.1472C82.944 62.8696 82.944 63.8288 82.4315 64.5511C81.7761 65.4748 81.4662 66.5998 81.5735 67.7367C81.6569 68.613 81.1683 69.4538 80.3698 69.809C79.7501 70.0932 79.2019 70.4959 78.761 71.0051C78.7372 71.0288 78.7253 71.0406 78.7133 71.0643C78.7133 71.0761 78.6895 71.088 78.6776 71.1117C78.6657 71.1235 78.6537 71.1472 78.6418 71.159C78.4035 71.4551 78.189 71.7867 78.0341 72.1419C77.6646 72.9472 76.8304 73.4209 75.9485 73.338C74.8164 73.2314 73.6723 73.5393 72.7428 74.1906C72.4687 74.3801 72.1708 74.4985 71.849 74.5459L71.8252 74.534ZM79.631 79.3774C78.9874 79.2709 78.3677 79.5669 78.0221 80.1117L76.6278 82.3853L73.8392 76.5827C73.9822 76.4998 74.1252 76.4169 74.2563 76.3222C74.6615 76.038 75.162 75.8959 75.6625 75.9432C77.1164 76.0853 78.5227 75.5406 79.4999 74.5459L81.9906 79.7445L79.619 79.3656L79.631 79.3774ZM88.3305 72.663C88.3305 73.2314 87.8658 73.6932 87.2937 73.6932H82.0382L81.347 72.2603C81.347 72.2603 81.4185 72.2248 81.4543 72.2011C83.2896 71.3603 84.3979 69.4656 84.2072 67.4643C84.1595 66.9669 84.2906 66.4696 84.5885 66.0669C85.7564 64.4327 85.7564 62.2301 84.5885 60.5959C84.3025 60.1932 84.1714 59.6959 84.2072 59.1985C84.3979 57.1972 83.2896 55.2906 81.4543 54.4617C81.0014 54.2603 80.632 53.8932 80.4294 53.4432C79.5833 51.6196 77.6765 50.5182 75.6625 50.7077C75.162 50.7551 74.6615 50.6248 74.2563 50.3288C72.6117 49.1682 70.3951 49.1682 68.7505 50.3288C68.3453 50.613 67.8448 50.7551 67.3443 50.7077C65.3303 50.5182 63.4116 51.6196 62.5774 53.4432C62.3748 53.8932 62.0054 54.2603 61.5525 54.4617C59.7173 55.3025 58.609 57.1972 58.7996 59.1985C58.8473 59.6959 58.7162 60.1932 58.4183 60.5959C57.2504 62.2301 57.2504 64.4327 58.4183 66.0669C58.7043 66.4696 58.8473 66.9669 58.7996 67.4643C58.609 69.4656 59.7173 71.3722 61.5525 72.2011C61.5883 72.213 61.624 72.2367 61.6598 72.2603L60.9686 73.6932H3.70626C3.13423 73.6932 2.66946 73.2314 2.66946 72.663V16.5906C2.66946 16.0222 3.13423 15.5603 3.70626 15.5603H87.2937C87.8658 15.5603 88.3305 16.0222 88.3305 16.5906V72.663Z" fill="#353950"/>
<path d="M79.6909 63.3431C79.6909 58.8075 75.9728 55.1128 71.4085 55.1128C66.8441 55.1128 63.126 58.8075 63.126 63.3431C63.126 67.8786 66.8441 71.5733 71.4085 71.5733C75.9728 71.5733 79.6909 67.8786 79.6909 63.3431ZM71.4085 68.9207C68.31 68.9207 65.7835 66.4102 65.7835 63.3312C65.7835 60.2523 68.31 57.7417 71.4085 57.7417C74.5069 57.7417 77.0334 60.2523 77.0334 63.3312C77.0334 66.4102 74.5069 68.9207 71.4085 68.9207Z" fill="#353950"/>
</g>
<defs>
<clipPath id="clip0_2311_5913">
<rect width="91" height="90" fill="white"/>
</clipPath>
</defs>
</svg>
