<svg width="94" height="82" viewBox="0 0 94 82" fill="none" xmlns="http://www.w3.org/2000/svg">
<path d="M43.7261 82C66.3698 82 84.7261 63.6437 84.7261 41C84.7261 18.3563 66.3698 0 43.7261 0C21.0824 0 2.72607 18.3563 2.72607 41C2.72607 63.6437 21.0824 82 43.7261 82Z" fill="#00ABB3"/>
<path d="M48.1255 46.6514C48.1255 48.1474 47.3276 49.5214 46.0311 50.2639L36.2576 55.9041C34.9611 56.6466 33.3765 56.6466 32.08 55.9041L22.3065 50.2528C21.01 49.5103 20.2233 48.1252 20.2233 46.6404V35.3598C20.2233 33.8639 21.0211 32.4898 22.3176 31.7474L32.0911 26.1071C33.3876 25.3647 34.9722 25.3647 36.2687 26.1071L46.0422 31.7585C47.3387 32.5009 48.1255 33.886 48.1255 35.3709V46.6514ZM54.7852 26.7055L36.2687 16.0012C34.9722 15.2587 33.3876 15.2587 32.0911 16.0012L13.5636 26.6833C12.2671 27.4258 11.4692 28.8109 11.4692 30.2958V51.6822C11.4692 53.1782 12.256 54.5522 13.5525 55.2947L32.069 65.999C33.3655 66.7414 34.95 66.7414 36.2465 65.999L54.7741 55.3168C56.0706 54.5744 56.8684 53.1893 56.8684 51.7044V30.3179C56.8684 28.822 56.0817 27.4479 54.7852 26.7055Z" fill="white"/>
<path d="M34.1626 67.9265C33.1986 67.9265 32.2456 67.6827 31.3924 67.1841L12.8759 56.4797C11.1694 55.4935 10.1167 53.654 10.1167 51.6816V30.2951C10.1167 28.3227 11.1805 26.4832 12.887 25.497L31.4145 14.8149C33.121 13.8286 35.2486 13.8286 36.9551 14.8149L55.4716 25.5192C57.178 26.5054 58.2418 28.3449 58.2307 30.3173V51.7038C58.2307 53.6762 57.167 55.5157 55.4494 56.5019L36.9218 67.1841C36.0686 67.6716 35.1156 67.9265 34.1516 67.9265H34.1626ZM34.1848 16.8095C33.6972 16.8095 33.2097 16.9313 32.7775 17.1862L14.2499 27.8684C13.3856 28.367 12.8426 29.2978 12.8426 30.2951V51.6816C12.8426 52.6789 13.3745 53.6208 14.2389 54.1195L32.7553 64.8238C33.6197 65.3224 34.6945 65.3224 35.5589 64.8238L54.0864 54.1416C54.9508 53.643 55.4937 52.7122 55.4937 51.7149V30.3284C55.4937 29.3311 54.9618 28.3892 54.0975 27.8905L35.581 17.1862C35.1489 16.9313 34.6613 16.8095 34.1737 16.8095H34.1848ZM34.1737 57.8205C33.2208 57.8205 32.2567 57.5768 31.4035 57.0781L21.6299 51.4268C19.9235 50.4405 18.8597 48.6011 18.8597 46.6286V35.3481C18.8597 33.3757 19.9235 31.5362 21.6299 30.55L31.4035 24.9097C33.1099 23.9235 35.2375 23.9235 36.944 24.9097L46.7175 30.5611C48.424 31.5473 49.4878 33.3868 49.4878 35.3592V46.6397C49.4878 48.6122 48.424 50.4516 46.7175 51.4378L36.944 57.0781C36.0908 57.5657 35.1378 57.8205 34.1737 57.8205ZM34.1848 26.9043C33.6972 26.9043 33.2097 27.0262 32.7775 27.2811L23.004 32.9213C22.1397 33.42 21.5967 34.3508 21.5967 35.3481V46.6286C21.5967 47.6259 22.1286 48.5678 23.004 49.0665L32.7775 54.7178C33.6418 55.2165 34.7167 55.2165 35.581 54.7178L45.3545 49.0776C46.2189 48.5789 46.7618 47.6481 46.7618 46.6508V35.3703C46.7618 34.373 46.2299 33.4311 45.3656 32.9324L35.5921 27.2811C35.1599 27.0262 34.6724 26.9043 34.1848 26.9043Z" fill="#353950"/>
<path d="M66.9851 16.1556H23.1262C22.3726 16.1556 21.7632 15.5462 21.7632 14.7927C21.7632 14.0391 22.3726 13.4297 23.1262 13.4297H66.9851C67.7386 13.4297 68.348 14.0391 68.348 14.7927C68.348 15.5462 67.7386 16.1556 66.9851 16.1556Z" fill="#353950"/>
<path d="M17.6632 16.1556H1.36297C0.60946 16.1556 0 15.5462 0 14.7927C0 14.0391 0.60946 13.4297 1.36297 13.4297H17.6632C18.4168 13.4297 19.0262 14.0391 19.0262 14.7927C19.0262 15.5462 18.4168 16.1556 17.6632 16.1556Z" fill="#353950"/>
<path d="M66.9848 68.5697H52.2248C51.4713 68.5697 50.8618 67.9602 50.8618 67.2067C50.8618 66.4532 51.4713 65.8438 52.2248 65.8438H66.9848C67.7383 65.8438 68.3478 66.4532 68.3478 67.2067C68.3478 67.9602 67.7383 68.5697 66.9848 68.5697Z" fill="#353950"/>
<path d="M46.7622 68.5697H1.36297C0.60946 68.5697 0 67.9602 0 67.2067C0 66.4532 0.60946 65.8438 1.36297 65.8438H46.7622C47.5157 65.8438 48.1251 66.4532 48.1251 67.2067C48.1251 67.9602 47.5157 68.5697 46.7622 68.5697Z" fill="#353950"/>
<path d="M56.8791 76.9135C56.1256 76.9135 55.5161 76.304 55.5161 75.5505V6.44891C55.5161 5.6954 56.1256 5.08594 56.8791 5.08594C57.6326 5.08594 58.2421 5.6954 58.2421 6.44891V75.5395C58.2421 76.293 57.6326 76.9024 56.8791 76.9024V76.9135Z" fill="#353950"/>
<path d="M11.4797 76.9135C10.7262 76.9135 10.1167 76.304 10.1167 75.5505V6.44891C10.1167 5.6954 10.7262 5.08594 11.4797 5.08594C12.2332 5.08594 12.8426 5.6954 12.8426 6.44891V75.5395C12.8426 76.293 12.2332 76.9024 11.4797 76.9024V76.9135Z" fill="#353950"/>
<path d="M89.7014 17.4743C92.5714 20.3443 92.5714 25.0094 89.7014 27.8794L87.5184 30.0624L77.1133 19.6572L79.2963 17.4743C82.1663 14.6043 86.8314 14.6043 89.7014 17.4743Z" fill="white"/>
<path d="M87.5074 31.4368C87.1417 31.4368 86.7982 31.2927 86.5433 31.0379L76.1382 20.6327C75.6063 20.1008 75.6063 19.2365 76.1382 18.7046L78.3212 16.5216C81.723 13.1197 87.2636 13.1197 90.6655 16.5216C94.0674 19.9235 94.0674 25.4641 90.6655 28.866L88.4825 31.0489C88.2276 31.3038 87.8841 31.4478 87.5185 31.4478L87.5074 31.4368ZM79.0303 19.6687L87.5074 28.1457L88.7263 26.9268C91.0644 24.5887 91.0644 20.7878 88.7263 18.4497C86.3882 16.1116 82.5874 16.1116 80.2493 18.4497L79.0303 19.6687Z" fill="#353950"/>
<path d="M73.7113 23.0596L49.8094 46.9615L45.3659 59.4277C44.834 60.9125 46.2635 62.342 47.7484 61.8101L60.2146 57.3666L84.1165 33.4647L73.7113 23.0596Z" fill="white"/>
<path d="M49.7983 46.9616C54.0202 46.2081 55.76 47.9368 55.0064 52.1697C59.2283 51.4162 60.9681 53.1449 60.2146 57.3778L84.1165 33.4759L73.7113 23.0708L49.8094 46.9727L49.7983 46.9616Z" fill="white"/>
<path d="M46.906 55.0947L45.3547 59.4385C44.8228 60.9234 46.2523 62.3528 47.7371 61.8209L52.0809 60.2696L46.906 55.0947Z" fill="white"/>
<path d="M52.0813 61.6327C51.7267 61.6327 51.3832 61.4998 51.1172 61.2338L45.9424 56.059C45.4105 55.5271 45.4105 54.6627 45.9424 54.1309C46.4743 53.599 47.3386 53.599 47.8705 54.1309L53.0453 59.3057C53.5772 59.8376 53.5772 60.7019 53.0453 61.2338C52.7794 61.4998 52.4248 61.6327 52.0813 61.6327Z" fill="#353950"/>
<path d="M55.0065 53.5327C54.6519 53.5327 54.3084 53.3997 54.0425 53.1338C53.5106 52.6019 53.5106 51.7376 54.0425 51.2057L68.5587 36.6894C69.0906 36.1576 69.9549 36.1576 70.4868 36.6894C71.0187 37.2213 71.0187 38.0857 70.4868 38.6176L55.9706 53.1338C55.7046 53.3997 55.35 53.5327 55.0065 53.5327Z" fill="#353950"/>
<path d="M73.9772 34.5618C73.6226 34.5618 73.2791 34.4288 73.0132 34.1629C72.4813 33.631 72.4813 32.7667 73.0132 32.2348L77.9443 27.3037C78.4761 26.7718 79.3405 26.7718 79.8724 27.3037C80.4043 27.8356 80.4043 28.6999 79.8724 29.2318L74.9413 34.1629C74.6753 34.4288 74.3207 34.5618 73.9772 34.5618Z" fill="#353950"/>
<path d="M60.2145 58.7408C60.137 58.7408 60.0483 58.7408 59.9707 58.7187C59.2283 58.5857 58.7297 57.8765 58.8626 57.1341C59.1508 55.5162 59.0289 54.397 58.508 53.8762C57.9872 53.3554 56.857 53.2335 55.2502 53.5216C54.807 53.5992 54.3637 53.4552 54.0424 53.1449C53.721 52.8346 53.588 52.3803 53.6656 51.937C53.9537 50.3192 53.8318 49.2 53.311 48.6792C52.7902 48.1584 51.6599 48.0365 50.0421 48.3246C49.2997 48.4576 48.5905 47.9589 48.4575 47.2165C48.3245 46.4741 48.8232 45.7649 49.5656 45.6319C52.1364 45.1776 54.0424 45.5433 55.2391 46.74C56.1478 47.6487 56.5799 48.9562 56.5356 50.6406C58.2199 50.5962 59.5386 51.0395 60.4362 51.937C61.6329 53.1338 62.0097 55.0398 61.5553 57.6106C61.4335 58.2754 60.8572 58.7408 60.2145 58.7408Z" fill="#353950"/>
<path d="M89.136 28.5331L78.6422 18.0393C77.2681 16.6653 75.0408 16.6653 73.6668 18.0393C72.2927 19.4134 72.2927 21.6407 73.6668 23.0258L84.1605 33.5196C85.5346 34.8937 87.7619 34.8937 89.136 33.5196C90.51 32.1455 90.51 29.9182 89.136 28.5442" fill="white"/>
<path d="M86.6432 35.9026C85.3911 35.9026 84.1389 35.4261 83.1859 34.4731L72.6922 23.9793C70.7862 22.0734 70.7862 18.9707 72.6922 17.0647C74.5981 15.1588 77.7008 15.1588 79.6067 17.0647L90.1005 27.5585C91.0203 28.4782 91.53 29.7082 91.53 31.0158C91.53 32.3234 91.0203 33.5534 90.1005 34.4731C89.1476 35.4261 87.8954 35.9026 86.6432 35.9026ZM76.1605 18.3723C75.6065 18.3723 75.0524 18.5828 74.6313 19.0039C73.7892 19.8461 73.7892 21.209 74.6313 22.0512L85.1251 32.545C85.9673 33.3871 87.3303 33.3871 88.1724 32.545C88.5824 32.135 88.804 31.592 88.804 31.0158C88.804 30.4396 88.5824 29.8966 88.1724 29.4866L77.6786 18.9928C77.2576 18.5717 76.7035 18.3612 76.1495 18.3612L76.1605 18.3723Z" fill="#353950"/>
<path d="M47.1057 63.2952C46.2635 63.2952 45.4546 62.9627 44.834 62.3422C43.9475 61.4557 43.6484 60.1592 44.0694 58.9735L48.513 46.5073C48.5794 46.3189 48.6902 46.1416 48.8343 45.9976L72.7362 22.0957C73.2681 21.5638 74.1324 21.5638 74.6643 22.0957L85.0694 32.5008C85.6013 33.0327 85.6013 33.897 85.0694 34.4289L61.1675 58.3308C61.0235 58.4749 60.8462 58.5857 60.6578 58.6522L48.1916 63.0957C47.8259 63.2287 47.4602 63.2841 47.0946 63.2841L47.1057 63.2952ZM50.984 47.7152L46.6402 59.8933C46.5516 60.1481 46.6735 60.3365 46.7621 60.4141C46.8508 60.5027 47.0281 60.6246 47.283 60.536L59.4611 56.1922L82.1884 33.476L73.7113 24.9989L50.984 47.7262V47.7152Z" fill="#353950"/>
</svg>
