<svg width="91" height="85" viewBox="0 0 91 85" fill="none" xmlns="http://www.w3.org/2000/svg">
<ellipse cx="42.4633" cy="42.4635" rx="42.4633" ry="42.4635" fill="#00ABB3"/>
<path d="M48.5947 65.9448H38.7126L37.8976 72.8584C37.8041 73.6717 37.5504 74.4333 37.1699 75.1118H50.1374C49.7569 74.4333 49.5032 73.6717 49.4081 72.8569L48.5931 65.9448H48.5947Z" fill="white"/>
<path d="M74.143 21.1948C72.2499 21.1948 70.7104 22.7164 70.7104 24.5874C70.7104 26.4584 72.2499 27.9799 74.143 27.9799C76.036 27.9799 77.5771 26.4584 77.5771 24.5874C77.5771 22.7164 76.0106 21.2262 74.143 21.1948Z" fill="white"/>
<path d="M12.9888 61.661C12.9888 62.2047 13.5564 62.8112 14.3142 62.8112H71.3764C72.1359 62.8112 72.7019 62.2032 72.7019 61.661V57.9707H12.9888V61.661Z" fill="white"/>
<path d="M72.7019 41.8836L71.5889 41.8162C69.5674 41.788 67.8853 40.1145 67.8853 38.1024V36.5715C67.8853 36.0544 67.2178 35.6814 66.7723 35.9369L65.431 36.7031C63.6584 37.7154 61.3183 37.0917 60.2957 35.3414L57.7954 31.0635C56.7601 29.2912 57.3753 27.0159 59.1684 25.9895L60.5129 25.2233C60.9441 24.9772 60.9441 24.1984 60.5129 23.9524L59.1732 23.1877C57.5972 22.2867 56.8901 20.3295 57.5354 18.6544H44.8295C44.8153 18.6544 44.8026 18.6528 44.7899 18.6528H30.6333C30.6191 18.6528 30.6064 18.6544 30.5937 18.6544H14.3142C13.5469 18.6544 12.9888 19.2734 12.9888 20.1242V54.8349H72.7019V41.8821V41.8836ZM53.345 39.1523C54.0632 38.6822 55.0652 38.8718 55.5441 39.5848C56.0197 40.2947 55.8263 41.285 55.1065 41.7583C54.3867 42.2315 53.3878 42.0325 52.9074 41.3242C52.4302 40.6159 52.6252 39.624 53.345 39.1523ZM41.2274 22.8916C41.8615 22.2945 42.8651 22.3196 43.4692 22.9464L47.9767 27.627C48.5585 28.2319 48.5585 29.1831 47.9767 29.7879L43.4692 34.4686C42.8731 35.0875 41.8536 35.1126 41.2274 34.5234C40.5932 33.9264 40.5678 32.9345 41.1719 32.3077L44.6393 28.7067L41.1719 25.1057C40.5678 24.4789 40.5932 23.487 41.2274 22.89V22.8916ZM29.2413 32.5662L35.0758 23.205C35.5356 22.4685 36.5122 22.2381 37.2574 22.6926C38.0025 23.147 38.2356 24.1123 37.7758 24.8488L31.9413 34.21C31.4879 34.9371 30.4954 35.1706 29.7597 34.7224C29.0146 34.268 28.7815 33.3027 29.2413 32.5662ZM18.855 27.627L23.3624 22.9464C23.9665 22.3196 24.9701 22.2945 25.6043 22.8916C26.2384 23.4886 26.2638 24.4805 25.6598 25.1073L22.1924 28.7083L25.6598 32.3092C26.2638 32.936 26.2384 33.928 25.6043 34.525C24.978 35.1142 23.9586 35.0891 23.3624 34.4701L18.855 29.7895C18.2731 29.1846 18.2731 28.2335 18.855 27.6286V27.627ZM20.0028 38.8875H47.1237C47.9989 38.8875 48.7091 39.5895 48.7091 40.4545C48.7091 41.3195 47.9989 42.0215 47.1237 42.0215H20.0028C19.1277 42.0215 18.4174 41.3195 18.4174 40.4545C18.4174 39.5895 19.1277 38.8875 20.0028 38.8875ZM39.4009 49.974H20.0028C19.1277 49.974 18.4174 49.272 18.4174 48.407C18.4174 47.5421 19.1277 46.84 20.0028 46.84H39.4009C40.2761 46.84 40.9864 47.5421 40.9864 48.407C40.9864 49.272 40.2761 49.974 39.4009 49.974ZM61.4515 49.974H47.9069C47.0317 49.974 46.3214 49.272 46.3214 48.407C46.3214 47.5421 47.0317 46.84 47.9069 46.84H61.4515C62.3266 46.84 63.0369 47.5421 63.0369 48.407C63.0369 49.272 62.3266 49.974 61.4515 49.974Z" fill="white"/>
<path d="M87.7451 19.6795L85.2448 15.3985C85.0847 15.1227 84.7216 15.0271 84.4426 15.1869L83.0997 15.9516C80.5661 17.398 77.2303 15.4941 77.2303 12.6029V11.072C77.2303 10.7523 76.9671 10.4922 76.6437 10.4922H71.6432C71.3197 10.4922 71.0565 10.7523 71.0565 11.072V12.6029C71.0565 15.4941 67.7192 17.398 65.1872 15.9516L63.8459 15.1869C63.5668 15.0287 63.2054 15.1227 63.0436 15.3985L60.5434 19.6795C60.3801 19.9584 60.491 20.3063 60.759 20.4724L62.0987 21.2371C64.6117 22.6678 64.6069 26.5038 62.0987 27.936L60.7558 28.7023C60.4768 28.8621 60.3801 29.2179 60.5418 29.4952L63.0421 33.7747C63.2022 34.0489 63.5668 34.1445 63.8427 33.9878L65.184 33.2215C67.7176 31.7752 71.055 33.6791 71.055 36.5718V38.1027C71.055 38.4193 71.3213 38.6841 71.6416 38.6841H76.6421C76.9655 38.6841 77.2287 38.424 77.2287 38.1043V36.5734C77.2287 33.6822 80.5661 31.7783 83.0981 33.2247L84.441 33.9909C84.72 34.1508 85.0815 34.0521 85.2416 33.7778L87.7419 29.4983C87.9036 29.221 87.8069 28.8668 87.5263 28.7054L86.1866 27.9407C83.6768 26.5069 83.68 22.6694 86.1866 21.2402L87.5247 20.4756C87.8053 20.3157 87.902 19.96 87.7403 19.6826L87.7451 19.6795ZM74.1434 31.1139C70.5016 31.1139 67.54 28.1852 67.54 24.5874C67.54 20.9895 70.5016 18.0608 74.1434 18.0608C77.744 18.0608 80.7485 21.0287 80.7485 24.5874C80.7485 28.146 77.7852 31.1139 74.1434 31.1139Z" fill="white"/>
<path d="M23.3608 34.4686C23.957 35.0876 24.9764 35.1126 25.6027 34.5234C26.2369 33.9264 26.2622 32.9345 25.6582 32.3077L22.1908 28.7067L25.6582 25.1058C26.2622 24.479 26.2369 23.487 25.6027 22.89C24.9685 22.293 23.9649 22.3181 23.3608 22.9449L18.8534 27.6255C18.2715 28.2304 18.2715 29.1815 18.8534 29.7864L23.3608 34.467V34.4686Z" fill="#353950"/>
<path d="M44.6403 28.7071L41.1729 32.3081C40.5689 32.9349 40.5942 33.9268 41.2284 34.5238C41.8547 35.113 42.8741 35.0879 43.4703 34.469L47.9777 29.7883C48.5596 29.1835 48.5596 28.2323 47.9777 27.6274L43.4703 22.9468C42.8662 22.32 41.8626 22.2949 41.2284 22.892C40.5942 23.489 40.5689 24.4809 41.1729 25.1077L44.6403 28.7087V28.7071Z" fill="#353950"/>
<path d="M29.7597 34.723C30.4954 35.1712 31.4879 34.9377 31.9413 34.2106L37.7758 24.8493C38.2356 24.1128 38.0025 23.1476 37.2574 22.6931C36.5122 22.2387 35.5356 22.469 35.0758 23.2055L29.2413 32.5668C28.7815 33.3033 29.0146 34.2686 29.7597 34.723Z" fill="#353950"/>
<path d="M20.0024 42.0222H47.1233C47.9985 42.0222 48.7088 41.3202 48.7088 40.4552C48.7088 39.5902 47.9985 38.8882 47.1233 38.8882H20.0024C19.1273 38.8882 18.417 39.5902 18.417 40.4552C18.417 41.3202 19.1273 42.0222 20.0024 42.0222Z" fill="#353950"/>
<path d="M39.4005 46.8403H20.0024C19.1273 46.8403 18.417 47.5423 18.417 48.4073C18.417 49.2723 19.1273 49.9743 20.0024 49.9743H39.4005C40.2757 49.9743 40.986 49.2723 40.986 48.4073C40.986 47.5423 40.2757 46.8403 39.4005 46.8403Z" fill="#353950"/>
<path d="M61.4513 46.8403H47.9067C47.0316 46.8403 46.3213 47.5423 46.3213 48.4073C46.3213 49.2723 47.0316 49.9743 47.9067 49.9743H61.4513C62.3265 49.9743 63.0368 49.2723 63.0368 48.4073C63.0368 47.5423 62.3265 46.8403 61.4513 46.8403Z" fill="#353950"/>
<path d="M55.1066 41.7587C55.828 41.2855 56.0198 40.2951 55.5442 39.5853C55.0654 38.8723 54.0634 38.6827 53.3452 39.1528C52.6254 39.6245 52.4304 40.6164 52.9076 41.3247C53.388 42.0329 54.3868 42.232 55.1066 41.7587Z" fill="#353950"/>
<path d="M89.1151 25.9884L87.7753 25.2237C87.3441 24.9777 87.3425 24.1989 87.7753 23.9528L89.1151 23.1881C90.9098 22.1633 91.5265 19.888 90.4912 18.1142L87.991 13.8331C86.9699 12.0844 84.6298 11.4623 82.8572 12.4746L81.516 13.2393C81.0689 13.4947 80.403 13.1217 80.403 12.6046V11.0737C80.403 9.02559 78.7176 7.35986 76.6454 7.35986H71.6449C69.5727 7.35986 67.8874 9.02559 67.8874 11.0737V12.6046C67.8874 13.1233 67.2199 13.4947 66.7744 13.2393L65.4331 12.4746C63.6605 11.4623 61.3204 12.0844 60.2993 13.8331L59.3132 15.5208H48.6003C48.586 15.5208 48.5733 15.5192 48.5606 15.5192H21.4366C21.4239 15.5192 21.4096 15.5208 21.397 15.5208H14.3147C11.7938 15.5208 9.81836 17.5438 9.81836 20.1262V61.6612C9.81836 63.9835 11.8779 65.9453 14.3147 65.9453H35.5218L34.7497 72.5001C34.5785 73.9872 33.3085 75.1076 31.7944 75.1076H31.7912C31.7706 75.106 31.7484 75.1076 31.7262 75.1076C31.7135 75.1076 29.914 75.1107 29.914 75.1107C29.0389 75.1107 28.3286 75.8127 28.3286 76.6777C28.3286 77.5427 29.0389 78.2447 29.914 78.2447H57.3995C58.2747 78.2447 58.985 77.5427 58.985 76.6777C58.985 75.8127 58.2747 75.1107 57.3995 75.1107C57.3995 75.1107 55.6 75.1076 55.5874 75.1076C55.5668 75.1076 55.5446 75.1076 55.5239 75.1076C55.5224 75.1076 55.5208 75.1076 55.5176 75.1076C54.0035 75.1076 52.7335 73.9872 52.5623 72.5001V72.497L51.7902 65.9453H71.3785C73.817 65.9453 75.8765 63.9835 75.8765 61.6612V41.8167H76.647C78.7192 41.8167 80.4045 40.1509 80.4045 38.1029V36.5719C80.4045 36.0548 81.0704 35.6818 81.5175 35.9373L82.8604 36.7035C84.633 37.7142 86.9731 37.0921 87.9941 35.3434L90.4944 31.0639C91.5297 29.29 90.913 27.0148 89.1182 25.9899L89.1151 25.9884ZM12.9893 20.1262C12.9893 19.2738 13.5474 18.6564 14.3147 18.6564H30.5926C30.6069 18.6564 30.6196 18.6548 30.6323 18.6548H44.7888C44.8031 18.6548 44.8158 18.6564 44.8284 18.6564H57.5343C56.889 20.3299 57.5961 22.2887 59.1721 23.1897L60.5118 23.9544C60.943 24.2004 60.943 24.9792 60.5118 25.2252L59.1673 25.9915C57.3742 27.0179 56.7574 29.2932 57.7943 31.0655L60.2946 35.3434C61.3156 37.0937 63.6574 37.7158 65.4299 36.7051L66.7712 35.9388C67.2167 35.6834 67.8842 36.0564 67.8842 36.5735V38.1044C67.8842 40.1165 69.5664 41.79 71.5878 41.8182L72.7008 41.8856V54.8384H12.9893V20.1262ZM37.1723 75.1123C37.5528 74.4338 37.8065 73.6722 37.9 72.8589L38.7149 65.9453H48.5971L49.412 72.8574C49.5056 73.6722 49.7608 74.4338 50.1413 75.1123H37.1739H37.1723ZM72.7024 61.6612C72.7024 62.2049 72.1348 62.8113 71.3769 62.8113H14.3147C13.5553 62.8113 12.9893 62.2033 12.9893 61.6612V57.9709H72.7024V61.6612ZM87.7452 29.4953L85.2449 33.7748C85.0848 34.049 84.7233 34.1477 84.4443 33.9879L83.1014 33.2217C80.5694 31.7769 77.232 33.6792 77.232 36.5703V38.1013C77.232 38.421 76.9689 38.6811 76.6454 38.6811H71.6449C71.3246 38.6811 71.0583 38.4163 71.0583 38.0997V36.5688C71.0583 33.6761 67.7209 31.7737 65.1873 33.2185L63.846 33.9848C63.5701 34.1415 63.2055 34.0459 63.0454 33.7717L60.5451 29.4922C60.3834 29.2148 60.4801 28.8591 60.7591 28.6993L62.102 27.933C64.6102 26.5008 64.615 22.6648 62.102 21.2341L60.7623 20.4694C60.4944 20.3033 60.3834 19.9554 60.5467 19.6765L63.047 15.3954C63.2087 15.1197 63.5702 15.0241 63.8492 15.1839L65.1905 15.9486C67.7225 17.3949 71.0599 15.491 71.0599 12.5999V11.069C71.0599 10.7493 71.323 10.4892 71.6465 10.4892H76.647C76.9704 10.4892 77.2336 10.7493 77.2336 11.069V12.5999C77.2336 15.491 80.5694 17.3949 83.103 15.9486L84.4459 15.1839C84.7233 15.0241 85.0864 15.1212 85.2481 15.3954L87.7484 19.6765C87.9101 19.9539 87.8134 20.308 87.5328 20.4694L86.1946 21.2341C83.6864 22.6616 83.6833 26.5008 86.1946 27.9346L87.5343 28.6993C87.815 28.8591 87.9117 29.2148 87.75 29.4922L87.7452 29.4953Z" fill="#353950"/>
<path d="M74.1435 18.0601C70.5017 18.0601 67.54 20.9888 67.54 24.5866C67.54 28.1845 70.5033 31.1132 74.1435 31.1132C77.7837 31.1132 80.7485 28.1845 80.7485 24.5866C80.7485 20.9888 77.744 18.0601 74.1435 18.0601ZM74.1435 27.9792C72.2504 27.9792 70.711 26.4576 70.711 24.5866C70.711 22.7156 72.2504 21.1941 74.1435 21.1941C76.0111 21.2254 77.5776 22.7188 77.5776 24.5866C77.5776 26.4545 76.0365 27.9792 74.1435 27.9792Z" fill="#353950"/>
</svg>
