<svg width="86" height="84" viewBox="0 0 86 84" fill="none" xmlns="http://www.w3.org/2000/svg">
<path d="M42 84C65.196 84 84 65.196 84 42C84 18.804 65.196 0 42 0C18.804 0 0 18.804 0 42C0 65.196 18.804 84 42 84Z" fill="#00ABB3"/>
<path d="M77.5527 15.9041V20.0927L48.0733 23.0668L4.00732 20.0927V15.9041C4.00732 15.4614 4.37057 15.0981 4.81327 15.0981H76.7468C77.1895 15.0981 77.5527 15.4614 77.5527 15.9041Z" fill="white"/>
<path d="M77.5527 20.0928V60.969C77.5527 61.4117 77.1895 61.7749 76.7468 61.7749H4.81327C4.37057 61.7749 4.00732 61.4117 4.00732 60.969V20.0928H77.5527Z" fill="white"/>
<path d="M49.4698 68.0517L44.3276 69.902L32.4995 68.0517L34.2249 61.7744H47.7444L49.4698 68.0517Z" fill="white"/>
<path d="M56.3938 72.8762H29.5138L25.4954 72.7173C25.2343 72.7173 25.0073 72.5016 25.0073 72.2292V72.1157C25.0073 69.7773 27.1641 68.2676 29.5025 68.2676L33.5322 68.0405H52.6365C54.9749 68.0405 56.8706 69.9362 56.8706 72.2746V72.3881C56.8706 72.6492 56.6549 72.8762 56.3825 72.8762H56.3938Z" fill="white"/>
<path d="M26.6075 37.2329H11.4989C11.2378 37.2329 11.0107 37.0172 11.0107 36.7448V28.0496C11.0107 27.7885 11.2264 27.5615 11.4989 27.5615H26.4259C26.687 27.5615 26.9026 27.7772 26.914 28.0383L27.0956 36.7334C27.0956 37.0058 26.8799 37.2215 26.6075 37.2215V37.2329Z" fill="#00ABB3"/>
<path d="M67.1551 46.8472L82.9902 62.6823C84.3297 64.0218 84.3183 66.1899 82.9902 67.5293C82.0367 68.131 81.4124 68.1196 80.5383 68.1196C79.6643 68.1196 78.7902 67.7904 78.1205 67.1207L62.9097 51.2855L67.1664 46.8472H67.1551Z" fill="#00ABB3"/>
<path d="M67.1097 43.8164L71.4232 48.1299C71.7978 48.5045 71.7978 49.1175 71.4232 49.4921L68.1881 52.7272L65.0437 55.4856C64.6692 55.8602 64.0562 55.8602 63.6816 55.4856L59.6519 51.2856L67.121 43.8164H67.1097Z" fill="white"/>
<path d="M71.8429 32.2839C71.8429 38.3568 69.5954 43.9076 65.8835 48.1417C65.8835 48.1417 64.8278 49.0498 64.317 49.5379C59.9808 53.6925 54.2143 55.6903 47.7327 55.6903C34.4289 55.6903 24.3716 45.5876 24.3716 32.2839C24.3716 25.5866 26.4489 19.5817 30.8532 15.2228C31.2278 14.8482 31.9429 14.0876 31.9429 14.0876C36.177 10.4212 41.6937 8.19629 47.7327 8.19629C61.0364 8.19629 71.8316 18.9801 71.8316 32.2952L71.8429 32.2839Z" fill="white"/>
<path d="M10.9313 52.9995C10.2615 52.9995 9.72803 53.5444 9.72803 54.2028C9.72803 54.8611 10.2729 55.406 10.9313 55.406H21.4767C22.1464 55.406 22.6799 54.8611 22.6799 54.2028C22.6799 53.5444 22.1351 52.9995 21.4767 52.9995H10.9313Z" fill="#353950"/>
<path d="M83.8415 61.8308L78.7561 56.7454V15.9146C78.7561 14.8022 77.8593 13.9054 76.7469 13.9054H65.1345C60.5599 9.52381 54.135 6.9584 47.7442 6.98111C41.0242 6.98111 34.9058 9.61462 30.3766 13.9054H19.1501C18.4804 13.9054 17.9469 14.4503 17.9469 15.1087C17.9469 15.7671 18.4918 16.3119 19.1501 16.3119H28.1404C27.4707 17.1292 26.8577 17.9919 26.2901 18.8887H5.22204V16.3119H13.5085C14.1783 16.3119 14.7118 15.7671 14.7118 15.1087C14.7118 14.4503 14.1669 13.9054 13.5085 13.9054H4.81339C3.70096 13.9054 2.8042 14.8022 2.8042 15.9146V60.9681C2.8042 62.0806 3.70096 62.9773 4.81339 62.9773H21.1707C21.8404 62.9773 22.3739 62.4438 22.3739 61.7741C22.3739 61.1043 21.8291 60.5708 21.1707 60.5708H5.22204V21.3065H24.9507C24.1788 22.9071 23.5658 24.6098 23.1458 26.3806H11.0226C10.3528 26.3806 9.81933 26.9254 9.81933 27.5838V37.2438C9.81933 37.9135 10.3642 38.4471 11.0226 38.4471H23.2026C23.4864 39.5822 23.8496 40.6833 24.281 41.7503H10.9431C10.2734 41.7503 9.73987 42.2952 9.73987 42.9535C9.73987 43.6119 10.2847 44.1568 10.9431 44.1568H25.4161C26.0177 45.2806 26.6988 46.3589 27.4593 47.3806H10.9545C10.2847 47.3806 9.75123 47.9254 9.75123 48.5838C9.75123 49.2422 10.2961 49.7871 10.9545 49.7871H29.5026C34.1112 54.5887 40.5928 57.5854 47.7669 57.5854C52.1939 57.5854 56.4734 56.4389 60.2534 54.2935L62.6712 56.7114C63.1253 57.1654 63.7155 57.3925 64.3058 57.3925C64.8393 57.3925 65.3615 57.2108 65.7928 56.8476L69.5161 60.5708H26.801C26.1312 60.5708 25.5977 61.1043 25.5977 61.7741C25.5977 62.4438 26.1426 62.9773 26.801 62.9773H32.068L31.0123 66.8368H28.9237C25.9269 66.8368 23.4864 69.2773 23.4864 72.2741V72.8643C23.4864 73.5341 24.0312 74.0676 24.6896 74.0676H56.8707C57.1885 74.0676 57.495 73.9427 57.722 73.7157C57.9491 73.4887 58.0739 73.1822 58.0739 72.8643V72.2741C58.0739 69.2773 55.6334 66.8368 52.6366 66.8368H50.548L49.4923 62.9773H71.8885L77.2918 68.3806C78.1658 69.2546 79.335 69.7314 80.561 69.7314C81.7869 69.7314 82.9561 69.2546 83.8301 68.3806C85.635 66.5757 85.635 63.6357 83.8301 61.8308H83.8415ZM55.6107 71.6725H25.961C26.2447 70.2876 27.4707 69.2546 28.9237 69.2546H52.6366C54.1009 69.2546 55.3155 70.2989 55.5993 71.6725H55.6107ZM48.0507 66.8481H33.5096L34.5653 62.9887H46.9837L48.0393 66.8481H48.0507ZM76.3496 18.8887H69.2096C68.6534 17.9919 68.0404 17.1292 67.3707 16.3119H76.3496V18.8887ZM12.2145 36.0292V28.7871H22.6804C22.5215 29.9335 22.442 31.1027 22.442 32.2833C22.442 33.5546 22.5328 34.8033 22.7145 36.0292H12.2145ZM24.8485 32.2833C24.8485 19.6606 35.1215 9.38759 47.7442 9.38759C59.1069 9.38759 68.6193 17.5265 70.3674 28.7303C70.4696 29.3887 71.0826 29.8427 71.741 29.7406C72.3993 29.6384 72.8534 29.0254 72.7512 28.3671C72.3653 25.9038 71.6161 23.5314 70.5491 21.3065H76.3496V54.3389L72.3085 50.2979C72.6604 49.8779 72.8534 49.3671 72.8534 48.8108C72.8534 48.1979 72.615 47.6076 72.1723 47.1762L69.7545 44.7584C71.582 41.546 72.6831 37.9476 72.9669 34.2016C73.0123 33.5319 72.5242 32.953 71.8545 32.9076C71.1847 32.8622 70.6058 33.3503 70.5604 34.02C69.6637 45.8822 59.6404 55.1676 47.7328 55.1676C35.1101 55.1676 24.8372 44.8946 24.8372 32.2719L24.8485 32.2833ZM62.3193 52.9768C63.2501 52.3184 64.1469 51.5919 64.9982 50.8087C66.2923 49.6054 67.4388 48.2773 68.4491 46.8584L70.4128 48.8222L64.2945 54.9406L62.3307 52.9768H62.3193ZM82.1388 66.6779C81.7188 67.0979 81.1626 67.3249 80.5723 67.3249C79.982 67.3249 79.4258 67.0979 79.0058 66.6779L67.4842 55.1562L70.6172 52.0233L82.1388 63.5449C83.0015 64.4076 83.0015 65.8152 82.1388 66.6779Z" fill="#353950"/>
<path d="M47.7441 11.7949C36.4495 11.7949 27.2549 20.9895 27.2549 32.2841C27.2549 38.8111 30.4106 44.9976 35.6889 48.8457C36.2225 49.243 36.983 49.1182 37.3803 48.5846C37.7776 48.0511 37.6527 47.2906 37.1192 46.8933C32.4652 43.4992 29.6841 38.0392 29.6841 32.2841C29.6841 22.3176 37.7889 14.2128 47.7554 14.2128C57.7219 14.2128 65.8268 22.3176 65.8268 32.2841C65.8268 42.2506 57.7219 50.3555 47.7554 50.3555C45.7008 50.3555 43.6916 50.0149 41.7733 49.3452C41.1489 49.1295 40.4565 49.4587 40.2295 50.083C40.0138 50.7074 40.343 51.3998 40.9673 51.6268C43.1468 52.3874 45.4284 52.7733 47.7441 52.7733C59.0387 52.7733 68.2333 43.5787 68.2333 32.2841C68.2333 20.9895 59.0387 11.7949 47.7441 11.7949Z" fill="#353950"/>
<path d="M48.3226 29.1619C48.9923 29.1619 49.5259 28.617 49.5259 27.9586C49.5259 27.3002 48.981 26.7554 48.3226 26.7554H44.6788C44.0091 26.7554 43.4756 27.3002 43.4756 27.9586V36.6083C43.4756 37.2781 44.0205 37.8116 44.6788 37.8116H48.3226C48.9923 37.8116 49.5259 37.2667 49.5259 36.6083C49.5259 35.95 48.981 35.4051 48.3226 35.4051H45.8821V33.4981H48.0502C48.7199 33.4981 49.2534 32.9532 49.2534 32.2948C49.2534 31.6365 48.7086 31.0916 48.0502 31.0916H45.8821V29.1846H48.3226V29.1619Z" fill="#353950"/>
<path d="M36.7554 35.4388C35.9154 35.4388 35.1208 35.0983 34.61 34.5421C34.1673 34.054 33.3954 34.0086 32.9073 34.4626C32.4192 34.9167 32.3738 35.6772 32.8278 36.1653C33.804 37.2437 35.2343 37.8567 36.7667 37.8567C38.6624 37.8567 40.2516 36.6421 40.5581 34.9734C40.7851 33.7134 40.2176 32.0675 37.9473 31.2275C37.2208 30.9664 36.0176 30.5237 35.5635 30.274C35.4386 30.2059 35.3819 30.081 35.4046 29.8994C35.4273 29.661 35.6089 29.3432 36.0403 29.2183C37.2094 28.8664 38.2992 29.7291 38.3332 29.7518C38.844 30.1718 39.6046 30.1037 40.0246 29.6042C40.4559 29.0934 40.3878 28.3329 39.877 27.9015C39.7976 27.8334 37.777 26.1761 35.3365 26.914C34.0424 27.2999 33.123 28.3783 32.9867 29.661C32.8732 30.8075 33.4067 31.8632 34.3943 32.3967C34.8938 32.6805 36.0289 33.1118 37.0959 33.4978C37.3684 33.5999 38.2651 33.9745 38.163 34.5534C38.0835 34.9961 37.5386 35.4502 36.7554 35.4502V35.4388Z" fill="#353950"/>
<path d="M63.3521 32.284C63.3521 29.2077 60.8548 26.7104 57.7786 26.7104C54.7024 26.7104 52.2051 29.2077 52.2051 32.284C52.2051 35.3602 54.7024 37.8575 57.7786 37.8575C60.8548 37.8575 63.3521 35.3602 63.3521 32.284ZM54.6229 32.284C54.6229 30.5472 56.0418 29.1283 57.7786 29.1283C59.5153 29.1283 60.9343 30.5472 60.9343 32.284C60.9343 34.0207 59.5153 35.4396 57.7786 35.4396C56.0418 35.4396 54.6229 34.0207 54.6229 32.284Z" fill="#353950"/>
</svg>
