<svg width="84" height="84" viewBox="0 0 84 84" fill="none" xmlns="http://www.w3.org/2000/svg">
<path d="M42 84C65.196 84 84 65.196 84 42C84 18.804 65.196 0 42 0C18.804 0 0 18.804 0 42C0 65.196 18.804 84 42 84Z" fill="#00ABB3"/>
<path d="M71.1955 25.4946H12.8042C10.7042 25.4946 9.00146 27.1973 9.00146 29.2973V76.2692H75.0096V29.3087C75.0096 27.2087 73.3069 25.4946 71.1955 25.4946Z" fill="white"/>
<path d="M68.6642 69.9239H15.3469C13.9393 69.9239 12.8042 68.7887 12.8042 67.3812V31.8401C12.8042 30.4325 13.9393 29.2974 15.3469 29.2974H68.6642C70.0718 29.2974 71.2069 30.4325 71.2069 31.8401V67.3812C71.2069 68.7887 70.0718 69.9239 68.6642 69.9239Z" fill="white"/>
<path d="M34.3829 31.8403L27.6856 39.6614C27.0953 40.3538 26.7661 41.2279 26.7661 42.136V45.8025L38.1856 39.4571L34.3715 31.8403H34.3829Z" fill="#00ABB3"/>
<path d="M49.6162 31.8403L56.3135 39.6614C56.9037 40.3538 57.2329 41.2279 57.2329 42.136V45.8025L45.8135 39.4571L49.6275 31.8403H49.6162Z" fill="#00ABB3"/>
<path d="M2.64453 73.7378V76.2805C2.64453 77.6881 3.77967 78.8232 5.18723 78.8232H78.8121C80.2197 78.8232 81.3548 77.6881 81.3548 76.2805V73.7378H2.64453Z" fill="white"/>
<path d="M42.9193 6.12941C42.4312 5.60725 41.5798 5.60725 41.0917 6.12941C36.1766 11.4305 33.123 18.7067 33.123 26.7662C33.123 32.8959 34.8939 38.5716 37.9133 43.271H46.1203C49.1285 38.5716 50.9106 32.8959 50.9106 26.7662C50.9106 18.7067 47.8571 11.4305 42.942 6.12941H42.9193Z" fill="white"/>
<path d="M47.0735 48.3451H36.9141L37.8903 43.271H46.0973L47.0735 48.3451Z" fill="white"/>
<path d="M41.9995 29.2978C44.0997 29.2978 45.8022 27.5953 45.8022 25.4951C45.8022 23.3949 44.0997 21.6924 41.9995 21.6924C39.8993 21.6924 38.1968 23.3949 38.1968 25.4951C38.1968 27.5953 39.8993 29.2978 41.9995 29.2978Z" fill="white"/>
<path d="M35.2905 15.3467H48.7192C47.3457 11.8846 45.3592 8.76293 42.9186 6.12941C42.4305 5.60725 41.5792 5.60725 41.0911 6.12941C38.6505 8.76293 36.6754 11.8846 35.2905 15.3467Z" fill="white"/>
<path d="M59.776 62.3074C58.7544 62.3074 57.7781 62.489 56.87 62.8069C56.0187 60.3096 53.6803 58.5047 50.8879 58.5047C49.3327 58.5047 47.9252 59.0836 46.8241 60.0144C46.9717 59.5377 47.0738 59.0382 47.0738 58.5047C47.0738 55.7009 44.8036 53.4307 41.9998 53.4307C39.196 53.4307 36.9257 55.7009 36.9257 58.5047C36.9257 59.0382 37.0279 59.5377 37.1754 60.0144C36.0744 59.0836 34.6668 58.5047 33.1117 58.5047C30.3306 58.5047 27.9809 60.3096 27.1295 62.8069C26.2214 62.489 25.2452 62.3074 24.2236 62.3074C19.3198 62.3074 15.3354 66.2804 15.3354 71.1955C15.3354 72.0809 15.4717 72.9323 15.71 73.7382H68.2782C68.5165 72.9323 68.6527 72.0809 68.6527 71.1955C68.6527 66.2917 64.6798 62.3074 59.7646 62.3074H59.776Z" fill="white"/>
<path d="M41.9996 21.692C40.2742 21.692 38.8439 22.8385 38.3672 24.405C38.7191 24.3028 39.0823 24.2234 39.4569 24.2234C41.5569 24.2234 43.2596 25.9261 43.2596 28.0261C43.2596 28.412 43.1915 28.7753 43.078 29.1158C44.6445 28.639 45.791 27.2088 45.791 25.4834C45.791 23.3834 44.0883 21.6807 41.9769 21.6807L41.9996 21.692Z" fill="white"/>
<path d="M81.3548 72.546H76.1899V29.3087C76.1899 26.5503 73.9537 24.3141 71.1953 24.3141H55.9618C55.3035 24.3141 54.7699 24.8476 54.7699 25.506C54.7699 26.1644 55.3035 26.6979 55.9618 26.6979H71.1953C72.637 26.6979 73.8175 27.8784 73.8175 29.32V72.5687H69.7537C69.8105 72.1146 69.8445 71.6719 69.8445 71.2179C69.8445 65.6671 65.3267 61.1492 59.7759 61.1492C59.0267 61.1492 58.2889 61.24 57.551 61.399C56.2683 58.9244 53.7143 57.3352 50.8878 57.3352C49.9683 57.3352 49.0716 57.5054 48.2316 57.8346C47.891 54.7017 45.2234 52.2611 41.9997 52.2611C38.7759 52.2611 36.1197 54.7017 35.7678 57.8346C34.9278 57.5054 34.031 57.3352 33.1116 57.3352C30.2851 57.3352 27.731 58.9244 26.4483 61.399C25.7105 61.2287 24.9726 61.1492 24.2234 61.1492C18.6726 61.1492 14.1548 65.6671 14.1548 71.2179C14.1548 71.6719 14.1889 72.126 14.2456 72.5687H10.1818V29.3087C10.1818 27.8671 11.3624 26.6865 12.804 26.6865H28.0375C28.6959 26.6865 29.2294 26.153 29.2294 25.4946C29.2294 24.8362 28.6959 24.3027 28.0375 24.3027H12.804C10.0456 24.3027 7.80939 26.539 7.80939 29.2973V72.546H2.64453C1.98615 72.546 1.45264 73.0795 1.45264 73.7379V76.2806C1.45264 78.3352 3.12129 80.0038 5.17588 80.0038H78.8007C80.8553 80.0038 82.524 78.3352 82.524 76.2806V73.7379C82.524 73.0795 81.9905 72.546 81.3321 72.546H81.3548ZM80.1629 76.2806C80.1629 77.0298 79.5613 77.6314 78.8121 77.6314H5.18723C4.43804 77.6314 3.83642 77.0298 3.83642 76.2806V74.9298H19.1494C19.8078 74.9298 20.3413 74.3962 20.3413 73.7379C20.3413 73.0795 19.8078 72.546 19.1494 72.546H16.6521C16.5726 72.1033 16.5272 71.6492 16.5272 71.1952C16.5272 66.9498 19.978 63.499 24.2234 63.499C25.0634 63.499 25.9148 63.6465 26.7434 63.9303C27.0386 64.0325 27.3678 64.0098 27.6516 63.8735C27.9353 63.7373 28.151 63.4876 28.2532 63.1925C28.9683 61.1038 30.9207 59.6963 33.1116 59.6963C34.3148 59.6963 35.4499 60.1162 36.4148 60.9222C36.8234 61.2627 37.4024 61.2968 37.8337 61.0017C38.2651 60.7065 38.4694 60.1617 38.3105 59.6622C38.1743 59.2308 38.1062 58.8563 38.1062 58.5044C38.1062 56.359 39.8543 54.6108 41.9997 54.6108C44.1451 54.6108 45.8932 56.359 45.8932 58.5044C45.8932 58.8563 45.8251 59.2195 45.6889 59.6622C45.5299 60.1617 45.7229 60.7179 46.1656 61.0017C46.6083 61.2968 47.1872 61.2627 47.5845 60.9222C48.538 60.1162 49.6845 59.6963 50.8878 59.6963C53.0786 59.6963 55.031 61.1038 55.7462 63.1925C55.8483 63.4876 56.064 63.7373 56.3478 63.8735C56.6316 64.0098 56.9607 64.0325 57.2559 63.9303C58.0845 63.6465 58.9245 63.499 59.7759 63.499C64.0213 63.499 67.4721 66.9498 67.4721 71.1952C67.4721 71.6492 67.4267 72.1033 67.3472 72.546H24.2234C23.5651 72.546 23.0316 73.0795 23.0316 73.7379C23.0316 74.3962 23.5651 74.9298 24.2234 74.9298H80.1629V76.2806Z" fill="#353950"/>
<path d="M26.7321 38.9122C25.9829 39.809 25.5742 40.9441 25.5742 42.1133V45.8139C25.5742 46.2339 25.8012 46.6312 26.1645 46.8355C26.3461 46.949 26.5618 46.9944 26.7661 46.9944C26.9704 46.9944 27.1634 46.949 27.345 46.8355L35.8018 42.0679C36.1196 42.6582 36.4602 43.2371 36.8234 43.8047L35.7564 48.0614C35.6656 48.4133 35.7564 48.7879 35.9721 49.0831C36.1877 49.3782 36.5396 49.5371 36.9029 49.5371H47.0623C47.4256 49.5371 47.7775 49.3668 47.9931 49.0831C48.2202 48.7993 48.2996 48.4133 48.2088 48.0614L47.1418 43.8047C47.505 43.2371 47.8456 42.6582 48.1634 42.0679L56.6202 46.8355C56.8018 46.9376 57.0061 46.9944 57.1991 46.9944C57.3921 46.9944 57.6077 46.9376 57.8007 46.8355C58.1639 46.6198 58.391 46.2339 58.391 45.8139V42.1133C58.391 40.9441 57.9823 39.809 57.2331 38.9122L51.5915 32.1468C51.8867 30.3874 52.0456 28.5825 52.0456 26.7663C52.0456 22.4301 51.2056 18.2528 49.5483 14.3252C47.9477 10.5339 45.6775 7.18521 42.8056 4.34738C42.3402 3.89332 41.6023 3.89332 41.1369 4.34738C38.2537 7.18521 35.9834 10.5452 34.3942 14.3252C32.7369 18.2528 31.8969 22.4414 31.8969 26.7663C31.8969 28.5825 32.0445 30.376 32.3396 32.1355L26.698 38.9122H26.7321ZM27.958 43.7706V42.102C27.958 41.489 28.1737 40.8987 28.571 40.422L33.0207 35.0755C33.4634 36.7441 34.0423 38.3674 34.7575 39.9339L27.9694 43.7706H27.958ZM38.4466 47.1647L39.1277 44.463H44.8942L45.5753 47.1647H38.458H38.4466ZM55.4396 40.4333C55.8369 40.8987 56.0526 41.5003 56.0526 42.1133V43.782L49.2645 39.9452C49.9683 38.3787 50.5472 36.7555 51.0012 35.0868L55.451 40.4333H55.4396ZM41.9996 6.89008C43.9975 9.03548 45.6434 11.4874 46.8921 14.1549H37.1072C38.3558 11.4874 40.0018 9.03548 41.9996 6.89008ZM36.1196 16.5274H47.8796C49.0715 19.7625 49.6958 23.236 49.6958 26.7663C49.6958 32.2263 48.2315 37.5047 45.4391 42.0793H38.5488C35.7677 37.5047 34.2921 32.2263 34.2921 26.7663C34.2921 23.236 34.9277 19.7625 36.1083 16.5274H36.1196Z" fill="#353950"/>
<path d="M46.9941 25.4946C46.9941 22.7362 44.7579 20.5 41.9995 20.5C39.2411 20.5 37.0049 22.7362 37.0049 25.4946C37.0049 28.253 39.2411 30.4892 41.9995 30.4892C44.7579 30.4892 46.9941 28.253 46.9941 25.4946ZM39.3773 25.4946C39.3773 24.053 40.5579 22.8724 41.9995 22.8724C43.4411 22.8724 44.6216 24.053 44.6216 25.4946C44.6216 26.9362 43.4411 28.1168 41.9995 28.1168C40.5579 28.1168 39.3773 26.9362 39.3773 25.4946Z" fill="#353950"/>
</svg>
