<svg width="85" height="73" viewBox="0 0 85 73" fill="none" xmlns="http://www.w3.org/2000/svg">
<path d="M40.8834 72.9377C61.0245 72.9377 77.3522 56.61 77.3522 36.4688C77.3522 16.3277 61.0245 0 40.8834 0C20.7422 0 4.41455 16.3277 4.41455 36.4688C4.41455 56.61 20.7422 72.9377 40.8834 72.9377Z" fill="#00ABB3"/>
<path d="M76.3543 35.4894L69.0221 22.6005C68.715 22.1878 68.2256 21.9575 67.7169 21.9575H1.22852V53.6086C1.22852 54.8946 2.2746 55.9407 3.5606 55.9407H80.9129C82.0645 55.9407 83.0051 55.0098 83.0051 53.8485V41.5163C83.0051 41.1516 82.8419 40.7965 82.554 40.5662L76.3543 35.4894Z" fill="white"/>
<path d="M75.001 51.9972C72.5249 49.5211 68.5134 49.5211 66.0373 51.9972C63.5613 54.4732 63.5613 58.4848 66.0373 60.9608C68.5134 63.4369 72.5249 63.4369 75.001 60.9608C77.477 58.4848 77.477 54.4732 75.001 51.9972Z" fill="white"/>
<path d="M70.5191 59.2234C69.7897 59.2234 69.0987 58.9355 68.5804 58.4172C67.5152 57.352 67.5152 55.6149 68.5804 54.54C69.0987 54.0218 69.7897 53.7339 70.5191 53.7339C71.2484 53.7339 71.9394 54.0218 72.4577 54.54C72.9759 55.0583 73.2638 55.7493 73.2638 56.4786C73.2638 57.208 72.9759 57.899 72.4577 58.4172C71.9394 58.9355 71.2484 59.2234 70.5191 59.2234Z" fill="#353950"/>
<path d="M82.9954 43.868H78.4656C77.6402 43.868 77.0356 44.6358 77.2179 45.4323L77.813 48.0043C77.9473 48.5802 78.4655 48.9928 79.0606 48.9928H82.9954V43.8584V43.868Z" fill="#EFEFEF"/>
<path d="M62.0451 21.9485C62.5153 21.9485 62.8608 21.4879 62.7265 21.0368L59.9241 11.6029C59.7514 11.0079 59.1947 10.5952 58.5709 10.5952H3.5606C2.2746 10.5952 1.22852 11.6413 1.22852 12.9273V53.6092C1.22852 54.8952 2.2746 55.9413 3.5606 55.9413H51.1044V23.1194C51.1044 22.4764 51.6227 21.9581 52.2657 21.9581H62.0451V21.9485Z" fill="white"/>
<path d="M55.2311 27.0537V36.6027C55.2311 36.7947 55.3846 36.9482 55.5766 36.9482H69.4059C70.452 36.9482 71.1142 35.8158 70.596 34.9041L66.0374 26.8905C65.9798 26.785 65.8646 26.7178 65.7399 26.7178H55.5766C55.3846 26.7178 55.2311 26.8713 55.2311 27.0633V27.0537Z" fill="#33D8DD"/>
<path d="M18.196 51.9972C15.72 49.5211 11.7084 49.5211 9.2324 51.9972C6.75636 54.4732 6.75636 58.4848 9.2324 60.9608C11.7084 63.4369 15.72 63.4369 18.196 60.9608C20.6721 58.4848 20.6721 54.4732 18.196 51.9972Z" fill="white"/>
<path d="M13.7142 59.2234C12.9849 59.2234 12.2939 58.9355 11.7756 58.4172C10.7104 57.352 10.7104 55.6149 11.7756 54.54C12.2939 54.0218 12.9849 53.7339 13.7142 53.7339C14.4436 53.7339 15.1346 54.0218 15.6529 54.54C16.1711 55.0583 16.459 55.7493 16.459 56.4786C16.459 57.208 16.1711 57.899 15.6529 58.4172C15.1346 58.9355 14.4436 59.2234 13.7142 59.2234Z" fill="#353950"/>
<path d="M83.3313 39.6067L77.3139 34.6738L70.0873 21.9865C70.0873 21.9865 70.0297 21.8905 70.0009 21.8522C69.4635 21.142 68.6094 20.7197 67.7168 20.7197H52.2752C50.9508 20.7197 49.8759 21.7946 49.8759 23.119V54.7029H21.0751C20.7584 53.3881 20.0962 52.1501 19.0694 51.1232C16.1135 48.1673 11.3149 48.1673 8.35904 51.1232C7.34175 52.1405 6.66996 53.3881 6.35325 54.7029H3.56051C2.95589 54.7029 2.46644 54.2134 2.46644 53.6088V12.9269C2.46644 12.3223 2.95589 11.8328 3.56051 11.8328H58.5804C58.6572 11.8328 58.7244 11.8808 58.7532 11.9576L60.1736 16.7561C60.3655 17.4087 61.0565 17.783 61.7091 17.5911C62.3617 17.3991 62.736 16.7081 62.544 16.0555L61.1237 11.2666C60.7974 10.1533 59.7513 9.37598 58.59 9.37598H3.56051C1.59311 9.37598 0 10.9691 0 12.9365V53.6184C0 55.5858 1.59311 57.1789 3.56051 57.1789H6.17091C6.32446 58.8872 7.05384 60.5475 8.34944 61.8431C9.82739 63.3211 11.766 64.06 13.7046 64.06C15.6432 64.06 17.5818 63.3211 19.0598 61.8431C20.365 60.5379 21.0847 58.8776 21.2383 57.1789H62.9759C63.1295 58.8872 63.8588 60.5475 65.1544 61.8431C66.6324 63.3211 68.571 64.06 70.5096 64.06C72.4482 64.06 74.3868 63.3211 75.8647 61.8431C77.17 60.5379 77.8897 58.8776 78.0433 57.1789H80.8936C82.7266 57.1789 84.2142 55.6914 84.2142 53.8583V41.5261C84.2142 40.7872 83.8879 40.0866 83.3121 39.6163L83.3313 39.6067ZM17.3227 60.0868C15.3265 62.083 12.0923 62.083 10.0961 60.0868C8.09992 58.0907 8.09992 54.8564 10.0961 52.8603C11.0654 51.891 12.3418 51.3631 13.7046 51.3631C15.0674 51.3631 16.3534 51.891 17.3131 52.8603C18.2824 53.8296 18.8102 55.106 18.8102 56.4688C18.8102 57.8315 18.2824 59.1175 17.3131 60.0772L17.3227 60.0868ZM74.1277 60.0868C72.1315 62.083 68.8973 62.083 66.9011 60.0868C64.9049 58.0907 64.9049 54.8564 66.9011 52.8603C67.8992 51.8622 69.2044 51.3631 70.5096 51.3631C71.8148 51.3631 73.1296 51.8622 74.1181 52.8603C76.1143 54.8564 76.1143 58.0907 74.1181 60.0868H74.1277ZM81.7669 47.7738H79.0702C79.0702 47.7738 79.0318 47.7546 79.0222 47.7354L78.4272 45.1634C78.4272 45.1634 78.4272 45.1442 78.4272 45.125C78.4464 45.1058 78.456 45.1058 78.4656 45.1058H81.7669V47.7738ZM81.7669 42.6298H78.4656C77.6978 42.6298 76.978 42.9753 76.4982 43.5799C76.0183 44.1845 75.8456 44.9619 76.0183 45.7104L76.6133 48.2825C76.882 49.4245 77.8801 50.2307 79.0606 50.2307H81.7669V53.8392C81.7669 54.3094 81.383 54.6933 80.9128 54.6933H77.8801C77.5634 53.3785 76.9012 52.1405 75.8743 51.1136C72.9184 48.1577 68.1199 48.1577 65.164 51.1136C64.1467 52.1309 63.4749 53.3785 63.1582 54.6933H52.3328V23.1861H67.7073C67.8128 23.1861 67.9184 23.2341 67.9952 23.3109L75.2793 36.1038C75.3561 36.2381 75.4521 36.3533 75.5672 36.4493L81.7669 41.5261V42.649V42.6298Z" fill="#353950"/>
<path d="M67.093 26.2765C66.8147 25.7871 66.2869 25.48 65.7302 25.48H55.567C54.7032 25.48 53.993 26.1902 53.993 27.0539V36.603C53.993 37.4667 54.7032 38.1769 55.567 38.1769H69.3963C70.3368 38.1769 71.1718 37.697 71.642 36.8813C72.1123 36.0751 72.1219 35.1058 71.6516 34.2901L67.093 26.2765ZM69.5115 35.6433C69.4731 35.7104 69.4155 35.7104 69.3963 35.7104H56.4595V27.9464H65.212L69.5211 35.5089C69.5211 35.5089 69.5595 35.5761 69.5211 35.6433H69.5115Z" fill="#353950"/>
</svg>
