<svg width="94" height="73" viewBox="0 0 94 73" fill="none" xmlns="http://www.w3.org/2000/svg">
<path d="M43.4637 73C63.6221 73 79.9637 56.6584 79.9637 36.5C79.9637 16.3416 63.6221 0 43.4637 0C23.3054 0 6.96375 16.3416 6.96375 36.5C6.96375 56.6584 23.3054 73 43.4637 73Z" fill="#00ABB3"/>
<path d="M18.4517 49.5532C14.5039 49.5532 11.2861 52.7422 11.2861 56.6707C11.2861 60.5993 14.5039 63.7882 18.4517 63.7882C22.3994 63.7882 25.6172 60.5993 25.6172 56.6707C25.6172 52.7422 22.3994 49.5532 18.4517 49.5532ZM18.4517 60.8586C16.1272 60.8586 14.2253 58.976 14.2253 56.6611C14.2253 54.3463 16.1176 52.4636 18.4517 52.4636C20.7857 52.4636 22.678 54.3463 22.678 56.6611C22.678 58.976 20.7857 60.8586 18.4517 60.8586Z" fill="white"/>
<path d="M64.6338 55.2018H58.8514C58.765 55.2018 58.6785 55.2018 58.6017 55.1826C58.5249 55.2018 58.4384 55.2018 58.352 55.2018H28.2587C28.3259 55.6821 28.3643 56.172 28.3643 56.6618C28.3643 57.1517 28.3259 57.6512 28.2587 58.1218H34.7806C34.7806 58.1218 34.8671 58.1218 34.9151 58.1218C34.9631 58.1218 35.0112 58.1218 35.0592 58.1218H68.4375C68.3703 57.6416 68.3318 57.1613 68.3318 56.6618C68.3318 56.1624 68.3703 55.6725 68.4375 55.2018H64.6338Z" fill="white"/>
<path d="M78.2445 49.5532C74.2967 49.5532 71.079 52.7422 71.079 56.6707C71.079 60.5993 74.2967 63.7882 78.2445 63.7882C82.1923 63.7882 85.41 60.5993 85.41 56.6707C85.41 52.7422 82.1923 49.5532 78.2445 49.5532ZM78.2445 60.8586C75.92 60.8586 74.0182 58.976 74.0182 56.6611C74.0182 54.3463 75.9104 52.4636 78.2445 52.4636C80.5786 52.4636 82.4708 54.3463 82.4708 56.6611C82.4708 58.976 80.5786 60.8586 78.2445 60.8586Z" fill="white"/>
<path d="M78.2445 55.2017C77.4281 55.2017 76.7749 55.8548 76.7749 56.6617C76.7749 57.4685 77.4377 58.1217 78.2445 58.1217C79.0513 58.1217 79.7141 57.4685 79.7141 56.6617C79.7141 55.8548 79.0513 55.2017 78.2445 55.2017Z" fill="white"/>
<path d="M59.687 35.5106H81.0011L73.8067 26.9331H59.6966V35.5106H59.687Z" fill="#00ABB3"/>
<path d="M18.4518 55.2017C17.6353 55.2017 16.9822 55.8548 16.9822 56.6617C16.9822 57.4685 17.6449 58.1217 18.4518 58.1217C19.2586 58.1217 19.9214 57.4685 19.9214 56.6617C19.9214 55.8548 19.2586 55.2017 18.4518 55.2017Z" fill="white"/>
<path d="M2.9679 55.2017C3.54421 56.9018 5.1579 58.1313 7.05013 58.1313H8.64461C8.57737 57.651 8.53895 57.1707 8.53895 56.6713C8.53895 56.1718 8.57737 55.6819 8.64461 55.2113H2.9679V55.2017Z" fill="white"/>
<path d="M35.4914 46.9508C35.4914 43.8867 32.9844 41.3893 29.8915 41.3893H22.9373C18.4036 41.3893 14.7056 37.7201 14.7056 33.2153V33.1864C14.7056 30.1224 12.1986 27.625 9.10575 27.625H2.74707V52.4738H9.48997C11.0748 49.1312 14.5039 46.8163 18.4613 46.8163C22.4186 46.8163 25.8381 49.1312 27.4326 52.4738H35.501V46.9508H35.4914Z" fill="white"/>
<path d="M85.41 48.1804V42.5229C85.41 41.7737 86.0247 41.1589 86.7835 41.1589H90.7025C90.3855 40.6691 89.9149 40.2849 89.3289 40.0928L83.7195 38.2389H58.3231C57.5643 38.2389 56.9496 37.6242 56.9496 36.875V25.5696C56.9496 24.8204 57.5643 24.2056 58.3231 24.2056H71.5208L70.3585 22.8225C69.5421 21.8428 68.3318 21.2856 67.0543 21.2856H30.247V21.3049H26.7218C26.645 21.3049 26.5682 21.3049 26.5009 21.2856H7.05986C4.86986 21.2856 3.05447 22.9185 2.78552 25.0317H9.125C13.6587 25.0317 17.3567 28.7009 17.3567 33.2058V33.2346C17.3567 36.2987 19.8637 38.796 22.9566 38.796H29.9108C34.4445 38.796 38.1425 42.4653 38.1425 46.9701V52.4931H58.3712C58.4576 52.4931 58.5441 52.4931 58.6209 52.5124C58.6978 52.4931 58.7842 52.4931 58.8706 52.4931H69.2924C70.8772 49.1505 74.3063 46.8356 78.2637 46.8356C82.221 46.8356 85.6405 49.1505 87.235 52.4931H91.1251V49.5731H86.8027C86.0439 49.5731 85.4292 48.9584 85.4292 48.2092L85.41 48.1804ZM61.1663 43.8964H58.3231C57.5643 43.8964 56.9496 43.2817 56.9496 42.5325C56.9496 41.7833 57.5643 41.1685 58.3231 41.1685H61.1663C61.9251 41.1685 62.5399 41.7833 62.5399 42.5325C62.5399 43.2817 61.9251 43.8964 61.1663 43.8964Z" fill="white"/>
<path d="M91.1059 43.8965H88.1571V46.8165H91.1059V43.8965Z" fill="white"/>
<path d="M88.1668 56.6713C88.1668 57.1707 88.1284 57.6606 88.0612 58.1313H91.1156V55.2017H88.0612C88.1284 55.6819 88.1668 56.1718 88.1668 56.6617V56.6713Z" fill="white"/>
<path d="M18.4517 52.4731C16.1272 52.4731 14.2253 54.3558 14.2253 56.6706C14.2253 58.9855 16.1176 60.8681 18.4517 60.8681C20.7857 60.8681 22.678 58.9855 22.678 56.6706C22.678 54.3558 20.7857 52.4731 18.4517 52.4731ZM18.4517 58.1306C17.6352 58.1306 16.9821 57.4775 16.9821 56.6706C16.9821 55.8638 17.6448 55.2106 18.4517 55.2106C19.2585 55.2106 19.9213 55.8638 19.9213 56.6706C19.9213 57.4775 19.2585 58.1306 18.4517 58.1306Z" fill="#353950"/>
<path d="M78.2443 52.4731C75.9198 52.4731 74.0179 54.3558 74.0179 56.6706C74.0179 58.9855 75.9102 60.8681 78.2443 60.8681C80.5783 60.8681 82.4706 58.9855 82.4706 56.6706C82.4706 54.3558 80.5783 52.4731 78.2443 52.4731ZM78.2443 58.1306C77.4278 58.1306 76.7747 57.4775 76.7747 56.6706C76.7747 55.8638 77.4374 55.2106 78.2443 55.2106C79.0511 55.2106 79.7139 55.8638 79.7139 56.6706C79.7139 57.4775 79.0511 58.1306 78.2443 58.1306Z" fill="#353950"/>
<path d="M61.1663 41.1685H58.3231C57.5643 41.1685 56.9496 41.7832 56.9496 42.5324C56.9496 43.2816 57.5643 43.8964 58.3231 43.8964H61.1663C61.9251 43.8964 62.5398 43.2816 62.5398 42.5324C62.5398 41.7832 61.9251 41.1685 61.1663 41.1685Z" fill="#353950"/>
<path d="M93.853 42.5418C93.853 42.5418 93.853 42.5034 93.853 42.4842C93.8242 40.2173 92.3642 38.229 90.1934 37.5086L84.7376 35.7028L75.5166 24.7144C75.5166 24.7144 75.4974 24.6952 75.4878 24.6856L72.4525 21.074C71.1078 19.47 69.1291 18.5479 67.0351 18.5479H7.05987C3.16974 18.5479 0 21.6888 0 25.5597V53.8472C0 57.7277 3.16974 60.8686 7.05987 60.8686H9.49C11.0749 64.2113 14.5039 66.5261 18.4613 66.5261C22.4187 66.5261 25.8382 64.2113 27.4326 60.8686H34.7903C34.7903 60.8686 34.8863 60.8686 34.9343 60.8686C34.9728 60.8686 35.0208 60.8686 35.0688 60.8686H69.2828C70.8676 64.2113 74.2967 66.5261 78.2541 66.5261C82.2114 66.5261 85.6309 64.2113 87.2254 60.8686H92.4891C93.2479 60.8686 93.8626 60.2539 93.8626 59.5047V42.561L93.853 42.5418ZM73.8068 26.9236L81.0108 35.5011H59.6967V26.9236H73.8068ZM8.64474 58.1311H7.05026C5.14842 58.1311 3.53474 56.9113 2.96803 55.2015H8.64474C8.5775 55.6818 8.53908 56.1717 8.53908 56.6615C8.53908 57.1514 8.5775 57.6509 8.64474 58.1215V58.1311ZM18.4517 63.7886C14.5039 63.7886 11.2862 60.5997 11.2862 56.6711C11.2862 52.7426 14.5039 49.5536 18.4517 49.5536C22.3995 49.5536 25.6172 52.7426 25.6172 56.6711C25.6172 60.5997 22.3995 63.7886 18.4517 63.7886ZM27.423 52.4736C25.8382 49.131 22.4091 46.8161 18.4517 46.8161C14.4943 46.8161 11.0749 49.131 9.48039 52.4736H2.74711V27.6344H9.11539C12.1987 27.6344 14.7153 30.1318 14.7153 33.1959V33.2247C14.7153 37.7296 18.4037 41.3988 22.947 41.3988H29.9012C32.9845 41.3988 35.501 43.8961 35.501 46.9602V52.4832H27.4326L27.423 52.4736ZM68.4375 58.1311H35.0592C35.0592 58.1311 34.9632 58.1311 34.9151 58.1311C34.8767 58.1311 34.8287 58.1311 34.7807 58.1311H28.2587C28.3259 57.6509 28.3643 57.1706 28.3643 56.6711C28.3643 56.1717 28.3259 55.6818 28.2587 55.2111H58.352C58.4384 55.2111 58.5153 55.2111 58.6017 55.1919C58.6882 55.2111 58.765 55.2111 58.8514 55.2111H68.4375C68.3703 55.6914 68.3318 56.1813 68.3318 56.6711C68.3318 57.161 68.3703 57.6605 68.4375 58.1311ZM78.2445 63.7886C74.2967 63.7886 71.0789 60.5997 71.0789 56.6711C71.0789 52.7426 74.2967 49.5536 78.2445 49.5536C82.1922 49.5536 85.41 52.7426 85.41 56.6711C85.41 60.5997 82.1922 63.7886 78.2445 63.7886ZM91.1059 58.1311H88.0514C88.1187 57.6509 88.1571 57.1706 88.1571 56.6711C88.1571 56.1717 88.1187 55.6818 88.0514 55.2111H91.1059V58.1407V58.1311ZM91.1059 52.4736H87.2158C85.6309 49.131 82.2018 46.8161 78.2445 46.8161C74.2871 46.8161 70.8676 49.131 69.2732 52.4736H58.8514C58.765 52.4736 58.6882 52.4736 58.6017 52.4929C58.5153 52.4736 58.4384 52.4736 58.352 52.4736H38.1233V46.9506C38.1233 42.4457 34.4349 38.7765 29.8916 38.7765H22.9374C19.8541 38.7765 17.3375 36.2792 17.3375 33.2151V33.1863C17.3375 28.6814 13.6491 25.0122 9.10579 25.0122H2.78553C3.05447 22.9086 4.86987 21.2661 7.05987 21.2661H26.5009C26.5778 21.2757 26.645 21.2854 26.7218 21.2854H30.247V21.2661H67.0543C68.3318 21.2661 69.5421 21.8232 70.3586 22.803L71.5208 24.1861H58.3232C57.5643 24.1861 56.9496 24.8009 56.9496 25.5501V36.8555C56.9496 37.6047 57.5643 38.2194 58.3232 38.2194H83.7195L89.3289 40.0732C89.9149 40.2654 90.3951 40.6496 90.7025 41.1394H86.7835C86.0247 41.1394 85.41 41.7542 85.41 42.5034V48.1609C85.41 48.9101 86.0247 49.5248 86.7835 49.5248H91.1059V52.4448V52.4736ZM91.1059 43.8961V46.8161H88.1571V43.8961H91.1059Z" fill="#353950"/>
<path d="M40.832 33.666C48.3914 33.666 54.5195 27.5379 54.5195 19.9785C54.5195 12.4191 48.3914 6.29102 40.832 6.29102C33.2726 6.29102 27.1445 12.4191 27.1445 19.9785C27.1445 27.5379 33.2726 33.666 40.832 33.666Z" fill="white"/>
<path d="M34.5213 26.2796L38.373 25.7609C38.5555 25.7321 38.7284 25.6552 38.8629 25.5207L47.4692 16.9144C47.7958 16.5878 47.7958 16.05 47.4692 15.7234L44.5108 12.765C44.1842 12.4384 43.6463 12.4384 43.3197 12.765L34.7134 21.3713C34.5789 21.5057 34.5021 21.669 34.4733 21.8611L33.9546 25.7128C33.9066 26.0394 34.1947 26.3276 34.5213 26.2796Z" fill="white"/>
<path d="M47.4691 15.7234L44.5107 12.765C44.1841 12.4384 43.6462 12.4384 43.3196 12.765L40.3612 15.7234L44.5107 19.8728L47.4691 16.9144C47.7957 16.5878 47.7957 16.05 47.4691 15.7234Z" fill="white"/>
<path d="M34.454 27.548C33.9929 27.548 33.5415 27.3655 33.2053 27.0294C32.8115 26.6355 32.629 26.0977 32.7058 25.5502L33.2245 21.6984C33.2822 21.247 33.4935 20.8148 33.82 20.4882L42.4264 11.8819C43.2428 11.0654 44.5875 11.0654 45.404 11.8819L48.3624 14.8403C48.7562 15.2341 48.9772 15.7624 48.9772 16.3291C48.9772 16.8958 48.7562 17.4241 48.3624 17.8179L39.7561 26.4242C39.4295 26.7508 39.0069 26.9621 38.5458 27.0198L34.6941 27.5384C34.6173 27.548 34.5308 27.5577 34.454 27.5577V27.548ZM35.7027 22.1595L35.3377 24.897L38.0752 24.532L46.2877 16.3195L43.9152 13.947L35.7027 22.1595Z" fill="#353950"/>
<path d="M41.2567 14.8265L39.4772 16.606L43.6338 20.7626L45.4133 18.9831L41.2567 14.8265Z" fill="#353950"/>
<path d="M40.8319 34.9345C32.5906 34.9345 25.8861 28.2301 25.8861 19.9888C25.8861 17.5106 26.5104 15.0517 27.6823 12.8905C28.0089 12.2757 28.7773 12.0548 29.392 12.3814C30.0068 12.708 30.2277 13.4764 29.9011 14.0911C28.931 15.8969 28.4123 17.9332 28.4123 19.9984C28.4123 26.8469 33.9833 32.4276 40.8415 32.4276C47.6997 32.4276 53.2707 26.8565 53.2707 19.9984C53.2707 13.1402 47.6997 7.56915 40.8415 7.56915C38.1328 7.56915 35.5586 8.42402 33.407 10.0377C32.8499 10.4507 32.0623 10.3451 31.6397 9.78797C31.2266 9.23086 31.3323 8.44323 31.8894 8.0206C34.4924 6.07073 37.5853 5.04297 40.8415 5.04297C49.0828 5.04297 55.7873 11.7474 55.7873 19.9888C55.7873 28.2301 49.0828 34.9345 40.8415 34.9345H40.8319Z" fill="#353950"/>
</svg>
