<svg width="97" height="73" viewBox="0 0 97 73" fill="none" xmlns="http://www.w3.org/2000/svg">
<path d="M47.0273 73C67.1857 73 83.5273 56.6584 83.5273 36.5C83.5273 16.3416 67.1857 0 47.0273 0C26.8689 0 10.5273 16.3416 10.5273 36.5C10.5273 56.6584 26.8689 73 47.0273 73Z" fill="#00ABB3"/>
<path d="M60.9648 50.9942H11.4401V11.7663C11.4401 11.0651 12.0068 10.4888 12.7176 10.4888H59.6873C60.3885 10.4888 60.9648 11.0555 60.9648 11.7663V50.9942Z" fill="white"/>
<path d="M60.9549 11.7663V50.9942H57.6988V11.7663C57.6988 11.0651 57.1321 10.4888 56.4213 10.4888H59.6774C60.3786 10.4888 60.9453 11.0555 60.9453 11.7663H60.9549Z" fill="white"/>
<path d="M60.9646 18.7881H71.271C72.7598 18.7881 74.1238 19.6333 74.7865 20.9685L80.5881 32.6869C80.7994 33.1191 81.2413 33.3881 81.7215 33.3881H85.5732C87.0332 33.3881 88.2051 34.5695 88.2051 36.0199V51.0522H60.955V18.7881H60.9646Z" fill="white"/>
<path d="M89.9629 57.8046H9.68214C9.29793 57.8046 8.98096 57.4876 8.98096 57.1034V51.7725C8.98096 51.3883 9.29793 51.0713 9.68214 51.0713H89.9629C90.3471 51.0713 90.6641 51.3883 90.6641 51.7725V57.1034C90.6641 57.4876 90.3471 57.8046 89.9629 57.8046Z" fill="white"/>
<path d="M90.6642 51.7725V57.1034C90.6642 57.4876 90.3472 57.8046 89.963 57.8046H86.678C87.0622 57.8046 87.3792 57.4876 87.3792 57.1034V51.7725C87.3792 51.3883 87.0622 51.0713 86.678 51.0713H89.963C90.3472 51.0713 90.6642 51.3883 90.6642 51.7725Z" fill="white"/>
<path d="M81.6736 33.3976H66.7182C66.2092 33.3976 65.7961 32.9845 65.7961 32.4755V24.1765C65.7961 23.6674 66.2092 23.2544 66.7182 23.2544H75.9105L80.5786 32.6964C80.79 33.119 81.203 33.3879 81.6736 33.3976Z" fill="#00ABB3"/>
<path d="M84.5551 38.1421H88.2051V43.4154H84.5551C83.0951 43.4154 81.9232 42.2339 81.9232 40.7835C81.9232 39.3235 83.1047 38.1517 84.5551 38.1517V38.1421Z" fill="white"/>
<path d="M88.2052 38.1421H84.9202V43.4154H88.2052V38.1421Z" fill="white"/>
<path d="M23.9747 65.4783C28.9295 65.4783 32.946 61.4617 32.946 56.507C32.946 51.5522 28.9295 47.5356 23.9747 47.5356C19.02 47.5356 15.0034 51.5522 15.0034 56.507C15.0034 61.4617 19.02 65.4783 23.9747 65.4783Z" fill="white"/>
<path d="M23.9747 59.9467C25.8738 59.9467 27.4134 58.4072 27.4134 56.508C27.4134 54.6089 25.8738 53.0693 23.9747 53.0693C22.0756 53.0693 20.536 54.6089 20.536 56.508C20.536 58.4072 22.0756 59.9467 23.9747 59.9467Z" fill="#F9F6F6"/>
<path d="M75.6703 65.4783C80.625 65.4783 84.6416 61.4617 84.6416 56.507C84.6416 51.5522 80.625 47.5356 75.6703 47.5356C70.7156 47.5356 66.699 51.5522 66.699 56.507C66.699 61.4617 70.7156 65.4783 75.6703 65.4783Z" fill="white"/>
<path d="M75.6703 59.9467C77.5694 59.9467 79.1089 58.4072 79.1089 56.508C79.1089 54.6089 77.5694 53.0693 75.6703 53.0693C73.7711 53.0693 72.2316 54.6089 72.2316 56.508C72.2316 58.4072 73.7711 59.9467 75.6703 59.9467Z" fill="#F9F6F6"/>
<path d="M66.795 59.0337H59.1588C58.4768 59.0337 57.9293 58.4862 57.9293 57.8042C57.9293 57.1222 58.4768 56.5747 59.1588 56.5747H66.795C67.477 56.5747 68.0245 57.1222 68.0245 57.8042C68.0245 58.4862 67.477 59.0337 66.795 59.0337Z" fill="#353950"/>
<path d="M89.9629 59.0337H84.9201C84.2381 59.0337 83.6906 58.4862 83.6906 57.8042C83.6906 57.1223 84.2381 56.5748 84.9201 56.5748H89.4346V52.31H83.0086C82.3267 52.31 81.7792 51.7625 81.7792 51.0805C81.7792 50.3986 82.3267 49.8511 83.0086 49.8511H89.9629C91.029 49.8511 91.8935 50.7155 91.8935 51.7817V57.1127C91.8935 58.1788 91.029 59.0433 89.9629 59.0433V59.0337Z" fill="#353950"/>
<path d="M68.428 52.3007H31.1019C30.4199 52.3007 29.8724 51.7532 29.8724 51.0713C29.8724 50.3893 30.4199 49.8418 31.1019 49.8418H68.428C69.1099 49.8418 69.6574 50.3893 69.6574 51.0713C69.6574 51.7532 69.1099 52.3007 68.428 52.3007Z" fill="#353950"/>
<path d="M15.013 59.034H9.68212C8.61594 59.034 7.75146 58.1696 7.75146 57.1034V51.7725C7.75146 50.7063 8.61594 49.8418 9.68212 49.8418H16.8476C17.5296 49.8418 18.0771 50.3893 18.0771 51.0713C18.0771 51.7532 17.5296 52.3007 16.8476 52.3007H10.2104V56.5655H15.0034C15.6854 56.5655 16.2329 57.113 16.2329 57.795C16.2329 58.4769 15.6854 59.0244 15.0034 59.0244L15.013 59.034Z" fill="#353950"/>
<path d="M53.5589 59.0337H32.946C32.2641 59.0337 31.7166 58.4862 31.7166 57.8042C31.7166 57.1222 32.2641 56.5747 32.946 56.5747H53.5589C54.2409 56.5747 54.7884 57.1222 54.7884 57.8042C54.7884 58.4862 54.2409 59.0337 53.5589 59.0337Z" fill="#353950"/>
<path d="M11.4399 52.2244C10.7579 52.2244 10.2104 51.6769 10.2104 50.9949V25.7138C10.2104 25.0319 10.7579 24.4844 11.4399 24.4844C12.1219 24.4844 12.6694 25.0319 12.6694 25.7138V50.9949C12.6694 51.6769 12.1219 52.2244 11.4399 52.2244Z" fill="#353950"/>
<path d="M60.9646 52.2241C60.2826 52.2241 59.7351 51.6766 59.7351 50.9946V11.7667L12.727 11.7283L12.6886 19.9984C12.6886 20.6804 12.1411 21.2279 11.4591 21.2279C10.7771 21.2279 10.2296 20.6804 10.2296 19.9984V11.7667C10.2296 10.3836 11.3534 9.25977 12.7366 9.25977H59.7063C61.0895 9.25977 62.2133 10.3836 62.2133 11.7667V50.9946C62.2133 51.6766 61.6658 52.2241 60.9838 52.2241H60.9646Z" fill="#353950"/>
<path d="M60.9646 52.3008C60.2826 52.3008 59.7351 51.7533 59.7351 51.0714V18.7881C59.7351 18.1061 60.2826 17.5586 60.9646 17.5586H71.271C73.2497 17.5586 75.0171 18.6536 75.8912 20.4306L81.6927 32.149L85.5733 32.1682C87.7056 32.1682 89.4442 33.9068 89.4442 36.0391V51.0714C89.4442 51.7533 88.8967 52.3008 88.2147 52.3008C87.5327 52.3008 86.9852 51.7533 86.9852 51.0714V36.0391C86.9852 35.2611 86.3513 34.6368 85.5829 34.6368H81.7312C80.7706 34.6368 79.9158 34.0989 79.4931 33.244L73.6916 21.5256C73.2305 20.6035 72.3084 20.0271 71.2806 20.0271H62.2037V51.0714C62.2037 51.7533 61.6562 52.3008 60.9742 52.3008H60.9646Z" fill="#353950"/>
<path d="M81.6736 34.6363H66.7182C65.5272 34.6363 64.5667 33.6662 64.5667 32.4847V24.1858C64.5667 22.9947 65.5368 22.0342 66.7182 22.0342H75.9105C76.3811 22.0342 76.8038 22.3031 77.0151 22.7162L81.6832 32.1581C82.3556 32.1773 82.9031 32.744 82.8935 33.4164C82.8839 34.0888 82.346 34.6363 81.6736 34.6363ZM67.0256 32.1677H78.9457L75.142 24.4835H67.0256V32.1677Z" fill="#353950"/>
<path d="M69.3981 40.7168H65.7961C65.1141 40.7168 64.5667 40.1693 64.5667 39.4873C64.5667 38.8053 65.1141 38.2578 65.7961 38.2578H69.3981C70.0801 38.2578 70.6276 38.8053 70.6276 39.4873C70.6276 40.1693 70.0801 40.7168 69.3981 40.7168Z" fill="#353950"/>
<path d="M88.2052 44.6457H84.5552C82.4229 44.6457 80.6843 42.9071 80.6843 40.7747C80.6843 38.6424 82.4229 36.9038 84.5552 36.9038H88.2052C88.8872 36.9038 89.4347 37.4513 89.4347 38.1333V43.4066C89.4347 44.0885 88.8872 44.636 88.2052 44.636V44.6457ZM84.5552 39.3724C83.7772 39.3724 83.1529 40.0063 83.1529 40.7747C83.1529 41.5432 83.7868 42.1771 84.5552 42.1771H86.9758V39.3724H84.5552Z" fill="#353950"/>
<path d="M23.9747 66.7082C18.346 66.7082 13.7739 62.1361 13.7739 56.5074C13.7739 50.8787 18.346 46.3066 23.9747 46.3066C29.6034 46.3066 34.1755 50.8787 34.1755 56.5074C34.1755 62.1361 29.6034 66.7082 23.9747 66.7082ZM23.9747 48.7752C19.71 48.7752 16.2425 52.2427 16.2425 56.5074C16.2425 60.7722 19.71 64.2397 23.9747 64.2397C28.2395 64.2397 31.707 60.7722 31.707 56.5074C31.707 52.2427 28.2395 48.7752 23.9747 48.7752Z" fill="#353950"/>
<path d="M23.9747 61.1854C21.4005 61.1854 19.3065 59.0915 19.3065 56.5173C19.3065 53.9431 21.4005 51.8491 23.9747 51.8491C26.5489 51.8491 28.6428 53.9431 28.6428 56.5173C28.6428 59.0915 26.5489 61.1854 23.9747 61.1854ZM23.9747 54.3081C22.7548 54.3081 21.7655 55.2974 21.7655 56.5173C21.7655 57.7371 22.7548 58.7265 23.9747 58.7265C25.1945 58.7265 26.1839 57.7371 26.1839 56.5173C26.1839 55.2974 25.1945 54.3081 23.9747 54.3081Z" fill="#353950"/>
<path d="M75.6701 66.7082C70.0415 66.7082 65.4694 62.1361 65.4694 56.5074C65.4694 50.8787 70.0415 46.3066 75.6701 46.3066C81.2988 46.3066 85.8709 50.8787 85.8709 56.5074C85.8709 62.1361 81.2988 66.7082 75.6701 66.7082ZM75.6701 48.7752C71.4054 48.7752 67.9379 52.2427 67.9379 56.5074C67.9379 60.7722 71.4054 64.2397 75.6701 64.2397C79.9349 64.2397 83.4024 60.7722 83.4024 56.5074C83.4024 52.2427 79.9349 48.7752 75.6701 48.7752Z" fill="#353950"/>
<path d="M75.6702 61.1854C73.096 61.1854 71.0021 59.0915 71.0021 56.5173C71.0021 53.9431 73.096 51.8491 75.6702 51.8491C78.2444 51.8491 80.3384 53.9431 80.3384 56.5173C80.3384 59.0915 78.2444 61.1854 75.6702 61.1854ZM75.6702 54.3081C74.4504 54.3081 73.461 55.2974 73.461 56.5173C73.461 57.7371 74.4504 58.7265 75.6702 58.7265C76.8901 58.7265 77.8794 57.7371 77.8794 56.5173C77.8794 55.2974 76.8901 54.3081 75.6702 54.3081Z" fill="#353950"/>
<path d="M92.0279 50.4089C83.4504 46.4227 69.6957 46.4227 69.6957 46.4227L57.8524 38.8826C54.6923 36.8655 51.0135 35.7993 47.2674 35.7993H33.7528C30.4582 35.7993 27.202 36.5677 24.2532 38.0373L17.0493 41.6393C14.744 42.7919 12.2562 43.5508 9.69164 43.8677L4.08217 44.5689C2.56453 44.761 1.42151 46.0481 1.42151 47.5754V56.6812C1.42151 58.6887 2.73743 60.4656 4.66809 61.0419L16.5978 64.6247H85.2274L95.4954 61.5895V55.8839C95.4954 53.5402 94.1603 51.3887 92.0376 50.3993L92.0279 50.4089Z" fill="white"/>
<path d="M95.4861 60.0811H92.1051C91.3943 60.0811 90.7988 59.5912 90.6355 58.8996C89.3676 53.3478 84.5073 49.4673 78.8018 49.4673C73.0963 49.4673 68.2264 53.3478 66.9681 58.8996C66.8144 59.6008 66.2093 59.9658 65.4985 59.9658H32.9367C32.2259 59.9658 31.6303 59.6008 31.4671 58.8996C30.1992 53.3478 25.3389 49.4673 19.6334 49.4673C14.994 49.4673 10.8349 52.0607 8.76982 56.2294C8.51048 56.7481 7.99179 57.0746 7.42508 57.0746C7.281 57.0746 7.13692 57.0554 6.99284 57.0074C6.38771 56.8249 5.98429 56.2774 5.98429 55.6434V44.3477L4.09205 44.5878C2.57442 44.7799 1.4314 46.067 1.4314 47.5942V56.7C1.4314 58.7075 2.74732 60.4845 4.67798 61.0608L16.6077 64.6436H92.4701C94.1414 64.6436 95.5053 63.2892 95.5053 61.6083V60.0907L95.4861 60.0811Z" fill="white"/>
<path d="M19.6237 69.1871C23.8145 69.1871 27.2118 65.7897 27.2118 61.5989C27.2118 57.4081 23.8145 54.0107 19.6237 54.0107C15.4329 54.0107 12.0355 57.4081 12.0355 61.5989C12.0355 65.7897 15.4329 69.1871 19.6237 69.1871Z" fill="white"/>
<path d="M78.792 69.1871C82.9828 69.1871 86.3802 65.7897 86.3802 61.5989C86.3802 57.4081 82.9828 54.0107 78.792 54.0107C74.6012 54.0107 71.2039 57.4081 71.2039 61.5989C71.2039 65.7897 74.6012 69.1871 78.792 69.1871Z" fill="white"/>
<path d="M57.8525 38.8919C54.6924 36.8748 51.0136 35.8086 47.2675 35.8086H33.7529C30.4583 35.8086 27.2021 36.577 24.2533 38.0466L18.6246 40.861L21.9673 44.2036L69.7054 46.4224L57.8621 38.8823L57.8525 38.8919Z" fill="white"/>
<path d="M27.3174 46.4231H61.2143L55.4032 42.725C52.9634 41.169 50.1491 40.3525 47.2579 40.3525H33.7433C31.1691 40.3525 28.5853 40.9577 26.28 42.1103L22.0153 44.2427C23.4368 45.6354 25.3387 46.4135 27.3174 46.4135V46.4231Z" fill="white"/>
<path d="M18.5574 64.0863C18.9224 64.0863 19.2874 63.9518 19.5563 63.6733L21.6983 61.5313C22.2554 60.9742 22.2554 60.0809 21.6983 59.5238C21.1412 58.9667 20.2479 58.9667 19.6908 59.5238L17.5488 61.6658C16.9917 62.2229 16.9917 63.1162 17.5488 63.6733C17.8274 63.9518 18.1924 64.0863 18.5478 64.0863H18.5574Z" fill="#353950"/>
<path d="M78.869 63.6733C79.1475 63.9518 79.5125 64.0863 79.8679 64.0863C80.2233 64.0863 80.5979 63.9518 80.8669 63.6733C81.424 63.1162 81.424 62.2229 80.8669 61.6658L78.7249 59.5238C78.1678 58.9667 77.2745 58.9667 76.7174 59.5238C76.1603 60.0809 76.1603 60.9742 76.7174 61.5313L78.8594 63.6733H78.869Z" fill="#353950"/>
<path d="M92.6236 49.1217C84.6032 45.3948 72.5486 45.0394 70.1088 45.0106L58.6113 37.6914C55.2111 35.5302 51.2921 34.3872 47.2579 34.3872H33.7433C30.247 34.3872 26.7411 35.2133 23.6097 36.7789L16.4058 40.3809C14.235 41.4663 11.9201 42.1675 9.50921 42.4652L3.89974 43.1664C1.67132 43.445 0 45.3468 0 47.5848V56.6426C0 59.2937 1.77697 61.6565 4.33197 62.3865L11.0364 64.298C12.1891 67.948 15.5989 70.599 19.6236 70.599C22.9662 70.599 25.8958 68.7644 27.4422 66.0462H70.9637C72.5197 68.7644 75.4397 70.599 78.7824 70.599C83.7483 70.599 87.7921 66.5552 87.7921 61.5893C87.7921 56.6234 83.7483 52.5796 78.7824 52.5796C73.8164 52.5796 69.7726 56.6234 69.7726 61.5893C69.7726 62.1368 69.8207 62.6843 69.9167 63.203H28.4796C28.5757 62.6747 28.6237 62.1368 28.6237 61.5893C28.6237 56.6234 24.5799 52.5796 19.6139 52.5796C14.648 52.5796 10.8059 56.4217 10.6138 61.2243L5.09079 59.649C3.75566 59.2648 2.82395 58.0258 2.82395 56.6426V52.3875H4.43763C5.22526 52.3875 5.85921 51.7535 5.85921 50.9659C5.85921 50.1783 5.22526 49.5443 4.43763 49.5443H2.82395V47.5752C2.82395 46.7588 3.42908 46.0768 4.23592 45.9712L9.8454 45.27C12.5733 44.9338 15.2051 44.1365 17.6545 42.9071L18.298 42.5805L20.9203 45.1931C22.6204 46.8933 24.8872 47.8346 27.2886 47.8346H30.2182C31.0058 47.8346 31.6397 47.2006 31.6397 46.413C31.6397 45.6254 31.0058 44.9914 30.2182 44.9914H27.2886C27.0388 44.9914 26.7987 44.9722 26.5489 44.9434L28.1146 38.018C29.93 37.4897 31.8222 37.2112 33.7049 37.2112H40.928V44.9914H36.2791C35.4914 44.9914 34.8575 45.6254 34.8575 46.413C34.8575 47.2006 35.4914 47.8346 36.2791 47.8346H69.6574C69.7918 47.8346 83.2008 47.8826 91.3941 51.6863C91.8743 51.9072 92.3066 52.2146 92.6716 52.5796H90.9042C90.1166 52.5796 89.4826 53.2135 89.4826 54.0012C89.4826 54.7888 90.1166 55.4227 90.9042 55.4227H94.0067C94.0259 55.5764 94.0355 55.7301 94.0355 55.8838V60.9169C94.0355 62.3193 93.4208 63.1934 92.4218 63.1934C91.6342 63.1934 91.0003 63.8273 91.0003 64.615C91.0003 65.4026 91.6342 66.0365 92.4218 66.0365C93.6801 66.0365 94.8232 65.5179 95.6396 64.5766C96.4464 63.6448 96.8787 62.3769 96.8787 60.9169V55.8838C96.8787 52.9734 95.1978 50.3223 92.5947 49.1121L92.6236 49.1217ZM78.792 55.4323C82.1922 55.4323 84.9585 58.1987 84.9585 61.5989C84.9585 64.9992 82.1922 67.7655 78.792 67.7655C75.3917 67.7655 72.6254 64.9992 72.6254 61.5989C72.6254 58.1987 75.3917 55.4323 78.792 55.4323ZM19.6236 55.4323C23.0238 55.4323 25.7901 58.1987 25.7901 61.5989C25.7901 64.9992 23.0238 67.7655 19.6236 67.7655C16.2233 67.7655 13.457 64.9992 13.457 61.5989C13.457 58.1987 16.2233 55.4323 19.6236 55.4323ZM23.8979 43.9733C23.5617 43.7523 23.2543 43.493 22.9566 43.2048L21.0067 41.255L24.8776 39.3243C24.8776 39.3243 24.9353 39.2955 24.9545 39.2859L23.8883 43.9829L23.8979 43.9733ZM43.8 37.2208H47.2579C50.7446 37.2208 54.1449 38.2101 57.0841 40.0831L64.8163 45.001H43.8V37.2208Z" fill="#353950"/>
<path d="M33.2823 57.1416C32.4947 57.1416 31.8607 57.7755 31.8607 58.5632C31.8607 59.3508 32.4947 59.9848 33.2823 59.9848H65.143C65.9306 59.9848 66.5645 59.3508 66.5645 58.5632C66.5645 57.7755 65.9306 57.1416 65.143 57.1416H33.2823Z" fill="#353950"/>
</svg>
