<svg width="90" height="83" viewBox="0 0 90 83" fill="none" xmlns="http://www.w3.org/2000/svg">
<ellipse cx="41.2656" cy="41.4474" rx="41.2656" ry="41.4474" fill="#00ABB3"/>
<path d="M25.6314 68.1565H13.717C13.05 68.1565 12.5073 67.6049 12.5073 66.9232C12.5073 66.2415 13.0484 65.6899 13.717 65.6899H25.6121V62.3111H13.717C13.05 62.3111 12.5073 61.7595 12.5073 61.0778C12.5073 60.3961 13.0484 59.8445 13.717 59.8445H25.9706C26.4115 59.0904 27.2191 58.5832 28.1413 58.5832H42.6802V54.4042C39.7391 53.8937 36.9628 52.7197 34.5418 51.0056H12.8772C11.766 51.0056 10.8616 50.0835 10.8616 48.9507V31.78C10.8616 30.6471 11.7644 29.725 12.8772 29.725H38.116C39.2271 29.725 40.1316 30.6455 40.1316 31.78V32.8569C40.9633 32.5951 41.8145 32.3876 42.6802 32.2378V17.0693H8.31299V75.1595H42.6785V70.4255H28.1396C26.846 70.4255 25.7784 69.431 25.6298 68.1532L25.6314 68.1565ZM13.717 54.0024H37.2745C37.9431 54.0024 38.4842 54.554 38.4842 55.2357C38.4842 55.9174 37.9431 56.469 37.2745 56.469H13.717C13.05 56.469 12.5073 55.9174 12.5073 55.2357C12.5073 54.554 13.0484 54.0024 13.717 54.0024ZM19.3649 22.9888H31.6266C32.2936 22.9888 32.8363 23.5404 32.8363 24.2221C32.8363 24.9038 32.2952 25.4554 31.6266 25.4554H19.3649C18.6979 25.4554 18.1553 24.9038 18.1553 24.2221C18.1553 23.5404 18.6963 22.9888 19.3649 22.9888Z" fill="white"/>
<path d="M28.0298 61.1604V67.8555C28.0298 67.9115 28.0831 67.9642 28.1396 67.9642H33.261V61.0518H28.1396C28.0815 61.0518 28.0298 61.1044 28.0298 61.1604Z" fill="white"/>
<path d="M37.7117 33.7979V32.1958H13.2788V48.5448H31.6697C30.4745 47.3082 29.4247 45.9103 28.5574 44.3707C28.194 43.7269 28.194 42.925 28.5574 42.2812C30.6909 38.4924 33.9259 35.5565 37.71 33.7996L37.7117 33.7979Z" fill="white"/>
<path d="M35.6797 63.2747H53.7701C54.4372 63.2747 54.9798 63.8263 54.9798 64.508C54.9798 65.1896 54.4388 65.7413 53.7701 65.7413H35.6797V67.9642H64.3828V65.7413H59.4116C58.743 65.7413 58.2019 65.1896 58.2019 64.508C58.2019 63.8263 58.743 63.2747 59.4116 63.2747H64.3828V61.0518H35.6797V63.2747Z" fill="white"/>
<path d="M66.8008 61.134V67.8801C67.2465 67.7895 67.7295 67.6331 68.0218 67.4701L69.3978 66.7044V62.308L68.0218 61.5423C67.7295 61.381 67.2482 61.2245 66.8008 61.1323V61.134Z" fill="white"/>
<path d="M71.8154 65.3617L73.3522 64.5067L71.8154 63.6533V65.3617Z" fill="white"/>
<path d="M50.1937 43.1087C50.3907 43.1087 50.5878 43.0939 50.7832 43.0692C50.6524 40.5154 48.577 38.4785 46.043 38.4785C45.8443 38.4785 45.6473 38.4933 45.4551 38.518C45.5843 41.0719 47.6613 43.1087 50.1953 43.1087H50.1937Z" fill="white"/>
<path d="M46.0413 48.1678C47.8647 48.1678 49.4491 47.114 50.2437 45.5728C50.2259 45.5728 50.2098 45.5728 50.192 45.5728C46.6534 45.5728 43.7091 42.9416 43.1309 39.4985C42.0133 40.386 41.293 41.7692 41.293 43.3219C41.293 45.9927 43.4233 48.1662 46.0397 48.1662L46.0413 48.1678Z" fill="white"/>
<path d="M30.7588 43.3226C33.9405 48.8239 39.7774 52.2307 46.0406 52.2307C52.3039 52.2307 58.1408 48.8222 61.3225 43.3226C58.1408 37.823 52.3039 34.4146 46.0406 34.4146C39.7774 34.4146 33.9405 37.8214 30.7588 43.3226ZM46.0422 36.0134C49.9927 36.0134 53.2067 39.2918 53.2067 43.3226C53.2067 47.3535 49.9927 50.6318 46.0422 50.6318C42.0918 50.6318 38.8778 47.3535 38.8778 43.3226C38.8778 39.2918 42.0918 36.0134 46.0422 36.0134Z" fill="white"/>
<path d="M71.3493 36.9507H68.5601V38.3618H71.3493V36.9507Z" fill="white"/>
<path d="M19.3655 25.4544H31.6271C32.2941 25.4544 32.8368 24.9028 32.8368 24.2211C32.8368 23.5394 32.2957 22.9878 31.6271 22.9878H19.3655C18.6968 22.9878 18.1558 23.5394 18.1558 24.2211C18.1558 24.9028 18.6968 25.4544 19.3655 25.4544Z" fill="#353950"/>
<path d="M13.7165 56.4676H37.274C37.9426 56.4676 38.4837 55.916 38.4837 55.2343C38.4837 54.5526 37.9426 54.001 37.274 54.001H13.7165C13.0495 54.001 12.5068 54.5526 12.5068 55.2343C12.5068 55.916 13.0479 56.4676 13.7165 56.4676Z" fill="#353950"/>
<path d="M46.0434 50.6336C49.9938 50.6336 53.2078 47.3552 53.2078 43.3244C53.2078 39.2935 49.9938 36.0151 46.0434 36.0151C42.0929 36.0151 38.8789 39.2935 38.8789 43.3244C38.8789 47.3552 42.0929 50.6336 46.0434 50.6336ZM46.0418 38.4784C48.5758 38.4784 50.6528 40.5153 50.782 43.0691C50.5882 43.0938 50.3912 43.1087 50.1925 43.1087C47.6585 43.1087 45.5815 41.0718 45.4523 38.518C45.6445 38.4933 45.8415 38.4784 46.0401 38.4784H46.0418ZM43.1346 39.4993C43.7112 42.944 46.6571 45.5736 50.1957 45.5736C50.2135 45.5736 50.2296 45.5736 50.2474 45.5736C49.4512 47.1148 47.8668 48.1686 46.045 48.1686C43.4286 48.1686 41.2983 45.9951 41.2983 43.3244C41.2983 41.7716 42.0186 40.3868 43.1362 39.501L43.1346 39.4993Z" fill="#353950"/>
<path d="M75.2996 62.7803L69.1785 59.3785C68.3645 58.9257 67.0514 58.5848 66.1228 58.5848H45.0961V54.6709C45.4094 54.6857 45.7244 54.6972 46.0409 54.6972C53.2377 54.6972 59.9354 50.7388 63.5241 44.3681C63.8875 43.7243 63.8875 42.9241 63.5241 42.2786C59.937 35.9079 53.2361 31.9512 46.0409 31.9512C45.7244 31.9512 45.4094 31.961 45.0961 31.9759V16.6609C45.0961 15.528 44.1917 14.606 43.0805 14.606H7.91063C6.79946 14.606 5.89502 15.528 5.89502 16.6609V75.5727C5.89502 76.7056 6.79785 77.6277 7.91063 77.6277H43.0821C44.1933 77.6277 45.0977 76.7072 45.0977 75.5727V70.4288H66.1244C67.0514 70.4288 68.3661 70.0879 69.1801 69.6351L75.3012 66.2332C76.0038 65.8413 76.4076 65.2123 76.4076 64.5076C76.4076 63.8029 76.0038 63.1739 75.2996 62.782V62.7803ZM46.0425 34.4145C52.3058 34.4145 58.1427 37.8229 61.3244 43.3225C58.1411 48.8222 52.3058 52.2306 46.0425 52.2306C39.7793 52.2306 33.9424 48.8238 30.7607 43.3225C33.9424 37.8213 39.7793 34.4145 46.0425 34.4145ZM28.5594 44.3681C29.4267 45.9077 30.4765 47.3056 31.6716 48.5422H13.2791V32.1932H37.712V33.7954C33.9279 35.5523 30.6913 38.4881 28.5594 42.277C28.196 42.9224 28.196 43.7227 28.5594 44.3665V44.3681ZM42.6783 75.1611H8.31279V17.0709H42.6783V32.2393C41.8127 32.3892 40.9615 32.5966 40.1298 32.8584V31.7816C40.1298 30.6487 39.2269 29.7266 38.1141 29.7266H12.877C11.7658 29.7266 10.8614 30.6471 10.8614 31.7816V48.9522C10.8614 50.0851 11.7642 51.0072 12.877 51.0072H34.5416C36.9626 52.7229 39.7389 53.8953 42.68 54.4058V58.5848H28.1411C27.2188 58.5848 26.4113 59.092 25.9704 59.8461H13.7168C13.0498 59.8461 12.5071 60.3977 12.5071 61.0794C12.5071 61.7611 13.0482 62.3127 13.7168 62.3127H25.6118V65.6915H13.7168C13.0498 65.6915 12.5071 66.2431 12.5071 66.9248C12.5071 67.6065 13.0482 68.1581 13.7168 68.1581H25.6312C25.7782 69.4342 26.8474 70.4304 28.1411 70.4304H42.68V75.1644L42.6783 75.1611ZM33.2608 61.0514V67.9638H28.1394C28.0829 67.9638 28.0296 67.9111 28.0296 67.8551V61.1601C28.0296 61.1041 28.0813 61.0514 28.1394 61.0514H33.2608ZM64.3833 63.2743H59.4121C58.7435 63.2743 58.2024 63.8259 58.2024 64.5076C58.2024 65.1893 58.7435 65.7409 59.4121 65.7409H64.3833V67.9638H35.6802V65.7409H53.7707C54.4377 65.7409 54.9804 65.1893 54.9804 64.5076C54.9804 63.8259 54.4393 63.2743 53.7707 63.2743H35.6802V61.0514H64.3833V63.2743ZM69.3981 66.7042L68.0221 67.4698C67.7298 67.6312 67.2468 67.7876 66.8011 67.8798V61.1337C67.2468 61.2259 67.7298 61.3807 68.0221 61.5437L69.3981 62.3094V66.7058V66.7042ZM71.8159 65.3605V63.653L73.3534 64.5076L71.8159 65.3622V65.3605Z" fill="#353950"/>
<path d="M81.5394 24.7373C81.5361 24.6781 81.5329 24.6188 81.5297 24.5612C81.5232 24.4574 81.5151 24.3537 81.5071 24.2516C81.5022 24.2022 81.499 24.1544 81.4941 24.105C81.4796 23.9667 81.4618 23.8284 81.4425 23.6918C81.4344 23.6341 81.4247 23.5781 81.415 23.5205C81.4005 23.4266 81.3827 23.3328 81.3649 23.2389C81.3536 23.183 81.3439 23.127 81.3326 23.071C81.3052 22.9376 81.2745 22.8042 81.2422 22.6725C81.2293 22.6198 81.2147 22.5671 81.2002 22.5161C80.7173 20.7065 79.7547 19.0961 78.4594 17.8332C78.369 17.7459 78.2785 17.6586 78.1849 17.5747C78.1509 17.5434 78.1154 17.5137 78.0799 17.4824C77.9959 17.4084 77.9103 17.3343 77.8247 17.2635C77.7762 17.2239 77.7262 17.1844 77.6761 17.1449C77.6018 17.0856 77.5291 17.028 77.4532 16.972C77.3886 16.9226 77.3224 16.8765 77.2562 16.8288C77.1948 16.7843 77.1334 16.7415 77.0704 16.6987C76.9897 16.6443 76.9073 16.5916 76.825 16.539C76.7749 16.506 76.7248 16.4747 76.6731 16.4434C76.5795 16.3858 76.4826 16.3298 76.3873 16.2755C76.3453 16.2524 76.3033 16.2277 76.2613 16.2047C76.1563 16.1471 76.0513 16.0927 75.9431 16.04C75.906 16.0219 75.8704 16.0022 75.8333 15.9857C75.7219 15.9314 75.6088 15.8803 75.4958 15.8309C75.4618 15.8161 75.4263 15.7996 75.3924 15.7848C75.2777 15.7354 75.163 15.691 75.0468 15.6465C75.0112 15.6333 74.9741 15.6185 74.9385 15.6053C74.8239 15.5625 74.7092 15.5247 74.5929 15.4868C74.5525 15.4736 74.5122 15.4604 74.4718 15.4473C74.3603 15.4127 74.2473 15.3798 74.1326 15.3501C74.0874 15.3369 74.0406 15.3238 73.9953 15.3122C73.8871 15.2842 73.7773 15.2595 73.6675 15.2348C73.6158 15.2233 73.5641 15.2102 73.5108 15.2003C73.4058 15.1789 73.3009 15.1608 73.1943 15.1426C73.1361 15.1328 73.0796 15.1212 73.0215 15.113C72.9181 15.0965 72.8131 15.085 72.7081 15.0718C72.6484 15.0653 72.587 15.0554 72.5272 15.0488C72.4174 15.0373 72.3076 15.0307 72.1961 15.0224C72.1396 15.0191 72.0847 15.0126 72.0282 15.0093C71.8651 15.001 71.7019 14.9961 71.5372 14.9961C71.5324 14.9961 71.5291 14.9961 71.5243 14.9961C71.5194 14.9961 71.5162 14.9961 71.5114 14.9961C71.3466 14.9961 71.1835 15.001 71.0204 15.0093C70.9638 15.0126 70.9089 15.0175 70.8524 15.0224C70.7426 15.0307 70.6311 15.0373 70.5213 15.0488C70.4599 15.0554 70.4002 15.0636 70.3404 15.0718C70.2354 15.085 70.1305 15.0965 70.0271 15.113C69.969 15.1212 69.9108 15.1328 69.8543 15.1426C69.7477 15.1608 69.6427 15.1789 69.5377 15.2003C69.4861 15.2118 69.4344 15.2233 69.3811 15.2348C69.2713 15.2595 69.1614 15.2842 69.0532 15.3122C69.0064 15.3238 68.9612 15.3369 68.9159 15.3501C68.8029 15.3814 68.6898 15.4127 68.5768 15.4473C68.5364 15.4604 68.496 15.4736 68.4556 15.4868C68.3394 15.5247 68.2247 15.5642 68.11 15.6053C68.0729 15.6185 68.0373 15.6333 68.0018 15.6465C67.8855 15.691 67.7692 15.7371 67.6562 15.7848C67.6206 15.7996 67.5867 15.8161 67.5528 15.8309C67.4398 15.8803 67.3267 15.9314 67.2153 15.9857C67.1781 16.0038 67.1426 16.0219 67.1054 16.04C66.9988 16.0927 66.8922 16.1487 66.7873 16.2047C66.7453 16.2277 66.7033 16.2524 66.6613 16.2755C66.5644 16.3298 66.4691 16.3858 66.3754 16.4434C66.3237 16.4747 66.2737 16.5077 66.2236 16.539C66.1412 16.5916 66.0589 16.6443 65.9781 16.6987C65.9151 16.7415 65.8538 16.7859 65.7924 16.8288C65.7262 16.8765 65.6599 16.9226 65.5953 16.972C65.521 17.028 65.4468 17.0873 65.3725 17.1449C65.3224 17.1844 65.2739 17.2223 65.2239 17.2635C65.1367 17.3343 65.0527 17.4084 64.9687 17.4824C64.9332 17.5137 64.8976 17.5434 64.8637 17.5747C64.77 17.6586 64.6796 17.7459 64.5892 17.8332C63.2939 19.0961 62.3313 20.7065 61.8484 22.5161C61.8338 22.5688 61.8193 22.6215 61.8064 22.6725C61.7741 22.8042 61.7434 22.9376 61.7159 23.071C61.7046 23.127 61.6933 23.183 61.6836 23.2389C61.6659 23.3328 61.6497 23.4266 61.6336 23.5205C61.6239 23.5781 61.6142 23.6341 61.6061 23.6918C61.5867 23.8284 61.569 23.9651 61.5544 24.1034C61.5496 24.1511 61.5463 24.2005 61.5415 24.2499C61.5318 24.352 61.5237 24.4558 61.5189 24.5595C61.5157 24.6188 61.5124 24.6764 61.5092 24.7357C61.5044 24.8559 61.5011 24.9744 61.4995 25.0963C61.4995 25.1243 61.4995 25.1506 61.4995 25.1786C61.4995 26.9734 61.9646 28.7369 62.8433 30.2781C63.6992 31.7765 64.9251 33.0395 66.3883 33.9303L66.8939 34.2365C67.2605 34.4588 67.485 34.8606 67.485 35.2953V36.8513H70.3114V31.8407C70.0852 31.7568 69.8704 31.6481 69.6686 31.518C68.7916 30.9565 68.1827 29.9949 68.0955 28.8851C68.089 28.7945 68.0842 28.7023 68.0842 28.6085V25.9163C68.0842 24.0194 69.5975 22.4766 71.4564 22.4766H71.5824C73.4414 22.4766 74.9547 24.0194 74.9547 25.9163V28.6085C74.9547 28.7007 74.9515 28.7929 74.9434 28.8851C74.8562 29.9966 74.2473 30.9565 73.3703 31.518C73.1684 31.6464 72.9552 31.7568 72.7275 31.8407V36.8513H75.5539V35.2953C75.5539 34.8606 75.7784 34.4588 76.145 34.2365L76.6505 33.9303C78.1138 33.0411 79.3412 31.7782 80.1956 30.2781C81.0758 28.7369 81.5394 26.9734 81.5394 25.1786C81.5394 25.1506 81.5394 25.1243 81.5394 25.0963C81.5394 24.9761 81.5361 24.8559 81.5297 24.7357L81.5394 24.7373Z" fill="white"/>
<path d="M76.6512 39.3179H66.4067V43.9596H76.6512V39.3179Z" fill="white"/>
<path d="M71.4657 29.5866H71.5917C71.624 29.5866 71.6579 29.5849 71.6886 29.5816C72.1699 29.5322 72.5462 29.1156 72.5462 28.6118V25.9196C72.5462 25.4158 72.1699 24.9992 71.6886 24.9498C71.6563 24.9465 71.624 24.9448 71.5917 24.9448H71.4657C71.4334 24.9448 71.3995 24.9465 71.3688 24.9498C70.8875 24.9992 70.5112 25.4158 70.5112 25.9196V28.6118C70.5112 29.1156 70.8875 29.5322 71.3688 29.5816C71.4011 29.5849 71.4334 29.5866 71.4657 29.5866Z" fill="white"/>
<path d="M83.9537 24.6113C83.9505 24.5504 83.9473 24.4895 83.944 24.4286C83.936 24.2869 83.9247 24.147 83.9117 24.007C83.9069 23.9543 83.9037 23.9016 83.8988 23.8506C83.881 23.6777 83.8584 23.5048 83.8342 23.3319C83.8245 23.2611 83.8132 23.192 83.8019 23.1228C83.7825 23.0042 83.7615 22.8873 83.7389 22.7704C83.726 22.7013 83.7131 22.6338 83.6985 22.5646C83.663 22.3967 83.6259 22.2287 83.5839 22.0624C83.571 22.0081 83.5548 21.9554 83.5403 21.901C83.5177 21.8171 83.4967 21.7314 83.4724 21.6475C83.4676 21.6293 83.4611 21.6129 83.4547 21.5948C82.8474 19.5069 81.7233 17.6429 80.2326 16.1561C80.2213 16.1445 80.2116 16.1314 80.2003 16.1198C80.1486 16.0688 80.0953 16.021 80.042 15.97C79.9693 15.9008 79.8967 15.83 79.8224 15.7625C79.7416 15.6884 79.6576 15.616 79.5753 15.5435C79.509 15.4859 79.4428 15.4283 79.375 15.3723C79.2781 15.2916 79.178 15.2126 79.0794 15.1352C79.0245 15.0924 78.9712 15.0496 78.9147 15.0067C78.7984 14.9195 78.6821 14.8355 78.5626 14.7532C78.5206 14.7235 78.4802 14.6939 78.4366 14.6659C78.3042 14.5753 78.1701 14.4881 78.0345 14.4024C78.0038 14.3827 77.9731 14.3629 77.9424 14.3448C77.7954 14.2543 77.6469 14.1686 77.4983 14.0847C77.4757 14.0715 77.4531 14.0583 77.4288 14.0451C77.2722 13.9595 77.1155 13.8772 76.9556 13.7981C76.9362 13.7883 76.9152 13.7784 76.8958 13.7685C76.7343 13.6895 76.5712 13.6154 76.4081 13.5446C76.3871 13.5347 76.3661 13.5265 76.3451 13.5166C76.1836 13.4474 76.0205 13.3816 75.8557 13.3206C75.8299 13.3108 75.8041 13.3009 75.7766 13.291C75.6183 13.2317 75.4584 13.1774 75.2969 13.1263C75.263 13.1148 75.2275 13.1033 75.1936 13.0918C75.0417 13.044 74.8867 12.9996 74.7333 12.9584C74.688 12.9469 74.6444 12.9337 74.6008 12.9222C74.4555 12.8843 74.3085 12.8514 74.1615 12.8184C74.1066 12.8069 74.0517 12.7921 73.9968 12.7822C73.8579 12.7542 73.719 12.7295 73.5785 12.7065C73.5139 12.6949 73.4509 12.6834 73.3863 12.6735C73.2522 12.6538 73.1166 12.6373 72.9809 12.6208C72.9115 12.6126 72.842 12.6027 72.7709 12.5945C72.6304 12.5797 72.4899 12.5714 72.3494 12.5616C72.2832 12.5566 72.217 12.55 72.1508 12.5467C71.9473 12.5369 71.7438 12.5319 71.5386 12.5303C71.5354 12.5303 71.5306 12.5303 71.5273 12.5303C71.5273 12.5303 71.5193 12.5303 71.516 12.5303C71.3109 12.5303 71.1074 12.5352 70.9039 12.5467C70.8377 12.55 70.7715 12.5566 70.7053 12.5616C70.5648 12.5714 70.4242 12.5797 70.2837 12.5945C70.2127 12.6011 70.1432 12.6126 70.0738 12.6208C69.9381 12.6373 69.8024 12.6521 69.6684 12.6735C69.6038 12.6834 69.5392 12.6966 69.4762 12.7065C69.3373 12.7295 69.1968 12.7542 69.0579 12.7822C69.003 12.7937 68.9481 12.8069 68.8932 12.8184C68.7462 12.8514 68.5992 12.8843 68.4539 12.9222C68.4086 12.9337 68.365 12.9469 68.3214 12.9584C68.1664 12.9996 68.0129 13.044 67.8611 13.0918C67.8272 13.1033 67.7917 13.1148 67.7578 13.1263C67.5963 13.179 67.4364 13.2334 67.2781 13.291C67.2522 13.3009 67.2264 13.3108 67.1989 13.3206C67.0342 13.3832 66.8711 13.4474 66.7096 13.5166C66.6886 13.5265 66.6676 13.5347 66.6466 13.5446C66.4819 13.6154 66.3203 13.6911 66.1588 13.7685C66.1395 13.7784 66.1185 13.7883 66.0991 13.7981C65.9392 13.8772 65.7825 13.9595 65.6259 14.0451C65.6032 14.0583 65.5806 14.0715 65.5564 14.0847C65.4062 14.1686 65.2576 14.2543 65.1123 14.3448C65.0816 14.3646 65.0509 14.3843 65.0202 14.4024C64.8845 14.4881 64.7505 14.5753 64.6181 14.6659C64.5761 14.6939 64.5341 14.7252 64.4921 14.7532C64.3742 14.8355 64.2563 14.9195 64.14 15.0067C64.0851 15.0479 64.0302 15.0924 63.9753 15.1352C63.8751 15.2126 63.7766 15.2916 63.6797 15.3723C63.6119 15.4283 63.5456 15.4859 63.4794 15.5435C63.3971 15.616 63.3131 15.6868 63.2323 15.7625C63.158 15.83 63.0853 15.9008 63.0127 15.97C62.961 16.0194 62.9061 16.0688 62.8544 16.1198C62.8431 16.1314 62.8334 16.1429 62.8221 16.1561C61.3314 17.6429 60.2089 19.5069 59.6 21.5948C59.5936 21.6129 59.5871 21.6293 59.5823 21.6475C59.558 21.7314 59.537 21.8171 59.5144 21.901C59.4999 21.9554 59.4853 22.0081 59.4708 22.0624C59.4288 22.2287 59.3917 22.3967 59.3561 22.5646C59.3416 22.6321 59.3287 22.7013 59.3158 22.7704C59.2932 22.8873 59.2722 23.0059 59.2528 23.1228C59.2415 23.192 59.2302 23.2628 59.2205 23.3319C59.1962 23.5048 59.1736 23.6777 59.1559 23.8506C59.151 23.9033 59.1462 23.956 59.143 24.007C59.13 24.147 59.1187 24.2886 59.1107 24.4286C59.1074 24.4895 59.1042 24.5504 59.101 24.6113C59.0929 24.8007 59.0864 24.9884 59.0864 25.1778C59.0864 27.4072 59.6646 29.5989 60.758 31.5171C61.803 33.3481 63.2937 34.8943 65.0735 35.9959V37.053C64.4307 37.3741 63.9849 38.0442 63.9849 38.8214V44.4577C63.9849 45.5428 64.8506 46.4254 65.915 46.4254H67.7125V48.1576C67.7125 48.8228 68.0113 49.4172 68.4781 49.8108C68.8415 50.117 69.3082 50.3015 69.8154 50.3015H73.2361C73.7432 50.3015 74.21 50.117 74.5734 49.8108C75.0417 49.4172 75.3389 48.8212 75.3389 48.1576V46.4254H77.1365C78.2008 46.4254 79.0665 45.5428 79.0665 44.4577V38.8214C79.0665 38.0442 78.6207 37.3724 77.9779 37.053V35.9959C79.7578 34.8959 81.2485 33.3498 82.2934 31.5171C83.3868 29.5989 83.965 27.4072 83.965 25.1778C83.965 24.9884 83.9586 24.799 83.9505 24.6113H83.9537ZM72.9228 47.8365H70.1335V46.4254H72.9228V47.8365ZM76.6504 43.9588H66.4059V39.317H76.6504V43.9588ZM70.5115 28.6093V25.9171C70.5115 25.4132 70.8878 24.9966 71.3691 24.9472C71.4014 24.9439 71.4337 24.9423 71.466 24.9423H71.5919C71.6242 24.9423 71.6582 24.9439 71.6889 24.9472C72.1701 24.9966 72.5465 25.4132 72.5465 25.9171V28.6093C72.5465 29.1131 72.1701 29.5297 71.6889 29.5791C71.6565 29.5824 71.6242 29.584 71.5919 29.584H71.466C71.4337 29.584 71.3997 29.5824 71.3691 29.5791C70.8878 29.5297 70.5115 29.1131 70.5115 28.6093ZM80.2051 30.2773C79.3491 31.7756 78.1233 33.0386 76.66 33.9294L76.1545 34.2357C75.7879 34.4579 75.5634 34.8597 75.5634 35.2944V36.8504H72.737V31.8399C72.9631 31.7559 73.1779 31.6472 73.3798 31.5171C74.2568 30.9556 74.8657 29.994 74.9529 28.8842C74.9594 28.7937 74.9642 28.7015 74.9642 28.6076V25.9154C74.9642 24.0185 73.4509 22.4757 71.5919 22.4757H71.466C69.607 22.4757 68.0937 24.0185 68.0937 25.9154V28.6076C68.0937 28.6998 68.0969 28.792 68.105 28.8842C68.1922 29.9957 68.8011 30.9556 69.6781 31.5171C69.88 31.6456 70.0932 31.7559 70.3209 31.8399V36.8504H67.4945V35.2944C67.4945 34.8597 67.27 34.4579 66.9034 34.2357L66.3979 33.9294C64.9346 33.0402 63.7072 31.7773 62.8528 30.2773C61.9726 28.736 61.509 26.9725 61.509 25.1778C61.509 25.1498 61.509 25.1234 61.509 25.0954C61.509 24.9752 61.5123 24.855 61.5187 24.7348C61.522 24.6755 61.5252 24.6163 61.5284 24.5586C61.5349 24.4549 61.543 24.3512 61.551 24.2491C61.5559 24.1997 61.5591 24.1519 61.5639 24.1025C61.5785 23.9642 61.5963 23.8275 61.6156 23.6909C61.6237 23.6332 61.6334 23.5756 61.6431 23.5196C61.6576 23.4258 61.6754 23.3319 61.6932 23.2381C61.7045 23.1821 61.7142 23.1261 61.7255 23.0701C61.7529 22.9367 61.7836 22.8034 61.8159 22.6716C61.8288 22.6189 61.8434 22.5663 61.8579 22.5152C62.3408 20.7056 63.3034 19.0952 64.5987 17.8323C64.6891 17.745 64.7796 17.6578 64.8732 17.5738C64.9072 17.5425 64.9427 17.5129 64.9782 17.4816C65.0622 17.4075 65.1478 17.3334 65.2334 17.2626C65.2819 17.2231 65.3319 17.1835 65.382 17.144C65.4563 17.0847 65.529 17.0271 65.6049 16.9711C65.6695 16.9217 65.7357 16.8756 65.8019 16.8279C65.8633 16.7834 65.9246 16.7406 65.9876 16.6978C66.0684 16.6435 66.1508 16.5908 66.2331 16.5381C66.2832 16.5051 66.3333 16.4739 66.3849 16.4426C66.4786 16.3849 66.5755 16.329 66.6708 16.2746C66.7128 16.2516 66.7548 16.2269 66.7968 16.2038C66.9018 16.1462 67.0067 16.0919 67.115 16.0392C67.1521 16.0211 67.1876 16.0013 67.2248 15.9848C67.3362 15.9305 67.4493 15.8794 67.5623 15.83C67.5962 15.8152 67.6318 15.7988 67.6657 15.7839C67.7804 15.7345 67.895 15.6901 68.0113 15.6456C68.0469 15.6325 68.084 15.6176 68.1195 15.6045C68.2342 15.5617 68.3489 15.5238 68.4652 15.4859C68.5055 15.4727 68.5459 15.4596 68.5863 15.4464C68.6977 15.4118 68.8108 15.3789 68.9255 15.3492C68.9707 15.3361 69.0175 15.3229 69.0627 15.3114C69.1709 15.2834 69.2808 15.2587 69.3906 15.234C69.4423 15.2225 69.494 15.2093 69.5473 15.1994C69.6522 15.178 69.7572 15.1599 69.8638 15.1418C69.922 15.1319 69.9785 15.1204 70.0366 15.1121C70.14 15.0957 70.245 15.0841 70.35 15.071C70.4097 15.0644 70.4711 15.0545 70.5308 15.0479C70.6407 15.0364 70.7505 15.0298 70.8619 15.0216C70.9185 15.0183 70.9734 15.0117 71.0299 15.0084C71.193 15.0002 71.3561 14.9952 71.5209 14.9952C71.5257 14.9952 71.529 14.9952 71.5338 14.9952C71.5386 14.9952 71.5419 14.9952 71.5467 14.9952C71.7115 14.9952 71.8746 15.0002 72.0377 15.0084C72.0942 15.0117 72.1491 15.0166 72.2057 15.0216C72.3155 15.0298 72.4269 15.0364 72.5368 15.0479C72.5981 15.0545 72.6579 15.0627 72.7177 15.071C72.8226 15.0841 72.9276 15.0957 73.031 15.1121C73.0891 15.1204 73.1473 15.1319 73.2038 15.1418C73.3104 15.1599 73.4154 15.178 73.5203 15.1994C73.572 15.2109 73.6237 15.2225 73.677 15.234C73.7868 15.2587 73.8967 15.2834 74.0049 15.3114C74.0517 15.3229 74.0969 15.3361 74.1421 15.3492C74.2552 15.3805 74.3683 15.4118 74.4813 15.4464C74.5217 15.4596 74.5621 15.4727 74.6024 15.4859C74.7187 15.5238 74.8334 15.5633 74.9481 15.6045C74.9852 15.6176 75.0207 15.6325 75.0563 15.6456C75.1726 15.6901 75.2888 15.7362 75.4019 15.7839C75.4374 15.7988 75.4714 15.8152 75.5053 15.83C75.6183 15.8794 75.7314 15.9305 75.8428 15.9848C75.88 16.0029 75.9155 16.0211 75.9526 16.0392C76.0592 16.0919 76.1658 16.1478 76.2708 16.2038C76.3128 16.2269 76.3548 16.2516 76.3968 16.2746C76.4937 16.329 76.589 16.3849 76.6827 16.4426C76.7343 16.4739 76.7844 16.5068 76.8345 16.5381C76.9168 16.5908 76.9992 16.6435 77.08 16.6978C77.143 16.7406 77.2043 16.7851 77.2657 16.8279C77.3319 16.8756 77.3981 16.9217 77.4627 16.9711C77.537 17.0271 77.6113 17.0864 77.6856 17.144C77.7357 17.1835 77.7841 17.2214 77.8342 17.2626C77.9214 17.3334 78.0054 17.4075 78.0894 17.4816C78.1249 17.5129 78.1605 17.5425 78.1944 17.5738C78.288 17.6578 78.3785 17.745 78.4689 17.8323C79.7642 19.0952 80.7268 20.7056 81.2097 22.5152C81.2242 22.5679 81.2388 22.6206 81.2517 22.6716C81.284 22.8034 81.3147 22.9367 81.3421 23.0701C81.3535 23.1261 81.3648 23.1821 81.3745 23.2381C81.3922 23.3319 81.4084 23.4258 81.4245 23.5196C81.4342 23.5773 81.4439 23.6332 81.452 23.6909C81.4714 23.8275 81.4891 23.9642 81.5037 24.1042C81.5085 24.1519 81.5117 24.2013 81.5166 24.2507C81.5263 24.3528 81.5343 24.4565 81.5392 24.5603C81.5424 24.6196 81.5456 24.6772 81.5489 24.7365C81.5537 24.8567 81.557 24.9752 81.5586 25.0971C81.5586 25.1251 81.5586 25.1514 81.5586 25.1794C81.5586 26.9742 81.0934 28.7377 80.2148 30.2789L80.2051 30.2773Z" fill="#353950"/>
<path d="M71.5276 11.0193C72.1962 11.0193 72.7372 10.4677 72.7372 9.786V7.74258C72.7372 7.06089 72.1962 6.50928 71.5276 6.50928C70.8589 6.50928 70.3179 7.06089 70.3179 7.74258V9.786C70.3179 10.466 70.8589 11.0193 71.5276 11.0193Z" fill="#353950"/>
<path d="M64.1471 11.6717C64.3473 12.1294 64.7882 12.4011 65.2502 12.4011C65.4149 12.4011 65.5829 12.3665 65.7444 12.2941C66.3533 12.0158 66.6262 11.2864 66.3532 10.6656L65.5328 8.80002C65.2598 8.17925 64.5444 7.90098 63.9355 8.17925C63.3266 8.45753 63.0537 9.18697 63.3266 9.80773L64.1454 11.6733L64.1471 11.6717Z" fill="#353950"/>
<path d="M57.7695 14.5862L59.2666 15.9495C59.4976 16.1586 59.7851 16.264 60.0726 16.264C60.4053 16.264 60.7364 16.1257 60.9738 15.8524C61.4195 15.3452 61.3759 14.5647 60.8785 14.1119L59.3813 12.7486C58.8839 12.2941 58.1183 12.3386 57.6742 12.8457C57.2284 13.3529 57.272 14.1317 57.7695 14.5862Z" fill="#353950"/>
<path d="M54.6102 21.2524L56.5241 21.8781C56.6468 21.9176 56.7712 21.9374 56.8939 21.9374C57.4059 21.9374 57.8807 21.6048 58.0439 21.0811C58.2474 20.4324 57.8985 19.7392 57.2622 19.5301L55.3483 18.9044C54.712 18.6969 54.032 19.0525 53.8269 19.7013C53.6234 20.3501 53.9739 21.0433 54.6102 21.2507V21.2524Z" fill="#353950"/>
<path d="M54.2643 28.6571C54.3079 28.6571 54.3515 28.6538 54.3967 28.6489L56.3945 28.4283C57.0583 28.3558 57.538 27.7466 57.4653 27.0698C57.3943 26.3931 56.7983 25.904 56.1329 25.9781L54.1351 26.2004C53.4713 26.2729 52.9916 26.8821 53.0626 27.5589C53.1305 28.1911 53.6538 28.6588 54.2626 28.6588L54.2643 28.6571Z" fill="#353950"/>
<path d="M55.9505 33.3652C55.374 33.7077 55.1785 34.4619 55.5145 35.0497C55.739 35.4432 56.1444 35.6622 56.561 35.6622C56.7678 35.6622 56.9761 35.6079 57.1683 35.4943L58.9029 34.4635C59.4795 34.121 59.6749 33.3669 59.339 32.779C59.003 32.1896 58.2633 31.992 57.6851 32.3345L55.9489 33.3652H55.9505Z" fill="#353950"/>
<path d="M77.3118 12.2921C77.4717 12.3646 77.6397 12.4008 77.806 12.4008C78.2679 12.4008 78.7088 12.1291 78.9091 11.6714L79.7296 9.80578C80.0025 9.18502 79.7296 8.45557 79.1207 8.1773C78.5118 7.89903 77.7963 8.1773 77.5234 8.79807L76.7045 10.6637C76.4316 11.2844 76.7045 12.0139 77.3134 12.2921H77.3118Z" fill="#353950"/>
<path d="M82.9856 16.264C83.2714 16.264 83.5605 16.1603 83.7915 15.9495L85.2886 14.5862C85.7861 14.1317 85.8297 13.3529 85.3839 12.8457C84.9382 12.3386 84.1742 12.2941 83.6768 12.7486L82.1796 14.1119C81.6822 14.5664 81.6386 15.3452 82.0843 15.8524C82.3234 16.1241 82.6545 16.264 82.9856 16.264Z" fill="#353950"/>
<path d="M85.0113 21.0811C85.176 21.6047 85.6508 21.9373 86.1628 21.9373C86.2855 21.9373 86.4099 21.9176 86.5327 21.8781L88.4465 21.2523C89.0812 21.0449 89.4317 20.3517 89.2282 19.7029C89.0247 19.0541 88.3432 18.6968 87.7068 18.906L85.7929 19.5317C85.1566 19.7391 84.8061 20.434 85.0113 21.0827V21.0811Z" fill="#353950"/>
<path d="M88.9203 26.1988L86.9224 25.9765C86.257 25.9007 85.6627 26.3914 85.59 27.0682C85.5189 27.7449 85.997 28.3541 86.6624 28.4266L88.6603 28.6472C88.7055 28.6522 88.7491 28.6538 88.7927 28.6538C89.4016 28.6538 89.9249 28.1862 89.9927 27.5555C90.0654 26.8788 89.5857 26.2696 88.9219 26.1971L88.9203 26.1988Z" fill="#353950"/>
<path d="M87.1055 33.3649L85.371 32.3341C84.7944 31.9916 84.0531 32.1908 83.7171 32.7787C83.3812 33.3665 83.5766 34.1223 84.1532 34.4648L85.8878 35.4956C86.08 35.6092 86.2883 35.6635 86.495 35.6635C86.9117 35.6635 87.3155 35.4445 87.5416 35.051C87.8775 34.4631 87.6821 33.7074 87.1055 33.3665V33.3649Z" fill="#353950"/>
</svg>
