<svg width="82" height="83" viewBox="0 0 82 83" fill="none" xmlns="http://www.w3.org/2000/svg">
<path d="M41 81.4689C63.6437 81.4689 82 63.2315 82 40.7344C82 18.2374 63.6437 0 41 0C18.3563 0 0 18.2374 0 40.7344C0 63.2315 18.3563 81.4689 41 81.4689Z" fill="#00ABB3"/>
<path d="M61.799 18.4958L57.1561 10.1948C56.3028 8.67554 54.6961 7.73975 52.9453 7.73975H29.7415C27.9907 7.73975 26.3839 8.67554 25.5307 10.1948L20.8877 18.4958L41.3323 29.2519L61.7769 18.4958H61.799Z" fill="white"/>
<path d="M22.1067 74.665V79.4431C22.1067 80.7642 23.1816 81.8321 24.5113 81.8321H58.1978C59.5275 81.8321 60.6024 80.7642 60.6024 79.4431V74.665H22.1067Z" fill="white"/>
<path d="M60.6023 77.0543L68.9463 73.7185C70.3425 73.157 71.2401 71.8029 71.2069 70.3056L71.1182 63.9092H59.4055L60.6134 77.0543H60.6023Z" fill="white"/>
<path d="M22.1067 77.0543L13.7627 73.7185C12.3664 73.157 11.4689 71.8029 11.5021 70.3056L11.5908 63.9092H23.3035L22.0956 77.0543H22.1067Z" fill="white"/>
<path d="M71.5395 25.4972C71.473 22.6899 69.7665 20.1797 67.1625 19.0678L58.497 15.3907C57.4 14.9173 56.1368 15.0274 55.1284 15.6769L43.3049 23.2293C42.1192 23.9889 40.59 23.9889 39.4044 23.2293L27.5808 15.6769C26.5725 15.0384 25.3092 14.9283 24.2122 15.3907L15.5468 19.0678C12.9427 20.1687 11.2362 22.6899 11.1698 25.4972L10.2943 63.1381C10.2611 64.6353 11.1587 65.9895 12.5549 66.5509L20.8989 69.8868V74.6648C20.8989 75.9859 21.9738 77.0538 23.3035 77.0538H59.3946C60.7243 77.0538 61.7992 75.9859 61.7992 74.6648V69.8868L70.1433 66.5509C71.5395 65.9895 72.437 64.6353 72.4038 63.1381L71.5284 25.4972H71.5395Z" fill="white"/>
<path d="M37.7421 38.8076L34.1296 53.1528H40.1467L36.5342 67.4979L50.9729 49.5747H43.7591L48.5683 38.8186H37.7421V38.8076Z" fill="#00ABB3"/>
<path d="M40.6455 17.9782C41.0666 18.2864 41.6428 18.2864 42.0639 17.9782L55.3612 8.36706C54.6409 7.95971 53.8209 7.72852 52.9677 7.72852H29.7639C28.9106 7.72852 28.0796 7.95971 27.3704 8.36706L40.6677 17.9782H40.6455Z" fill="white"/>
<path d="M73.5341 63.1053L72.6587 25.4644C72.5811 22.2277 70.5976 19.3102 67.6057 18.0331L61.5332 15.4459L58.1646 9.57798C57.1119 7.73943 55.1395 6.60547 53.0119 6.60547H29.7305C27.603 6.60547 25.6305 7.73943 24.5778 9.57798L21.2092 15.4459L15.1368 18.0331C12.1449 19.3102 10.1503 22.2277 10.0838 25.4644L9.20838 63.1053C9.17514 64.3603 9.66271 65.5493 10.5049 66.4301L10.4162 70.2723C10.3719 72.221 11.5576 74.0155 13.386 74.7421L21.0319 77.7917V79.4211C21.0319 81.3587 22.6165 82.933 24.5668 82.933H58.2533C60.2035 82.933 61.7881 81.3587 61.7881 79.4211V77.7917L69.4341 74.7421C71.2514 74.0155 72.4481 72.221 72.4038 70.2723L72.3151 66.4301C73.1462 65.5493 73.6338 64.3603 73.6116 63.1053H73.5341ZM52.7792 8.85137L41.3989 17.0753C41.3989 17.0753 41.3324 17.0973 41.3103 17.0753L29.93 8.85137H52.7792ZM15.99 20.0919L24.6554 16.4148C25.4089 16.0955 26.2843 16.1616 26.9714 16.6129L28.7111 17.7249C29.2319 18.0552 29.93 17.912 30.2624 17.3946C30.5949 16.8772 30.4508 16.1836 29.93 15.8533L28.1903 14.7413C27.1043 14.0478 25.7857 13.8276 24.5557 14.1138L26.517 10.7119C26.7276 10.3376 27.0046 10.0184 27.326 9.74312L39.9916 18.8919C40.4016 19.1891 40.8781 19.3322 41.3657 19.3322C41.8533 19.3322 42.3297 19.1891 42.7397 18.8919L55.4054 9.74312C55.7268 10.0184 56.0038 10.3376 56.2143 10.7119L58.1757 14.1138C56.9346 13.8276 55.627 14.0368 54.5411 14.7413L42.7176 22.2937C41.8976 22.8112 40.8449 22.8112 40.036 22.2937L33.7641 18.2863C33.2432 17.9561 32.5451 18.0992 32.2127 18.6166C31.8803 19.1341 32.0243 19.8277 32.5451 20.1579L35.4373 22.0075V32.8407C35.4373 33.4572 35.936 33.9636 36.5676 33.9636C37.1992 33.9636 37.6978 33.4682 37.6978 32.8407V23.4497L38.8281 24.1653C40.3795 25.1562 42.3962 25.1562 43.9476 24.1653L45.0778 23.4497V32.8407C45.0778 33.4572 45.5765 33.9636 46.2081 33.9636C46.8397 33.9636 47.3384 33.4682 47.3384 32.8407V22.0075L55.7822 16.6129C56.4803 16.1726 57.3446 16.0955 58.0981 16.4148L66.7635 20.0919C67.373 20.3561 67.927 20.7084 68.4146 21.1378L63.1732 26.3452C61.5997 27.9085 60.7243 29.9892 60.7243 32.2021V35.2077C60.7243 35.8242 61.223 36.3306 61.8546 36.3306C62.4862 36.3306 62.9849 35.8352 62.9849 35.2077V32.2021C62.9849 30.5837 63.6165 29.0645 64.7689 27.9195L69.8108 22.9103C70.2097 23.7029 70.4424 24.5837 70.4646 25.4974L71.34 63.1383C71.3622 64.1621 70.7416 65.0979 69.7887 65.4833L62.9849 68.2026V39.9747C62.9849 39.3582 62.4862 38.8517 61.8546 38.8517C61.223 38.8517 60.7243 39.3472 60.7243 39.9747V74.632C60.7243 75.3366 60.1481 75.9091 59.4389 75.9091H23.3146C22.6054 75.9091 22.0292 75.3366 22.0292 74.632V32.2131C22.0292 30.0003 21.1649 27.9195 19.5803 26.3562L14.3389 21.1488C14.8265 20.7194 15.3805 20.3561 15.99 20.1029V20.0919ZM12.3 25.5195C12.3222 24.6057 12.5549 23.7249 12.9538 22.9323L17.9957 27.9415C19.1481 29.0865 19.7797 30.6058 19.7797 32.2241V68.2356L12.976 65.5163C12.023 65.131 11.3914 64.1952 11.4246 63.1713L12.3 25.5305V25.5195ZM12.6214 70.3274L12.6768 67.7952L19.7687 70.6356V74.665C19.7687 74.7531 19.7687 74.8412 19.7687 74.9182L14.1616 72.6723C13.2087 72.287 12.577 71.3512 12.6103 70.3274H12.6214ZM58.1978 80.7091H24.5114C23.8022 80.7091 23.226 80.1367 23.226 79.4321V78.155C23.226 78.155 23.2814 78.155 23.3035 78.155H59.3946C59.3946 78.155 59.45 78.155 59.4722 78.155V79.4321C59.4722 80.1367 58.896 80.7091 58.1868 80.7091H58.1978ZM68.5254 72.6834L62.9184 74.9292C62.9184 74.8412 62.9184 74.7531 62.9184 74.676V70.6466L70.0103 67.8062L70.0657 70.3384C70.0878 71.3622 69.4673 72.298 68.5143 72.6834H68.5254Z" fill="#353950"/>
<path d="M34.141 54.2648H38.7175L35.4597 67.2118C35.3267 67.7182 35.5815 68.2466 36.047 68.4888C36.2021 68.5659 36.3794 68.6099 36.5456 68.6099C36.878 68.6099 37.2105 68.4668 37.421 68.1916L51.8597 50.2684C52.1256 49.9382 52.181 49.4758 51.9926 49.0904C51.8042 48.7051 51.4053 48.4519 50.9732 48.4519H45.488L49.5991 39.2701C49.7542 38.9288 49.721 38.5215 49.5105 38.2022C49.2999 37.883 48.9453 37.6958 48.5686 37.6958H37.7424C37.2215 37.6958 36.7783 38.0481 36.6453 38.5435L33.0329 52.8886C32.9442 53.2189 33.0329 53.5712 33.2324 53.8465C33.4318 54.1217 33.7753 54.2758 34.1188 54.2758L34.141 54.2648ZM38.6288 39.9307H46.8399L42.7288 49.1125C42.5737 49.4537 42.607 49.8611 42.8175 50.1804C43.028 50.4996 43.3826 50.6868 43.7594 50.6868H48.6351L38.8837 62.797L41.244 53.4281C41.3326 53.0978 41.244 52.7455 41.0445 52.4703C40.8451 52.1951 40.5015 52.0409 40.158 52.0409H35.5815L38.6288 39.9307Z" fill="#353950"/>
</svg>
