<svg width="84" height="73" viewBox="0 0 84 73" fill="none" xmlns="http://www.w3.org/2000/svg">
<path d="M36.5192 73C56.6776 73 73.0192 56.6584 73.0192 36.5C73.0192 16.3416 56.6776 0 36.5192 0C16.3608 0 0.019165 16.3416 0.019165 36.5C0.019165 56.6584 16.3608 73 36.5192 73Z" fill="#00ABB3"/>
<path d="M70.5411 32.3313L68.7737 28.5084C64.8163 19.9309 56.2292 14.4463 46.7873 14.4463H11.9009C6.00331 14.4463 1.22949 19.2201 1.22949 25.1177V53.8183C1.22949 56.6806 3.55397 59.0051 6.41633 59.0051H76.6404C79.5028 59.0051 81.8273 56.6806 81.8273 53.8183V43.6559C81.8273 42.5417 81.3086 41.4851 80.4345 40.7935L72.0683 34.2523C71.4152 33.7433 70.8965 33.0901 70.5507 32.3409L70.5411 32.3313Z" fill="white"/>
<path d="M1.22949 51.312V53.819C1.22949 56.6814 3.55397 59.0058 6.41633 59.0058H76.6404C79.5028 59.0058 81.8273 56.6814 81.8273 53.819V47.3354H6.81976" fill="white"/>
<path d="M6.81976 47.3354H1.22949V51.312" fill="#E1DEE2"/>
<path d="M15.5798 66.3057C19.3993 66.3057 22.4956 63.2094 22.4956 59.3899C22.4956 55.5704 19.3993 52.4741 15.5798 52.4741C11.7603 52.4741 8.664 55.5704 8.664 59.3899C8.664 63.2094 11.7603 66.3057 15.5798 66.3057Z" fill="white"/>
<path d="M63.9999 66.334C67.8194 66.334 70.9157 63.2377 70.9157 59.4182C70.9157 55.5987 67.8194 52.5024 63.9999 52.5024C60.1804 52.5024 57.0841 55.5987 57.0841 59.4182C57.0841 63.2377 60.1804 66.334 63.9999 66.334Z" fill="white"/>
<path d="M64.2495 33.955C62.5206 26.2228 55.624 20.4404 47.3635 20.4404H45.8747C44.7893 20.4404 43.9056 21.3241 43.9056 22.4095V31.9764C43.9056 33.0617 44.7893 33.9454 45.8747 33.9454H64.2399L64.2495 33.955Z" fill="#00ABB3"/>
<path d="M4.32239 50.7739H1.22949V43.6948H4.32239C5.47502 43.6948 6.41633 44.6361 6.41633 45.7888V48.68C6.41633 49.8326 5.47502 50.7739 4.32239 50.7739Z" fill="white"/>
<path d="M63.4812 37.4226H59.3125C57.4011 37.4226 55.8546 35.8762 55.8546 33.9647C55.8546 32.0533 57.4011 30.5068 59.3125 30.5068C62.1749 30.5068 64.4994 32.8313 64.4994 35.6937V36.3949C64.4994 36.9616 64.0383 37.4226 63.4716 37.4226H63.4812Z" fill="#FBFBFB"/>
<path d="M81.8273 50.3894H77.4761C75.1036 50.3894 73.173 48.4684 73.173 46.0863V45.3563C73.173 44.6359 73.7493 44.0596 74.4697 44.0596H81.8177V50.3798L81.8273 50.3894Z" fill="white"/>
<path d="M81.1837 39.8333L72.8175 33.2921C72.318 32.9079 71.9242 32.3988 71.6553 31.8321L69.8879 28.0092C65.748 19.0379 56.6807 13.2363 46.7968 13.2363H29.0463C28.3739 13.2363 27.8264 13.7838 27.8264 14.4562C27.8264 15.1286 28.3739 15.6761 29.0463 15.6761H46.7968C55.7297 15.6761 63.9326 20.9205 67.6787 29.0274L69.4461 32.8503C69.8687 33.7724 70.5218 34.5888 71.3191 35.2132L79.6853 41.7544C80.0599 42.0425 80.3288 42.4267 80.4825 42.859H74.4792C73.0961 42.859 71.9626 43.9828 71.9626 45.3755V46.1055C71.9626 46.1055 71.9626 46.1248 71.9626 46.1344H34.9439C34.2716 46.1344 33.7241 46.6819 33.7241 47.3542C33.7241 48.0266 34.2716 48.5741 34.9439 48.5741H72.5486C73.4514 50.3799 75.3245 51.6286 77.4857 51.6286H80.617V53.8378C80.617 56.0278 78.8304 57.8144 76.6404 57.8144H71.9915C71.2326 54.1067 67.9476 51.3116 64.0191 51.3116C60.0905 51.3116 56.8055 54.1067 56.0467 57.8144H23.5521C22.7933 54.1067 19.5083 51.3116 15.5797 51.3116C11.6512 51.3116 8.36618 54.1067 7.60737 57.8144H6.41632C4.22632 57.8144 2.43974 56.0278 2.43974 53.8378V52.0128H4.32237C6.14737 52.0128 7.63618 50.524 7.63618 48.699V48.5741H30.0741C30.7464 48.5741 31.2939 48.0266 31.2939 47.3542C31.2939 46.6819 30.7464 46.1344 30.0741 46.1344H7.63618V45.7982C7.63618 43.9732 6.14737 42.4844 4.32237 42.4844H2.43974V25.1276C2.43974 19.912 6.68526 15.6761 11.8913 15.6761H24.1764C24.8488 15.6761 25.3963 15.1286 25.3963 14.4562C25.3963 13.7838 24.8488 13.2363 24.1764 13.2363H11.8913C5.34053 13.2363 0 18.5673 0 25.1276V53.8282C0 57.3629 2.87197 60.2349 6.40671 60.2349H7.4729C7.87632 64.3459 11.3534 67.5733 15.5701 67.5733C19.7868 67.5733 23.2639 64.3459 23.6674 60.2349H55.9122C56.3157 64.3459 59.7928 67.5733 64.0095 67.5733C68.2262 67.5733 71.7033 64.3459 72.1067 60.2349H76.6308C80.1655 60.2349 83.0375 57.3629 83.0375 53.8282V43.6658C83.0375 42.1674 82.3555 40.7746 81.1741 39.8429L81.1837 39.8333ZM4.32237 44.9049C4.80263 44.9049 5.19645 45.2987 5.19645 45.779V48.6701C5.19645 49.1504 4.80263 49.5442 4.32237 49.5442H2.43974V44.8953H4.32237V44.9049ZM15.5797 65.124C12.4388 65.124 9.87421 62.569 9.87421 59.4184C9.87421 56.2679 12.4292 53.7129 15.5797 53.7129C18.7303 53.7129 21.2853 56.2679 21.2853 59.4184C21.2853 62.569 18.7303 65.124 15.5797 65.124ZM64.0095 65.124C60.8686 65.124 58.3039 62.569 58.3039 59.4184C58.3039 56.2679 60.8589 53.7129 64.0095 53.7129C67.16 53.7129 69.715 56.2679 69.715 59.4184C69.715 62.5594 67.16 65.124 64.0095 65.124ZM77.4761 49.1792C75.7759 49.1792 74.3928 47.7961 74.3928 46.0959V45.3659C74.3928 45.3659 74.4312 45.2891 74.4696 45.2891H80.6074V49.1792H77.4761Z" fill="#353950"/>
<path d="M45.8747 35.1752H54.798C55.3359 37.1635 57.1513 38.6331 59.3125 38.6331H63.4812C64.7202 38.6331 65.7192 37.6245 65.7192 36.3951V35.6939C65.7192 31.2659 62.2517 25.983 59.0243 23.3607C55.7393 20.7001 51.5995 19.2305 47.3731 19.2305H45.8843C44.1266 19.2305 42.6954 20.6617 42.6954 22.4194V31.9863C42.6954 33.744 44.1266 35.1752 45.8843 35.1752H45.8747ZM63.2891 36.203H59.3125C58.0734 36.203 57.0649 35.1944 57.0649 33.9553C57.0649 32.7163 58.0734 31.7077 59.3125 31.7077C61.5025 31.7077 63.2891 33.4943 63.2891 35.6843V36.1934V36.203ZM45.1255 22.4194C45.1255 22.0064 45.4617 21.6606 45.8843 21.6606H47.3731C51.052 21.6606 54.6443 22.9381 57.4971 25.2434C58.9955 26.4536 60.2538 27.9328 61.2143 29.5657C60.6188 29.3832 59.9752 29.2776 59.3125 29.2776C57.1513 29.2776 55.3359 30.7472 54.798 32.7355H45.8747C45.4617 32.7355 45.1159 32.3993 45.1159 31.9767V22.4098L45.1255 22.4194Z" fill="#353950"/>
<path d="M43.9056 41.6106H50.1778C50.8502 41.6106 51.3977 41.0631 51.3977 40.3908C51.3977 39.7184 50.8502 39.1709 50.1778 39.1709H43.9056C43.2332 39.1709 42.6857 39.7184 42.6857 40.3908C42.6857 41.0631 43.2332 41.6106 43.9056 41.6106Z" fill="#353950"/>
<path d="M15.5797 62.1269C17.0916 62.1269 18.3172 60.9012 18.3172 59.3894C18.3172 57.8775 17.0916 56.6519 15.5797 56.6519C14.0678 56.6519 12.8422 57.8775 12.8422 59.3894C12.8422 60.9012 14.0678 62.1269 15.5797 62.1269Z" fill="#353950"/>
<path d="M64.0095 62.1269C65.5214 62.1269 66.747 60.9012 66.747 59.3894C66.747 57.8775 65.5214 56.6519 64.0095 56.6519C62.4977 56.6519 61.272 57.8775 61.272 59.3894C61.272 60.9012 62.4977 62.1269 64.0095 62.1269Z" fill="#353950"/>
</svg>
