<svg width="75" height="70" viewBox="0 0 75 70" fill="none" xmlns="http://www.w3.org/2000/svg">
<circle cx="35" cy="35" r="35" fill="#00ABB3"/>
<path d="M40.054 54.3545H31.9087L31.237 60.0529C31.1599 60.7233 30.9508 61.351 30.6372 61.9102H41.3255C41.0119 61.351 40.8028 60.7233 40.7244 60.0517L40.0527 54.3545H40.054Z" fill="white"/>
<path d="M61.1119 17.4697C59.5516 17.4697 58.2827 18.7239 58.2827 20.266C58.2827 21.8081 59.5516 23.0623 61.1119 23.0623C62.6723 23.0623 63.9425 21.8081 63.9425 20.266C63.9425 18.7239 62.6513 17.4956 61.1119 17.4697Z" fill="white"/>
<path d="M10.7058 50.8234C10.7058 51.2716 11.1736 51.7714 11.7983 51.7714H58.8313C59.4572 51.7714 59.9238 51.2703 59.9238 50.8234V47.7817H10.7058V50.8234Z" fill="white"/>
<path d="M59.9238 34.5222L59.0064 34.4667C57.3402 34.4434 55.9537 33.064 55.9537 31.4056V30.1437C55.9537 29.7175 55.4036 29.4101 55.0363 29.6206L53.9308 30.2522C52.4698 31.0866 50.541 30.5725 49.6981 29.1298L47.6372 25.6038C46.7839 24.1431 47.2909 22.2677 48.7689 21.4217L49.8771 20.7901C50.2325 20.5873 50.2325 19.9454 49.8771 19.7426L48.7729 19.1123C47.4739 18.3697 46.8911 16.7565 47.4229 15.3758H36.9502C36.9385 15.3758 36.928 15.3745 36.9176 15.3745H25.2492C25.2374 15.3745 25.227 15.3758 25.2165 15.3758H11.7983C11.1658 15.3758 10.7058 15.886 10.7058 16.5873V45.1971H59.9238V34.5209V34.5222ZM43.9691 32.271C44.561 31.8835 45.3869 32.0398 45.7816 32.6274C46.1736 33.2125 46.0142 34.0288 45.4209 34.4189C44.8276 34.8089 44.0043 34.6449 43.6084 34.0611C43.215 33.4773 43.3758 32.6597 43.9691 32.271ZM33.9812 18.8682C34.5039 18.3761 35.3311 18.3968 35.829 18.9134L39.5442 22.7714C40.0238 23.2699 40.0238 24.0539 39.5442 24.5525L35.829 28.4104C35.3377 28.9206 34.4974 28.9413 33.9812 28.4556C33.4585 27.9635 33.4376 27.146 33.9355 26.6293L36.7934 23.6613L33.9355 20.6932C33.4376 20.1766 33.4585 19.359 33.9812 18.8669V18.8682ZM24.1018 26.8425L28.9108 19.1266C29.2898 18.5195 30.0948 18.3296 30.709 18.7042C31.3232 19.0788 31.5153 19.8744 31.1363 20.4814L26.3273 28.1973C25.9535 28.7966 25.1355 28.9891 24.5291 28.6197C23.9149 28.2451 23.7228 27.4495 24.1018 26.8425ZM15.541 22.7714L19.2562 18.9134C19.7541 18.3968 20.5813 18.3761 21.104 18.8682C21.6267 19.3603 21.6476 20.1779 21.1497 20.6945L18.2918 23.6626L21.1497 26.6306C21.6476 27.1473 21.6267 27.9648 21.104 28.4569C20.5878 28.9426 19.7476 28.9219 19.2562 28.4117L15.541 24.5538C15.0614 24.0552 15.0614 23.2712 15.541 22.7727V22.7714ZM16.4871 32.0527H38.8412C39.5625 32.0527 40.148 32.6313 40.148 33.3443C40.148 34.0572 39.5625 34.6359 38.8412 34.6359H16.4871C15.7657 34.6359 15.1803 34.0572 15.1803 33.3443C15.1803 32.6313 15.7657 32.0527 16.4871 32.0527ZM32.4758 41.1906H16.4871C15.7657 41.1906 15.1803 40.612 15.1803 39.899C15.1803 39.1861 15.7657 38.6075 16.4871 38.6075H32.4758C33.1971 38.6075 33.7826 39.1861 33.7826 39.899C33.7826 40.612 33.1971 41.1906 32.4758 41.1906ZM50.6507 41.1906H39.4867C38.7654 41.1906 38.1799 40.612 38.1799 39.899C38.1799 39.1861 38.7654 38.6075 39.4867 38.6075H50.6507C51.3721 38.6075 51.9575 39.1861 51.9575 39.899C51.9575 40.612 51.3721 41.1906 50.6507 41.1906Z" fill="white"/>
<path d="M72.3231 16.221L70.2623 12.6924C70.1303 12.4651 69.831 12.3863 69.601 12.518L68.4942 13.1483C66.4059 14.3404 63.6564 12.7712 63.6564 10.3882V9.12632C63.6564 8.86284 63.4395 8.64844 63.1729 8.64844H59.0513C58.7847 8.64844 58.5677 8.86284 58.5677 9.12632V10.3882C58.5677 12.7712 55.8169 14.3404 53.73 13.1483L52.6244 12.518C52.3944 12.3876 52.0965 12.4651 51.9632 12.6924L49.9024 16.221C49.7678 16.4509 49.8592 16.7376 50.0801 16.8745L51.1843 17.5048C53.2556 18.684 53.2517 21.8458 51.1843 23.0263L50.0775 23.6579C49.8475 23.7896 49.7678 24.0828 49.9011 24.3114L51.9619 27.8388C52.0939 28.0648 52.3944 28.1436 52.6218 28.0144L53.7274 27.3828C55.8156 26.1907 58.5664 27.76 58.5664 30.1442V31.4061C58.5664 31.667 58.786 31.8853 59.05 31.8853H63.1716C63.4382 31.8853 63.6551 31.6709 63.6551 31.4074V30.1455C63.6551 27.7625 66.4059 26.1933 68.4929 27.3854L69.5997 28.017C69.8297 28.1487 70.1277 28.0674 70.2597 27.8413L72.3205 24.314C72.4538 24.0854 72.3741 23.7935 72.1428 23.6605L71.0385 23.0302C68.9699 21.8484 68.9725 18.6853 71.0385 17.5074L72.1415 16.8771C72.3728 16.7454 72.4525 16.4522 72.3192 16.2236L72.3231 16.221ZM61.1121 25.6456C58.1104 25.6456 55.6693 23.2317 55.6693 20.2662C55.6693 17.3007 58.1104 14.8868 61.1121 14.8868C64.0798 14.8868 66.5562 17.333 66.5562 20.2662C66.5562 23.1994 64.1138 25.6456 61.1121 25.6456Z" fill="white"/>
<path d="M19.2553 28.4108C19.7467 28.921 20.587 28.9416 21.1032 28.456C21.6259 27.9639 21.6468 27.1463 21.1489 26.6297L18.2909 23.6617L21.1489 20.6936C21.6468 20.177 21.6259 19.3594 21.1032 18.8673C20.5804 18.3752 19.7532 18.3959 19.2553 18.9125L15.5401 22.7705C15.0605 23.269 15.0605 24.053 15.5401 24.5516L19.2553 28.4095V28.4108Z" fill="#353950"/>
<path d="M36.7944 23.6618L33.9364 26.6299C33.4385 27.1465 33.4595 27.9641 33.9822 28.4562C34.4984 28.9418 35.3386 28.9211 35.83 28.411L39.5452 24.553C40.0248 24.0545 40.0248 23.2705 39.5452 22.7719L35.83 18.914C35.3321 18.3973 34.5049 18.3767 33.9822 18.8688C33.4595 19.3609 33.4385 20.1784 33.9364 20.6951L36.7944 23.6631V23.6618Z" fill="#353950"/>
<path d="M24.5295 28.6203C25.1358 28.9897 25.9539 28.7973 26.3276 28.198L31.1367 20.4821C31.5156 19.8751 31.3235 19.0794 30.7093 18.7049C30.0951 18.3303 29.2902 18.5202 28.9112 19.1272L24.1022 26.8431C23.7232 27.4502 23.9153 28.2458 24.5295 28.6203Z" fill="#353950"/>
<path d="M16.4872 34.6364H38.8413C39.5627 34.6364 40.1481 34.0578 40.1481 33.3448C40.1481 32.6319 39.5627 32.0532 38.8413 32.0532H16.4872C15.7659 32.0532 15.1804 32.6319 15.1804 33.3448C15.1804 34.0578 15.7659 34.6364 16.4872 34.6364Z" fill="#353950"/>
<path d="M32.4759 38.6074H16.4872C15.7659 38.6074 15.1804 39.1861 15.1804 39.899C15.1804 40.612 15.7659 41.1906 16.4872 41.1906H32.4759C33.1972 41.1906 33.7827 40.612 33.7827 39.899C33.7827 39.1861 33.1972 38.6074 32.4759 38.6074Z" fill="#353950"/>
<path d="M50.651 38.6074H39.487C38.7656 38.6074 38.1802 39.1861 38.1802 39.899C38.1802 40.612 38.7656 41.1906 39.487 41.1906H50.651C51.3723 41.1906 51.9578 40.612 51.9578 39.899C51.9578 39.1861 51.3723 38.6074 50.651 38.6074Z" fill="#353950"/>
<path d="M45.4215 34.419C46.0161 34.0289 46.1743 33.2126 45.7822 32.6275C45.3876 32.0399 44.5617 31.8836 43.9697 32.2711C43.3764 32.6598 43.2157 33.4774 43.609 34.0612C44.005 34.645 44.8282 34.809 45.4215 34.419Z" fill="#353950"/>
<path d="M73.4523 21.4207L72.3481 20.7904C71.9926 20.5877 71.9913 19.9457 72.3481 19.743L73.4523 19.1127C74.9316 18.268 75.4399 16.3926 74.5866 14.9305L72.5258 11.4019C71.6842 9.96052 69.7554 9.44777 68.2944 10.2821L67.1888 10.9124C66.8203 11.1229 66.2715 10.8155 66.2715 10.3893V9.12745C66.2715 7.43936 64.8823 6.06641 63.1743 6.06641H59.0527C57.3447 6.06641 55.9556 7.43936 55.9556 9.12745V10.3893C55.9556 10.8168 55.4054 11.1229 55.0382 10.9124L53.9327 10.2821C52.4717 9.44777 50.5428 9.96052 49.7012 11.4019L48.8884 12.793H40.0584C40.0466 12.793 40.0362 12.7917 40.0257 12.7917H17.669C17.6585 12.7917 17.6468 12.793 17.6363 12.793H11.7989C9.72104 12.793 8.09277 14.4604 8.09277 16.5889V50.8236C8.09277 52.7377 9.79031 54.3547 11.7989 54.3547H29.2786L28.6422 59.7574C28.501 60.9831 27.4543 61.9066 26.2063 61.9066H26.2037C26.1867 61.9053 26.1684 61.9066 26.1501 61.9066C26.1397 61.9066 24.6564 61.9092 24.6564 61.9092C23.9351 61.9092 23.3496 62.4878 23.3496 63.2008C23.3496 63.9137 23.9351 64.4924 24.6564 64.4924H47.3111C48.0325 64.4924 48.6179 63.9137 48.6179 63.2008C48.6179 62.4878 48.0325 61.9092 47.3111 61.9092C47.3111 61.9092 45.8279 61.9066 45.8174 61.9066C45.8004 61.9066 45.7822 61.9066 45.7652 61.9066C45.7639 61.9066 45.7626 61.9066 45.7599 61.9066C44.5119 61.9066 43.4652 60.9831 43.3241 59.7574V59.7548L42.6877 54.3547H58.8332C60.843 54.3547 62.5405 52.7377 62.5405 50.8236V34.467H63.1756C64.8836 34.467 66.2728 33.094 66.2728 31.4059V30.1441C66.2728 29.7178 66.8216 29.4104 67.1901 29.621L68.297 30.2526C69.758 31.0856 71.6868 30.5729 72.5284 29.1315L74.5892 25.6042C75.4426 24.1421 74.9342 22.2667 73.4549 21.422L73.4523 21.4207ZM10.7064 16.5889C10.7064 15.8863 11.1664 15.3774 11.7989 15.3774H25.2158C25.2275 15.3774 25.238 15.3761 25.2484 15.3761H36.9168C36.9286 15.3761 36.9391 15.3774 36.9495 15.3774H47.4222C46.8903 16.7568 47.4732 18.3713 48.7721 19.114L49.8764 19.7443C50.2318 19.947 50.2318 20.5889 49.8764 20.7917L48.7682 21.4233C47.2902 22.2693 46.7819 24.1447 47.6365 25.6054L49.6973 29.1315C50.5389 30.5742 52.469 31.0869 53.93 30.2538L55.0356 29.6223C55.4028 29.4117 55.953 29.7191 55.953 30.1454V31.4072C55.953 33.0656 57.3395 34.445 59.0057 34.4683L59.923 34.5238V45.2H10.7064V16.5889ZM30.639 61.9105C30.9526 61.3512 31.1617 60.7235 31.2388 60.0532L31.9105 54.3547H40.0558L40.7275 60.0519C40.8046 60.7235 41.015 61.3512 41.3286 61.9105H30.6403H30.639ZM59.9243 50.8236C59.9243 51.2717 59.4565 51.7716 58.8318 51.7716H11.7989C11.1729 51.7716 10.7064 51.2705 10.7064 50.8236V47.7819H59.9243V50.8236ZM72.3232 24.3113L70.2624 27.8386C70.1304 28.0646 69.8325 28.146 69.6025 28.0142L68.4956 27.3827C66.4087 26.1918 63.6579 27.7598 63.6579 30.1428V31.4046C63.6579 31.6681 63.4409 31.8825 63.1743 31.8825H59.0527C58.7887 31.8825 58.5692 31.6643 58.5692 31.4034V30.1415C58.5692 27.7572 55.8184 26.1892 53.7301 27.3801L52.6246 28.0117C52.3972 28.1408 52.0966 28.062 51.9646 27.836L49.9038 24.3087C49.7705 24.0801 49.8502 23.7869 50.0802 23.6552L51.1871 23.0236C53.2544 21.8431 53.2584 18.6813 51.1871 17.5021L50.0828 16.8718C49.862 16.7349 49.7705 16.4481 49.9051 16.2182L51.9659 12.6896C52.0992 12.4623 52.3972 12.3835 52.6272 12.5153L53.7327 13.1456C55.8197 14.3377 58.5705 12.7684 58.5705 10.3855V9.12358C58.5705 8.8601 58.7874 8.64569 59.054 8.64569H63.1756C63.4422 8.64569 63.6592 8.8601 63.6592 9.12358V10.3855C63.6592 12.7684 66.4087 14.3377 68.4969 13.1456L69.6038 12.5153C69.8325 12.3835 70.1317 12.4636 70.265 12.6896L72.3259 16.2182C72.4591 16.4468 72.3794 16.7387 72.1481 16.8718L71.0452 17.5021C68.9778 18.6787 68.9752 21.8431 71.0452 23.0249L72.1494 23.6552C72.3807 23.7869 72.4605 24.0801 72.3272 24.3087L72.3232 24.3113Z" fill="#353950"/>
<path d="M61.1122 14.8862C58.1105 14.8862 55.6694 17.3002 55.6694 20.2657C55.6694 23.2311 58.1118 25.6451 61.1122 25.6451C64.1127 25.6451 66.5564 23.2311 66.5564 20.2657C66.5564 17.3002 64.08 14.8862 61.1122 14.8862ZM61.1122 23.0619C59.5519 23.0619 58.283 21.8078 58.283 20.2657C58.283 18.7235 59.5519 17.4694 61.1122 17.4694C62.6517 17.4952 63.9428 18.7261 63.9428 20.2657C63.9428 21.8052 62.6726 23.0619 61.1122 23.0619Z" fill="#353950"/>
</svg>
