<svg width="80" height="70" viewBox="0 0 80 70" fill="none" xmlns="http://www.w3.org/2000/svg">
<ellipse cx="37.9032" cy="35" rx="34.9108" ry="35" fill="#00ABB3"/>
<path d="M41.4603 33.7464C41.918 33.7073 42.2518 33.3182 42.2059 32.8772C42.16 32.4362 41.7518 32.1103 41.2941 32.1494C40.8364 32.1885 40.5025 32.5777 40.5484 33.0187C40.5943 33.4597 41.0026 33.7855 41.4603 33.7464Z" fill="white"/>
<path d="M47.9472 12.0054C48.0276 12.0236 48.1082 12.0406 48.1879 12.0552C48.2117 12.0596 48.2355 12.0641 48.2594 12.0674C48.3129 12.0772 48.3678 12.086 48.4217 12.0935C48.4757 12.0998 48.5295 12.1072 48.5849 12.1126C48.6088 12.1159 48.6331 12.1169 48.657 12.1202C48.7376 12.1279 48.8186 12.1333 48.9009 12.1377C51.2794 12.2497 53.3945 10.7712 54.0262 8.58889C54.056 8.48756 53.971 8.38788 53.8625 8.39627C53.146 8.4539 52.4277 8.47145 51.7096 8.45268C50.7884 8.42919 49.8697 8.34393 48.9589 8.19181C48.0412 8.09029 47.1327 7.92207 46.241 7.69407L46.2422 7.69424C45.5471 7.51696 44.8594 7.30436 44.1854 7.05384C44.0821 7.01607 43.9746 7.08788 43.9757 7.19467C43.9926 9.46693 45.6278 11.4656 47.9472 12.0054Z" fill="white"/>
<path d="M46.5583 45.7439L41.2608 39.036C41.2351 39.0008 41.1852 38.9915 41.1479 39.0145L35.8781 42.5678L35.6486 44.2305L46.5583 45.7439Z" fill="white"/>
<path d="M51.9861 46.4958L52.3632 43.7637L49.5316 40.1834C49.5061 40.1471 49.4538 40.1375 49.4163 40.1616L46.3554 42.2284L49.4468 46.1435L51.9861 46.4958Z" fill="white"/>
<path d="M75.0529 26.4857L71.6753 21.489L66.3573 13.6216C65.8032 12.803 65.0133 12.1555 64.0847 11.7618L64.0686 11.7549L57.6786 9.03918C57.6705 9.03572 57.6623 9.0334 57.6529 9.03093C57.5723 9.01389 57.494 8.98897 57.422 8.95436L56.205 8.44101C56.1942 8.50162 56.18 8.56058 56.168 8.62103C56.1577 8.66883 56.1486 8.71679 56.1385 8.76343C56.1235 8.82815 56.1061 8.89253 56.0899 8.95707C56.0774 9.00339 56.0661 9.04987 56.0536 9.09618C56.036 9.16171 56.015 9.22559 55.9952 9.28964C55.9818 9.33349 55.9684 9.37734 55.9539 9.42102C55.9326 9.4872 55.908 9.55059 55.8844 9.61529C55.8689 9.6565 55.8535 9.69772 55.8382 9.73779C55.8133 9.80347 55.7849 9.86751 55.7578 9.93171C55.7404 9.96914 55.7255 10.0069 55.7081 10.0443C55.6784 10.1094 55.6475 10.1742 55.6155 10.2378C55.5983 10.274 55.5813 10.3092 55.5631 10.3441C55.531 10.4088 55.4966 10.472 55.4611 10.5351C55.4418 10.5687 55.4237 10.6026 55.4046 10.6351C55.3679 10.6979 55.3301 10.7595 55.2924 10.821C55.2722 10.8522 55.2519 10.8846 55.2317 10.9158C55.1916 10.977 55.1516 11.0371 55.1104 11.097C55.089 11.128 55.0666 11.1577 55.0453 11.1887C55.003 11.2473 54.9598 11.3046 54.9165 11.3619C54.8941 11.3916 54.8703 11.4223 54.8468 11.4518C54.8024 11.5078 54.7583 11.5626 54.7117 11.6171C54.6856 11.6474 54.6608 11.6768 54.6348 11.706C54.5886 11.7582 54.541 11.8114 54.4938 11.8622C54.4652 11.8922 54.4381 11.9213 54.4097 11.9502C54.3626 11.9999 54.3144 12.0483 54.2651 12.0965C54.2342 12.1262 54.2034 12.1547 54.1725 12.1844C54.1234 12.2304 54.0758 12.2753 54.0257 12.3199C53.9924 12.3493 53.9579 12.3785 53.9233 12.4077C53.875 12.449 53.8252 12.4914 53.7758 12.5314C53.7387 12.5614 53.7006 12.5901 53.6623 12.6199C53.6131 12.6588 53.5652 12.6967 53.515 12.7331C53.4744 12.7626 53.4325 12.792 53.3906 12.8213C53.3422 12.8544 53.2947 12.8889 53.2451 12.9218C53.1993 12.953 53.1538 12.9818 53.1072 13.0105C53.0604 13.0403 53.0134 13.0713 52.9656 13.0998C52.9151 13.1303 52.8648 13.1585 52.8132 13.1877C52.7683 13.2131 52.7231 13.2396 52.677 13.2649C52.6216 13.2947 52.5641 13.323 52.5077 13.3515C52.4644 13.3737 52.4223 13.396 52.3791 13.4169C52.3151 13.4479 52.249 13.4762 52.1839 13.5059C52.1474 13.5231 52.1109 13.5403 52.0733 13.5561C51.9724 13.5984 51.869 13.6403 51.765 13.6786C51.7071 13.6999 51.6483 13.7198 51.5894 13.7398C51.542 13.7567 51.4945 13.7735 51.4473 13.7892C51.3821 13.8106 51.3149 13.8294 51.2488 13.8484C51.207 13.8602 51.1649 13.8731 51.1231 13.8849C51.0522 13.9032 50.9804 13.9202 50.9097 13.9373C50.8706 13.9471 50.8326 13.9571 50.7936 13.9657C50.7194 13.9824 50.643 13.9964 50.5679 14.0106C50.5316 14.0173 50.4965 14.0241 50.4602 14.0308C50.3827 14.0447 50.3031 14.0559 50.2247 14.0673C50.1899 14.0718 50.1562 14.0777 50.1214 14.0822C50.042 14.0923 49.9605 14.0998 49.8801 14.1074C49.8469 14.1098 49.8133 14.1145 49.7788 14.1168C49.6975 14.123 49.6164 14.127 49.5354 14.131C49.4997 14.1331 49.4653 14.1354 49.4298 14.1363C49.3513 14.1395 49.2707 14.14 49.1915 14.1396C49.1526 14.1389 49.1147 14.1395 49.0758 14.1388C49.0003 14.1377 48.924 14.1341 48.8476 14.1305C48.8027 14.129 48.7592 14.1265 48.7144 14.1238C48.6456 14.1189 48.5757 14.1127 48.5058 14.1066C48.4744 14.1045 48.4428 14.1037 48.4105 14.0992L48.3471 14.0904C48.2833 14.0839 48.2199 14.0751 48.1553 14.0661C48.0907 14.0572 48.0274 14.0472 47.9641 14.0373L47.9007 14.0285C47.8686 14.0229 47.8344 14.0146 47.8022 14.009C47.7343 13.9972 47.6654 13.9841 47.598 13.9689C47.5554 13.9595 47.514 13.9502 47.4715 13.9396C47.3971 13.9223 47.3226 13.9049 47.2497 13.8854C47.2121 13.8755 47.1756 13.8658 47.1381 13.8547C47.0619 13.8324 46.9856 13.8113 46.9097 13.7867C46.8759 13.775 46.8432 13.7646 46.8095 13.7529C46.7326 13.727 46.6544 13.7009 46.579 13.6729C46.5477 13.6615 46.5153 13.6488 46.4841 13.6363C46.4088 13.6071 46.3336 13.5779 46.2587 13.5464C46.2264 13.5326 46.1956 13.5177 46.1633 13.5039C46.091 13.4716 46.0174 13.4391 45.9465 13.4047C45.9133 13.3895 45.8815 13.3722 45.8484 13.3559C45.7799 13.3218 45.7103 13.2875 45.6433 13.2513C45.6081 13.2323 45.5744 13.2112 45.5392 13.1923C45.4747 13.1564 45.4112 13.1218 45.3481 13.0838C45.311 13.061 45.2753 13.0373 45.2381 13.0146C45.1797 12.9784 45.1201 12.942 45.0632 12.9036C45.0208 12.8755 44.981 12.8453 44.9398 12.8173C44.8885 12.7821 44.8373 12.7469 44.7874 12.7107C44.6976 12.6455 44.6093 12.5781 44.5238 12.5089C44.4907 12.4832 44.4604 12.4555 44.4287 12.4289C44.374 12.3838 44.3192 12.3387 44.266 12.2915C44.2289 12.2594 44.1945 12.2265 44.1588 12.1934C44.1122 12.1506 44.0657 12.1078 44.0205 12.064C43.9829 12.0272 43.9467 11.9893 43.9092 11.9513C43.8685 11.9105 43.828 11.8686 43.7874 11.8266C43.7491 11.7862 43.7111 11.7434 43.6742 11.7019C43.637 11.6616 43.6011 11.6215 43.5653 11.5802C43.5263 11.5361 43.49 11.4901 43.4524 11.4438C43.4201 11.4042 43.3876 11.3657 43.3566 11.3251C43.3182 11.2764 43.2824 11.2269 43.2453 11.1772C43.2166 11.1381 43.1877 11.1001 43.1601 11.0611C43.1236 11.008 43.087 10.9549 43.0518 10.9008C43.0265 10.8633 43.0012 10.8258 42.977 10.7884C42.9409 10.7319 42.9072 10.6756 42.8725 10.6181C42.8508 10.5811 42.8289 10.5452 42.8072 10.5082C42.7727 10.4484 42.7395 10.3887 42.7076 10.328C42.6882 10.2925 42.6687 10.257 42.6505 10.2205C42.6176 10.1585 42.5873 10.0957 42.5571 10.0317C42.54 9.99655 42.5229 9.96137 42.507 9.92635C42.478 9.86256 42.4493 9.79647 42.4218 9.73055C42.4071 9.6957 42.3938 9.65986 42.3791 9.62501C42.3529 9.5581 42.3269 9.49005 42.3022 9.42216C42.2888 9.38632 42.2765 9.3518 42.2644 9.31613C42.2409 9.24726 42.2175 9.17838 42.1966 9.10869C42.1854 9.07549 42.1765 9.04261 42.1654 9.00826C42.1447 8.93742 42.125 8.86789 42.1068 8.79623C42.0976 8.75744 42.0869 8.71964 42.079 8.67987C42.0619 8.60953 42.0459 8.53935 42.0314 8.46819C42.019 8.40787 42.0091 8.34674 41.9979 8.28659C41.9889 8.23729 41.9788 8.18667 41.9723 8.13655L41.9567 8.01955C41.9469 7.94905 41.9382 7.87987 41.9308 7.8097C41.9257 7.76681 41.9232 7.72311 41.9194 7.68038C41.9142 7.6117 41.9089 7.54416 41.9051 7.4745C41.9028 7.42964 41.9018 7.3838 41.9008 7.33796C41.898 7.26961 41.8963 7.20257 41.8959 7.13455C41.8952 7.08641 41.898 7.03992 41.8985 6.99194C41.9004 6.92541 41.9011 6.8587 41.9043 6.79118C41.906 6.74337 41.9113 6.69606 41.9142 6.64842C41.9142 6.64842 41.9144 6.64727 41.9146 6.64612C41.9202 6.55199 41.8346 6.47448 41.7378 6.48683L40.6174 6.62555C40.5386 6.63924 40.4566 6.64191 40.3744 6.63637C40.366 6.63521 40.3561 6.63618 40.3474 6.63732L33.462 7.51146L33.4446 7.51373C32.4442 7.63981 31.5088 8.04676 30.7536 8.68497L23.5046 14.8091L18.9006 18.6985C18.0991 19.3807 17.9464 20.5314 18.5435 21.4005L18.8314 21.8155L21.8959 26.2355C22.3789 26.933 23.2444 27.2886 24.0942 27.1405L25.5432 26.8915L27.5907 26.5392C27.6568 26.5284 27.7066 26.4767 27.7153 26.4135L28.4155 21.3403C28.4903 20.7987 29.008 20.4229 29.5716 20.5011C30.1352 20.5793 30.5317 21.0819 30.457 21.6235L25.687 56.1848C25.601 56.8081 26.0577 57.387 26.7062 57.477L57.0313 61.6837C57.6799 61.7737 58.2762 61.3408 58.3622 60.7176L63.1322 26.1563C63.207 25.6147 63.7247 25.2388 64.2883 25.317C64.8519 25.3952 65.2484 25.8979 65.1737 26.4394L64.4735 31.5126C64.4646 31.577 64.4999 31.6393 64.5594 31.6675L66.4287 32.562L67.7603 33.1991C68.538 33.573 69.4674 33.4663 70.1212 32.9266L74.2678 29.5057L74.6559 29.1857L74.6647 29.1834C75.4747 28.5106 75.6407 27.3606 75.0529 26.4857ZM55.9465 25.1676L59.0099 25.5926L59.0087 25.5924C60.1373 25.7478 60.9303 26.7531 60.7806 27.8375L60.3743 30.7811C60.2996 31.3227 59.7819 31.6985 59.2183 31.6203C58.6546 31.5421 58.2581 31.0395 58.3329 30.4979L58.7392 27.5543L55.6758 27.1293C55.1122 27.0511 54.7157 26.5485 54.7904 26.0069C54.8652 25.4653 55.3829 25.0895 55.9465 25.1676ZM44.615 27.5942C45.1738 27.6717 45.5672 28.1704 45.4931 28.7074C45.419 29.2444 44.9053 29.6172 44.3465 29.5397C43.7877 29.4622 43.3943 28.9635 43.4684 28.4265C43.5425 27.8895 44.0562 27.5166 44.615 27.5942ZM41.7071 30.5669C43.076 30.7568 44.0645 31.7776 43.8556 33.2908C43.6741 34.6062 42.4178 35.5171 41.0501 35.3274C39.6823 35.1376 38.7202 33.9178 38.9016 32.6035C39.083 31.2892 40.3393 30.3772 41.7071 30.5669ZM40.8956 27.0805C41.4544 27.1581 41.8479 27.6556 41.7738 28.1926C41.6997 28.7296 41.186 29.1025 40.6272 29.025L37.7982 28.6513L36.2477 39.8854L39.952 37.3899C40.8912 36.7526 42.1959 36.957 42.8944 37.852L45.0994 40.6434L48.2227 38.5313C49.1615 37.9057 50.4536 38.1049 51.1592 38.9832L52.745 40.995L54.136 30.9165L48.099 30.079L48.102 30.0572C48.0791 30.0552 48.0572 30.0545 48.0345 30.0513C47.4757 29.9738 47.0823 29.4751 47.1564 28.9381C47.2305 28.4011 47.7442 28.0282 48.303 28.1058C48.3258 28.1089 48.347 28.1142 48.3696 28.1185L48.3699 28.1162L54.4069 28.9537C55.5353 29.1102 56.3283 30.1155 56.1786 31.1998L54.0283 46.7804C53.8785 47.8659 52.843 48.6176 51.7146 48.4611L35.377 46.1947C34.2485 46.0381 33.4556 45.0328 33.6052 43.9485L35.7556 28.3679C35.8851 27.4296 36.679 26.7405 37.6222 26.6745C37.7247 26.6571 37.831 26.6554 37.9387 26.6704L40.8956 27.0805ZM32.261 23.8835C32.4106 22.7992 33.4461 22.0475 34.5745 22.2041L37.6379 22.629C38.2015 22.7072 38.598 23.2099 38.5232 23.7514C38.4485 24.293 37.9308 24.6689 37.3671 24.5907L34.3038 24.1657L33.8975 27.1094C33.8228 27.651 33.305 28.0268 32.7414 27.9486L32.7402 27.9484C32.1764 27.8714 31.7799 27.3687 31.8547 26.8272L32.261 23.8835ZM33.8876 49.8107L30.8242 49.3858C29.6958 49.2292 28.9028 48.2239 29.0525 47.1396L29.4588 44.196C29.5335 43.6544 30.0512 43.2785 30.6149 43.3567C31.1785 43.4349 31.575 43.9376 31.5002 44.4792L31.0939 47.4228L34.1585 47.8479C34.722 47.9272 35.1185 48.4299 35.0437 48.9715C34.969 49.5131 34.4512 49.8889 33.8876 49.8107ZM57.572 51.0947C57.4223 52.179 56.3869 52.9307 55.2584 52.7741L52.1951 52.3492C51.6314 52.271 51.235 51.7683 51.3097 51.2268C51.3844 50.6852 51.9022 50.3093 52.4658 50.3875L55.5292 50.8125L55.9354 47.8688C56.0102 47.3273 56.5279 46.9514 57.0915 47.0296L57.0927 47.0298C57.6565 47.1068 58.053 47.6095 57.9782 48.151L57.572 51.0947Z" fill="white"/>
<path d="M77.4276 28.1275L77.4253 28.1272C77.4297 28.095 77.4343 28.0617 77.4375 28.0293C77.441 28.004 77.4408 27.9794 77.4431 27.9539C77.4453 27.9202 77.4488 27.8856 77.4511 27.8519C77.4526 27.8404 77.452 27.8274 77.4524 27.8157C77.4875 26.9956 77.2664 26.1587 76.7719 25.4209L75.6486 23.7604L68.0748 12.559C67.3003 11.4109 66.1948 10.5052 64.8965 9.95366L64.8458 9.93255L64.1445 9.62317C64.0434 9.56109 63.9312 9.51624 63.8093 9.48994C63.8009 9.48878 63.7928 9.48532 63.7848 9.48186L56.265 6.28363C56.007 6.174 55.731 6.11463 55.4554 6.10569C55.1798 6.09676 54.902 6.13908 54.6392 6.23153C54.1814 6.39419 52.7394 6.71565 49.2357 6.2296C45.7319 5.74356 44.4312 5.04164 44.0347 4.76045C43.8068 4.59994 43.5509 4.48358 43.2832 4.41715C43.0144 4.35056 42.7339 4.33275 42.4559 4.368L34.3515 5.39649C34.3428 5.39763 34.3343 5.39762 34.3258 5.39761C34.2012 5.38971 34.081 5.4035 33.967 5.43456L33.2083 5.54142L33.1538 5.54792C31.7537 5.72517 30.4442 6.29704 29.3892 7.19015L19.0689 15.9069L17.5338 17.2034C16.858 17.7788 16.4184 18.5252 16.2303 19.3229C16.2287 19.3344 16.2245 19.3467 16.2218 19.3581C16.2148 19.3911 16.2076 19.4252 16.2018 19.4584C16.1971 19.4836 16.1914 19.5074 16.1867 19.5325C16.1834 19.5566 16.1799 19.5819 16.1754 19.6059C16.1706 19.6404 16.1634 19.6746 16.1599 19.7092C16.1572 19.7288 16.1557 19.7485 16.153 19.7681C16.1476 19.8071 16.1434 19.8464 16.1402 19.887C16.1375 19.9065 16.1384 19.9266 16.1369 19.9463C16.1339 19.9857 16.1309 20.0251 16.1291 20.0647C16.1282 20.0892 16.1283 20.115 16.1273 20.1395C16.1262 20.1745 16.1251 20.2083 16.1252 20.2435C16.1253 20.2693 16.1264 20.2964 16.1277 20.3224C16.128 20.3552 16.1282 20.3892 16.131 20.4224C16.1322 20.4577 16.136 20.4923 16.1384 20.5277C16.1398 20.5526 16.1414 20.5762 16.1441 20.6012C16.2073 21.2568 16.4348 21.906 16.8359 22.4901L17.7624 23.8269L20.1856 27.3259C21.1291 28.6896 22.8218 29.3885 24.4849 29.0989L26.4603 28.7565L27.2061 28.6279C27.3099 28.6095 27.4029 28.6951 27.389 28.7963L23.6477 55.9042C23.412 57.6117 24.6617 59.196 26.4387 59.4425L56.7649 63.6494C58.5419 63.896 60.1737 62.7114 60.4094 61.0038L64.1507 33.8959C64.1647 33.7947 64.2774 33.7377 64.3723 33.7837L65.0565 34.1106L66.8637 34.9777C68.3859 35.7092 70.2041 35.4985 71.4817 34.4418L74.7714 31.7247L76.0143 30.6983C76.5089 30.2864 76.8808 29.7837 77.1237 29.2338C77.1289 29.2228 77.1329 29.2116 77.1382 29.1995C77.1565 29.1552 77.1759 29.1121 77.193 29.0676C77.2003 29.0499 77.2051 29.033 77.2124 29.0153C77.2264 28.9762 77.2413 28.9384 77.2541 28.8992C77.2624 28.8745 77.2694 28.8497 77.2764 28.8261C77.2869 28.7936 77.2974 28.7622 77.3068 28.7295C77.3161 28.6968 77.3245 28.6628 77.3328 28.6288C77.3386 28.605 77.3456 28.5802 77.3514 28.5564C77.3581 28.5257 77.3646 28.4961 77.3713 28.4654C77.3775 28.4381 77.3838 28.4097 77.3888 28.3823C77.3933 28.3583 77.3967 28.3342 77.4012 28.3102C77.406 28.2757 77.4131 28.2415 77.4179 28.207C77.4215 28.1806 77.4252 28.1541 77.4276 28.1275ZM44.19 7.05427C44.864 7.3048 45.5506 7.51723 46.2468 7.69467L46.2456 7.69451C47.1374 7.92251 48.0459 8.09072 48.9636 8.19225C49.8743 8.34437 50.7931 8.42963 51.7142 8.45312C52.4312 8.47172 53.1507 8.45434 53.8672 8.3967C53.9769 8.38848 54.0609 8.48685 54.0309 8.58933C53.3992 10.7716 51.2841 12.2501 48.9056 12.1381C48.8233 12.1337 48.7423 12.1283 48.6617 12.1207C48.6377 12.1174 48.6136 12.1152 48.5896 12.113C48.5342 12.1077 48.4803 12.1002 48.4263 12.0939C48.3725 12.0864 48.3176 12.0776 48.2641 12.0679C48.2401 12.0645 48.2162 12.0612 48.1926 12.0556C48.1129 12.041 48.0323 12.024 47.9519 12.0058C45.6324 11.4661 43.9972 9.46737 43.9804 7.19511C43.9791 7.08946 44.0879 7.01667 44.19 7.05427ZM74.6696 29.184L74.6607 29.1863L74.2726 29.5063L70.126 32.9271C69.4723 33.4669 68.5429 33.5735 67.7652 33.1996L66.4336 32.5626L64.5643 31.6681C64.5036 31.6398 64.4696 31.5765 64.4783 31.5132L65.1785 26.44C65.2533 25.8985 64.8568 25.3958 64.2932 25.3176C63.7296 25.2394 63.2118 25.6153 63.1371 26.1568L58.3669 60.7193C58.2809 61.3426 57.6846 61.7755 57.036 61.6855L26.7109 57.4787C26.0624 57.3888 25.6057 56.8098 25.6917 56.1866L30.4617 21.6252C30.5364 21.0837 30.1399 20.581 29.5763 20.5028C29.0127 20.4246 28.495 20.8005 28.4202 21.342L27.72 26.4152C27.7111 26.4796 27.6603 26.53 27.5954 26.5409L25.5479 26.8932L24.0989 27.1422C23.2491 27.2903 22.3836 26.9347 21.9005 26.2372L18.8361 21.8172L18.5482 21.4023C17.9511 20.5331 18.1038 19.3824 18.9053 18.7003L23.5093 14.8108L30.7583 8.68671C31.5135 8.0485 32.4489 7.64155 33.4493 7.51547L33.4667 7.5132L40.3521 6.63906C40.3608 6.63792 40.3694 6.63794 40.3791 6.63811C40.4613 6.64365 40.5433 6.64098 40.6221 6.62729L41.7424 6.48857C41.8393 6.47622 41.9249 6.55373 41.9192 6.64786C41.9192 6.64786 41.9191 6.64901 41.9189 6.65016C41.916 6.6978 41.9107 6.74511 41.909 6.79292C41.9058 6.86044 41.9051 6.92715 41.9032 6.99368C41.9027 7.04166 41.8999 7.08815 41.9006 7.13629C41.901 7.20431 41.9027 7.27135 41.9055 7.3397C41.9065 7.38554 41.9075 7.43138 41.9098 7.47624C41.9136 7.5459 41.9189 7.61344 41.9241 7.68212C41.9279 7.72484 41.9304 7.76855 41.9355 7.81144C41.9429 7.88161 41.9516 7.95079 41.9614 8.02129L41.977 8.13829C41.9835 8.18841 41.9924 8.23886 42.0026 8.28833C42.0138 8.34848 42.0237 8.40961 42.0361 8.46993C42.0506 8.54109 42.0666 8.61126 42.0837 8.68161C42.0918 8.72023 42.1024 8.75803 42.1115 8.79797C42.1299 8.86848 42.1494 8.93916 42.1701 9.01C42.18 9.04419 42.1889 9.07706 42.2013 9.11043C42.2222 9.18012 42.2456 9.249 42.2691 9.31787C42.2812 9.35354 42.2935 9.38806 42.3069 9.4239C42.3316 9.49179 42.3576 9.55984 42.3837 9.62675C42.3984 9.6616 42.4118 9.69744 42.4265 9.73229C42.454 9.79821 42.4827 9.8643 42.5117 9.92809C42.5276 9.96311 42.5447 9.99829 42.5618 10.0335C42.592 10.0974 42.6223 10.1602 42.6552 10.2222C42.6734 10.2587 42.6929 10.2942 42.7123 10.3298C42.7442 10.3904 42.7774 10.4501 42.8119 10.51C42.8336 10.547 42.8555 10.5828 42.8772 10.6198C42.9119 10.6774 42.9456 10.7336 42.9817 10.7902C43.0058 10.8275 43.0312 10.865 43.0565 10.9025C43.0917 10.9566 43.1283 11.0097 43.1648 11.0628C43.1924 11.1018 43.2213 11.1398 43.25 11.179C43.2871 11.2286 43.3229 11.2781 43.3613 11.3268C43.3923 11.3674 43.4248 11.4059 43.4571 11.4456C43.4947 11.4918 43.531 11.5378 43.57 11.5819C43.6058 11.6232 43.6417 11.6634 43.6788 11.7037C43.7158 11.7451 43.7538 11.7879 43.7921 11.8284C43.8327 11.8703 43.8732 11.9123 43.9139 11.9531C43.9514 11.9911 43.9876 12.0289 44.0252 12.0658C44.0704 12.1095 44.1169 12.1523 44.1635 12.1951C44.1992 12.2282 44.2336 12.2611 44.2707 12.2932C44.3239 12.3404 44.3787 12.3855 44.4334 12.4306C44.4651 12.4573 44.4954 12.4849 44.5285 12.5106C44.614 12.5799 44.7023 12.6472 44.7921 12.7124C44.842 12.7486 44.8932 12.7838 44.9445 12.8191C44.9857 12.8471 45.0255 12.8772 45.0679 12.9053C45.1248 12.9437 45.1844 12.9801 45.2428 13.0163C45.28 13.0391 45.3157 13.0628 45.3528 13.0855C45.4159 13.1235 45.4794 13.1581 45.5439 13.194C45.5791 13.213 45.6128 13.2341 45.648 13.253C45.7149 13.2892 45.7846 13.3235 45.8531 13.3576C45.8862 13.3739 45.918 13.3912 45.9512 13.4064C46.0221 13.4408 46.0957 13.4733 46.168 13.5056C46.2003 13.5195 46.2311 13.5343 46.2634 13.5481C46.3383 13.5796 46.4135 13.6088 46.4888 13.638C46.52 13.6505 46.5524 13.6632 46.5837 13.6746C46.6591 13.7026 46.7372 13.7287 46.8142 13.7546C46.8479 13.7663 46.8806 13.7767 46.9144 13.7884C46.9903 13.813 47.0666 13.8342 47.1428 13.8565C47.1803 13.8675 47.2168 13.8773 47.2544 13.8872C47.3273 13.9067 47.4018 13.924 47.4762 13.9414C47.5187 13.952 47.5601 13.9612 47.6027 13.9706C47.6701 13.9859 47.739 13.9989 47.8069 14.0107C47.8392 14.0152 47.8733 14.0246 47.9054 14.0302L47.9688 14.039C48.0321 14.049 48.0966 14.0591 48.16 14.0679C48.2234 14.0767 48.288 14.0856 48.3518 14.0921L48.4152 14.1009C48.4475 14.1054 48.4791 14.1063 48.5105 14.1083C48.5804 14.1145 48.6503 14.1207 48.7191 14.1255C48.7639 14.1282 48.8074 14.1307 48.8523 14.1323C48.9287 14.1358 49.005 14.1394 49.0805 14.1405C49.1194 14.1412 49.1573 14.1406 49.1962 14.1413C49.2754 14.1418 49.356 14.1412 49.4345 14.138C49.47 14.1371 49.5044 14.1349 49.5401 14.1328C49.6211 14.1288 49.7022 14.1248 49.7835 14.1185C49.818 14.1162 49.8516 14.1115 49.8848 14.1091C49.9652 14.1015 50.0467 14.0941 50.1261 14.084C50.1609 14.0794 50.1946 14.0736 50.2294 14.069C50.3078 14.0576 50.3874 14.0464 50.4649 14.0325C50.5012 14.0259 50.5363 14.019 50.5726 14.0123C50.6477 13.9981 50.7241 13.9841 50.7983 13.9675C50.8373 13.9588 50.8753 13.9488 50.9144 13.939C50.9851 13.9219 51.0569 13.9049 51.1278 13.8866C51.1696 13.8748 51.2117 13.8619 51.2535 13.8501C51.3196 13.8312 51.3868 13.8124 51.4519 13.791C51.4992 13.7752 51.5467 13.7584 51.5941 13.7415C51.653 13.7216 51.7118 13.7016 51.7697 13.6803C51.8737 13.642 51.9771 13.6001 52.078 13.5579C52.1156 13.542 52.1521 13.5248 52.1886 13.5076C52.2537 13.478 52.3198 13.4496 52.3838 13.4187C52.427 13.3977 52.4691 13.3754 52.5124 13.3533C52.5688 13.3248 52.6263 13.2964 52.6817 13.2666C52.7278 13.2414 52.773 13.2148 52.8179 13.1894C52.8695 13.1603 52.9198 13.1321 52.9703 13.1016C53.0181 13.0731 53.0651 13.0421 53.1119 13.0122C53.1585 12.9836 53.204 12.9547 53.2498 12.9235C53.2994 12.8906 53.3469 12.8562 53.3953 12.823C53.4372 12.7937 53.4791 12.7643 53.5197 12.7348C53.5699 12.6984 53.6178 12.6605 53.667 12.6217C53.7053 12.5918 53.7434 12.5631 53.7805 12.5331C53.8299 12.4931 53.8797 12.4508 53.928 12.4094C53.9626 12.3802 53.9971 12.351 54.0304 12.3217C54.0805 12.2771 54.1281 12.2321 54.1772 12.1862C54.2081 12.1565 54.2389 12.1279 54.2698 12.0983C54.3191 12.05 54.3673 12.0016 54.4144 11.9519C54.4427 11.923 54.4699 11.894 54.4985 11.864C54.5457 11.8131 54.5933 11.7599 54.6395 11.7077C54.6655 11.6785 54.6903 11.6492 54.7164 11.6188C54.763 11.5643 54.8071 11.5095 54.8515 11.4536C54.875 11.424 54.8988 11.3933 54.9212 11.3636C54.9645 11.3063 55.0077 11.2491 55.05 11.1905C55.0713 11.1594 55.0937 11.1297 55.1151 11.0987C55.1563 11.0388 55.1963 10.9787 55.2364 10.9175C55.2566 10.8863 55.2769 10.854 55.2971 10.8228C55.3348 10.7612 55.3726 10.6997 55.4093 10.6368C55.4284 10.6043 55.4465 10.5705 55.4658 10.5368C55.5013 10.4738 55.5357 10.4106 55.5678 10.3459C55.586 10.3109 55.603 10.2758 55.6202 10.2395C55.6522 10.176 55.6831 10.1111 55.7128 10.0461C55.7302 10.0086 55.7451 9.97088 55.7625 9.93345C55.7896 9.86925 55.818 9.80521 55.8429 9.73953C55.8582 9.69946 55.8736 9.65824 55.8891 9.61702C55.9127 9.55232 55.9373 9.48894 55.9586 9.42276C55.9732 9.37908 55.9865 9.33523 55.9999 9.29138C56.0197 9.22733 56.0407 9.16345 56.0583 9.09792C56.0708 9.05161 56.0821 9.00513 56.0946 8.95881C56.1108 8.89427 56.1282 8.82988 56.1432 8.76517C56.1533 8.71853 56.1624 8.67056 56.1727 8.62277C56.1847 8.56232 56.1989 8.50336 56.2097 8.44275L57.4267 8.9561C57.4987 8.99071 57.577 9.01563 57.6576 9.03267C57.666 9.03383 57.6752 9.03746 57.6833 9.04092L64.0733 11.7566L64.0894 11.7636C65.018 12.1572 65.8079 12.8047 66.362 13.6234L71.68 21.4908L75.0576 26.4874C75.6454 27.3623 75.4794 28.5123 74.6694 29.1851L74.6696 29.184Z" fill="#353950"/>
<path d="M38.9051 32.6034C38.7236 33.9188 39.6859 35.1374 41.0537 35.3272C42.4214 35.5169 43.6778 34.6049 43.8592 33.2906C44.068 31.7774 43.0784 30.7565 41.7107 30.5668C40.3429 30.377 39.0865 31.2891 38.9051 32.6034ZM41.4929 32.1537C41.9488 32.217 42.2695 32.6236 42.209 33.0617C42.1486 33.4998 41.7298 33.8038 41.2739 33.7405C40.8179 33.6773 40.4972 33.2707 40.5577 32.8326C40.6182 32.3945 41.0369 32.0905 41.4929 32.1537Z" fill="#353950"/>
<path d="M32.7451 27.9503L32.7463 27.9504C33.31 28.0275 33.8278 27.6516 33.9025 27.11L34.3088 24.1664L37.3722 24.5914C37.9358 24.6695 38.4535 24.2937 38.5283 23.7521C38.603 23.2105 38.2065 22.7079 37.6429 22.6297L34.5795 22.2047C33.4511 22.0482 32.4156 22.7999 32.266 23.8842L31.8597 26.8278C31.785 27.3694 32.1814 27.8721 32.7451 27.9503Z" fill="#353950"/>
<path d="M55.6807 27.1298L58.7441 27.5548L58.3379 30.4984C58.2631 31.04 58.6596 31.5426 59.2232 31.6208C59.7868 31.699 60.3046 31.3232 60.3793 30.7816L60.7856 27.8379C60.9352 26.7536 60.1422 25.7483 59.0138 25.5918L59.015 25.5919L55.9515 25.1681C55.3879 25.09 54.8701 25.4658 54.7954 26.0074C54.7206 26.549 55.1171 27.0516 55.6807 27.1298Z" fill="#353950"/>
<path d="M34.1634 47.8498L34.1622 47.8496L31.0989 47.4235L31.5052 44.4798C31.58 43.9383 31.1835 43.4356 30.6198 43.3574C30.0562 43.2792 29.5385 43.6551 29.4638 44.1967L29.0575 47.1403C28.9078 48.2246 29.7008 49.2299 30.8292 49.3865L33.8926 49.8114C34.4562 49.8896 34.974 49.5138 35.0487 48.9722C35.1235 48.4306 34.727 47.9279 34.1634 47.8498Z" fill="#353950"/>
<path d="M57.0977 47.0286L57.0965 47.0285C56.5328 46.9514 56.015 47.3273 55.9403 47.8688L55.534 50.8125L52.4706 50.3875C51.907 50.3093 51.3893 50.6852 51.3145 51.2268C51.2398 51.7684 51.6363 52.271 52.1999 52.3492L55.2633 52.7741C56.3917 52.9307 57.4272 52.179 57.5768 51.0947L57.9831 48.1511C58.0578 47.6095 57.6613 47.1068 57.0977 47.0286Z" fill="#353950"/>
<path d="M37.627 26.6745C36.6837 26.7406 35.8898 27.4297 35.7603 28.3679L33.6099 43.9485C33.4603 45.0329 34.2532 46.0382 35.3817 46.1947L51.7193 48.4611C52.8477 48.6176 53.8832 47.866 54.0328 46.7816L56.1834 31.1999C56.333 30.1156 55.54 29.1103 54.4116 28.9537L48.3746 28.1163L48.3743 28.1186C48.3517 28.1143 48.3305 28.109 48.3077 28.1058C47.7489 28.0283 47.2352 28.4012 47.1611 28.9382C47.087 29.4751 47.4804 29.9739 48.0392 30.0514C48.062 30.0545 48.0838 30.0552 48.1067 30.0572L48.1037 30.0791L54.1407 30.9165L52.7497 40.9951L51.1639 38.9833C50.4583 38.1049 49.1662 37.9058 48.2274 38.5314L45.1042 40.6434L42.8991 37.852C42.2007 36.9571 40.8959 36.7526 39.9567 37.3899L36.2524 39.8854L37.8029 28.6513L40.6319 29.025C41.1907 29.1025 41.7044 28.7296 41.7785 28.1926C41.8526 27.6557 41.4591 27.1581 40.9003 27.0806L37.9434 26.6704C37.8357 26.6555 37.7294 26.6571 37.627 26.6745ZM49.4207 40.1618C49.4582 40.1377 49.5105 40.1473 49.536 40.1836L52.3676 43.7639L51.9905 46.496L49.4513 46.1437L46.3598 42.2286L49.4207 40.1618ZM35.8822 42.5681L41.152 39.0147C41.1893 38.9918 41.2393 39.001 41.2649 39.0362L46.5624 45.7442L35.6527 44.2308L35.8822 42.5681Z" fill="#353950"/>
<path d="M44.3513 29.5396C44.9104 29.6172 45.4237 29.2445 45.4979 28.7073C45.572 28.17 45.1789 27.6716 44.6198 27.594C44.0607 27.5165 43.5473 27.8891 43.4732 28.4264C43.399 28.9636 43.7922 29.4621 44.3513 29.5396Z" fill="#353950"/>
<path d="M26.9808 39.3155C27.4289 39.2139 27.7063 38.7825 27.6006 38.352C27.4949 37.9215 27.0459 37.6548 26.5979 37.7564C26.1498 37.8581 25.8723 38.2894 25.9781 38.72C26.0838 39.1505 26.5328 39.4171 26.9808 39.3155Z" fill="white"/>
<path d="M30.4342 16.8883C30.5164 16.8952 30.5985 16.9011 30.6795 16.9045C30.7036 16.9057 30.7278 16.9069 30.7519 16.9069C30.8063 16.9092 30.8619 16.9103 30.9162 16.9103C30.9706 16.9092 31.025 16.9092 31.0805 16.9069C31.1047 16.9069 31.1289 16.9045 31.153 16.9045C31.234 16.9011 31.3149 16.8952 31.397 16.8883C33.7684 16.6724 35.6614 14.9172 35.9888 12.6687C36.0045 12.5642 35.9066 12.4772 35.8003 12.5004C35.0985 12.656 34.3893 12.772 33.6754 12.8521C32.7597 12.9554 31.838 12.9972 30.915 12.9717C29.9921 12.9972 29.0692 12.9554 28.1547 12.8521H28.1559C27.4431 12.772 26.7328 12.656 26.031 12.5004C25.9234 12.4772 25.8268 12.5631 25.8425 12.6687C26.1699 14.9172 28.0629 16.6724 30.4342 16.8883Z" fill="white"/>
<path d="M33.6706 50.4995L27.506 44.5828C27.4758 44.5515 27.4251 44.5492 27.3913 44.577L22.657 48.821V50.4995H33.6706Z" fill="white"/>
<path d="M39.15 50.4982V47.7401L35.8557 44.5827C35.8255 44.5502 35.7723 44.5479 35.7385 44.5769L32.989 47.0448L36.5865 50.4982H39.15Z" fill="white"/>
<path d="M59.2637 27.5076L55.2349 23.0222L48.8915 15.9598C48.2307 15.225 47.3597 14.6922 46.386 14.4299L46.3691 14.4252L39.6682 12.6132C39.6597 12.6109 39.6513 12.6097 39.6416 12.6085C39.5594 12.6027 39.4785 12.5888 39.4024 12.5644L38.1267 12.2231C38.1243 12.2847 38.1183 12.345 38.1146 12.4066C38.111 12.4553 38.1086 12.5041 38.105 12.5517C38.0989 12.6178 38.0905 12.684 38.0832 12.7502C38.0772 12.7977 38.0724 12.8453 38.0663 12.8929C38.0579 12.9603 38.0458 13.0264 38.0349 13.0926C38.0277 13.1379 38.0204 13.1831 38.012 13.2284C37.9999 13.2969 37.9842 13.3631 37.9697 13.4304C37.96 13.4733 37.9503 13.5163 37.9407 13.5581C37.925 13.6266 37.9057 13.6939 37.8875 13.7612C37.8755 13.8007 37.8658 13.8402 37.8537 13.8796C37.8332 13.9481 37.8114 14.0166 37.7885 14.0839C37.7764 14.1222 37.7643 14.1594 37.751 14.1965C37.7281 14.265 37.7027 14.3323 37.6761 14.3997C37.6616 14.4357 37.6483 14.4716 37.6338 14.5065C37.6061 14.5738 37.5771 14.64 37.5481 14.7061C37.5324 14.7398 37.5167 14.7746 37.501 14.8083C37.4696 14.8744 37.4381 14.9395 37.4055 15.0045C37.3886 15.0381 37.3705 15.0706 37.3536 15.1043C37.3198 15.1681 37.2847 15.2308 37.2497 15.2935C37.2316 15.326 37.2122 15.3597 37.1929 15.3922C37.1567 15.4537 37.1204 15.5141 37.0818 15.5744C37.06 15.6081 37.0395 15.6406 37.0177 15.6731C36.9791 15.7311 36.9392 15.7903 36.8994 15.8472C36.8752 15.8809 36.8522 15.9134 36.8281 15.9459C36.7882 16.0016 36.7471 16.0562 36.7049 16.1107C36.6783 16.1444 36.6517 16.1769 36.6251 16.2105C36.5829 16.2628 36.5418 16.3139 36.4983 16.3649C36.4693 16.3986 36.4391 16.4323 36.4089 16.4659C36.3666 16.5135 36.3231 16.5623 36.2796 16.6087C36.247 16.6435 36.2132 16.6772 36.1794 16.712C36.1359 16.7573 36.0936 16.8014 36.0489 16.8443C36.0127 16.8792 35.9752 16.914 35.9378 16.9488C35.8943 16.9883 35.852 17.0289 35.8073 17.0684C35.7662 17.1055 35.7252 17.1404 35.6829 17.1752C35.6406 17.2112 35.5983 17.2483 35.5548 17.2831C35.5089 17.3203 35.463 17.3551 35.4159 17.3911C35.3748 17.4224 35.3337 17.4549 35.2915 17.4863C35.2407 17.5234 35.1876 17.5594 35.1356 17.5954C35.0958 17.6233 35.0571 17.6511 35.0172 17.6778C34.958 17.7173 34.8964 17.7544 34.836 17.7927C34.8022 17.8148 34.7684 17.8368 34.7334 17.8577C34.6391 17.9135 34.5425 17.9692 34.4446 18.0214C34.3903 18.0504 34.3347 18.0783 34.2791 18.1062C34.2344 18.1294 34.1897 18.1526 34.145 18.1746C34.0834 18.2048 34.0194 18.2327 33.9566 18.2605C33.9167 18.278 33.8769 18.2965 33.837 18.3139C33.7693 18.3418 33.7005 18.3685 33.6328 18.3952C33.5954 18.4103 33.5591 18.4254 33.5217 18.4393C33.4504 18.466 33.3767 18.4904 33.3043 18.5148C33.2692 18.5264 33.2354 18.538 33.2004 18.5496C33.1255 18.574 33.0481 18.596 32.972 18.6181C32.9382 18.6274 32.9056 18.6378 32.8718 18.6471C32.7945 18.668 32.7147 18.6866 32.6362 18.7051C32.6036 18.7121 32.571 18.7214 32.5371 18.7284C32.4574 18.7458 32.3777 18.7609 32.298 18.7759C32.2629 18.7829 32.2291 18.7899 32.1941 18.7957C32.1168 18.8096 32.037 18.8212 31.9585 18.8317C31.9198 18.8363 31.8824 18.8421 31.8437 18.8468C31.7688 18.856 31.6927 18.863 31.6166 18.87C31.5719 18.8746 31.5284 18.8781 31.4837 18.8816C31.4149 18.8862 31.3448 18.8897 31.2748 18.8932C31.2433 18.8955 31.2119 18.899 31.1793 18.899H31.1153C31.0513 18.9013 30.9872 18.9013 30.922 18.9013C30.8568 18.9013 30.7927 18.9002 30.7287 18.899H30.6647C30.6321 18.8978 30.597 18.8943 30.5644 18.8932C30.4956 18.8909 30.4255 18.8874 30.3567 18.8816C30.3132 18.8781 30.2709 18.8746 30.2274 18.87C30.1513 18.863 30.0752 18.856 30.0003 18.8468C29.9616 18.8421 29.9242 18.8375 29.8855 18.8317C29.807 18.8201 29.7285 18.8096 29.65 18.7957C29.6149 18.7887 29.5811 18.7829 29.5461 18.7759C29.4663 18.7609 29.3854 18.7458 29.3069 18.7284C29.2743 18.7214 29.2404 18.7133 29.2078 18.7051C29.1293 18.6866 29.0508 18.668 28.9722 18.6471C28.9384 18.6378 28.9058 18.6274 28.872 18.6181C28.7959 18.596 28.7186 18.574 28.6437 18.5496C28.6086 18.5391 28.5748 18.5264 28.5398 18.5148C28.4673 18.4904 28.3936 18.466 28.3223 18.4393C28.2849 18.4254 28.2486 18.4091 28.2112 18.3952C28.1423 18.3685 28.0747 18.343 28.007 18.3139C27.9672 18.2965 27.9285 18.278 27.8886 18.2605C27.8258 18.2327 27.7618 18.2048 27.7002 18.1746C27.6543 18.1526 27.6108 18.1282 27.5661 18.1062C27.5105 18.0783 27.455 18.0504 27.4006 18.0214C27.3027 17.9692 27.2061 17.9146 27.1119 17.8577C27.0756 17.8368 27.0418 17.8136 27.0068 17.7916C26.9464 17.7544 26.886 17.7173 26.8268 17.6778C26.7857 17.6511 26.747 17.6233 26.7072 17.5954C26.6552 17.5594 26.6033 17.5234 26.5526 17.4863C26.5103 17.4549 26.4692 17.4224 26.4269 17.3899C26.381 17.3551 26.3351 17.3191 26.2892 17.2831C26.2457 17.2483 26.2022 17.2112 26.1599 17.1752C26.1177 17.1404 26.0766 17.1055 26.0355 17.0695C25.9908 17.0312 25.9485 16.9906 25.905 16.95C25.8676 16.9152 25.8302 16.8815 25.7939 16.8455C25.7492 16.8026 25.7069 16.7584 25.6634 16.7143C25.6296 16.6795 25.5958 16.6459 25.5632 16.611C25.5197 16.5634 25.4762 16.5158 25.4339 16.4671C25.4037 16.4334 25.3735 16.3998 25.3445 16.3661C25.301 16.315 25.26 16.2639 25.2177 16.2117C25.1911 16.178 25.1645 16.1455 25.1379 16.1119C25.0957 16.0573 25.0546 16.0028 25.0147 15.947C24.9906 15.9145 24.9664 15.882 24.9435 15.8484C24.9024 15.7915 24.8637 15.7334 24.8251 15.6742C24.8033 15.6417 24.7816 15.6092 24.761 15.5767C24.7236 15.5175 24.6861 15.456 24.6499 15.3945C24.6306 15.362 24.6125 15.3283 24.5931 15.2958C24.5581 15.2331 24.5231 15.1693 24.4892 15.1054C24.4711 15.0718 24.4542 15.0393 24.4373 15.0056C24.4047 14.9406 24.3721 14.8756 24.3419 14.8094C24.3261 14.7781 24.3129 14.7468 24.2972 14.7143C24.267 14.6469 24.238 14.5808 24.2102 14.5123C24.1957 14.4751 24.18 14.4391 24.1667 14.4008C24.1401 14.3335 24.1147 14.2662 24.0906 14.1977C24.07 14.1397 24.0519 14.0804 24.0326 14.0224C24.0169 13.9748 24 13.9261 23.9867 13.8773L23.9553 13.7635C23.936 13.6951 23.9178 13.6277 23.9009 13.5592C23.89 13.5175 23.8816 13.4745 23.8719 13.4327C23.8574 13.3654 23.8429 13.2992 23.8296 13.2307C23.8212 13.1866 23.8139 13.1413 23.8067 13.0961C23.7946 13.0288 23.7837 12.9626 23.7741 12.8953C23.7668 12.8477 23.7632 12.8012 23.7572 12.7536C23.7499 12.6875 23.7415 12.6213 23.7354 12.554C23.7306 12.5064 23.7294 12.4588 23.7258 12.4112C23.7258 12.4112 23.7258 12.41 23.7258 12.4089C23.7185 12.3148 23.6231 12.2498 23.5288 12.2754L22.438 12.5667C22.3619 12.5911 22.2809 12.6051 22.1988 12.6109C22.1903 12.6109 22.1807 12.6132 22.1722 12.6155L15.4713 14.4275L15.4544 14.4322C14.4807 14.6945 13.6097 15.2262 12.9489 15.9621L6.60551 23.0245L2.57672 27.5099C1.87606 28.2958 1.8821 29.4566 2.59242 30.2355L2.9343 30.607L6.5741 34.5642C7.14792 35.1887 8.05394 35.422 8.8754 35.1585L10.2767 34.7128L12.2567 34.0825C12.3207 34.0627 12.363 34.0047 12.363 33.9408V28.8193C12.363 28.2726 12.8245 27.8291 13.3934 27.8291C13.9624 27.8291 14.4239 28.2726 14.4239 28.8193V63.7099C14.4239 64.3391 14.9554 64.8499 15.6102 64.8499H46.2242C46.8789 64.8499 47.4105 64.3391 47.4105 63.7099V28.8193C47.4105 28.2726 47.8719 27.8291 48.4409 27.8291C49.0099 27.8291 49.4714 28.2726 49.4714 28.8193V33.9408C49.4714 34.0058 49.5149 34.0627 49.5777 34.0825L51.5516 34.7116L52.9577 35.1597C53.7792 35.4232 54.6852 35.1899 55.259 34.5654L58.8989 30.607L59.2395 30.2367L59.248 30.2332C59.9583 29.4554 59.9655 28.2935 59.2637 27.5076ZM40.1574 28.8274H43.25H43.2488C44.388 28.8263 45.3109 29.7131 45.3109 30.8078V33.7795C45.3109 34.3262 44.8494 34.7697 44.2804 34.7697C43.7115 34.7697 43.25 34.3262 43.25 33.7795V30.8078H40.1574C39.5884 30.8078 39.127 30.3644 39.127 29.8176C39.127 29.2709 39.5884 28.8274 40.1574 28.8274ZM29.2646 32.7881C29.8287 32.7881 30.2866 33.2281 30.2866 33.7702C30.2866 34.3123 29.8287 34.7522 29.2646 34.7522C28.7004 34.7522 28.2426 34.3123 28.2426 33.7702C28.2426 33.2281 28.7004 32.7881 29.2646 32.7881ZM26.7905 36.1325C28.1725 36.1325 29.2912 37.0077 29.2912 38.5353C29.2912 39.8633 28.1713 40.9382 26.7905 40.9382C25.4098 40.9382 24.2899 39.8621 24.2899 38.5353C24.2899 37.2085 25.4098 36.1325 26.7905 36.1325ZM25.51 32.7905C26.0742 32.7905 26.532 33.2293 26.532 33.7714C26.532 34.3135 26.0742 34.7534 25.51 34.7534L22.6566 34.772V46.1131L25.9848 43.1322C26.828 42.3718 28.1484 42.395 28.9626 43.1856L31.5284 45.6477L34.3335 43.1264C35.1779 42.3776 36.485 42.3974 37.304 43.1705L39.1499 44.9454V34.7708H33.0554V34.7488C33.0324 34.7499 33.0107 34.7522 32.9877 34.7522C32.4236 34.7522 31.9658 34.3123 31.9658 33.7702C31.9658 33.2281 32.4236 32.7881 32.9877 32.7881C33.0107 32.7881 33.0324 32.7905 33.0554 32.7916V32.7893H39.1499C40.2891 32.7893 41.212 33.6762 41.212 34.7708V50.4999C41.212 51.5957 40.2891 52.4825 39.1499 52.4825H22.6566C21.5175 52.4825 20.5945 51.5957 20.5945 50.501V34.772C20.5945 33.8248 21.2867 33.0331 22.2121 32.8381C22.3111 32.8067 22.4162 32.7905 22.525 32.7905H25.51ZM16.5198 30.8101C16.5198 29.7155 17.4428 28.8286 18.582 28.8286H21.6745C22.2435 28.8286 22.705 29.272 22.705 29.8188C22.705 30.3655 22.2435 30.809 21.6745 30.809H18.582V33.7806C18.582 34.3274 18.1205 34.7708 17.5515 34.7708H17.5503C16.9813 34.772 16.5198 34.3285 16.5198 33.7818V30.8101ZM21.6757 56.2691H18.5832C17.444 56.2691 16.521 55.3822 16.521 54.2876V51.3159C16.521 50.7692 16.9825 50.3257 17.5515 50.3257C18.1205 50.3257 18.582 50.7692 18.582 51.3159V54.2876H21.6757C22.2447 54.2888 22.7062 54.7322 22.7062 55.2789C22.7062 55.8257 22.2447 56.2691 21.6757 56.2691ZM45.3121 54.2864C45.3121 55.3811 44.3892 56.2679 43.25 56.2679H40.1574C39.5884 56.2679 39.127 55.8245 39.127 55.2778C39.127 54.731 39.5884 54.2876 40.1574 54.2876H43.25V51.3159C43.25 50.7692 43.7115 50.3257 44.2804 50.3257H44.2817C44.8506 50.3246 45.3121 50.768 45.3121 51.3148V54.2864Z" fill="white"/>
<path d="M61.8408 28.8074H61.8384C61.8384 28.7749 61.8384 28.7412 61.8371 28.7087C61.8371 28.6831 61.8335 28.6588 61.8323 28.6332C61.8299 28.5996 61.8287 28.5647 61.8263 28.5311C61.8263 28.5195 61.8239 28.5067 61.8226 28.4951C61.7453 27.6779 61.4119 26.8792 60.8212 26.2164L59.4815 24.7259L50.4478 14.6709C49.5237 13.6401 48.3048 12.8949 46.9433 12.5269L46.8901 12.513L46.1532 12.3029C46.0445 12.2553 45.9273 12.2263 45.8029 12.217C45.7945 12.217 45.786 12.2147 45.7775 12.2123L37.8915 10.0776C37.6209 10.0045 37.3394 9.98358 37.0652 10.0126C36.791 10.0416 36.5216 10.1217 36.2739 10.2494C35.8427 10.4734 34.4583 10.99 30.9212 10.99C27.384 10.99 25.9996 10.4734 25.5684 10.2494C25.3207 10.1217 25.0513 10.0416 24.7771 10.0126C24.5017 9.98358 24.2214 10.0045 23.9508 10.0776L16.0636 12.21C16.0551 12.2123 16.0466 12.2135 16.0382 12.2147C15.9138 12.224 15.7966 12.2541 15.6879 12.3006L14.951 12.5107L14.8978 12.5246C13.5351 12.8926 12.3162 13.639 11.3933 14.6686L2.36204 24.7213L1.01871 26.2164C0.427982 26.8792 0.0945648 27.679 0.0172507 28.4951C0.0172507 28.5067 0.0148346 28.5195 0.0136266 28.5311C0.0112105 28.5647 0.00879448 28.5996 0.00758645 28.6332C0.00637842 28.6588 0.00396235 28.6831 0.00275432 28.7087C0.00275432 28.7331 0.00275432 28.7586 0.00154628 28.783C0.00154628 28.8178 -0.000869784 28.8526 0.000338249 28.8875C0.000338249 28.9072 0.00154628 28.9269 0.00154628 28.9467C0.00154628 28.9861 0.00275432 29.0256 0.00517038 29.0662C0.00517038 29.0859 0.00879448 29.1057 0.0100025 29.1254C0.0124186 29.1649 0.0148346 29.2044 0.0184587 29.2438C0.0208748 29.2682 0.0244989 29.2937 0.026915 29.3181C0.0305391 29.3529 0.0341632 29.3866 0.0389953 29.4214C0.0426194 29.447 0.0474515 29.4737 0.0522837 29.4992C0.0571158 29.5317 0.0619479 29.5654 0.0691961 29.5979C0.0752363 29.6327 0.0836925 29.6664 0.0909407 29.7012C0.0957729 29.7256 0.100605 29.7488 0.106645 29.7732C0.258857 30.4139 0.572946 31.0257 1.05012 31.5492L2.15064 32.746L5.02938 35.879C6.15043 37.1002 7.92262 37.5599 9.53051 37.0445L11.4404 36.4339L12.1616 36.2041C12.2619 36.1716 12.3658 36.2435 12.3658 36.3457V63.7119C12.3658 65.4357 13.8202 66.8333 15.6142 66.8333H46.2294C48.0233 66.8333 49.4778 65.4357 49.4778 63.7119V36.3457C49.4778 36.2435 49.5816 36.1716 49.6819 36.2041L50.4043 36.4339L52.313 37.0445C53.9209 37.5599 55.6931 37.1014 56.8141 35.879L59.7013 32.7356L60.7922 31.548C61.2259 31.0721 61.5255 30.523 61.691 29.945C61.6946 29.9333 61.697 29.9217 61.7006 29.909C61.7127 29.8625 61.726 29.8173 61.7369 29.7708C61.7417 29.7523 61.7441 29.7348 61.749 29.7163C61.7574 29.6756 61.7671 29.6362 61.7743 29.5955C61.7792 29.57 61.7828 29.5445 61.7864 29.5201C61.7924 29.4864 61.7985 29.4539 61.8033 29.4203C61.8082 29.3866 61.8118 29.3518 61.8154 29.317C61.8178 29.2926 61.8214 29.267 61.8239 29.2427C61.8263 29.2113 61.8287 29.1811 61.8311 29.1498C61.8335 29.1219 61.8359 29.0929 61.8371 29.0651C61.8384 29.0407 61.8383 29.0163 61.8396 28.9919C61.8396 28.9571 61.842 28.9223 61.842 28.8875C61.842 28.8608 61.842 28.8341 61.8408 28.8074ZM26.0359 12.5002C26.7377 12.6558 27.4469 12.7719 28.1608 12.852H28.1596C29.0741 12.9553 29.997 12.9971 30.9199 12.9715C31.8429 12.9971 32.7646 12.9553 33.6803 12.852C34.393 12.7719 35.1034 12.6558 35.8052 12.5002C35.9128 12.477 36.0094 12.5629 35.9937 12.6685C35.6663 14.917 33.7733 16.6722 31.402 16.8881C31.3198 16.8951 31.2389 16.9009 31.1579 16.9044C31.1338 16.9044 31.1096 16.9055 31.0854 16.9067C31.0299 16.909 30.9755 16.909 30.9212 16.9102C30.8668 16.9102 30.8112 16.909 30.7569 16.9067C30.7327 16.9067 30.7085 16.9067 30.6844 16.9044C30.6034 16.9009 30.5213 16.8951 30.4391 16.8881C28.0678 16.6722 26.1748 14.917 25.8474 12.6685C25.8317 12.5641 25.9296 12.477 26.0359 12.5002ZM59.2532 30.2328L59.2447 30.2363L58.904 30.6066L55.2642 34.565C54.6904 35.1895 53.7844 35.4228 52.9629 35.1593L51.5568 34.7113L49.5829 34.0821C49.5188 34.0624 49.4765 34.0043 49.4765 33.9405V28.819C49.4765 28.2722 49.0151 27.8288 48.4461 27.8288C47.8771 27.8288 47.4156 28.2722 47.4156 28.819V63.7107C47.4156 64.3399 46.8841 64.8507 46.2294 64.8507H15.6154C14.9606 64.8507 14.4291 64.3399 14.4291 63.7107V28.8201C14.4291 28.2734 13.9676 27.8299 13.3986 27.8299C12.8297 27.8299 12.3682 28.2734 12.3682 28.8201V33.9416C12.3682 34.0066 12.3247 34.0635 12.2619 34.0833L10.2819 34.7136L8.88059 35.1593C8.05913 35.4228 7.1531 35.1895 6.57929 34.565L2.93948 30.6078L2.59761 30.2363C1.88729 29.4574 1.88125 28.2966 2.58191 27.5107L6.6107 23.0253L12.9541 15.9629C13.6149 15.227 14.4859 14.6953 15.4595 14.433L15.4765 14.4283L22.1774 12.6163C22.1859 12.614 22.1943 12.6128 22.204 12.6117C22.2861 12.6059 22.3671 12.5919 22.4432 12.5676L23.534 12.2762C23.6283 12.2506 23.7237 12.3157 23.7309 12.4097C23.7309 12.4097 23.7309 12.4108 23.7309 12.412C23.7346 12.4596 23.7358 12.5072 23.7406 12.5548C23.7466 12.6221 23.7551 12.6883 23.7624 12.7544C23.7684 12.802 23.772 12.8485 23.7793 12.8961C23.7889 12.9634 23.7998 13.0296 23.8119 13.0969C23.8191 13.1422 23.8264 13.1874 23.8348 13.2315C23.8481 13.3 23.8626 13.3662 23.8771 13.4335C23.8868 13.4753 23.8952 13.5183 23.9061 13.56C23.923 13.6285 23.9411 13.6959 23.9605 13.7644L23.9919 13.8781C24.0052 13.9269 24.0209 13.9756 24.0378 14.0232C24.0571 14.0813 24.0752 14.1405 24.0958 14.1985C24.1199 14.267 24.1453 14.3343 24.1719 14.4016C24.1852 14.4388 24.2009 14.4748 24.2154 14.5131C24.2431 14.5804 24.2721 14.6477 24.3023 14.7151C24.3168 14.7476 24.3301 14.7789 24.347 14.8102C24.3772 14.8764 24.4099 14.9414 24.4425 15.0064C24.4594 15.0401 24.4763 15.0726 24.4944 15.1063C24.5282 15.1701 24.5633 15.2339 24.5983 15.2966C24.6176 15.3291 24.6358 15.3628 24.6551 15.3953C24.6913 15.4568 24.7288 15.5183 24.7662 15.5775C24.7868 15.61 24.8085 15.6426 24.8303 15.6751C24.8689 15.7343 24.9076 15.7923 24.9486 15.8492C24.9716 15.8828 24.9958 15.9153 25.0199 15.9478C25.0598 16.0036 25.1009 16.0581 25.1431 16.1127C25.1697 16.1463 25.1963 16.1788 25.2229 16.2125C25.2651 16.2647 25.3062 16.3158 25.3497 16.3669C25.3787 16.4006 25.4089 16.4342 25.4391 16.4679C25.4814 16.5166 25.5249 16.5642 25.5684 16.6118C25.601 16.6467 25.6348 16.6803 25.6686 16.7151C25.7121 16.7593 25.7544 16.8034 25.7991 16.8463C25.8353 16.8823 25.8728 16.916 25.9102 16.9508C25.9537 16.9914 25.996 17.032 26.0407 17.0704C26.0818 17.1063 26.1228 17.1412 26.1651 17.176C26.2074 17.212 26.2509 17.2491 26.2944 17.2839C26.3403 17.3199 26.3862 17.3559 26.4321 17.3907C26.4744 17.4232 26.5155 17.4557 26.5577 17.4871C26.6085 17.5242 26.6604 17.5602 26.7124 17.5962C26.7522 17.6241 26.7909 17.6519 26.832 17.6786C26.8912 17.7181 26.9516 17.7552 27.012 17.7924C27.047 17.8144 27.0808 17.8377 27.1171 17.8585C27.2113 17.9154 27.3079 17.97 27.4058 18.0222C27.4601 18.0512 27.5157 18.0791 27.5713 18.107C27.616 18.129 27.6595 18.1534 27.7054 18.1754C27.767 18.2056 27.831 18.2335 27.8938 18.2613C27.9337 18.2788 27.9723 18.2973 28.0122 18.3147C28.0799 18.3438 28.1475 18.3693 28.2164 18.396C28.2538 18.4099 28.2901 18.4262 28.3275 18.4401C28.3988 18.4668 28.4725 18.4912 28.545 18.5156C28.58 18.5272 28.6138 18.5399 28.6488 18.5504C28.7237 18.5748 28.8011 18.5968 28.8772 18.6189C28.911 18.6282 28.9436 18.6386 28.9774 18.6479C29.056 18.6688 29.1345 18.6874 29.213 18.7059C29.2456 18.7141 29.2794 18.7222 29.3121 18.7292C29.3906 18.7466 29.4715 18.7617 29.5512 18.7768C29.5863 18.7837 29.6201 18.7895 29.6551 18.7965C29.7337 18.8104 29.8122 18.8209 29.8907 18.8325C29.9294 18.8383 29.9668 18.8429 30.0055 18.8476C30.0804 18.8568 30.1565 18.8638 30.2326 18.8708C30.2761 18.8754 30.3183 18.8789 30.3618 18.8824C30.4307 18.8882 30.5008 18.8917 30.5696 18.894C30.6022 18.894 30.6373 18.8986 30.6699 18.8998H30.7339C30.7979 18.901 30.8632 18.9021 30.9272 18.9021C30.9912 18.9021 31.0565 18.9021 31.1205 18.8998H31.1845C31.2171 18.8998 31.2485 18.8963 31.2799 18.894C31.35 18.8905 31.4201 18.887 31.4889 18.8824C31.5336 18.8789 31.5771 18.8754 31.6218 18.8708C31.6979 18.8638 31.774 18.8568 31.8489 18.8476C31.8876 18.8429 31.925 18.8371 31.9637 18.8325C32.0422 18.822 32.1219 18.8104 32.1993 18.7965C32.2343 18.7907 32.2681 18.7837 32.3031 18.7768C32.3829 18.7617 32.4626 18.7466 32.5423 18.7292C32.5762 18.7222 32.6088 18.7129 32.6414 18.7059C32.7199 18.6874 32.7996 18.6688 32.877 18.6479C32.9108 18.6386 32.9434 18.6282 32.9772 18.6189C33.0533 18.5968 33.1306 18.5748 33.2055 18.5504C33.2406 18.5388 33.2744 18.5272 33.3094 18.5156C33.3819 18.4912 33.4556 18.4668 33.5269 18.4401C33.5643 18.4262 33.6006 18.4111 33.638 18.396C33.7057 18.3693 33.7745 18.3426 33.8422 18.3147C33.882 18.2973 33.9219 18.2788 33.9618 18.2613C34.0246 18.2335 34.0886 18.2056 34.1502 18.1754C34.1949 18.1534 34.2396 18.1302 34.2843 18.107C34.3399 18.0791 34.3955 18.0512 34.4498 18.0222C34.5477 17.97 34.6443 17.9143 34.7385 17.8585C34.7736 17.8377 34.8074 17.8156 34.8412 17.7935C34.9016 17.7552 34.9632 17.7181 35.0224 17.6786C35.0623 17.6519 35.101 17.6241 35.1408 17.5962C35.1928 17.5602 35.2459 17.5242 35.2967 17.4871C35.3389 17.4557 35.38 17.4232 35.4211 17.3919C35.4682 17.3559 35.5141 17.3211 35.56 17.2839C35.6035 17.2491 35.6458 17.212 35.6881 17.176C35.7303 17.1412 35.7714 17.1063 35.8125 17.0692C35.8572 17.0297 35.8995 16.9891 35.943 16.9496C35.9804 16.9148 36.0178 16.88 36.0541 16.8452C36.0988 16.8022 36.1411 16.7581 36.1846 16.7128C36.2184 16.678 36.2522 16.6443 36.2848 16.6095C36.3283 16.5631 36.3718 16.5143 36.4141 16.4667C36.4443 16.4331 36.4745 16.3994 36.5035 16.3657C36.547 16.3147 36.588 16.2636 36.6303 16.2114C36.6569 16.1777 36.6835 16.1452 36.7101 16.1115C36.7523 16.057 36.7934 16.0024 36.8333 15.9467C36.8574 15.9142 36.8804 15.8817 36.9045 15.848C36.9444 15.7911 36.9843 15.7319 37.0229 15.6739C37.0447 15.6414 37.0652 15.6089 37.087 15.5752C37.1256 15.5149 37.1619 15.4545 37.1981 15.393C37.2174 15.3605 37.2368 15.3268 37.2549 15.2943C37.2899 15.2316 37.3249 15.1689 37.3588 15.1051C37.3757 15.0714 37.3938 15.0389 37.4107 15.0053C37.4433 14.9403 37.4747 14.8753 37.5061 14.8091C37.5219 14.7754 37.5376 14.7406 37.5533 14.7069C37.5823 14.6408 37.6112 14.5746 37.639 14.5073C37.6535 14.4724 37.6668 14.4365 37.6813 14.4005C37.7079 14.3332 37.7333 14.2658 37.7562 14.1973C37.7695 14.1602 37.7816 14.123 37.7937 14.0847C37.8166 14.0174 37.8384 13.9489 37.8589 13.8804C37.871 13.841 37.8806 13.8015 37.8927 13.762C37.9108 13.6947 37.9302 13.6274 37.9459 13.5589C37.9555 13.5171 37.9652 13.4741 37.9749 13.4312C37.9894 13.3639 38.0051 13.2977 38.0171 13.2292C38.0256 13.1839 38.0328 13.1387 38.0401 13.0934C38.051 13.0272 38.063 12.9611 38.0715 12.8937C38.0775 12.8461 38.0824 12.7986 38.0884 12.751C38.0957 12.6848 38.1041 12.6186 38.1102 12.5525C38.1138 12.5049 38.1162 12.4561 38.1198 12.4074C38.1234 12.3458 38.1295 12.2855 38.1319 12.224L39.4076 12.5652C39.4837 12.5896 39.5646 12.6035 39.6468 12.6093C39.6552 12.6093 39.6649 12.6117 39.6734 12.614L46.3743 14.426L46.3912 14.4307C47.3649 14.693 48.2359 15.2258 48.8967 15.9606L55.2401 23.023L59.2689 27.5084C59.9707 28.2943 59.9635 29.4562 59.2532 30.234V30.2328Z" fill="#353950"/>
<path d="M24.2939 38.5347C24.2939 39.8627 25.4138 40.9376 26.7946 40.9376C28.1754 40.9376 29.2952 39.8615 29.2952 38.5347C29.2952 37.0071 28.1754 36.1318 26.7946 36.1318C25.4138 36.1318 24.2939 37.2079 24.2939 38.5347ZM26.7958 37.7338C27.256 37.7338 27.6293 38.0925 27.6293 38.5347C27.6293 38.977 27.256 39.3357 26.7958 39.3357C26.3355 39.3357 25.9622 38.977 25.9622 38.5347C25.9622 38.0925 26.3355 37.7338 26.7958 37.7338Z" fill="#353950"/>
<path d="M17.5556 34.7715H17.5568C18.1258 34.7703 18.5873 34.3269 18.5873 33.7802V30.8085H21.6798C22.2488 30.8085 22.7103 30.365 22.7103 29.8183C22.7103 29.2716 22.2488 28.8281 21.6798 28.8281H18.5873C17.4481 28.8281 16.5251 29.715 16.5251 30.8096V33.7813C16.5251 34.3281 16.9866 34.7715 17.5556 34.7715Z" fill="#353950"/>
<path d="M40.1628 30.8072H43.2553V33.7789C43.2553 34.3256 43.7168 34.7691 44.2858 34.7691C44.8548 34.7691 45.3162 34.3256 45.3162 33.7789V30.8072C45.3162 29.7125 44.3933 28.8257 43.2541 28.8257H43.2553L40.1628 28.8268C39.5938 28.8268 39.1323 29.2703 39.1323 29.817C39.1323 30.3638 39.5938 30.8072 40.1628 30.8072Z" fill="#353950"/>
<path d="M21.6813 54.2887H21.6801L18.5875 54.2875V51.3159C18.5875 50.7691 18.126 50.3257 17.5571 50.3257C16.9881 50.3257 16.5266 50.7691 16.5266 51.3159V54.2875C16.5266 55.3822 17.4495 56.2691 18.5887 56.2691H21.6813C22.2503 56.2691 22.7117 55.8256 22.7117 55.2789C22.7117 54.7321 22.2503 54.2887 21.6813 54.2887Z" fill="#353950"/>
<path d="M44.287 50.3237H44.2858C43.7168 50.3249 43.2553 50.7683 43.2553 51.3151V54.2868H40.1628C39.5938 54.2868 39.1323 54.7302 39.1323 55.2769C39.1323 55.8237 39.5938 56.2671 40.1628 56.2671H43.2553C44.3945 56.2671 45.3175 55.3802 45.3175 54.2856V51.3139C45.3175 50.7672 44.856 50.3237 44.287 50.3237Z" fill="#353950"/>
<path d="M22.2172 32.837C21.2918 33.032 20.5996 33.8237 20.5996 34.7709V50.5C20.5996 51.5946 21.5225 52.4815 22.6617 52.4815H39.155C40.2942 52.4815 41.2171 51.5946 41.2171 50.5V34.7698C41.2171 33.6751 40.2942 32.7883 39.155 32.7883H33.0605V32.7906C33.0375 32.7894 33.0158 32.7871 32.9928 32.7871C32.4287 32.7871 31.9708 33.2271 31.9708 33.7692C31.9708 34.3113 32.4287 34.7512 32.9928 34.7512C33.0158 34.7512 33.0375 34.7489 33.0605 34.7477V34.7698H39.155V44.9443L37.3091 43.1694C36.4901 42.3963 35.183 42.3766 34.3386 43.1253L31.5335 45.6466L28.9677 43.1845C28.1534 42.394 26.8331 42.3708 25.9899 43.1311L22.6617 46.1121V34.7709L25.5151 34.7524C26.0792 34.7524 26.5371 34.3124 26.5371 33.7703C26.5371 33.2282 26.0792 32.7894 25.5151 32.7894H22.53C22.4213 32.7894 22.3162 32.8057 22.2172 32.837ZM35.7435 44.5763C35.7773 44.5473 35.8305 44.5496 35.8607 44.5822L39.155 47.7396V50.4977H36.5916L32.994 47.0442L35.7435 44.5763ZM22.6617 48.8203L27.396 44.5763C27.4298 44.5485 27.4806 44.5508 27.5108 44.5822L33.6754 50.4988H22.6617V48.8203Z" fill="#353950"/>
<path d="M29.2696 34.7512C29.834 34.7512 30.2916 34.3115 30.2916 33.7692C30.2916 33.2268 29.834 32.7871 29.2696 32.7871C28.7051 32.7871 28.2476 33.2268 28.2476 33.7692C28.2476 34.3115 28.7051 34.7512 29.2696 34.7512Z" fill="#353950"/>
</svg>
