<svg width="83" height="83" viewBox="0 0 83 83" fill="none" xmlns="http://www.w3.org/2000/svg">
<path d="M42.0612 81.4374C64.5495 81.4374 82.7799 63.207 82.7799 40.7187C82.7799 18.2304 64.5495 0 42.0612 0C19.5729 0 1.34253 18.2304 1.34253 40.7187C1.34253 63.207 19.5729 81.4374 42.0612 81.4374Z" fill="#00ABB3"/>
<path d="M76.1331 64.3792H75.825C75.4178 64.3792 75.0546 64.115 74.9336 63.7189C74.7465 63.1576 74.5264 62.6183 74.2623 62.1011C74.0752 61.7379 74.1412 61.2977 74.4273 61.0006L74.6474 60.7805C75.0106 60.4173 75.0106 59.8231 74.6474 59.4489L71.522 56.3235C71.1588 55.9603 70.5646 55.9603 70.1904 56.3235L69.9703 56.5436C69.6842 56.8297 69.244 56.8957 68.8698 56.7086C68.3526 56.4445 67.8133 56.2244 67.2521 56.0373C66.8669 55.9053 66.5917 55.5531 66.5917 55.1459V54.8378C66.5917 54.3205 66.1736 53.9023 65.6563 53.9023H61.2433C60.7261 53.9023 60.3079 54.3205 60.3079 54.8378V55.1459C60.3079 55.5531 60.0437 55.9163 59.6476 56.0373C59.0863 56.2244 58.5471 56.4445 58.0298 56.7086C57.6667 56.8957 57.2265 56.8297 56.9293 56.5436L56.7092 56.3235C56.346 55.9603 55.7518 55.9603 55.3776 56.3235L52.2522 59.4489C51.889 59.8121 51.889 60.4063 52.2522 60.7805L52.4723 61.0006C52.7584 61.2867 52.8244 61.7269 52.6373 62.1011C52.3732 62.6183 52.1531 63.1576 51.966 63.7189C51.834 64.104 51.4818 64.3792 51.0746 64.3792H50.7665C50.2492 64.3792 49.8311 64.7973 49.8311 65.3146V69.7276C49.8311 70.2448 50.2492 70.663 50.7665 70.663H51.0746C51.4818 70.663 51.845 70.9272 51.966 71.3233C52.1531 71.8846 52.3732 72.4238 52.6373 72.9411C52.8244 73.3042 52.7584 73.7444 52.4723 74.0416L52.2522 74.2617C51.889 74.6249 51.889 75.2191 52.2522 75.5933L55.3776 78.7187C55.7408 79.0819 56.335 79.0819 56.7092 78.7187L56.9293 78.4986C57.2154 78.2125 57.6556 78.1465 58.0298 78.3336C58.5471 78.5977 59.0863 78.8178 59.6476 79.0049C60.0327 79.1369 60.3079 79.4891 60.3079 79.8963V80.2044C60.3079 80.7217 60.7261 81.1398 61.2433 81.1398H65.6563C66.1736 81.1398 66.5917 80.7217 66.5917 80.2044V79.8963C66.5917 79.4891 66.8559 79.1259 67.2521 79.0049C67.8133 78.8178 68.3526 78.5977 68.8698 78.3336C69.233 78.1465 69.6732 78.2125 69.9703 78.4986L70.1904 78.7187C70.5536 79.0819 71.1478 79.0819 71.522 78.7187L74.6474 75.5933C75.0106 75.2301 75.0106 74.6359 74.6474 74.2617L74.4273 74.0416C74.1412 73.7555 74.0752 73.3153 74.2623 72.9411C74.5264 72.4238 74.7465 71.8846 74.9336 71.3233C75.0656 70.9382 75.4178 70.663 75.825 70.663H76.1331C76.6504 70.663 77.0686 70.2448 77.0686 69.7276V65.3146C77.0686 64.7973 76.6504 64.3792 76.1331 64.3792ZM63.4663 72.5119C60.7151 72.5119 58.481 70.2779 58.481 67.5266C58.481 64.7753 60.7151 62.5413 63.4663 62.5413C66.2176 62.5413 68.4516 64.7753 68.4516 67.5266C68.4516 70.2779 66.2176 72.5119 63.4663 72.5119Z" fill="white"/>
<path d="M69.783 25.6307C69.5629 25.1135 69.0457 24.7393 68.4404 24.7393H67.9562C67.3179 24.7393 66.7676 24.3211 66.5695 23.7268C66.2834 22.8574 65.9313 22.021 65.5351 21.2177C65.2489 20.6454 65.348 19.9631 65.7992 19.5119L66.1404 19.1707C66.2834 19.0277 66.3935 18.8626 66.4595 18.6865C66.5255 18.5104 66.5695 18.3233 66.5695 18.1363C66.5695 17.7621 66.4265 17.3879 66.1404 17.1018L61.2981 12.2596C60.7259 11.6873 59.8124 11.6873 59.2402 12.2596L58.899 12.6007C58.767 12.7328 58.6129 12.8208 58.4478 12.8979C58.0516 13.0629 57.6004 13.0629 57.1932 12.8648C56.3899 12.4576 55.5535 12.1165 54.6841 11.8304C54.0788 11.6323 53.6716 11.082 53.6716 10.4437V9.9595C53.6716 9.15613 53.0223 8.50684 52.219 8.50684H45.3738C44.5705 8.50684 43.9212 9.15613 43.9212 9.9595V10.4437C43.9212 11.082 43.503 11.6323 42.9087 11.8304C42.0393 12.1165 41.2029 12.4687 40.3995 12.8648C39.8273 13.151 39.145 13.0519 38.6938 12.6007L38.3526 12.2596C37.7803 11.6873 36.8669 11.6873 36.2947 12.2596L31.4524 17.1018C30.8802 17.674 30.8802 18.5875 31.4524 19.1597L31.7936 19.5009C32.2448 19.9521 32.3438 20.6344 32.0577 21.2067C31.6505 22.01 31.3094 22.8464 31.0232 23.7158C30.8251 24.3211 30.2749 24.7283 29.6366 24.7283H29.1524C28.349 24.7283 27.6997 25.3776 27.6997 26.181V33.0261C27.6997 33.8295 28.349 34.4788 29.1524 34.4788H29.6366C30.2749 34.4788 30.8251 34.8969 31.0232 35.4912C31.3094 36.3606 31.6615 37.197 32.0577 38.0004C32.3438 38.5726 32.2448 39.255 31.7936 39.7062L31.4524 40.0473C30.8802 40.6196 30.8802 41.533 31.4524 42.1053L36.2947 46.9475C36.8669 47.5197 37.7803 47.5197 38.3526 46.9475L38.6938 46.6063C39.145 46.1551 39.8273 46.0561 40.3995 46.3422C41.2029 46.7494 42.0393 47.0905 42.9087 47.3767C43.514 47.5748 43.9212 48.125 43.9212 48.7633V49.2475C43.9212 50.0509 44.5705 50.7002 45.3738 50.7002H52.219C53.0223 50.7002 53.6716 50.0509 53.6716 49.2475V48.7633C53.6716 48.125 54.0898 47.5748 54.6841 47.3767C55.5535 47.0905 56.3899 46.7384 57.1932 46.3422C57.4794 46.1991 57.7875 46.1551 58.0847 46.1991C58.3818 46.2432 58.6679 46.3862 58.888 46.6063L59.2292 46.9475C59.5153 47.2336 59.8895 47.3767 60.2637 47.3767C60.6378 47.3767 61.012 47.2336 61.2981 46.9475L66.1404 42.1053C66.7126 41.533 66.7126 40.6196 66.1404 40.0473L65.7992 39.7062C65.348 39.255 65.2489 38.5726 65.5351 38.0004C65.9423 37.197 66.2834 36.3606 66.5695 35.4912C66.7676 34.8859 67.3179 34.4788 67.9562 34.4788H68.4404C69.2438 34.4788 69.8931 33.8295 69.8931 33.0261V26.181C69.8931 25.9829 69.8491 25.7848 69.783 25.6087V25.6307ZM48.7854 20.8655C53.6166 20.8655 57.5344 24.7833 57.5344 29.6145C57.5344 34.4457 53.6166 38.3635 48.7854 38.3635C43.9542 38.3635 40.0364 34.4457 40.0364 29.6145C40.0364 24.7833 43.9542 20.8655 48.7854 20.8655Z" fill="white"/>
<path d="M41.3791 74.9222H41.192C39.112 74.9222 37.4172 73.2274 37.4172 71.1474V33.6092C37.4172 31.5293 39.112 29.8345 41.192 29.8345H41.3791C43.459 29.8345 45.1538 31.5293 45.1538 33.6092V71.1474C45.1538 73.2274 43.459 74.9222 41.3791 74.9222Z" fill="white"/>
<path d="M15.5502 44.3061H9.20025C4.7432 44.3061 1.13354 47.9157 1.13354 52.3728C1.13354 56.8298 4.7432 60.4395 9.20025 60.4395H15.5502C17.333 60.4395 19.0938 60.8797 20.6675 61.7271L37.4062 70.7182V34.0273L20.6675 43.0185C19.0938 43.8659 17.333 44.3061 15.5502 44.3061Z" fill="white"/>
<path d="M16.2435 44.2837C16.0124 44.2947 15.7813 44.3057 15.5502 44.3057H9.20025C4.7432 44.3057 1.13354 47.9154 1.13354 52.3724C1.13354 56.8294 4.7432 60.4391 9.20025 60.4391H15.5502C15.7813 60.4391 16.0124 60.4391 16.2435 60.4611V44.2837Z" fill="white"/>
<path d="M16.2543 76.1109V60.4287H8.42969V80.2378C8.42969 80.9862 9.03496 81.5914 9.78331 81.5914H10.7628C13.7891 81.5914 16.2543 79.1373 16.2543 76.0999V76.1109Z" fill="white"/>
<path d="M20.9095 71.2685V68.3082C20.9095 67.1747 19.9961 66.2612 18.8626 66.2612H16.2434V73.3045H18.8626C19.9961 73.3045 20.9095 72.391 20.9095 71.2575V71.2685Z" fill="#CDE2FF"/>
<path d="M52.208 51.8667C53.6386 51.8667 54.8052 50.7001 54.8052 49.2695V48.7852C54.8052 48.6532 54.8932 48.5321 55.0363 48.4881C55.9387 48.191 56.8411 47.8168 57.6995 47.3876C57.8315 47.3216 57.9856 47.3436 58.0737 47.4316L58.4148 47.7728C58.91 48.268 59.5593 48.5321 60.2527 48.5321C60.946 48.5321 61.6063 48.257 62.0905 47.7728L66.9327 42.9306C67.428 42.4353 67.6921 41.786 67.6921 41.0927C67.6921 40.3994 67.4169 39.7391 66.9327 39.2549L66.5916 38.9137C66.4925 38.8147 66.4815 38.6716 66.5475 38.5395C66.9767 37.6812 67.3509 36.7897 67.648 35.8763C67.6921 35.7333 67.8131 35.6452 67.9452 35.6452H68.4294C69.8601 35.6452 71.0266 34.4787 71.0266 33.048V26.2029C71.0266 24.7722 69.8601 23.6057 68.4294 23.6057H67.9452C67.8131 23.6057 67.6921 23.5176 67.648 23.3746C67.3509 22.4722 66.9767 21.5698 66.5475 20.7114C66.4815 20.5793 66.5035 20.4252 66.5916 20.3372L66.9327 19.996C67.428 19.5008 67.6921 18.8515 67.6921 18.1582C67.6921 17.4649 67.4169 16.8046 66.9327 16.3203C66.4815 15.8691 65.7552 15.8691 65.315 16.3203C64.8638 16.7716 64.8638 17.4979 65.315 17.9381C65.392 18.0151 65.403 18.1032 65.403 18.1582C65.403 18.2132 65.392 18.3013 65.315 18.3783L64.9738 18.7194C64.1815 19.5118 63.9834 20.7334 64.5006 21.7458C64.8858 22.5052 65.2049 23.2975 65.4801 24.1009C65.8322 25.1794 66.8337 25.9057 67.9562 25.9057H68.4404C68.6165 25.9057 68.7486 26.0488 68.7486 26.2139V33.059C68.7486 33.2351 68.6055 33.3672 68.4404 33.3672H67.9562C66.8337 33.3672 65.8432 34.0935 65.4801 35.172C65.2159 35.9754 64.8858 36.7677 64.5006 37.5271C63.9944 38.5395 64.1815 39.7611 64.9738 40.5535L65.315 40.8946C65.392 40.9717 65.403 41.0597 65.403 41.1147C65.403 41.1698 65.392 41.2578 65.315 41.3348L60.4728 46.177C60.3957 46.2541 60.3077 46.2651 60.2527 46.2651C60.1976 46.2651 60.1096 46.2541 60.0326 46.177L59.6914 45.8359C58.899 45.0435 57.6775 44.8454 56.665 45.3627C55.9057 45.7479 55.1133 46.067 54.3099 46.3421C53.2314 46.6943 52.5051 47.6957 52.5051 48.8183V49.3025C52.5051 49.4786 52.362 49.6106 52.197 49.6106H46.2762V39.2219C47.0906 39.431 47.927 39.541 48.7744 39.541C54.2329 39.541 58.6679 35.106 58.6679 29.6475C58.6679 24.189 54.2329 19.7539 48.7744 19.7539C43.3159 19.7539 39.0899 23.9909 38.8918 29.2843C37.3952 30.0657 36.3607 31.5954 36.2616 33.3782L32.2118 35.5572C32.1678 35.4361 32.1237 35.3151 32.0797 35.194C31.7276 34.1155 30.7261 33.3892 29.6036 33.3892H29.1194C28.9433 33.3892 28.8112 33.2461 28.8112 33.081V26.2359C28.8112 26.0598 28.9543 25.9278 29.1194 25.9278H29.6036C30.7261 25.9278 31.7166 25.2014 32.0797 24.1229C32.3438 23.3196 32.674 22.5272 33.0592 21.7678C33.5654 20.7554 33.3783 19.5338 32.586 18.7415L32.2448 18.4003C32.1678 18.3233 32.1568 18.2352 32.1568 18.1802C32.1568 18.1252 32.1678 18.0371 32.2448 17.9601L37.087 13.1179C37.1641 13.0408 37.2521 13.0298 37.3071 13.0298C37.3622 13.0298 37.4502 13.0408 37.5272 13.1179L37.8684 13.459C38.6607 14.2514 39.8823 14.4495 40.8948 13.9322C41.6541 13.5471 42.4465 13.2279 43.2499 12.9528C44.3284 12.6006 45.0547 11.5992 45.0547 10.4767V9.99244C45.0547 9.81636 45.1977 9.6843 45.3628 9.6843H52.208C52.384 9.6843 52.5161 9.82736 52.5161 9.99244V10.4767C52.5161 11.5992 53.2424 12.5896 54.3209 12.9528C55.1243 13.2169 55.9167 13.5471 56.676 13.9322C57.6885 14.4385 58.91 14.2514 59.7024 13.459L60.0436 13.1179C60.1206 13.0408 60.2086 13.0298 60.2637 13.0298C60.3187 13.0298 60.4067 13.0408 60.4838 13.1179L61.8044 14.4385C62.2556 14.8897 62.9819 14.8897 63.4221 14.4385C63.8623 13.9873 63.8733 13.2609 63.4221 12.8207L62.1015 11.5001C61.6063 11.0049 60.957 10.7408 60.2637 10.7408C59.5703 10.7408 58.91 11.0159 58.4258 11.5001L58.0847 11.8413C57.9856 11.9403 57.8426 11.9513 57.7105 11.8853C56.8521 11.4561 55.9607 11.0819 55.0473 10.7848C54.9042 10.7408 54.8162 10.6197 54.8162 10.4877V10.0034C54.8162 8.57279 53.6496 7.40625 52.219 7.40625H45.3738C43.9432 7.40625 42.7766 8.57279 42.7766 10.0034V10.4877C42.7766 10.6197 42.6886 10.7408 42.5455 10.7848C41.6431 11.0819 40.7407 11.4561 39.8823 11.8853C39.7502 11.9513 39.5962 11.9293 39.5081 11.8413L39.167 11.5001C38.6717 11.0049 38.0225 10.7408 37.3291 10.7408C36.6358 10.7408 35.9755 11.0159 35.4913 11.5001L30.6491 16.3424C30.1538 16.8376 29.8897 17.4869 29.8897 18.1802C29.8897 18.8735 30.1648 19.5338 30.6491 20.018L30.9902 20.3592C31.0893 20.4582 31.1003 20.6013 31.0342 20.7334C30.605 21.5918 30.2309 22.4832 29.9337 23.3966C29.8897 23.5397 29.7687 23.6277 29.6366 23.6277H29.1524C27.7217 23.6277 26.5552 24.7942 26.5552 26.2249V33.07C26.5552 34.5007 27.7217 35.6672 29.1524 35.6672H29.6366C29.7687 35.6672 29.8897 35.7553 29.9337 35.8983C30.0108 36.1404 30.1098 36.3936 30.1979 36.6357L20.1392 42.0392C18.7416 42.7875 17.1569 43.1947 15.5611 43.1947H9.21123C8.62796 43.1947 8.04469 43.2497 7.47243 43.3598C6.85615 43.4808 6.43795 44.0751 6.55901 44.7024C6.68007 45.3187 7.27434 45.7368 7.90163 45.6158C8.33082 45.5388 8.77103 45.4947 9.21123 45.4947H15.1099V59.3281H8.96912C5.26041 59.196 2.28905 56.1476 2.28905 52.4169C2.28905 50.6561 2.94935 48.9833 4.1489 47.6957C4.5781 47.2335 4.55609 46.5072 4.09388 46.078C3.63167 45.6488 2.90533 45.6708 2.47614 46.133C0.880404 47.8388 0 50.0728 0 52.4169C0 56.8409 3.13644 60.5386 7.29635 61.4301V80.2927C7.29635 81.6683 8.41886 82.7909 9.79449 82.7909H10.7739C14.4276 82.7909 17.41 79.8195 17.41 76.1548V74.5041H18.8847C20.6455 74.5041 22.0761 73.0734 22.0761 71.3126V68.3522C22.0761 66.5914 20.6455 65.1608 18.8847 65.1608H17.41V61.8042C18.3564 61.9913 19.2808 62.3215 20.1392 62.7727L36.2837 71.4446C36.4157 74.0308 38.5727 76.0998 41.1919 76.0998H41.379C44.0972 76.0998 46.2983 73.8878 46.2983 71.1805V51.8997H52.219L52.208 51.8667ZM48.7854 22.021C52.9783 22.021 56.3899 25.4325 56.3899 29.6255C56.3899 33.8184 52.9783 37.2299 48.7854 37.2299C47.927 37.2299 47.0906 37.0869 46.2872 36.8118V33.6203C46.2872 30.902 44.0752 28.701 41.368 28.701H41.2359C41.6981 24.9483 44.9006 22.032 48.7744 22.032L48.7854 22.021ZM15.1099 76.1108C15.1099 78.4989 13.162 80.4468 10.7739 80.4468H9.79449C9.68444 80.4468 9.5854 80.3587 9.5854 80.2377V61.5731H15.1209V76.0998L15.1099 76.1108ZM18.8737 67.4168C19.3689 67.4168 19.7761 67.824 19.7761 68.3192V71.2796C19.7761 71.7748 19.3689 72.182 18.8737 72.182H17.399V67.4278H18.8737V67.4168ZM17.388 59.4381V45.3076C18.7196 45.0986 20.0182 44.6694 21.2177 44.0311L36.2727 35.9424V68.8034L21.2177 60.7147C20.0292 60.0764 18.7196 59.6362 17.388 59.4381ZM44.0092 71.1475C44.0092 72.6002 42.8317 73.7777 41.379 73.7777H41.1919C39.7392 73.7777 38.5617 72.6002 38.5617 71.1475V33.6093C38.5617 32.1566 39.7392 30.9791 41.1919 30.9791H41.379C42.8317 30.9791 44.0092 32.1566 44.0092 33.6093V71.1475Z" fill="#353950"/>
<path d="M76.1331 63.2348H75.968C75.7919 62.7176 75.5828 62.2114 75.3407 61.7162L75.4618 61.5951C76.2762 60.7807 76.2762 59.4601 75.4618 58.6457L72.3363 55.5203C71.522 54.7059 70.2014 54.7059 69.387 55.5203L69.2659 55.6414C68.7707 55.3993 68.2645 55.1902 67.7472 55.0141V54.849C67.7472 53.7045 66.8118 52.769 65.6673 52.769H61.2543C60.1097 52.769 59.1743 53.7045 59.1743 54.849V55.0141C58.6571 55.1902 58.1508 55.3993 57.6556 55.6414L57.5345 55.5203C57.1384 55.1241 56.6211 54.915 56.0599 54.915C55.4986 54.915 54.9814 55.1351 54.5852 55.5203L51.4598 58.6457C50.6454 59.4601 50.6454 60.7807 51.4598 61.5951L51.5808 61.7162C51.3387 62.2114 51.1296 62.7176 50.9535 63.2348H50.7885C49.6439 63.2348 48.7085 64.1703 48.7085 65.3148V69.7278C48.7085 70.8724 49.6439 71.8078 50.7885 71.8078H50.9535C51.1296 72.325 51.3387 72.8312 51.5808 73.3265L51.4598 73.4475C50.6454 74.2619 50.6454 75.5825 51.4598 76.3969L54.5852 79.5223C54.9814 79.9185 55.4986 80.1276 56.0599 80.1276C56.6211 80.1276 57.1384 79.9075 57.5345 79.5223L57.6556 79.4013C58.1508 79.6434 58.6571 79.8525 59.1743 80.0286V80.1936C59.1743 81.3382 60.1097 82.2736 61.2543 82.2736H65.6673C66.8118 82.2736 67.7472 81.3382 67.7472 80.1936V80.0286C68.2645 79.8525 68.7707 79.6434 69.2659 79.4013L69.387 79.5223C69.7832 79.9185 70.3004 80.1276 70.8617 80.1276C71.4229 80.1276 71.9402 79.9075 72.3363 79.5223L75.4618 76.3969C76.2762 75.5825 76.2762 74.2619 75.4618 73.4475L75.3407 73.3265C75.5828 72.8312 75.7919 72.325 75.968 71.8078H76.1331C77.2776 71.8078 78.213 70.8724 78.213 69.7278V65.3148C78.213 64.1703 77.2776 63.2348 76.1331 63.2348ZM75.935 69.5297H75.8249C74.9225 69.5297 74.1302 70.113 73.844 70.9714C73.679 71.4666 73.4699 71.9619 73.2388 72.4351C72.8316 73.2494 72.9856 74.2179 73.6239 74.8562L73.701 74.9332L70.8727 77.7615L70.7956 77.6845C70.1573 77.0462 69.1889 76.8921 68.3745 77.2993C67.9013 77.5414 67.4171 77.7395 66.9109 77.9046C66.0525 78.1907 65.4692 78.9831 65.4692 79.8855V79.9955H61.4744V79.8855C61.4744 78.9831 60.8911 78.1907 60.0327 77.9046C59.5375 77.7395 59.0422 77.5304 58.569 77.2993C57.7546 76.8921 56.7862 77.0462 56.1479 77.6845L56.0709 77.7615L53.2426 74.9332L53.3196 74.8562C53.9579 74.2179 54.112 73.2494 53.7048 72.4351C53.4627 71.9619 53.2646 71.4776 53.0995 70.9714C52.8134 70.113 52.021 69.5297 51.1186 69.5297H51.0086V65.5349H51.1186C52.021 65.5349 52.8134 64.9516 53.0995 64.0932C53.2646 63.598 53.4737 63.1028 53.7048 62.6296C54.112 61.8152 53.9579 60.8467 53.3196 60.2085L53.2426 60.1314L56.0709 57.3031L56.1479 57.3802C56.7862 58.0185 57.7546 58.1725 58.569 57.7653C59.0422 57.5232 59.5265 57.3251 60.0327 57.1601C60.8911 56.8739 61.4744 56.0816 61.4744 55.1791V55.0691H65.4692V55.1791C65.4692 56.0816 66.0525 56.8739 66.9109 57.1601C67.4061 57.3251 67.9013 57.5342 68.3745 57.7653C69.1889 58.1725 70.1573 58.0185 70.7956 57.3802L70.8727 57.3031L73.701 60.1314L73.6239 60.2085C72.9856 60.8467 72.8316 61.8152 73.2388 62.6296C73.4809 63.1028 73.679 63.587 73.844 64.0932C74.1302 64.9516 74.9225 65.5349 75.8249 65.5349H75.935V69.5297Z" fill="#353950"/>
<path d="M63.4662 61.397C60.0877 61.397 57.3364 64.1482 57.3364 67.5268C57.3364 70.9053 60.0877 73.6566 63.4662 73.6566C66.8448 73.6566 69.5961 70.9053 69.5961 67.5268C69.5961 64.1482 66.8448 61.397 63.4662 61.397ZM63.4662 71.3675C61.3533 71.3675 59.6255 69.6398 59.6255 67.5268C59.6255 65.4138 61.3533 63.686 63.4662 63.686C65.5792 63.686 67.307 65.4138 67.307 67.5268C67.307 69.6398 65.5902 71.3675 63.4662 71.3675Z" fill="#353950"/>
</svg>
