<svg width="94" height="82" viewBox="0 0 94 82" fill="none" xmlns="http://www.w3.org/2000/svg">
<ellipse cx="44.4009" cy="41" rx="40.8955" ry="41" fill="#00ABB3"/>
<path d="M48.5678 39.5315C49.104 39.4857 49.4951 39.0298 49.4413 38.5132C49.3876 37.9966 48.9093 37.615 48.3732 37.6607C47.837 37.7065 47.4459 38.1624 47.4997 38.679C47.5534 39.1956 48.0317 39.5773 48.5678 39.5315Z" fill="white"/>
<path d="M56.1668 14.0634C56.261 14.0847 56.3554 14.1047 56.4487 14.1218C56.4766 14.127 56.5044 14.1322 56.5325 14.1361C56.5952 14.1476 56.6595 14.1579 56.7226 14.1666C56.7858 14.174 56.8489 14.1828 56.9138 14.189C56.9418 14.1929 56.9702 14.1941 56.9982 14.198C57.0927 14.207 57.1876 14.2133 57.284 14.2184C60.0703 14.3496 62.5479 12.6177 63.2879 10.0613C63.3228 9.94257 63.2232 9.8258 63.0962 9.83563C62.2568 9.90314 61.4154 9.9237 60.5741 9.90171C59.495 9.8742 58.4188 9.77432 57.3519 9.59612C56.2769 9.47719 55.2126 9.28014 54.168 9.01305L54.1694 9.01325C53.3552 8.80558 52.5496 8.55654 51.7601 8.26307C51.639 8.21882 51.5131 8.30294 51.5144 8.42804C51.5342 11.0898 53.4497 13.4312 56.1668 14.0634Z" fill="white"/>
<path d="M54.5398 53.5856L48.3341 45.7278C48.3041 45.6865 48.2456 45.6757 48.2019 45.7026L42.0287 49.865L41.7598 51.8128L54.5398 53.5856Z" fill="white"/>
<path d="M60.8979 54.4663L61.3396 51.2658L58.0227 47.0718C57.9928 47.0292 57.9315 47.0179 57.8876 47.0462L54.302 49.4673L57.9234 54.0536L60.8979 54.4663Z" fill="white"/>
<path d="M87.919 31.0259L83.9625 25.1727L77.7328 15.9566C77.0837 14.9976 76.1584 14.2391 75.0706 13.778L75.0517 13.7699L67.5662 10.5886C67.5568 10.5845 67.5472 10.5818 67.5362 10.5789C67.4418 10.559 67.3501 10.5298 67.2657 10.4892L65.8401 9.88789C65.8274 9.95889 65.8107 10.028 65.7967 10.0988C65.7847 10.1548 65.774 10.2109 65.7622 10.2656C65.7446 10.3414 65.7242 10.4168 65.7052 10.4924C65.6906 10.5467 65.6773 10.6011 65.6627 10.6554C65.6421 10.7321 65.6175 10.807 65.5943 10.882C65.5786 10.9334 65.563 10.9847 65.5459 11.0359C65.5209 11.1134 65.4921 11.1877 65.4645 11.2635C65.4464 11.3117 65.4283 11.36 65.4104 11.407C65.3812 11.4839 65.348 11.5589 65.3162 11.6341C65.2958 11.678 65.2783 11.7222 65.258 11.7661C65.2232 11.8422 65.187 11.9182 65.1496 11.9926C65.1294 12.0352 65.1094 12.0763 65.0881 12.1173C65.0505 12.1931 65.0102 12.2671 64.9686 12.3409C64.946 12.3804 64.9249 12.42 64.9025 12.4581C64.8594 12.5317 64.8152 12.6038 64.771 12.6759C64.7473 12.7125 64.7235 12.7503 64.6999 12.7869C64.6529 12.8586 64.606 12.929 64.5578 12.9992C64.5328 13.0355 64.5065 13.0703 64.4815 13.1066C64.432 13.1753 64.3813 13.2424 64.3307 13.3095C64.3044 13.3443 64.2766 13.3802 64.249 13.4148C64.1971 13.4804 64.1453 13.5446 64.0908 13.6084C64.0602 13.644 64.0312 13.6784 64.0007 13.7126C63.9466 13.7737 63.8908 13.836 63.8355 13.8956C63.802 13.9308 63.7702 13.9648 63.737 13.9986C63.6818 14.0568 63.6254 14.1135 63.5676 14.17C63.5314 14.2048 63.4953 14.2383 63.4591 14.2731C63.4016 14.3269 63.3458 14.3795 63.2872 14.4318C63.2481 14.4662 63.2077 14.5004 63.1673 14.5346C63.1106 14.583 63.0523 14.6326 62.9944 14.6795C62.951 14.7146 62.9063 14.7482 62.8615 14.7832C62.8038 14.8287 62.7477 14.8731 62.6889 14.9157C62.6413 14.9503 62.5923 14.9847 62.5432 15.0191C62.4865 15.0579 62.4309 15.0982 62.3727 15.1368C62.3191 15.1733 62.2659 15.2071 62.2112 15.2407C62.1564 15.2757 62.1014 15.312 62.0453 15.3454C61.9861 15.3811 61.9273 15.4141 61.8668 15.4483C61.8142 15.478 61.7613 15.5091 61.7072 15.5387C61.6424 15.5736 61.575 15.6068 61.5089 15.6402C61.4582 15.6661 61.4089 15.6922 61.3583 15.7168C61.2833 15.7531 61.2059 15.7863 61.1297 15.821C61.0869 15.8411 61.0441 15.8613 61.0001 15.8799C60.8818 15.9294 60.7608 15.9785 60.6389 16.0233C60.5711 16.0483 60.5022 16.0717 60.4333 16.095C60.3777 16.1148 60.3221 16.1345 60.2667 16.1529C60.1904 16.178 60.1116 16.2 60.0343 16.2223C59.9852 16.2361 59.936 16.2512 59.8869 16.265C59.804 16.2864 59.7198 16.3063 59.637 16.3264C59.5912 16.3379 59.5467 16.3496 59.501 16.3597C59.414 16.3792 59.3246 16.3956 59.2366 16.4122C59.1941 16.4201 59.153 16.4281 59.1105 16.4359C59.0197 16.4522 58.9264 16.4653 58.8346 16.4787C58.7938 16.484 58.7543 16.4909 58.7136 16.4962C58.6205 16.508 58.525 16.5167 58.4309 16.5256C58.392 16.5284 58.3526 16.534 58.3123 16.5366C58.217 16.544 58.122 16.5487 58.0271 16.5533C57.9853 16.5558 57.945 16.5584 57.9034 16.5595C57.8114 16.5632 57.7171 16.5639 57.6243 16.5633C57.5787 16.5625 57.5343 16.5632 57.4887 16.5624C57.4003 16.5611 57.3109 16.5569 57.2214 16.5528C57.1688 16.551 57.1178 16.548 57.0654 16.5448C56.9847 16.5392 56.9029 16.5319 56.821 16.5247C56.7842 16.5223 56.7472 16.5213 56.7094 16.5161L56.6351 16.5057C56.5604 16.4981 56.4861 16.4878 56.4104 16.4773C56.3347 16.4668 56.2606 16.4552 56.1865 16.4435L56.1122 16.4332C56.0745 16.4266 56.0344 16.4169 55.9968 16.4103C55.9173 16.3966 55.8365 16.3812 55.7575 16.3634C55.7076 16.3524 55.6591 16.3415 55.6094 16.3291C55.5222 16.3088 55.435 16.2885 55.3496 16.2656C55.3055 16.254 55.2628 16.2426 55.2188 16.2297C55.1296 16.2036 55.0401 16.1788 54.9513 16.15C54.9117 16.1363 54.8734 16.1241 54.8339 16.1104C54.7438 16.08 54.6523 16.0495 54.5639 16.0166C54.5272 16.0033 54.4893 15.9884 54.4527 15.9738C54.3646 15.9396 54.2764 15.9054 54.1887 15.8685C54.1509 15.8523 54.1147 15.8349 54.077 15.8187C53.9922 15.7808 53.906 15.7428 53.823 15.7024C53.784 15.6847 53.7468 15.6644 53.708 15.6453C53.6278 15.6054 53.5462 15.5652 53.4678 15.5228C53.4266 15.5006 53.3871 15.4759 53.3459 15.4537C53.2703 15.4116 53.1958 15.3711 53.122 15.3265C53.0785 15.2999 53.0366 15.2721 52.9932 15.2455C52.9247 15.2031 52.8549 15.1604 52.7883 15.1155C52.7385 15.0825 52.692 15.0472 52.6436 15.0144C52.5836 14.9732 52.5236 14.9319 52.4652 14.8895C52.36 14.8131 52.2566 14.7342 52.1563 14.6531C52.1176 14.623 52.0821 14.5906 52.045 14.5594C51.9808 14.5066 51.9167 14.4537 51.8543 14.3984C51.811 14.3608 51.7706 14.3223 51.7288 14.2835C51.6743 14.2334 51.6197 14.1833 51.5668 14.132C51.5228 14.0888 51.4803 14.0445 51.4365 14C51.3888 13.9522 51.3413 13.903 51.2938 13.8539C51.2489 13.8065 51.2044 13.7564 51.1611 13.7078C51.1176 13.6606 51.0755 13.6136 51.0336 13.5652C50.9879 13.5136 50.9453 13.4596 50.9014 13.4055C50.8635 13.359 50.8254 13.314 50.7891 13.2664C50.7441 13.2093 50.7021 13.1513 50.6587 13.0932C50.6251 13.0473 50.5912 13.0028 50.5589 12.9571C50.5161 12.8949 50.4733 12.8327 50.432 12.7693C50.4023 12.7254 50.3727 12.6815 50.3444 12.6377C50.3022 12.5715 50.2627 12.5056 50.222 12.4382C50.1965 12.3948 50.1709 12.3528 50.1455 12.3095C50.1051 12.2394 50.0662 12.1694 50.0289 12.0984C50.006 12.0568 49.9832 12.0152 49.962 11.9724C49.9234 11.8998 49.8879 11.8262 49.8525 11.7513C49.8325 11.7101 49.8124 11.6689 49.7938 11.6279C49.7598 11.5531 49.7262 11.4757 49.694 11.3985C49.6768 11.3577 49.6612 11.3157 49.6439 11.2749C49.6133 11.1965 49.5829 11.1168 49.5539 11.0372C49.5382 10.9953 49.5238 10.9548 49.5096 10.913C49.4822 10.8323 49.4547 10.7517 49.4303 10.67C49.4171 10.6311 49.4067 10.5926 49.3937 10.5524C49.3694 10.4694 49.3463 10.3879 49.3251 10.304C49.3142 10.2586 49.3017 10.2143 49.2925 10.1677C49.2724 10.0853 49.2537 10.0031 49.2367 9.91972C49.2221 9.84907 49.2106 9.77745 49.1975 9.70699C49.1869 9.64924 49.175 9.58994 49.1674 9.53123L49.1492 9.39417C49.1377 9.31159 49.1275 9.23055 49.1188 9.14835C49.1129 9.09811 49.11 9.04691 49.1055 8.99687C49.0994 8.91641 49.0932 8.8373 49.0888 8.75569C49.086 8.70314 49.0848 8.64944 49.0837 8.59574C49.0804 8.51567 49.0784 8.43714 49.078 8.35746C49.0772 8.30107 49.0804 8.24661 49.0811 8.19041C49.0832 8.11247 49.084 8.03433 49.0878 7.95523C49.0898 7.89923 49.096 7.84381 49.0994 7.788C49.0994 7.788 49.0996 7.78665 49.0998 7.7853C49.1065 7.67503 49.0061 7.58424 48.8927 7.5987L47.5802 7.7612C47.488 7.77724 47.3919 7.78037 47.2956 7.77388C47.2858 7.77252 47.2742 7.77366 47.2641 7.77499L39.1982 8.79898L39.1779 8.80165C38.006 8.94934 36.9102 9.42605 36.0256 10.1737L27.5339 17.3476L22.1406 21.9038C21.2017 22.7029 21.0228 24.0509 21.7223 25.0691L22.0596 25.5551L25.6493 30.7329C26.2152 31.5499 27.2291 31.9665 28.2245 31.7929L29.922 31.5013L32.3204 31.0886C32.3979 31.076 32.4562 31.0154 32.4665 30.9414L33.2867 24.9985C33.3742 24.3641 33.9807 23.9238 34.6409 24.0154C35.3012 24.107 35.7656 24.6958 35.6781 25.3302L30.0904 65.8164C29.9896 66.5464 30.5246 67.2247 31.2844 67.3301L66.808 72.2579C67.5678 72.3633 68.2663 71.8562 68.3671 71.1262L73.9548 30.64C74.0424 30.0056 74.6488 29.5653 75.3091 29.6569C75.9693 29.7485 76.4338 30.3373 76.3462 30.9718L75.526 36.9146C75.5156 36.9901 75.5569 37.0631 75.6267 37.0961L77.8164 38.1439L79.3763 38.8902C80.2873 39.3282 81.376 39.2033 82.1419 38.571L86.9993 34.5636L87.4539 34.1888L87.4643 34.1861C88.4131 33.398 88.6076 32.0508 87.919 31.0259ZM65.5373 29.482L69.1258 29.9798L69.1244 29.9796C70.4465 30.1616 71.3754 31.3392 71.2001 32.6094L70.7242 36.0577C70.6366 36.6921 70.0301 37.1324 69.3699 37.0408C68.7096 36.9492 68.2452 36.3604 68.3327 35.726L68.8086 32.2777L65.2201 31.7799C64.5599 31.6883 64.0954 31.0995 64.183 30.4651C64.2705 29.8306 64.877 29.3904 65.5373 29.482ZM52.2632 32.3244C52.9178 32.4152 53.3787 32.9995 53.2918 33.6285C53.205 34.2575 52.6033 34.6943 51.9487 34.6035C51.294 34.5127 50.8332 33.9285 50.92 33.2995C51.0069 32.6704 51.6086 32.2336 52.2632 32.3244ZM48.8568 35.8068C50.4604 36.0293 51.6183 37.225 51.3736 38.9976C51.161 40.5385 49.6894 41.6056 48.0872 41.3833C46.4849 41.1611 45.3578 39.7322 45.5703 38.1926C45.7828 36.653 47.2546 35.5846 48.8568 35.8068ZM47.9061 31.7228C48.5608 31.8136 49.0218 32.3964 48.9349 33.0255C48.8481 33.6545 48.2464 34.0913 47.5918 34.0005L44.2778 33.5628L42.4615 46.7227L46.8008 43.7994C47.901 43.0529 49.4294 43.2924 50.2476 44.3407L52.8307 47.6107L56.4894 45.1366C57.5891 44.4037 59.1027 44.637 59.9293 45.6659L61.7869 48.0226L63.4164 36.2163L56.3444 35.2353L56.348 35.2097C56.3212 35.2073 56.2955 35.2065 56.2689 35.2028C55.6143 35.112 55.1535 34.5278 55.2403 33.8988C55.3271 33.2697 55.9288 32.8329 56.5835 32.9237C56.6101 32.9274 56.635 32.9336 56.6614 32.9387L56.6618 32.936L63.7337 33.917C65.0556 34.1004 65.9845 35.278 65.8092 36.5482L63.2902 54.7998C63.1147 56.0714 61.9017 56.9519 60.5799 56.7685L41.4415 54.1136C40.1196 53.9302 39.1907 52.7526 39.366 51.4824L41.885 33.2308C42.0367 32.1317 42.9667 31.3245 44.0717 31.2471C44.1917 31.2267 44.3162 31.2248 44.4424 31.2423L47.9061 31.7228ZM37.7913 27.9777C37.9666 26.7075 39.1796 25.827 40.5015 26.0103L44.09 26.5081C44.7502 26.5997 45.2147 27.1885 45.1271 27.823C45.0396 28.4574 44.4331 28.8977 43.7729 28.8061L40.1843 28.3083L39.7084 31.7565C39.6209 32.391 39.0144 32.8312 38.3541 32.7396L38.3527 32.7394C37.6923 32.6492 37.2278 32.0604 37.3154 31.4259L37.7913 27.9777ZM39.6968 58.3496L36.1083 57.8518C34.7864 57.6684 33.8575 56.4907 34.0328 55.2205L34.5087 51.7723C34.5963 51.1378 35.2028 50.6976 35.863 50.7892C36.5233 50.8807 36.9877 51.4696 36.9002 52.104L36.4242 55.5523L40.0142 56.0503C40.6742 56.1432 41.1387 56.732 41.0511 57.3665C40.9636 58.0009 40.3571 58.4411 39.6968 58.3496ZM67.4414 59.8536C67.2661 61.1238 66.0531 62.0044 64.7312 61.821L61.1427 61.3232C60.4825 61.2316 60.018 60.6428 60.1056 60.0083C60.1931 59.3739 60.7996 58.9336 61.4598 59.0252L65.0484 59.523L65.5243 56.0748C65.6118 55.4403 66.2183 55.0001 66.8786 55.0917L66.88 55.0919C67.5404 55.1821 68.0049 55.7709 67.9173 56.4054L67.4414 59.8536Z" fill="white"/>
<path d="M90.701 32.9494L90.6982 32.949C90.7034 32.9113 90.7088 32.8722 90.7126 32.8343C90.7167 32.8046 90.7164 32.7758 90.7191 32.7459C90.7216 32.7065 90.7258 32.6659 90.7284 32.6264C90.7303 32.613 90.7295 32.5978 90.73 32.5841C90.7711 31.6234 90.5121 30.643 89.9328 29.7788L88.617 27.8336L79.7448 14.7119C78.8376 13.3671 77.5425 12.3061 76.0217 11.66L75.9622 11.6352L75.1408 11.2728C75.0222 11.2001 74.8909 11.1476 74.748 11.1167C74.7382 11.1154 74.7288 11.1113 74.7193 11.1073L65.9105 7.36078C65.6082 7.23236 65.2849 7.16281 64.9621 7.15234C64.6392 7.14187 64.3138 7.19145 64.006 7.29975C63.4697 7.4903 61.7805 7.86686 57.6761 7.29749C53.5717 6.72813 52.048 5.90588 51.5835 5.57649C51.3166 5.38846 51.0168 5.25215 50.7033 5.17434C50.3883 5.09633 50.0597 5.07546 49.734 5.11676L40.2404 6.32156C40.2302 6.3229 40.2202 6.32288 40.2102 6.32287C40.0643 6.31361 39.9235 6.32977 39.7899 6.36615L38.9012 6.49134L38.8373 6.49894C37.1972 6.70659 35.6632 7.37649 34.4274 8.4227L22.3378 18.6338L20.5396 20.1525C19.748 20.8265 19.233 21.7009 19.0126 22.6354C19.0108 22.6488 19.0059 22.6633 19.0027 22.6765C18.9945 22.7152 18.9861 22.7552 18.9793 22.7941C18.9738 22.8236 18.9671 22.8514 18.9616 22.8809C18.9577 22.9092 18.9536 22.9388 18.9483 22.9669C18.9427 23.0073 18.9344 23.0473 18.9302 23.0879C18.927 23.1108 18.9253 23.1339 18.9221 23.1568C18.9158 23.2026 18.9109 23.2486 18.9072 23.2961C18.904 23.319 18.905 23.3425 18.9033 23.3656C18.8998 23.4118 18.8962 23.458 18.8941 23.5044C18.893 23.533 18.8931 23.5633 18.892 23.5919C18.8907 23.6329 18.8895 23.6726 18.8895 23.7138C18.8896 23.744 18.891 23.7757 18.8925 23.8062C18.8929 23.8446 18.8931 23.8845 18.8963 23.9234C18.8977 23.9647 18.9022 24.0052 18.905 24.0467C18.9067 24.0758 18.9086 24.1035 18.9117 24.1328C18.9857 24.9008 19.2522 25.6612 19.722 26.3455L20.8074 27.9114L23.646 32.0103C24.7513 33.6078 26.7341 34.4264 28.6824 34.0872L30.9964 33.6861L31.87 33.5355C31.9916 33.5139 32.1006 33.6142 32.0843 33.7327L27.7016 65.4877C27.4255 67.488 28.8894 69.3439 30.971 69.6327L66.4961 74.5607C68.5777 74.8495 70.4893 73.4619 70.7653 71.4616L75.148 39.7066C75.1644 39.588 75.2965 39.5213 75.4076 39.5751L76.209 39.9581L78.3261 40.9738C80.1093 41.8307 82.2391 41.5839 83.7357 40.346L87.5894 37.1632L89.0453 35.9608C89.6248 35.4783 90.0604 34.8894 90.345 34.2453C90.351 34.2324 90.3557 34.2193 90.362 34.2051C90.3834 34.1531 90.4061 34.1028 90.4261 34.0506C90.4347 34.0299 90.4403 34.01 90.4489 33.9893C90.4652 33.9435 90.4827 33.8992 90.4977 33.8533C90.5074 33.8244 90.5157 33.7954 90.5238 33.7677C90.5362 33.7296 90.5484 33.6928 90.5594 33.6545C90.5704 33.6162 90.5802 33.5764 90.5899 33.5366C90.5966 33.5087 90.6049 33.4796 90.6116 33.4518C90.6195 33.4158 90.6271 33.3811 90.6349 33.3452C90.6422 33.3132 90.6496 33.2799 90.6555 33.2478C90.6608 33.2197 90.6647 33.1914 90.67 33.1633C90.6756 33.1229 90.684 33.0829 90.6896 33.0425C90.6938 33.0115 90.6981 32.9805 90.701 32.9494ZM51.7655 8.26354C52.555 8.55701 53.3593 8.80585 54.1749 9.01372L54.1735 9.01352C55.2181 9.28061 56.2823 9.47766 57.3574 9.59659C58.4242 9.77479 59.5005 9.87467 60.5796 9.90219C61.4195 9.92397 62.2623 9.90361 63.1016 9.8361C63.2301 9.82647 63.3285 9.9417 63.2933 10.0617C62.5534 12.6181 60.0757 14.3501 57.2895 14.2189C57.193 14.2137 57.0982 14.2075 57.0037 14.1985C56.9757 14.1946 56.9474 14.192 56.9192 14.1895C56.8544 14.1832 56.7913 14.1745 56.728 14.1671C56.6649 14.1583 56.6006 14.148 56.5379 14.1366C56.5099 14.1327 56.4819 14.1288 56.4542 14.1222C56.3608 14.1052 56.2664 14.0852 56.1722 14.0639C53.4551 13.4317 51.5397 11.0903 51.5199 8.42851C51.5184 8.30476 51.6459 8.21949 51.7655 8.26354ZM87.4701 34.1869L87.4597 34.1896L87.0051 34.5645L82.1477 38.5718C81.3818 39.2041 80.2931 39.329 79.3821 38.891L77.8222 38.1447L75.6325 37.0969C75.5614 37.0637 75.5216 36.9895 75.5318 36.9154L76.352 30.9726C76.4396 30.3381 75.9751 29.7493 75.3149 29.6577C74.6546 29.5661 74.0482 30.0064 73.9606 30.6408L68.3727 71.1283C68.272 71.8584 67.5734 72.3655 66.8136 72.2601L31.29 67.3322C30.5302 67.2268 29.9952 66.5486 30.096 65.8185L35.6837 25.3324C35.7713 24.698 35.3068 24.1091 34.6466 24.0175C33.9863 23.926 33.3798 24.3662 33.2923 25.0006L32.4721 30.9435C32.4617 31.0189 32.4021 31.0779 32.326 31.0907L29.9276 31.5034L28.2301 31.7951C27.2347 31.9686 26.2208 31.5521 25.655 30.735L22.0652 25.5573L21.728 25.0712C21.0285 24.053 21.2074 22.7051 22.1462 21.906L27.5395 17.3498L36.0312 10.1758C36.9158 9.4282 38.0116 8.95149 39.1835 8.8038L39.2039 8.80113L47.2697 7.77714C47.2799 7.77581 47.2898 7.77583 47.3012 7.77603C47.3975 7.78252 47.4936 7.77939 47.5859 7.76335L48.8983 7.60085C49.0118 7.58639 49.1121 7.67718 49.1054 7.78745C49.1054 7.78745 49.1052 7.7888 49.1051 7.79015C49.1016 7.84595 49.0954 7.90138 49.0934 7.95738C49.0896 8.03648 49.0889 8.11462 49.0867 8.19256C49.0861 8.24876 49.0828 8.30322 49.0836 8.35961C49.084 8.43929 49.0861 8.51782 49.0893 8.59789C49.0905 8.65159 49.0916 8.70529 49.0944 8.75784C49.0988 8.83945 49.105 8.91856 49.1111 8.99902C49.1156 9.04906 49.1185 9.10026 49.1245 9.1505C49.1331 9.2327 49.1434 9.31374 49.1548 9.39632L49.173 9.53338C49.1807 9.59209 49.1911 9.6512 49.2031 9.70914C49.2162 9.7796 49.2278 9.85122 49.2423 9.92187C49.2594 10.0052 49.278 10.0874 49.2981 10.1698C49.3075 10.2151 49.32 10.2594 49.3307 10.3062C49.3521 10.3888 49.375 10.4715 49.3993 10.5545C49.4109 10.5946 49.4213 10.6331 49.4359 10.6722C49.4603 10.7538 49.4878 10.8345 49.5152 10.9152C49.5294 10.957 49.5439 10.9974 49.5595 11.0394C49.5885 11.1189 49.6189 11.1986 49.6496 11.277C49.6668 11.3178 49.6824 11.3598 49.6996 11.4006C49.7318 11.4779 49.7654 11.5553 49.7994 11.63C49.818 11.671 49.8381 11.7122 49.8581 11.7535C49.8935 11.8284 49.929 11.9019 49.9676 11.9746C49.9888 12.0173 50.0117 12.0589 50.0345 12.1005C50.0718 12.1716 50.1107 12.2415 50.1511 12.3116C50.1765 12.355 50.2022 12.397 50.2276 12.4403C50.2683 12.5077 50.3078 12.5736 50.3501 12.6399C50.3783 12.6836 50.408 12.7275 50.4376 12.7714C50.4789 12.8348 50.5217 12.8971 50.5646 12.9593C50.5968 13.0049 50.6307 13.0494 50.6644 13.0953C50.7078 13.1535 50.7498 13.2115 50.7947 13.2685C50.831 13.3161 50.8691 13.3612 50.907 13.4076C50.9509 13.4618 50.9935 13.5157 51.0392 13.5674C51.0811 13.6157 51.1232 13.6628 51.1667 13.71C51.21 13.7585 51.2545 13.8086 51.2994 13.856C51.3469 13.9052 51.3944 13.9543 51.4421 14.0021C51.4859 14.0467 51.5284 14.091 51.5724 14.1342C51.6254 14.1854 51.6799 14.2355 51.7344 14.2857C51.7762 14.3244 51.8166 14.363 51.86 14.4006C51.9223 14.4559 51.9865 14.5087 52.0506 14.5615C52.0877 14.5928 52.1233 14.6251 52.162 14.6552C52.2622 14.7364 52.3656 14.8153 52.4708 14.8916C52.5292 14.9341 52.5892 14.9753 52.6492 15.0166C52.6976 15.0494 52.7441 15.0847 52.7939 15.1177C52.8605 15.1626 52.9304 15.2052 52.9988 15.2477C53.0423 15.2743 53.0841 15.3021 53.1276 15.3287C53.2015 15.3732 53.2759 15.4138 53.3515 15.4558C53.3927 15.478 53.4322 15.5027 53.4734 15.5249C53.5518 15.5674 53.6334 15.6075 53.7136 15.6475C53.7524 15.6666 53.7896 15.6868 53.8286 15.7046C53.9116 15.7449 53.9978 15.783 54.0826 15.8208C54.1203 15.837 54.1565 15.8544 54.1943 15.8706C54.282 15.9075 54.3702 15.9417 54.4583 15.9759C54.4949 15.9906 54.5328 16.0055 54.5696 16.0188C54.6579 16.0516 54.7494 16.0822 54.8395 16.1125C54.879 16.1262 54.9173 16.1384 54.9569 16.1521C55.0458 16.1809 55.1352 16.2057 55.2245 16.2318C55.2684 16.2448 55.3111 16.2562 55.3552 16.2678C55.4406 16.2906 55.5278 16.311 55.615 16.3313C55.6647 16.3437 55.7132 16.3545 55.7631 16.3656C55.8421 16.3834 55.9229 16.3987 56.0024 16.4125C56.0402 16.4177 56.0802 16.4288 56.1178 16.4354L56.1921 16.4457C56.2662 16.4573 56.3417 16.4692 56.416 16.4795C56.4903 16.4898 56.566 16.5003 56.6407 16.5079L56.715 16.5182C56.7528 16.5235 56.7898 16.5245 56.8266 16.5268C56.9085 16.5341 56.9904 16.5413 57.071 16.547C57.1234 16.5502 57.1744 16.5531 57.2271 16.5549C57.3165 16.5591 57.4059 16.5633 57.4943 16.5645C57.5399 16.5654 57.5843 16.5647 57.6299 16.5655C57.7227 16.566 57.8171 16.5654 57.909 16.5617C57.9506 16.5606 57.9909 16.5579 58.0327 16.5555C58.1276 16.5508 58.2226 16.5461 58.3179 16.5388C58.3582 16.5361 58.3976 16.5306 58.4365 16.5278C58.5306 16.5189 58.6261 16.5101 58.7192 16.4983C58.7599 16.493 58.7994 16.4861 58.8402 16.4808C58.932 16.4675 59.0253 16.4543 59.1161 16.4381C59.1586 16.4303 59.1997 16.4222 59.2422 16.4144C59.3302 16.3978 59.4196 16.3814 59.5066 16.3618C59.5523 16.3517 59.5968 16.34 59.6426 16.3285C59.7254 16.3085 59.8096 16.2886 59.8926 16.2671C59.9416 16.2533 59.9908 16.2382 60.0399 16.2244C60.1172 16.2022 60.196 16.1802 60.2723 16.1551C60.3277 16.1367 60.3833 16.1169 60.4389 16.0972C60.5078 16.0738 60.5768 16.0504 60.6445 16.0255C60.7664 15.9806 60.8875 15.9315 61.0057 15.882C61.0497 15.8634 61.0925 15.8433 61.1353 15.8231C61.2115 15.7884 61.289 15.7552 61.364 15.719C61.4145 15.6944 61.4638 15.6683 61.5145 15.6424C61.5806 15.609 61.648 15.5758 61.7128 15.5409C61.7669 15.5113 61.8198 15.4802 61.8725 15.4504C61.9329 15.4163 61.9917 15.3832 62.051 15.3475C62.107 15.3141 62.162 15.2778 62.2168 15.2429C62.2715 15.2093 62.3247 15.1755 62.3783 15.139C62.4365 15.1004 62.4921 15.06 62.5489 15.0212C62.5979 14.9869 62.6469 14.9525 62.6946 14.9179C62.7533 14.8753 62.8094 14.8309 62.8671 14.7853C62.912 14.7504 62.9566 14.7168 63 14.6816C63.0579 14.6347 63.1162 14.5852 63.1729 14.5367C63.2133 14.5025 63.2538 14.4683 63.2928 14.4339C63.3514 14.3817 63.4073 14.329 63.4647 14.2752C63.5009 14.2404 63.537 14.207 63.5732 14.1722C63.631 14.1157 63.6874 14.059 63.7426 14.0008C63.7758 13.9669 63.8077 13.9329 63.8411 13.8977C63.8965 13.8382 63.9522 13.7759 64.0063 13.7147C64.0368 13.6805 64.0658 13.6461 64.0964 13.6106C64.151 13.5467 64.2027 13.4825 64.2546 13.417C64.2822 13.3824 64.31 13.3464 64.3363 13.3116C64.387 13.2445 64.4377 13.1774 64.4871 13.1088C64.5121 13.0724 64.5384 13.0376 64.5634 13.0013C64.6116 12.9311 64.6585 12.8608 64.7056 12.789C64.7292 12.7525 64.753 12.7146 64.7766 12.6781C64.8208 12.606 64.8651 12.5339 64.9081 12.4602C64.9305 12.4221 64.9517 12.3825 64.9742 12.3431C65.0159 12.2692 65.0561 12.1952 65.0937 12.1194C65.1151 12.0785 65.135 12.0373 65.1552 11.9948C65.1926 11.9204 65.2288 11.8444 65.2636 11.7682C65.2839 11.7244 65.3015 11.6801 65.3218 11.6363C65.3536 11.5611 65.3868 11.4861 65.416 11.4091C65.4339 11.3622 65.452 11.3139 65.4701 11.2656C65.4977 11.1898 65.5265 11.1156 65.5515 11.038C65.5686 10.9869 65.5842 10.9355 65.5999 10.8841C65.6231 10.8091 65.6477 10.7343 65.6683 10.6575C65.6829 10.6033 65.6962 10.5488 65.7108 10.4946C65.7298 10.419 65.7502 10.3435 65.7678 10.2677C65.7797 10.2131 65.7903 10.1569 65.8023 10.1009C65.8163 10.0301 65.833 9.96104 65.8457 9.89004L67.2713 10.4914C67.3557 10.5319 67.4474 10.5611 67.5418 10.5811C67.5516 10.5824 67.5624 10.5867 67.5719 10.5907L75.0573 13.772L75.0762 13.7801C76.164 14.2413 77.0893 14.9998 77.7384 15.9588L83.9681 25.1749L87.9246 31.0281C88.6132 32.053 88.4187 33.4001 87.4699 34.1883L87.4701 34.1869Z" fill="#353950"/>
<path d="M45.5747 38.1925C45.362 39.7335 46.4893 41.161 48.0915 41.3833C49.6937 41.6056 51.1655 40.5372 51.378 38.9976C51.6226 37.225 50.4634 36.0291 48.8611 35.8068C47.2589 35.5846 45.7871 36.6529 45.5747 38.1925ZM48.606 37.6658C49.1401 37.7399 49.5158 38.2162 49.4449 38.7294C49.3741 39.2426 48.8835 39.5988 48.3494 39.5247C47.8154 39.4506 47.4397 38.9743 47.5105 38.4611C47.5813 37.9479 48.0719 37.5918 48.606 37.6658Z" fill="#353950"/>
<path d="M38.3586 32.7416L38.36 32.7418C39.0204 32.832 39.6269 32.3918 39.7145 31.7573L40.1904 28.3091L43.7789 28.8069C44.4392 28.8985 45.0457 28.4582 45.1332 27.8238C45.2208 27.1894 44.7563 26.6005 44.0961 26.5089L40.5076 26.0111C39.1857 25.8278 37.9727 26.7083 37.7974 27.9785L37.3215 31.4268C37.2339 32.0612 37.6984 32.65 38.3586 32.7416Z" fill="#353950"/>
<path d="M65.226 31.7806L68.8146 32.2784L68.3386 35.7267C68.2511 36.3611 68.7155 36.9499 69.3758 37.0415C70.036 37.1331 70.6425 36.6928 70.7301 36.0584L71.206 32.6101C71.3813 31.3399 70.4524 30.1623 69.1305 29.9789L69.1319 29.9791L65.5432 29.4826C64.8829 29.3911 64.2765 29.8313 64.1889 30.4657C64.1013 31.1002 64.5658 31.689 65.226 31.7806Z" fill="#353950"/>
<path d="M40.02 56.0524L40.0186 56.0522L36.4303 55.553L36.9062 52.1047C36.9937 51.4703 36.5293 50.8815 35.869 50.7899C35.2088 50.6983 34.6023 51.1386 34.5148 51.773L34.0389 55.2213C33.8635 56.4915 34.7925 57.6691 36.1143 57.8525L39.7029 58.3503C40.3631 58.4419 40.9696 58.0016 41.0571 57.3672C41.1447 56.7328 40.6802 56.1439 40.02 56.0524Z" fill="#353950"/>
<path d="M66.8859 55.0905L66.8845 55.0903C66.2241 55 65.6176 55.4403 65.53 56.0747L65.0541 59.523L61.4656 59.0252C60.8053 58.9336 60.1989 59.3739 60.1113 60.0083C60.0237 60.6427 60.4882 61.2316 61.1484 61.3231L64.737 61.821C66.0588 62.0043 67.2718 61.1238 67.4471 59.8536L67.923 56.4053C68.0106 55.7709 67.5461 55.1821 66.8859 55.0905Z" fill="#353950"/>
<path d="M44.0772 31.2475C42.9722 31.3248 42.0422 32.1321 41.8905 33.2312L39.3716 51.4827C39.1962 52.7529 40.1252 53.9306 41.447 54.114L60.5854 56.7689C61.9073 56.9522 63.1202 56.0717 63.2955 54.8015L65.8147 36.5486C65.99 35.2784 65.0611 34.1008 63.7392 33.9174L56.6673 32.9364L56.6669 32.939C56.6405 32.934 56.6156 32.9278 56.589 32.9241C55.9344 32.8333 55.3326 33.2701 55.2458 33.8992C55.159 34.5282 55.6198 35.1124 56.2745 35.2032C56.3011 35.2069 56.3267 35.2077 56.3535 35.2101L56.35 35.2356L63.4219 36.2167L61.7925 48.0229L59.9348 45.6663C59.1082 44.6374 57.5947 44.4041 56.4949 45.1369L52.8362 47.611L50.2532 44.3411C49.435 43.2927 47.9066 43.0532 46.8064 43.7998L42.4671 46.7231L44.2834 33.5631L47.5973 34.0009C48.2519 34.0917 48.8537 33.6549 48.9405 33.0258C49.0273 32.3968 48.5663 31.8139 47.9117 31.7231L44.4479 31.2426C44.3217 31.2251 44.1972 31.2271 44.0772 31.2475ZM57.8928 47.0468C57.9367 47.0186 57.998 47.0298 58.0278 47.0724L61.3448 51.2665L60.9031 54.4669L57.9285 54.0543L54.3071 49.4679L57.8928 47.0468ZM42.0334 49.8656L48.2066 45.7031C48.2503 45.6762 48.3088 45.6871 48.3388 45.7283L54.5445 53.5862L41.7646 51.8133L42.0334 49.8656Z" fill="#353950"/>
<path d="M51.9544 34.6033C52.6093 34.6941 53.2107 34.2576 53.2975 33.6282C53.3844 32.9989 52.9239 32.415 52.2689 32.3242C51.614 32.2333 51.0126 32.6699 50.9257 33.2992C50.8389 33.9286 51.2994 34.5124 51.9544 34.6033Z" fill="#353950"/>
<path d="M31.6062 46.0552C32.131 45.9361 32.4561 45.4308 32.3322 44.9265C32.2083 44.4221 31.6825 44.1098 31.1576 44.2288C30.6328 44.3478 30.3077 44.8532 30.4316 45.3575C30.5554 45.8619 31.0813 46.1742 31.6062 46.0552Z" fill="white"/>
<path d="M35.6516 19.7832C35.7478 19.7914 35.8441 19.7982 35.9389 19.8023C35.9672 19.8036 35.9955 19.805 36.0238 19.805C36.0875 19.8077 36.1526 19.8091 36.2162 19.8091C36.2799 19.8077 36.3436 19.8077 36.4087 19.805C36.437 19.805 36.4653 19.8023 36.4936 19.8023C36.5884 19.7982 36.6832 19.7914 36.7795 19.7832C39.5574 19.5303 41.7749 17.4743 42.1584 14.8403C42.1768 14.7179 42.0621 14.616 41.9376 14.6431C41.1154 14.8254 40.2847 14.9613 39.4484 15.0552C38.3757 15.1762 37.296 15.2251 36.2148 15.1952C35.1337 15.2251 34.0525 15.1762 32.9813 15.0552H32.9827C32.1478 14.9613 31.3157 14.8254 30.4935 14.6431C30.3675 14.616 30.2543 14.7166 30.2727 14.8403C30.6562 17.4743 32.8737 19.5303 35.6516 19.7832Z" fill="white"/>
<path d="M39.4427 59.1568L32.2213 52.2258C32.1859 52.1891 32.1265 52.1864 32.0869 52.219L26.541 57.1905V59.1568H39.4427Z" fill="white"/>
<path d="M45.8614 59.155V55.9241L42.0024 52.2254C41.967 52.1873 41.9047 52.1846 41.8651 52.2186L38.6443 55.1095L42.8585 59.155H45.8614Z" fill="white"/>
<path d="M69.4231 32.223L64.7037 26.9687L57.2728 18.6956C56.4988 17.8348 55.4785 17.2107 54.3379 16.9034L54.3181 16.8979L46.4684 14.7753C46.4585 14.7725 46.4486 14.7712 46.4372 14.7698C46.341 14.763 46.2462 14.7467 46.157 14.7181L44.6627 14.3184C44.6598 14.3904 44.6528 14.4611 44.6485 14.5332C44.6443 14.5903 44.6414 14.6474 44.6372 14.7032C44.6301 14.7807 44.6202 14.8582 44.6117 14.9357C44.6046 14.9915 44.599 15.0472 44.5919 15.103C44.582 15.1818 44.5679 15.2593 44.5551 15.3369C44.5466 15.3899 44.5381 15.4429 44.5282 15.496C44.5141 15.5762 44.4957 15.6537 44.4787 15.7326C44.4674 15.7829 44.4561 15.8332 44.4447 15.8821C44.4263 15.9624 44.4037 16.0412 44.3825 16.1201C44.3683 16.1663 44.357 16.2126 44.3428 16.2588C44.3188 16.339 44.2933 16.4193 44.2664 16.4981C44.2523 16.543 44.2381 16.5865 44.2226 16.63C44.1957 16.7103 44.166 16.7891 44.1348 16.868C44.1178 16.9102 44.1023 16.9523 44.0853 16.9931C44.0527 17.072 44.0188 17.1495 43.9848 17.227C43.9664 17.2664 43.948 17.3072 43.9296 17.3467C43.8928 17.4242 43.856 17.5003 43.8178 17.5765C43.798 17.6159 43.7768 17.654 43.757 17.6934C43.7174 17.7682 43.6763 17.8416 43.6353 17.9151C43.6141 17.9531 43.5914 17.9926 43.5688 18.0306C43.5263 18.1027 43.4839 18.1734 43.4386 18.2441C43.4131 18.2836 43.3891 18.3216 43.3636 18.3597C43.3183 18.4277 43.2716 18.4971 43.2249 18.5637C43.1966 18.6031 43.1697 18.6412 43.1414 18.6793C43.0947 18.7445 43.0466 18.8085 42.9971 18.8724C42.9659 18.9118 42.9348 18.9499 42.9037 18.9893C42.8541 19.0505 42.806 19.1103 42.7551 19.1702C42.7211 19.2096 42.6857 19.249 42.6504 19.2885C42.6008 19.3442 42.5499 19.4013 42.4989 19.4557C42.4607 19.4965 42.4211 19.536 42.3815 19.5768C42.3305 19.6298 42.281 19.6815 42.2287 19.7318C42.1862 19.7726 42.1423 19.8134 42.0985 19.8542C42.0475 19.9004 41.998 19.948 41.9456 19.9942C41.8975 20.0377 41.8494 20.0785 41.7999 20.1193C41.7503 20.1615 41.7008 20.205 41.6499 20.2458C41.5961 20.2893 41.5423 20.3301 41.4871 20.3722C41.439 20.409 41.3909 20.447 41.3414 20.4837C41.2819 20.5273 41.2197 20.5694 41.1588 20.6116C41.1121 20.6442 41.0668 20.6768 41.0201 20.7081C40.9508 20.7543 40.8786 20.7979 40.8079 20.8427C40.7682 20.8686 40.7286 20.8944 40.6876 20.9189C40.5772 20.9842 40.464 21.0494 40.3494 21.1106C40.2857 21.1446 40.2206 21.1773 40.1555 21.2099C40.1031 21.2371 40.0508 21.2643 39.9984 21.2901C39.9262 21.3255 39.8512 21.3581 39.7777 21.3907C39.731 21.4111 39.6843 21.4329 39.6376 21.4533C39.5583 21.4859 39.4776 21.5172 39.3984 21.5485C39.3545 21.5662 39.3121 21.5838 39.2682 21.6002C39.1847 21.6314 39.0984 21.66 39.0135 21.6885C38.9725 21.7021 38.9328 21.7157 38.8918 21.7293C38.8041 21.7579 38.7135 21.7837 38.6243 21.8096C38.5847 21.8204 38.5465 21.8327 38.5069 21.8436C38.4163 21.868 38.3229 21.8898 38.2309 21.9115C38.1927 21.9197 38.1545 21.9306 38.1149 21.9387C38.0215 21.9591 37.9281 21.9768 37.8347 21.9945C37.7937 22.0027 37.754 22.0108 37.713 22.0176C37.6224 22.0339 37.529 22.0475 37.437 22.0598C37.3918 22.0652 37.3479 22.072 37.3026 22.0774C37.2149 22.0883 37.1257 22.0965 37.0366 22.1046C36.9842 22.1101 36.9333 22.1142 36.8809 22.1182C36.8002 22.1237 36.7182 22.1278 36.6361 22.1318C36.5993 22.1346 36.5625 22.1386 36.5243 22.1386H36.4493C36.3743 22.1414 36.2993 22.1414 36.2229 22.1414C36.1464 22.1414 36.0714 22.14 35.9964 22.1386H35.9214C35.8832 22.1373 35.8422 22.1332 35.804 22.1318C35.7233 22.1291 35.6412 22.125 35.5606 22.1182C35.5096 22.1142 35.4601 22.1101 35.4092 22.1046C35.32 22.0965 35.2309 22.0883 35.1431 22.0774C35.0978 22.072 35.054 22.0666 35.0087 22.0598C34.9167 22.0462 34.8247 22.0339 34.7327 22.0176C34.6917 22.0095 34.6521 22.0027 34.611 21.9945C34.5176 21.9768 34.4228 21.9591 34.3308 21.9387C34.2926 21.9306 34.253 21.9211 34.2148 21.9115C34.1228 21.8898 34.0308 21.868 33.9389 21.8436C33.8992 21.8327 33.861 21.8204 33.8214 21.8096C33.7322 21.7837 33.6417 21.7579 33.5539 21.7293C33.5129 21.7171 33.4733 21.7021 33.4322 21.6885C33.3473 21.66 33.261 21.6314 33.1775 21.6002C33.1336 21.5838 33.0912 21.5648 33.0473 21.5485C32.9667 21.5172 32.8874 21.4873 32.8082 21.4533C32.7615 21.4329 32.7162 21.4111 32.6695 21.3907C32.5959 21.3581 32.5209 21.3255 32.4487 21.2901C32.395 21.2643 32.344 21.2357 32.2916 21.2099C32.2266 21.1773 32.1615 21.1446 32.0978 21.1106C31.9832 21.0494 31.8699 20.9855 31.7596 20.9189C31.7171 20.8944 31.6775 20.8672 31.6364 20.8414C31.5657 20.7979 31.4949 20.7543 31.4256 20.7081C31.3775 20.6768 31.3322 20.6442 31.2855 20.6116C31.2246 20.5694 31.1638 20.5273 31.1044 20.4837C31.0548 20.447 31.0067 20.409 30.9572 20.3709C30.9034 20.3301 30.8496 20.2879 30.7959 20.2458C30.7449 20.205 30.694 20.1615 30.6444 20.1193C30.5949 20.0785 30.5468 20.0377 30.4987 19.9956C30.4463 19.9507 30.3968 19.9031 30.3459 19.8555C30.302 19.8147 30.2581 19.7753 30.2157 19.7331C30.1633 19.6828 30.1138 19.6311 30.0628 19.5795C30.0232 19.5387 29.9836 19.4992 29.9454 19.4584C29.8944 19.4027 29.8435 19.3469 29.794 19.2898C29.7586 19.2504 29.7232 19.211 29.6892 19.1715C29.6383 19.1117 29.5902 19.0519 29.5406 18.9907C29.5095 18.9512 29.4784 18.9132 29.4472 18.8737C29.3977 18.8098 29.3496 18.7459 29.3029 18.6806C29.2746 18.6426 29.2463 18.6045 29.2194 18.5651C29.1713 18.4984 29.126 18.4304 29.0807 18.3611C29.0553 18.323 29.0298 18.2849 29.0057 18.2469C28.9619 18.1775 28.918 18.1054 28.8755 18.0334C28.8529 17.9953 28.8317 17.9559 28.809 17.9178C28.768 17.8444 28.7269 17.7696 28.6873 17.6948C28.6661 17.6553 28.6463 17.6173 28.6265 17.5778C28.5883 17.5017 28.5501 17.4255 28.5147 17.348C28.4963 17.3113 28.4807 17.2746 28.4623 17.2365C28.4269 17.1576 28.393 17.0801 28.3604 16.9999C28.3435 16.9564 28.3251 16.9142 28.3095 16.8694C28.2784 16.7905 28.2486 16.7116 28.2203 16.6314C28.1963 16.5634 28.1751 16.4941 28.1524 16.4261C28.134 16.3703 28.1142 16.3132 28.0986 16.2561L28.0618 16.1228C28.0392 16.0426 28.018 15.9637 27.9982 15.8835C27.9854 15.8345 27.9755 15.7842 27.9642 15.7353C27.9472 15.6564 27.9302 15.5789 27.9147 15.4987C27.9048 15.447 27.8963 15.394 27.8878 15.3409C27.8736 15.2621 27.8609 15.1846 27.8496 15.1057C27.8411 15.0499 27.8368 14.9955 27.8298 14.9398C27.8213 14.8623 27.8114 14.7848 27.8043 14.7059C27.7986 14.6502 27.7972 14.5944 27.793 14.5386C27.793 14.5386 27.793 14.5373 27.793 14.5359C27.7845 14.4258 27.6727 14.3496 27.5623 14.3796L26.2844 14.7209C26.1953 14.7494 26.1005 14.7657 26.0042 14.7725C25.9943 14.7725 25.983 14.7753 25.9731 14.778L18.1234 16.9006L18.1036 16.9061C16.963 17.2134 15.9427 17.8362 15.1686 18.6983L7.73782 26.9714L3.01838 32.2257C2.19761 33.1463 2.20468 34.5061 3.03677 35.4186L3.43725 35.8537L7.70103 40.4893C8.37321 41.2209 9.43455 41.4942 10.3968 41.1855L12.0384 40.6634L14.3578 39.925C14.4328 39.9019 14.4823 39.8339 14.4823 39.7591V33.7596C14.4823 33.1191 15.0229 32.5997 15.6894 32.5997C16.3559 32.5997 16.8965 33.1191 16.8965 33.7596V74.6315C16.8965 75.3685 17.5192 75.9668 18.2862 75.9668H54.1483C54.9152 75.9668 55.5379 75.3685 55.5379 74.6315V33.7596C55.5379 33.1191 56.0785 32.5997 56.745 32.5997C57.4115 32.5997 57.9521 33.1191 57.9521 33.7596V39.7591C57.9521 39.8352 58.003 39.9019 58.0766 39.925L60.3889 40.662L62.0362 41.1869C62.9984 41.4956 64.0598 41.2222 64.732 40.4907L68.9957 35.8537L69.3948 35.4199L69.4047 35.4158C70.2368 34.5048 70.2453 33.1436 69.4231 32.223ZM47.0415 33.7691H50.6642H50.6628C51.9973 33.7677 53.0784 34.8066 53.0784 36.0889V39.5701C53.0784 40.2105 52.5378 40.73 51.8713 40.73C51.2048 40.73 50.6642 40.2105 50.6642 39.5701V36.0889H47.0415C46.375 36.0889 45.8344 35.5695 45.8344 34.929C45.8344 34.2886 46.375 33.7691 47.0415 33.7691ZM34.2813 38.4088C34.9422 38.4088 35.4785 38.9242 35.4785 39.5592C35.4785 40.1942 34.9422 40.7096 34.2813 40.7096C33.6204 40.7096 33.0841 40.1942 33.0841 39.5592C33.0841 38.9242 33.6204 38.4088 34.2813 38.4088ZM31.3831 42.3264C33.002 42.3264 34.3124 43.3517 34.3124 45.1412C34.3124 46.6968 33.0006 47.956 31.3831 47.956C29.7656 47.956 28.4538 46.6955 28.4538 45.1412C28.4538 43.5869 29.7656 42.3264 31.3831 42.3264ZM29.8831 38.4115C30.544 38.4115 31.0803 38.9255 31.0803 39.5605C31.0803 40.1956 30.544 40.7109 29.8831 40.7109L26.5406 40.7327V54.0181L30.4392 50.5261C31.427 49.6354 32.9737 49.6626 33.9275 50.5886L36.9333 53.4728L40.2192 50.5193C41.2083 49.6422 42.7395 49.6653 43.699 50.5709L45.8613 52.6501V40.7313H38.722V40.7055C38.6951 40.7069 38.6696 40.7096 38.6427 40.7096C37.9819 40.7096 37.4455 40.1942 37.4455 39.5592C37.4455 38.9242 37.9819 38.4088 38.6427 38.4088C38.6696 38.4088 38.6951 38.4115 38.722 38.4129V38.4101H45.8613C47.1957 38.4101 48.2769 39.449 48.2769 40.7313V59.1568C48.2769 60.4405 47.1957 61.4794 45.8613 61.4794H26.5406C25.2061 61.4794 24.125 60.4405 24.125 59.1582V40.7327C24.125 39.6231 24.9358 38.6957 26.0198 38.4673C26.1359 38.4305 26.259 38.4115 26.3863 38.4115H29.8831ZM19.3517 36.0917C19.3517 34.8094 20.4329 33.7705 21.7674 33.7705H25.3901C26.0566 33.7705 26.5972 34.2899 26.5972 34.9304C26.5972 35.5709 26.0566 36.0903 25.3901 36.0903H21.7674V39.5714C21.7674 40.2119 21.2268 40.7313 20.5603 40.7313H20.5588C19.8923 40.7327 19.3517 40.2133 19.3517 39.5728V36.0917ZM25.3915 65.9151H21.7688C20.4343 65.9151 19.3532 64.8762 19.3532 63.5939V60.1127C19.3532 59.4723 19.8937 58.9528 20.5603 58.9528C21.2268 58.9528 21.7674 59.4723 21.7674 60.1127V63.5939H25.3915C26.058 63.5952 26.5986 64.1147 26.5986 64.7551C26.5986 65.3956 26.058 65.9151 25.3915 65.9151ZM53.0798 63.5925C53.0798 64.8748 51.9987 65.9137 50.6642 65.9137H47.0415C46.375 65.9137 45.8344 65.3943 45.8344 64.7538C45.8344 64.1133 46.375 63.5939 47.0415 63.5939H50.6642V60.1127C50.6642 59.4723 51.2048 58.9528 51.8713 58.9528H51.8727C52.5392 58.9515 53.0798 59.4709 53.0798 60.1114V63.5925Z" fill="white"/>
<path d="M72.442 33.7458H72.4392C72.4392 33.7078 72.4392 33.6683 72.4378 33.6302C72.4378 33.6003 72.4336 33.5718 72.4321 33.5419C72.4293 33.5024 72.4279 33.4616 72.4251 33.4222C72.4251 33.4086 72.4222 33.3936 72.4208 33.38C72.3303 32.4227 71.9397 31.4872 71.2477 30.7107L69.6783 28.9647L59.096 17.186C58.0134 15.9785 56.5856 15.1055 54.9907 14.6745L54.9285 14.6581L54.0652 14.412C53.9379 14.3563 53.8006 14.3223 53.6549 14.3114C53.6449 14.3114 53.635 14.3087 53.6251 14.306L44.3872 11.8053C44.0702 11.7196 43.7405 11.6951 43.4193 11.7291C43.098 11.7631 42.7824 11.8569 42.4923 12.0065C41.9871 12.269 40.3654 12.8741 36.2219 12.8741C32.0784 12.8741 30.4567 12.269 29.9515 12.0065C29.6614 11.8569 29.3458 11.7631 29.0246 11.7291C28.702 11.6951 28.3736 11.7196 28.0567 11.8053L18.8173 14.3032C18.8074 14.306 18.7975 14.3073 18.7876 14.3087C18.6418 14.3196 18.5046 14.3549 18.3772 14.4093L17.514 14.6554L17.4517 14.6717C15.8555 15.1028 14.4276 15.9772 13.3464 17.1833L2.76697 28.9593L1.19335 30.7107C0.50135 31.4872 0.110776 32.4241 0.020208 33.38C0.020208 33.3936 0.0173777 33.4086 0.0159626 33.4222C0.0131324 33.4616 0.0103021 33.5024 0.00888698 33.5419C0.00747186 33.5718 0.00464161 33.6003 0.00322648 33.6302C0.00322648 33.6588 0.00322648 33.6887 0.00181136 33.7173C0.00181136 33.7581 -0.00101889 33.7989 0.000396235 33.8397C0.000396235 33.8628 0.00181136 33.8859 0.00181136 33.909C0.00181136 33.9552 0.00322648 34.0015 0.00605673 34.0491C0.00605673 34.0722 0.0103021 34.0953 0.0117172 34.1184C0.0145475 34.1646 0.0173777 34.2109 0.0216231 34.2571C0.0244534 34.2857 0.0286987 34.3156 0.031529 34.3441C0.0357744 34.3849 0.0400197 34.4244 0.0456802 34.4652C0.0499256 34.4951 0.0555861 34.5264 0.0612466 34.5563C0.0669071 34.5943 0.0725676 34.6338 0.0810583 34.6719C0.088134 34.7127 0.0980398 34.7521 0.106531 34.7929C0.112191 34.8214 0.117852 34.8486 0.124927 34.8772C0.303233 35.6278 0.671165 36.3444 1.23014 36.9577L2.51932 38.3597L5.89156 42.0298C7.2048 43.4603 9.28078 43.9988 11.1643 43.3951L13.4016 42.6798L14.2465 42.4105C14.3639 42.3725 14.4856 42.4568 14.4856 42.5764V74.634C14.4856 76.6533 16.1894 78.2905 18.2909 78.2905H54.1544C56.2558 78.2905 57.9597 76.6533 57.9597 74.634V42.5764C57.9597 42.4568 58.0814 42.3725 58.1988 42.4105L59.0451 42.6798L61.281 43.3951C63.1645 43.9988 65.2405 43.4617 66.5537 42.0298L69.9359 38.3474L71.2137 36.9563C71.7217 36.3988 72.0727 35.7556 72.2666 35.0784C72.2708 35.0648 72.2736 35.0512 72.2779 35.0363C72.292 34.9819 72.3076 34.9289 72.3203 34.8745C72.326 34.8527 72.3288 34.8323 72.3345 34.8106C72.3444 34.763 72.3557 34.7167 72.3642 34.6691C72.3699 34.6392 72.3741 34.6093 72.3784 34.5808C72.3854 34.5413 72.3925 34.5032 72.3982 34.4638C72.4038 34.4244 72.4081 34.3836 72.4123 34.3428C72.4152 34.3142 72.4194 34.2843 72.4222 34.2558C72.4251 34.219 72.4279 34.1837 72.4307 34.147C72.4336 34.1143 72.4364 34.0803 72.4378 34.0477C72.4392 34.0191 72.4392 33.9906 72.4406 33.962C72.4406 33.9212 72.4435 33.8804 72.4435 33.8397C72.4435 33.8084 72.4435 33.7771 72.442 33.7458ZM30.4992 14.6432C31.3214 14.8254 32.152 14.9614 32.9884 15.0552H32.987C34.0582 15.1762 35.1394 15.2252 36.2205 15.1953C37.3017 15.2252 38.3814 15.1762 39.4541 15.0552C40.289 14.9614 41.1211 14.8254 41.9433 14.6432C42.0692 14.616 42.1824 14.7166 42.164 14.8404C41.7805 17.4743 39.563 19.5304 36.7851 19.7833C36.6889 19.7914 36.5941 19.7982 36.4993 19.8023C36.471 19.8023 36.4427 19.8037 36.4144 19.805C36.3493 19.8078 36.2856 19.8078 36.2219 19.8091C36.1582 19.8091 36.0932 19.8078 36.0295 19.805C36.0012 19.805 35.9729 19.805 35.9446 19.8023C35.8498 19.7982 35.7535 19.7914 35.6573 19.7833C32.8794 19.5304 30.6619 17.4743 30.2784 14.8404C30.26 14.718 30.3746 14.616 30.4992 14.6432ZM69.4108 35.4157L69.4009 35.4198L69.0019 35.8535L64.7381 40.4905C64.0659 41.2221 63.0046 41.4954 62.0423 41.1867L60.3951 40.6618L58.0828 39.9248C58.0078 39.9017 57.9582 39.8337 57.9582 39.7589V33.7594C57.9582 33.119 57.4177 32.5995 56.7511 32.5995C56.0846 32.5995 55.544 33.119 55.544 33.7594V74.6326C55.544 75.3697 54.9214 75.968 54.1544 75.968H18.2923C17.5253 75.968 16.9026 75.3697 16.9026 74.6326V33.7608C16.9026 33.1203 16.3621 32.6009 15.6955 32.6009C15.029 32.6009 14.4884 33.1203 14.4884 33.7608V39.7603C14.4884 39.8364 14.4375 39.9031 14.3639 39.9262L12.0445 40.6646L10.403 41.1867C9.44069 41.4954 8.37935 41.2221 7.70717 40.4905L3.44339 35.8549L3.04291 35.4198C2.21082 34.5073 2.20375 33.1475 3.02452 32.2269L7.74396 26.9726L15.1748 18.6995C15.9489 17.8374 16.9692 17.2146 18.1097 16.9073L18.1296 16.9018L25.9793 14.7792C25.9892 14.7765 25.9991 14.7751 26.0104 14.7737C26.1066 14.7669 26.2014 14.7506 26.2906 14.7221L27.5684 14.3807C27.6788 14.3508 27.7906 14.427 27.7991 14.5371C27.7991 14.5371 27.7991 14.5385 27.7991 14.5398C27.8034 14.5956 27.8048 14.6513 27.8104 14.7071C27.8175 14.786 27.8274 14.8635 27.8359 14.941C27.843 14.9967 27.8472 15.0511 27.8557 15.1069C27.867 15.1858 27.8798 15.2633 27.8939 15.3421C27.9024 15.3952 27.9109 15.4482 27.9208 15.4999C27.9364 15.5801 27.9534 15.6576 27.9703 15.7365C27.9817 15.7854 27.9916 15.8357 28.0043 15.8847C28.0241 15.9649 28.0453 16.0438 28.068 16.124L28.1048 16.2573C28.1203 16.3144 28.1387 16.3715 28.1585 16.4273C28.1812 16.4953 28.2024 16.5646 28.2265 16.6326C28.2548 16.7128 28.2845 16.7917 28.3156 16.8706C28.3312 16.9141 28.3496 16.9562 28.3666 17.0011C28.3991 17.08 28.4331 17.1588 28.4685 17.2377C28.4854 17.2758 28.501 17.3125 28.5208 17.3492C28.5562 17.4267 28.5944 17.5029 28.6326 17.579C28.6524 17.6185 28.6722 17.6565 28.6935 17.696C28.7331 17.7708 28.7741 17.8455 28.8152 17.919C28.8378 17.9571 28.859 17.9965 28.8817 18.0346C28.9241 18.1066 28.968 18.1787 29.0119 18.2481C29.0359 18.2861 29.0614 18.3242 29.0869 18.3623C29.1322 18.4316 29.1774 18.4996 29.2256 18.5662C29.2524 18.6057 29.2807 18.6438 29.309 18.6818C29.3557 18.7471 29.4039 18.811 29.4534 18.8749C29.4845 18.9144 29.5157 18.9524 29.5468 18.9919C29.5963 19.0531 29.6444 19.1129 29.6954 19.1727C29.7293 19.2122 29.7647 19.2516 29.8001 19.291C29.8496 19.3481 29.9006 19.4039 29.9515 19.4596C29.9897 19.5004 30.0293 19.5399 30.069 19.5807C30.1199 19.6323 30.1694 19.684 30.2218 19.7343C30.2643 19.7765 30.3081 19.8159 30.352 19.8567C30.4029 19.9043 30.4525 19.9519 30.5048 19.9968C30.5529 20.0389 30.6011 20.0797 30.6506 20.1205C30.7001 20.1627 30.7511 20.2062 30.802 20.247C30.8558 20.2891 30.9095 20.3313 30.9633 20.3721C31.0129 20.4102 31.061 20.4482 31.1105 20.4849C31.1699 20.5285 31.2308 20.5706 31.2916 20.6128C31.3383 20.6454 31.3836 20.678 31.4317 20.7093C31.5011 20.7555 31.5718 20.7991 31.6426 20.8426C31.6836 20.8684 31.7232 20.8956 31.7657 20.9201C31.8761 20.9867 31.9893 21.0506 32.1039 21.1118C32.1676 21.1458 32.2327 21.1784 32.2978 21.2111C32.3501 21.2369 32.4011 21.2655 32.4549 21.2913C32.527 21.3267 32.602 21.3593 32.6756 21.3919C32.7223 21.4123 32.7676 21.4341 32.8143 21.4545C32.8936 21.4885 32.9728 21.5184 33.0535 21.5497C33.0973 21.566 33.1398 21.585 33.1837 21.6013C33.2671 21.6326 33.3535 21.6612 33.4384 21.6897C33.4794 21.7033 33.519 21.7183 33.5601 21.7305C33.6478 21.7591 33.7384 21.7849 33.8275 21.8108C33.8672 21.8216 33.9054 21.8339 33.945 21.8448C34.037 21.8692 34.129 21.891 34.2209 21.9127C34.2592 21.9223 34.2988 21.9318 34.337 21.9399C34.429 21.9603 34.5238 21.978 34.6172 21.9957C34.6582 22.0039 34.6978 22.0107 34.7389 22.0188C34.8309 22.0351 34.9228 22.0474 35.0148 22.061C35.0601 22.0678 35.104 22.0732 35.1493 22.0786C35.237 22.0895 35.3262 22.0977 35.4153 22.1058C35.4663 22.1113 35.5158 22.1154 35.5667 22.1194C35.6474 22.1262 35.7295 22.1303 35.8101 22.133C35.8483 22.133 35.8894 22.1385 35.9276 22.1398H36.0026C36.0776 22.1412 36.154 22.1426 36.229 22.1426C36.304 22.1426 36.3804 22.1426 36.4554 22.1398H36.5304C36.5686 22.1398 36.6054 22.1358 36.6422 22.133C36.7243 22.129 36.8064 22.1249 36.887 22.1194C36.9394 22.1154 36.9903 22.1113 37.0427 22.1058C37.1319 22.0977 37.221 22.0895 37.3087 22.0786C37.354 22.0732 37.3979 22.0664 37.4432 22.061C37.5352 22.0487 37.6286 22.0351 37.7191 22.0188C37.7602 22.012 37.7998 22.0039 37.8408 21.9957C37.9342 21.978 38.0276 21.9603 38.121 21.9399C38.1606 21.9318 38.1989 21.9209 38.2371 21.9127C38.3291 21.891 38.4224 21.8692 38.513 21.8448C38.5526 21.8339 38.5909 21.8216 38.6305 21.8108C38.7196 21.7849 38.8102 21.7591 38.8979 21.7305C38.939 21.7169 38.9786 21.7033 39.0196 21.6897C39.1045 21.6612 39.1909 21.6326 39.2744 21.6013C39.3182 21.585 39.3607 21.5674 39.4045 21.5497C39.4838 21.5184 39.5645 21.4871 39.6437 21.4545C39.6904 21.4341 39.7371 21.4123 39.7838 21.3919C39.8574 21.3593 39.9324 21.3267 40.0046 21.2913C40.0569 21.2655 40.1093 21.2383 40.1616 21.2111C40.2267 21.1784 40.2918 21.1458 40.3555 21.1118C40.4701 21.0506 40.5833 20.9854 40.6937 20.9201C40.7348 20.8956 40.7744 20.8698 40.814 20.8439C40.8848 20.7991 40.9569 20.7555 41.0263 20.7093C41.073 20.678 41.1183 20.6454 41.165 20.6128C41.2258 20.5706 41.2881 20.5285 41.3475 20.4849C41.397 20.4482 41.4452 20.4102 41.4933 20.3734C41.5485 20.3313 41.6022 20.2905 41.656 20.247C41.707 20.2062 41.7565 20.1627 41.806 20.1205C41.8555 20.0797 41.9037 20.0389 41.9518 19.9954C42.0041 19.9492 42.0537 19.9016 42.1046 19.8553C42.1485 19.8146 42.1923 19.7738 42.2348 19.733C42.2872 19.6827 42.3367 19.631 42.3876 19.5779C42.4272 19.5372 42.4669 19.4977 42.5051 19.4569C42.556 19.4025 42.607 19.3454 42.6565 19.2897C42.6919 19.2502 42.7273 19.2108 42.7612 19.1714C42.8122 19.1115 42.8603 19.0517 42.9098 18.9905C42.9409 18.9511 42.9721 18.913 43.0032 18.8736C43.0527 18.8097 43.1008 18.7457 43.1475 18.6805C43.1758 18.6424 43.2027 18.6043 43.231 18.5649C43.2777 18.4983 43.3244 18.4289 43.3697 18.3609C43.3952 18.3228 43.4193 18.2848 43.4447 18.2453C43.49 18.1746 43.5325 18.1039 43.5749 18.0318C43.5976 17.9938 43.6202 17.9543 43.6414 17.9163C43.6825 17.8428 43.7235 17.7694 43.7631 17.6946C43.7829 17.6552 43.8042 17.6171 43.824 17.5777C43.8622 17.5015 43.899 17.4254 43.9358 17.3479C43.9542 17.3084 43.9726 17.2676 43.991 17.2282C44.0249 17.1507 44.0589 17.0732 44.0914 16.9943C44.1084 16.9535 44.124 16.9114 44.141 16.8692C44.1721 16.7903 44.2018 16.7115 44.2287 16.6312C44.2443 16.5877 44.2584 16.5442 44.2726 16.4993C44.2995 16.4205 44.3249 16.3402 44.349 16.26C44.3631 16.2138 44.3745 16.1675 44.3886 16.1213C44.4098 16.0424 44.4325 15.9636 44.4509 15.8833C44.4622 15.8344 44.4735 15.7841 44.4848 15.7338C44.5018 15.6549 44.5202 15.5774 44.5344 15.4972C44.5443 15.4441 44.5528 15.3911 44.5613 15.3381C44.574 15.2605 44.5881 15.183 44.598 15.1042C44.6051 15.0484 44.6108 14.9927 44.6179 14.9369C44.6264 14.8594 44.6363 14.7819 44.6433 14.7044C44.6476 14.6486 44.6504 14.5915 44.6547 14.5344C44.6589 14.4623 44.666 14.3916 44.6688 14.3196L46.1632 14.7193C46.2523 14.7479 46.3471 14.7642 46.4434 14.771C46.4533 14.771 46.4646 14.7737 46.4745 14.7765L54.3242 16.8991L54.344 16.9046C55.4846 17.2119 56.5049 17.836 57.279 18.6968L64.7098 26.9699L69.4292 32.2242C70.2514 33.1448 70.2429 34.506 69.4108 35.417V35.4157Z" fill="#353950"/>
<path d="M28.4587 45.1405C28.4587 46.6961 29.7706 47.9553 31.388 47.9553C33.0055 47.9553 34.3174 46.6948 34.3174 45.1405C34.3174 43.351 33.0055 42.3257 31.388 42.3257C29.7706 42.3257 28.4587 43.5862 28.4587 45.1405ZM31.3895 44.2022C31.9286 44.2022 32.3659 44.6224 32.3659 45.1405C32.3659 45.6586 31.9286 46.0788 31.3895 46.0788C30.8503 46.0788 30.413 45.6586 30.413 45.1405C30.413 44.6224 30.8503 44.2022 31.3895 44.2022Z" fill="#353950"/>
<path d="M20.5653 40.7323H20.5667C21.2332 40.7309 21.7738 40.2114 21.7738 39.571V36.0899H25.3965C26.063 36.0899 26.6036 35.5704 26.6036 34.9299C26.6036 34.2895 26.063 33.77 25.3965 33.77H21.7738C20.4393 33.77 19.3582 34.8089 19.3582 36.0912V39.5723C19.3582 40.2128 19.8987 40.7323 20.5653 40.7323Z" fill="#353950"/>
<path d="M47.0479 36.0883H50.6706V39.5694C50.6706 40.2099 51.2112 40.7293 51.8777 40.7293C52.5443 40.7293 53.0848 40.2099 53.0848 39.5694V36.0883C53.0848 34.806 52.0037 33.7671 50.6692 33.7671H50.6706L47.0479 33.7684C46.3814 33.7684 45.8408 34.2879 45.8408 34.9284C45.8408 35.5688 46.3814 36.0883 47.0479 36.0883Z" fill="#353950"/>
<path d="M25.3982 63.5955H25.3968L21.7741 63.5942V60.113C21.7741 59.4726 21.2335 58.9531 20.567 58.9531C19.9004 58.9531 19.3599 59.4726 19.3599 60.113V63.5942C19.3599 64.8765 20.441 65.9154 21.7755 65.9154H25.3982C26.0647 65.9154 26.6053 65.3959 26.6053 64.7554C26.6053 64.115 26.0647 63.5955 25.3982 63.5955Z" fill="#353950"/>
<path d="M51.8792 58.9507H51.8777C51.2112 58.952 50.6706 59.4715 50.6706 60.112V63.5931H47.0479C46.3814 63.5931 45.8408 64.1125 45.8408 64.753C45.8408 65.3935 46.3814 65.9129 47.0479 65.9129H50.6706C52.0051 65.9129 53.0863 64.874 53.0863 63.5917V60.1106C53.0863 59.4701 52.5457 58.9507 51.8792 58.9507Z" fill="#353950"/>
<path d="M26.026 38.4662C24.942 38.6946 24.1311 39.622 24.1311 40.7316V59.1571C24.1311 60.4394 25.2123 61.4783 26.5467 61.4783H45.8674C47.2019 61.4783 48.283 60.4394 48.283 59.1571V40.7303C48.283 39.448 47.2019 38.4091 45.8674 38.4091H38.7281V38.4118C38.7012 38.4104 38.6758 38.4077 38.6489 38.4077C37.988 38.4077 37.4517 38.9231 37.4517 39.5581C37.4517 40.1931 37.988 40.7085 38.6489 40.7085C38.6758 40.7085 38.7012 40.7058 38.7281 40.7044V40.7303H45.8674V52.649L43.7051 50.5699C42.7457 49.6642 41.2145 49.6411 40.2253 50.5182L36.9394 53.4717L33.9337 50.5875C32.9799 49.6615 31.4331 49.6343 30.4454 50.525L26.5467 54.017V40.7316L29.8892 40.7099C30.5501 40.7099 31.0864 40.1945 31.0864 39.5595C31.0864 38.9244 30.5501 38.4104 29.8892 38.4104H26.3925C26.2651 38.4104 26.142 38.4295 26.026 38.4662ZM41.8711 52.218C41.9107 52.184 41.973 52.1867 42.0084 52.2248L45.8674 55.9235V59.1544H42.8645L38.6503 55.1089L41.8711 52.218ZM26.5467 57.1894L32.0926 52.218C32.1322 52.1853 32.1917 52.188 32.227 52.2248L39.4484 59.1557H26.5467V57.1894Z" fill="#353950"/>
<path d="M34.2873 40.7085C34.9485 40.7085 35.4845 40.1935 35.4845 39.5581C35.4845 38.9228 34.9485 38.4077 34.2873 38.4077C33.6261 38.4077 33.0901 38.9228 33.0901 39.5581C33.0901 40.1935 33.6261 40.7085 34.2873 40.7085Z" fill="#353950"/>
</svg>
