<svg width="76" height="70" viewBox="0 0 76 70" fill="none" xmlns="http://www.w3.org/2000/svg">
<ellipse cx="34.8465" cy="35" rx="34.8465" ry="35" fill="#00ABB3"/>
<path d="M21.6442 57.5544H11.5832C11.0199 57.5544 10.5617 57.0886 10.5617 56.5129C10.5617 55.9373 11.0186 55.4715 11.5832 55.4715H21.6279V52.6182H11.5832C11.0199 52.6182 10.5617 52.1524 10.5617 51.5768C10.5617 51.0011 11.0186 50.5353 11.5832 50.5353H21.9306C22.303 49.8985 22.9849 49.4702 23.7637 49.4702H36.0409V45.9413C33.5574 45.5102 31.2129 44.5188 29.1686 43.0714H10.874C9.93567 43.0714 9.17192 42.2927 9.17192 41.3361V26.8364C9.17192 25.8798 9.9343 25.1011 10.874 25.1011H32.1867C33.1251 25.1011 33.8888 25.8784 33.8888 26.8364V27.7458C34.5912 27.5247 35.3099 27.3495 36.0409 27.2229V14.4141H7.01978V63.468H36.0396V59.4704H23.7623C22.6698 59.4704 21.7684 58.6306 21.6429 57.5516L21.6442 57.5544ZM11.5832 45.602H31.4762C32.0408 45.602 32.4977 46.0678 32.4977 46.6434C32.4977 47.2191 32.0408 47.6849 31.4762 47.6849H11.5832C11.0199 47.6849 10.5617 47.2191 10.5617 46.6434C10.5617 46.0678 11.0186 45.602 11.5832 45.602ZM16.3525 19.4128H26.7068C27.2701 19.4128 27.7283 19.8786 27.7283 20.4542C27.7283 21.0299 27.2714 21.4957 26.7068 21.4957H16.3525C15.7893 21.4957 15.331 21.0299 15.331 20.4542C15.331 19.8786 15.7879 19.4128 16.3525 19.4128Z" fill="white"/>
<path d="M23.6692 51.6465V57.3001C23.6692 57.3473 23.7142 57.3918 23.7619 57.3918H28.0867V51.5547H23.7619C23.7128 51.5547 23.6692 51.5992 23.6692 51.6465Z" fill="white"/>
<path d="M31.8456 28.5404V27.1875H11.2134V40.9933H26.7434C25.7342 39.9491 24.8477 38.7686 24.1153 37.4685C23.8084 36.9249 23.8084 36.2477 24.1153 35.704C25.9169 32.5046 28.6487 30.0254 31.8442 28.5418L31.8456 28.5404Z" fill="white"/>
<path d="M30.1296 53.4318H45.406C45.9693 53.4318 46.4275 53.8976 46.4275 54.4733C46.4275 55.0489 45.9706 55.5147 45.406 55.5147H30.1296V57.3918H54.3678V55.5147H50.1699C49.6053 55.5147 49.1484 55.0489 49.1484 54.4733C49.1484 53.8976 49.6053 53.4318 50.1699 53.4318H54.3678V51.5547H30.1296V53.4318Z" fill="white"/>
<path d="M56.4097 51.624V57.3206C56.7861 57.2442 57.1939 57.1121 57.4407 56.9744L58.6027 56.3279V52.6153L57.4407 51.9688C57.1939 51.8325 56.7875 51.7004 56.4097 51.6226V51.624Z" fill="white"/>
<path d="M60.644 55.1941L61.9417 54.4721L60.644 53.7515V55.1941Z" fill="white"/>
<path d="M42.3858 36.4026C42.5522 36.4026 42.7186 36.3901 42.8836 36.3693C42.7731 34.2127 41.0206 32.4927 38.8807 32.4927C38.713 32.4927 38.5466 32.5052 38.3843 32.526C38.4934 34.6826 40.2473 36.4026 42.3872 36.4026H42.3858Z" fill="white"/>
<path d="M38.8791 40.6748C40.4189 40.6748 41.7568 39.7849 42.4278 38.4834C42.4128 38.4834 42.3991 38.4834 42.3841 38.4834C39.396 38.4834 36.9097 36.2614 36.4214 33.354C35.4777 34.1035 34.8694 35.2714 34.8694 36.5826C34.8694 38.838 36.6683 40.6734 38.8777 40.6734L38.8791 40.6748Z" fill="white"/>
<path d="M25.9739 36.5834C28.6606 41.2289 33.5896 44.1058 38.8785 44.1058C44.1675 44.1058 49.0964 41.2275 51.7832 36.5834C49.0964 31.9393 44.1675 29.061 38.8785 29.061C33.5896 29.061 28.6606 31.9379 25.9739 36.5834ZM38.8799 30.4112C42.2159 30.4112 44.9299 33.1796 44.9299 36.5834C44.9299 39.9872 42.2159 42.7556 38.8799 42.7556C35.5439 42.7556 32.8299 39.9872 32.8299 36.5834C32.8299 33.1796 35.5439 30.4112 38.8799 30.4112Z" fill="white"/>
<path d="M60.2504 31.2026H57.895V32.3943H60.2504V31.2026Z" fill="white"/>
<path d="M16.3528 21.4945H26.7071C27.2704 21.4945 27.7286 21.0287 27.7286 20.4531C27.7286 19.8774 27.2717 19.4116 26.7071 19.4116H16.3528C15.7882 19.4116 15.3313 19.8774 15.3313 20.4531C15.3313 21.0287 15.7882 21.4945 16.3528 21.4945Z" fill="#353950"/>
<path d="M11.5828 47.6835H31.4758C32.0404 47.6835 32.4973 47.2177 32.4973 46.642C32.4973 46.0664 32.0404 45.6006 31.4758 45.6006H11.5828C11.0195 45.6006 10.5613 46.0664 10.5613 46.642C10.5613 47.2177 11.0182 47.6835 11.5828 47.6835Z" fill="#353950"/>
<path d="M38.8811 42.7571C42.217 42.7571 44.931 39.9887 44.931 36.5848C44.931 33.181 42.217 30.4126 38.8811 30.4126C35.5451 30.4126 32.8311 33.181 32.8311 36.5848C32.8311 39.9887 35.5451 42.7571 38.8811 42.7571ZM38.8797 32.4927C41.0196 32.4927 42.7735 34.2127 42.8826 36.3693C42.7189 36.3902 42.5525 36.4027 42.3848 36.4027C40.2449 36.4027 38.491 34.6827 38.3819 32.5261C38.5442 32.5052 38.7106 32.4927 38.8783 32.4927H38.8797ZM36.4248 33.3548C36.9117 36.2636 39.3993 38.4842 42.3875 38.4842C42.4025 38.4842 42.4161 38.4842 42.4311 38.4842C41.7588 39.7857 40.4208 40.6756 38.8824 40.6756C36.673 40.6756 34.8741 38.8402 34.8741 36.5848C34.8741 35.2736 35.4824 34.1043 36.4261 33.3562L36.4248 33.3548Z" fill="#353950"/>
<path d="M63.5864 53.0146L58.4174 50.1419C57.73 49.7595 56.6212 49.4717 55.837 49.4717H38.0812V46.1666C38.3458 46.1791 38.6117 46.1888 38.879 46.1888C44.9563 46.1888 50.6121 42.8462 53.6426 37.4665C53.9495 36.9228 53.9495 36.247 53.6426 35.702C50.6135 30.3223 44.9549 26.981 38.879 26.981C38.6117 26.981 38.3458 26.9894 38.0812 27.0019V14.0693C38.0812 13.1126 37.3174 12.334 36.3791 12.334H6.6801C5.74178 12.334 4.97803 13.1126 4.97803 14.0693V63.817C4.97803 64.7736 5.74041 65.5523 6.6801 65.5523H36.3805C37.3188 65.5523 38.0825 64.775 38.0825 63.817V59.4732H55.8384C56.6212 59.4732 57.7314 59.1854 58.4188 58.803L63.5877 55.9303C64.181 55.5994 64.5219 55.0683 64.5219 54.4731C64.5219 53.878 64.181 53.3469 63.5864 53.016V53.0146ZM38.8804 29.0612C44.1694 29.0612 49.0983 31.9394 51.785 36.5835C49.0969 41.2277 44.1694 44.1059 38.8804 44.1059C33.5914 44.1059 28.6625 41.2291 25.9757 36.5835C28.6625 31.938 33.5914 29.0612 38.8804 29.0612ZM24.1168 37.4665C24.8492 38.7666 25.7357 39.9471 26.7449 40.9913H11.2135V27.1854H31.8457V28.5384C28.6502 30.022 25.9171 32.5012 24.1168 35.7006C23.8099 36.2457 23.8099 36.9214 24.1168 37.4651V37.4665ZM36.0395 63.4694H7.0197V14.4155H36.0395V27.2244C35.3085 27.3509 34.5897 27.5261 33.8874 27.7472V26.8378C33.8874 25.8812 33.125 25.1025 32.1853 25.1025H10.8739C9.93559 25.1025 9.17184 25.8798 9.17184 26.8378V41.3375C9.17184 42.2941 9.93422 43.0728 10.8739 43.0728H29.1685C31.2129 44.5217 33.5573 45.5117 36.0409 45.9427V49.4717H23.7636C22.9848 49.4717 22.3029 49.8999 21.9306 50.5368H11.5831C11.0198 50.5368 10.5616 51.0026 10.5616 51.5782C10.5616 52.1539 11.0185 52.6197 11.5831 52.6197H21.6278V55.4729H11.5831C11.0198 55.4729 10.5616 55.9387 10.5616 56.5143C10.5616 57.09 11.0185 57.5558 11.5831 57.5558H21.6442C21.7683 58.6334 22.6711 59.4746 23.7636 59.4746H36.0409V63.4722L36.0395 63.4694ZM28.0869 51.5546V57.3917H23.7622C23.7145 57.3917 23.6695 57.3472 23.6695 57.2999V51.6464C23.6695 51.5991 23.7131 51.5546 23.7622 51.5546H28.0869ZM54.3682 53.4317H50.1702C49.6056 53.4317 49.1487 53.8975 49.1487 54.4731C49.1487 55.0488 49.6056 55.5146 50.1702 55.5146H54.3682V57.3917H30.13V55.5146H45.4064C45.9696 55.5146 46.4279 55.0488 46.4279 54.4731C46.4279 53.8975 45.971 53.4317 45.4064 53.4317H30.13V51.5546H54.3682V53.4317ZM58.6029 56.328L57.4409 56.9746C57.194 57.1108 56.7862 57.2429 56.4098 57.3208V51.6241C56.7862 51.702 57.194 51.8327 57.4409 51.9703L58.6029 52.6169V56.3294V56.328ZM60.6446 55.1934V53.7515L61.9429 54.4731L60.6446 55.1948V55.1934Z" fill="#353950"/>
<path d="M68.8554 20.889C68.8527 20.839 68.8499 20.7889 68.8472 20.7402C68.8418 20.6526 68.8349 20.565 68.8281 20.4788C68.824 20.4371 68.8213 20.3968 68.8172 20.3551C68.8049 20.2383 68.7899 20.1215 68.7736 20.0061C68.7667 19.9574 68.7586 19.9101 68.7504 19.8615C68.7381 19.7822 68.7231 19.703 68.7081 19.6237C68.6986 19.5764 68.6904 19.5292 68.6808 19.4819C68.6576 19.3693 68.6317 19.2566 68.6045 19.1454C68.5935 19.1009 68.5813 19.0564 68.569 19.0133C68.1612 17.4852 67.3484 16.1253 66.2546 15.0588C66.1782 14.9851 66.1018 14.9115 66.0227 14.8405C65.9941 14.8141 65.9641 14.7891 65.9341 14.7627C65.8631 14.7001 65.7908 14.6375 65.7186 14.5777C65.6776 14.5444 65.6354 14.511 65.5931 14.4776C65.5304 14.4276 65.469 14.3789 65.4049 14.3316C65.3503 14.2899 65.2944 14.251 65.2385 14.2107C65.1867 14.1731 65.1348 14.137 65.0817 14.1008C65.0135 14.0549 64.9439 14.0104 64.8743 13.9659C64.8321 13.9381 64.7898 13.9117 64.7461 13.8853C64.667 13.8366 64.5852 13.7894 64.5047 13.7435C64.4693 13.724 64.4338 13.7031 64.3984 13.6837C64.3097 13.635 64.2211 13.5891 64.1297 13.5446C64.0983 13.5293 64.0683 13.5127 64.037 13.4988C63.9428 13.4529 63.8474 13.4098 63.7519 13.368C63.7233 13.3555 63.6933 13.3416 63.6646 13.3291C63.5678 13.2874 63.471 13.2499 63.3728 13.2123C63.3428 13.2012 63.3114 13.1887 63.2814 13.1776C63.1845 13.1414 63.0877 13.1094 62.9895 13.0774C62.9554 13.0663 62.9213 13.0552 62.8872 13.0441C62.7931 13.0149 62.6977 12.9871 62.6008 12.962C62.5626 12.9509 62.5231 12.9398 62.4849 12.9301C62.3935 12.9064 62.3008 12.8856 62.208 12.8647C62.1644 12.855 62.1208 12.8438 62.0757 12.8355C61.9871 12.8174 61.8984 12.8021 61.8084 12.7868C61.7593 12.7785 61.7116 12.7688 61.6625 12.7618C61.5752 12.7479 61.4866 12.7382 61.3979 12.727C61.3475 12.7215 61.2956 12.7131 61.2452 12.7076C61.1524 12.6978 61.0597 12.6923 60.9656 12.6853C60.9178 12.6826 60.8715 12.677 60.8237 12.6742C60.686 12.6673 60.5482 12.6631 60.4091 12.6631C60.405 12.6631 60.4023 12.6631 60.3982 12.6631C60.3941 12.6631 60.3914 12.6631 60.3873 12.6631C60.2482 12.6631 60.1104 12.6673 59.9727 12.6742C59.925 12.677 59.8786 12.6812 59.8309 12.6853C59.7381 12.6923 59.644 12.6978 59.5513 12.7076C59.4994 12.7131 59.449 12.7201 59.3985 12.727C59.3099 12.7382 59.2212 12.7479 59.1339 12.7618C59.0848 12.7688 59.0357 12.7785 58.988 12.7868C58.898 12.8021 58.8093 12.8174 58.7207 12.8355C58.6771 12.8452 58.6334 12.855 58.5884 12.8647C58.4957 12.8856 58.4029 12.9064 58.3115 12.9301C58.272 12.9398 58.2338 12.9509 58.1956 12.962C58.1001 12.9885 58.0047 13.0149 57.9092 13.0441C57.8751 13.0552 57.841 13.0663 57.8069 13.0774C57.7087 13.1094 57.6119 13.1428 57.5151 13.1776C57.4837 13.1887 57.4537 13.2012 57.4237 13.2123C57.3255 13.2499 57.2273 13.2888 57.1318 13.3291C57.1018 13.3416 57.0732 13.3555 57.0445 13.368C56.9491 13.4098 56.8536 13.4529 56.7595 13.4988C56.7281 13.514 56.6981 13.5293 56.6668 13.5446C56.5767 13.5891 56.4867 13.6364 56.3981 13.6837C56.3626 13.7031 56.3272 13.724 56.2917 13.7435C56.2099 13.7894 56.1294 13.8366 56.0503 13.8853C56.0067 13.9117 55.9644 13.9395 55.9221 13.9659C55.8525 14.0104 55.783 14.0549 55.7148 14.1008C55.6616 14.137 55.6098 14.1745 55.5579 14.2107C55.502 14.251 55.4461 14.2899 55.3916 14.3316C55.3288 14.3789 55.2661 14.429 55.2033 14.4776C55.1611 14.511 55.1202 14.543 55.0779 14.5777C55.0042 14.6375 54.9333 14.7001 54.8624 14.7627C54.8324 14.7891 54.8024 14.8141 54.7737 14.8405C54.6946 14.9115 54.6183 14.9851 54.5419 15.0588C53.4481 16.1253 52.6352 17.4852 52.2275 19.0133C52.2152 19.0578 52.2029 19.1023 52.192 19.1454C52.1647 19.2566 52.1388 19.3693 52.1156 19.4819C52.1061 19.5292 52.0965 19.5764 52.0883 19.6237C52.0733 19.703 52.0597 19.7822 52.0461 19.8615C52.0379 19.9101 52.0297 19.9574 52.0229 20.0061C52.0065 20.1215 51.9915 20.2369 51.9792 20.3537C51.9751 20.394 51.9724 20.4357 51.9683 20.4774C51.9601 20.5637 51.9533 20.6513 51.9492 20.7389C51.9465 20.7889 51.9438 20.8376 51.941 20.8876C51.937 20.9891 51.9342 21.0893 51.9329 21.1921C51.9329 21.2158 51.9329 21.238 51.9329 21.2617C51.9329 22.7773 52.3256 24.2664 53.0676 25.5679C53.7904 26.8332 54.8256 27.8997 56.0612 28.6519L56.4881 28.9106C56.7977 29.0983 56.9873 29.4376 56.9873 29.8046V31.1186H59.374V26.8875C59.183 26.8165 59.0016 26.7248 58.8312 26.6149C58.0906 26.1408 57.5764 25.3288 57.5028 24.3916C57.4973 24.3151 57.4932 24.2372 57.4932 24.158V21.8846C57.4932 20.2828 58.7712 18.9799 60.3409 18.9799H60.4473C62.0171 18.9799 63.295 20.2828 63.295 21.8846V24.158C63.295 24.2359 63.2923 24.3137 63.2855 24.3916C63.2118 25.3301 62.6977 26.1408 61.9571 26.6149C61.7866 26.7234 61.6066 26.8165 61.4143 26.8875V31.1186H63.801V29.8046C63.801 29.4376 63.9906 29.0983 64.3002 28.9106L64.7271 28.6519C65.9627 27.9011 66.9992 26.8346 67.7207 25.5679C68.464 24.2664 68.8554 22.7773 68.8554 21.2617C68.8554 21.238 68.8554 21.2158 68.8554 21.1921C68.8554 21.0906 68.8527 20.9891 68.8472 20.8876L68.8554 20.889Z" fill="white"/>
<path d="M64.7275 33.2017H56.0767V37.1214H64.7275V33.2017Z" fill="white"/>
<path d="M60.349 24.9841H60.4554C60.4827 24.9841 60.5113 24.9828 60.5372 24.98C60.9436 24.9383 61.2614 24.5865 61.2614 24.161V21.8876C61.2614 21.4621 60.9436 21.1103 60.5372 21.0686C60.5099 21.0658 60.4827 21.0645 60.4554 21.0645H60.349C60.3217 21.0645 60.2931 21.0658 60.2672 21.0686C59.8607 21.1103 59.543 21.4621 59.543 21.8876V24.161C59.543 24.5865 59.8607 24.9383 60.2672 24.98C60.2944 24.9828 60.3217 24.9841 60.349 24.9841Z" fill="white"/>
<path d="M70.8941 20.7828C70.8913 20.7314 70.8886 20.6799 70.8859 20.6285C70.8791 20.5089 70.8695 20.3907 70.8586 20.2725C70.8545 20.228 70.8518 20.1835 70.8477 20.1404C70.8327 19.9944 70.8136 19.8484 70.7931 19.7024C70.785 19.6427 70.7754 19.5843 70.7659 19.5259C70.7495 19.4257 70.7318 19.327 70.7127 19.2283C70.7018 19.1699 70.6909 19.1129 70.6786 19.0545C70.6486 18.9127 70.6172 18.7708 70.5818 18.6304C70.5708 18.5845 70.5572 18.54 70.5449 18.4941C70.5258 18.4232 70.5081 18.3509 70.4876 18.28C70.4836 18.2647 70.4781 18.2508 70.4726 18.2355C69.9598 16.4724 69.0106 14.8984 67.7518 13.6428C67.7422 13.6331 67.7341 13.622 67.7245 13.6122C67.6809 13.5691 67.6359 13.5288 67.5909 13.4857C67.5295 13.4273 67.4681 13.3675 67.4054 13.3105C67.3372 13.248 67.2663 13.1868 67.1967 13.1256C67.1408 13.0769 67.0849 13.0283 67.0276 12.981C66.9458 12.9128 66.8612 12.8461 66.778 12.7808C66.7316 12.7446 66.6866 12.7085 66.6389 12.6723C66.5407 12.5986 66.4425 12.5277 66.3416 12.4582C66.3061 12.4331 66.272 12.4081 66.2352 12.3845C66.1234 12.308 66.0102 12.2343 65.8956 12.162C65.8697 12.1453 65.8438 12.1286 65.8179 12.1133C65.6937 12.0369 65.5683 11.9646 65.4428 11.8936C65.4237 11.8825 65.4046 11.8714 65.3842 11.8603C65.2519 11.788 65.1196 11.7184 64.9845 11.6517C64.9682 11.6434 64.9505 11.635 64.9341 11.6267C64.7977 11.5599 64.66 11.4974 64.5222 11.4376C64.5045 11.4292 64.4867 11.4223 64.469 11.4139C64.3326 11.3555 64.1949 11.2999 64.0558 11.2485C64.034 11.2401 64.0121 11.2318 63.9889 11.2234C63.8553 11.1734 63.7203 11.1275 63.5839 11.0844C63.5552 11.0747 63.5252 11.0649 63.4966 11.0552C63.3684 11.0149 63.2375 10.9773 63.1079 10.9426C63.0697 10.9328 63.0329 10.9217 62.9961 10.912C62.8733 10.88 62.7492 10.8522 62.6251 10.8244C62.5787 10.8147 62.5324 10.8021 62.486 10.7938C62.3687 10.7702 62.2514 10.7493 62.1328 10.7298C62.0782 10.7201 62.025 10.7104 61.9705 10.702C61.8573 10.6853 61.7427 10.6714 61.6281 10.6575C61.5695 10.6506 61.5108 10.6422 61.4508 10.6353C61.3322 10.6228 61.2135 10.6158 61.0949 10.6075C61.039 10.6033 60.983 10.5977 60.9271 10.595C60.7553 10.5866 60.5834 10.5824 60.4102 10.5811C60.4075 10.5811 60.4034 10.5811 60.4007 10.5811C60.4007 10.5811 60.3939 10.5811 60.3911 10.5811C60.2179 10.5811 60.0461 10.5852 59.8742 10.595C59.8183 10.5977 59.7624 10.6033 59.7065 10.6075C59.5878 10.6158 59.4692 10.6228 59.3505 10.6353C59.2905 10.6408 59.2319 10.6506 59.1732 10.6575C59.0587 10.6714 58.9441 10.6839 58.8309 10.702C58.7763 10.7104 58.7218 10.7215 58.6686 10.7298C58.5513 10.7493 58.4327 10.7702 58.3154 10.7938C58.269 10.8035 58.2226 10.8147 58.1763 10.8244C58.0521 10.8522 57.928 10.88 57.8053 10.912C57.7671 10.9217 57.7303 10.9328 57.6935 10.9426C57.5625 10.9773 57.433 11.0149 57.3048 11.0552C57.2761 11.0649 57.2461 11.0747 57.2175 11.0844C57.0811 11.1289 56.9461 11.1748 56.8124 11.2234C56.7906 11.2318 56.7688 11.2401 56.7456 11.2485C56.6065 11.3013 56.4687 11.3555 56.3323 11.4139C56.3146 11.4223 56.2969 11.4292 56.2792 11.4376C56.14 11.4974 56.0037 11.5613 55.8673 11.6267C55.8509 11.635 55.8332 11.6434 55.8168 11.6517C55.6818 11.7184 55.5495 11.788 55.4172 11.8603C55.3981 11.8714 55.379 11.8825 55.3586 11.8936C55.2317 11.9646 55.1063 12.0369 54.9835 12.1133C54.9576 12.13 54.9317 12.1467 54.9058 12.162C54.7912 12.2343 54.678 12.308 54.5662 12.3845C54.5307 12.4081 54.4953 12.4345 54.4598 12.4582C54.3602 12.5277 54.2607 12.5986 54.1625 12.6723C54.1161 12.7071 54.0697 12.7446 54.0234 12.7808C53.9388 12.8461 53.8556 12.9128 53.7738 12.981C53.7165 13.0283 53.6606 13.0769 53.6047 13.1256C53.5351 13.1868 53.4642 13.2466 53.396 13.3105C53.3333 13.3675 53.2719 13.4273 53.2105 13.4857C53.1669 13.5274 53.1205 13.5691 53.0769 13.6122C53.0673 13.622 53.0591 13.6317 53.0496 13.6428C51.7908 14.8984 50.8429 16.4724 50.3287 18.2355C50.3233 18.2508 50.3178 18.2647 50.3137 18.28C50.2933 18.3509 50.2755 18.4232 50.2564 18.4941C50.2442 18.54 50.2319 18.5845 50.2196 18.6304C50.1842 18.7708 50.1528 18.9127 50.1228 19.0545C50.1105 19.1115 50.0996 19.1699 50.0887 19.2283C50.0696 19.327 50.0519 19.4271 50.0355 19.5259C50.0259 19.5843 50.0164 19.644 50.0082 19.7024C49.9878 19.8484 49.9687 19.9944 49.9537 20.1404C49.9496 20.1849 49.9455 20.2294 49.9428 20.2725C49.9318 20.3907 49.9223 20.5103 49.9155 20.6285C49.9127 20.6799 49.91 20.7314 49.9073 20.7828C49.9005 20.9427 49.895 21.1012 49.895 21.2611C49.895 23.1438 50.3833 24.9945 51.3066 26.6144C52.189 28.1606 53.4478 29.4662 54.9508 30.3964V31.2891C54.408 31.5603 54.0315 32.1262 54.0315 32.7825V37.542C54.0315 38.4583 54.7626 39.2036 55.6613 39.2036H57.1793V40.6664C57.1793 41.2281 57.4316 41.7301 57.8258 42.0624C58.1326 42.321 58.5268 42.4767 58.955 42.4767H61.8436C62.2719 42.4767 62.666 42.321 62.9729 42.0624C63.3684 41.7301 63.6193 41.2267 63.6193 40.6664V39.2036H65.1373C66.0361 39.2036 66.7671 38.4583 66.7671 37.542V32.7825C66.7671 32.1262 66.3907 31.5589 65.8479 31.2891V30.3964C67.3508 29.4676 68.6096 28.162 69.492 26.6144C70.4154 24.9945 70.9036 23.1438 70.9036 21.2611C70.9036 21.1012 70.8982 20.9413 70.8913 20.7828H70.8941ZM61.579 40.3952H59.2237V39.2036H61.579V40.3952ZM64.7268 37.1207H56.0759V33.201H64.7268V37.1207ZM59.5428 24.1589V21.8855C59.5428 21.46 59.8606 21.1082 60.267 21.0665C60.2943 21.0637 60.3216 21.0623 60.3489 21.0623H60.4552C60.4825 21.0623 60.5112 21.0637 60.5371 21.0665C60.9435 21.1082 61.2613 21.46 61.2613 21.8855V24.1589C61.2613 24.5843 60.9435 24.9361 60.5371 24.9778C60.5098 24.9806 60.4825 24.982 60.4552 24.982H60.3489C60.3216 24.982 60.2929 24.9806 60.267 24.9778C59.8606 24.9361 59.5428 24.5843 59.5428 24.1589ZM67.7286 25.5674C67.0058 26.8327 65.9706 27.8992 64.735 28.6514L64.3081 28.91C63.9985 29.0978 63.8089 29.437 63.8089 29.8041V31.1181H61.4222V26.8869C61.6131 26.816 61.7945 26.7243 61.965 26.6144C62.7056 26.1403 63.2197 25.3282 63.2934 24.3911C63.2988 24.3146 63.3029 24.2367 63.3029 24.1575V21.8841C63.3029 20.2823 62.025 18.9794 60.4552 18.9794H60.3489C58.7791 18.9794 57.5012 20.2823 57.5012 21.8841V24.1575C57.5012 24.2353 57.5039 24.3132 57.5107 24.3911C57.5844 25.3296 58.0985 26.1403 58.8391 26.6144C59.0096 26.7229 59.1896 26.816 59.3819 26.8869V31.1181H56.9952V29.8041C56.9952 29.437 56.8056 29.0978 56.496 28.91L56.0691 28.6514C54.8335 27.9006 53.797 26.8341 53.0755 25.5674C52.3322 24.2659 51.9408 22.7767 51.9408 21.2611C51.9408 21.2375 51.9408 21.2153 51.9408 21.1916C51.9408 21.0901 51.9435 20.9886 51.949 20.8871C51.9517 20.8371 51.9544 20.787 51.9571 20.7383C51.9626 20.6507 51.9694 20.5631 51.9762 20.4769C51.9803 20.4352 51.9831 20.3949 51.9872 20.3532C51.9994 20.2364 52.0144 20.121 52.0308 20.0056C52.0376 19.9569 52.0458 19.9082 52.054 19.861C52.0663 19.7817 52.0813 19.7024 52.0963 19.6232C52.1058 19.5759 52.114 19.5286 52.1235 19.4814C52.1467 19.3687 52.1726 19.2561 52.1999 19.1449C52.2108 19.1004 52.2231 19.0559 52.2354 19.0128C52.6432 17.4847 53.456 16.1248 54.5498 15.0583C54.6262 14.9846 54.7026 14.9109 54.7817 14.84C54.8103 14.8136 54.8403 14.7886 54.8703 14.7622C54.9412 14.6996 55.0135 14.637 55.0858 14.5772C55.1267 14.5439 55.169 14.5105 55.2113 14.4771C55.274 14.4271 55.3354 14.3784 55.3995 14.3311C55.454 14.2894 55.5099 14.2505 55.5659 14.2101C55.6177 14.1726 55.6695 14.1365 55.7227 14.1003C55.7909 14.0544 55.8605 14.0099 55.93 13.9654C55.9723 13.9376 56.0146 13.9112 56.0582 13.8848C56.1373 13.8361 56.2191 13.7888 56.2996 13.743C56.3351 13.7235 56.3705 13.7026 56.406 13.6832C56.4946 13.6345 56.5833 13.5886 56.6747 13.5441C56.706 13.5288 56.736 13.5121 56.7674 13.4982C56.8615 13.4523 56.957 13.4092 57.0525 13.3675C57.0811 13.355 57.1111 13.3411 57.1397 13.3286C57.2366 13.2869 57.3334 13.2493 57.4316 13.2118C57.4616 13.2007 57.493 13.1882 57.523 13.177C57.6198 13.1409 57.7166 13.1089 57.8148 13.0769C57.8489 13.0658 57.883 13.0547 57.9171 13.0436C58.0112 13.0144 58.1067 12.9865 58.2035 12.9615C58.2417 12.9504 58.2813 12.9393 58.3195 12.9295C58.4108 12.9059 58.5036 12.885 58.5963 12.8642C58.64 12.8545 58.6836 12.8433 58.7286 12.835C58.8173 12.8169 58.9059 12.8016 58.9959 12.7863C59.045 12.778 59.0928 12.7682 59.1419 12.7613C59.2291 12.7474 59.3178 12.7377 59.4064 12.7265C59.4569 12.721 59.5087 12.7126 59.5592 12.7071C59.6519 12.6973 59.7447 12.6918 59.8388 12.6848C59.8865 12.682 59.9329 12.6765 59.9806 12.6737C60.1184 12.6667 60.2561 12.6626 60.3952 12.6626C60.3993 12.6626 60.402 12.6626 60.4061 12.6626C60.4102 12.6626 60.413 12.6626 60.417 12.6626C60.5562 12.6626 60.6939 12.6667 60.8317 12.6737C60.8794 12.6765 60.9258 12.6806 60.9735 12.6848C61.0662 12.6918 61.1603 12.6973 61.2531 12.7071C61.3049 12.7126 61.3554 12.7196 61.4058 12.7265C61.4945 12.7377 61.5831 12.7474 61.6704 12.7613C61.7195 12.7682 61.7686 12.778 61.8163 12.7863C61.9064 12.8016 61.995 12.8169 62.0837 12.835C62.1273 12.8447 62.1709 12.8545 62.216 12.8642C62.3087 12.885 62.4014 12.9059 62.4928 12.9295C62.5324 12.9393 62.5706 12.9504 62.6087 12.9615C62.7042 12.9879 62.7997 13.0144 62.8951 13.0436C62.9292 13.0547 62.9633 13.0658 62.9974 13.0769C63.0956 13.1089 63.1925 13.1423 63.2893 13.177C63.3207 13.1882 63.3507 13.2007 63.3807 13.2118C63.4789 13.2493 63.5771 13.2883 63.6725 13.3286C63.7025 13.3411 63.7312 13.355 63.7598 13.3675C63.8553 13.4092 63.9508 13.4523 64.0449 13.4982C64.0762 13.5135 64.1062 13.5288 64.1376 13.5441C64.2276 13.5886 64.3176 13.6359 64.4063 13.6832C64.4417 13.7026 64.4772 13.7235 64.5127 13.743C64.5945 13.7888 64.675 13.8361 64.7541 13.8848C64.7977 13.9112 64.84 13.939 64.8823 13.9654C64.9518 14.0099 65.0214 14.0544 65.0896 14.1003C65.1428 14.1365 65.1946 14.174 65.2464 14.2101C65.3023 14.2505 65.3582 14.2894 65.4128 14.3311C65.4755 14.3784 65.5383 14.4284 65.601 14.4771C65.6433 14.5105 65.6842 14.5425 65.7265 14.5772C65.8001 14.637 65.871 14.6996 65.942 14.7622C65.972 14.7886 66.002 14.8136 66.0306 14.84C66.1097 14.9109 66.1861 14.9846 66.2625 15.0583C67.3563 16.1248 68.1691 17.4847 68.5769 19.0128C68.5892 19.0573 68.6015 19.1018 68.6124 19.1449C68.6396 19.2561 68.6656 19.3687 68.6887 19.4814C68.6983 19.5286 68.7078 19.5759 68.716 19.6232C68.731 19.7024 68.7447 19.7817 68.7583 19.861C68.7665 19.9096 68.7747 19.9569 68.7815 20.0056C68.7978 20.121 68.8129 20.2364 68.8251 20.3546C68.8292 20.3949 68.8319 20.4366 68.836 20.4783C68.8442 20.5645 68.851 20.6521 68.8551 20.7397C68.8579 20.7898 68.8606 20.8385 68.8633 20.8885C68.8674 20.99 68.8701 21.0901 68.8715 21.193C68.8715 21.2167 68.8715 21.2389 68.8715 21.2625C68.8715 22.7781 68.4787 24.2673 67.7368 25.5688L67.7286 25.5674Z" fill="#353950"/>
<path d="M60.4012 9.30504C60.9658 9.30504 61.4227 8.83924 61.4227 8.26359V6.53803C61.4227 5.96238 60.9658 5.49658 60.4012 5.49658C59.8365 5.49658 59.3796 5.96238 59.3796 6.53803V8.26359C59.3796 8.83785 59.8365 9.30504 60.4012 9.30504Z" fill="#353950"/>
<path d="M54.1682 9.85576C54.3374 10.2423 54.7097 10.4717 55.0997 10.4717C55.2389 10.4717 55.3807 10.4425 55.5171 10.3813C56.0312 10.1464 56.2617 9.53039 56.0312 9.00619L55.3384 7.4308C55.1079 6.9066 54.5037 6.67161 53.9896 6.9066C53.4754 7.14159 53.2449 7.75756 53.4754 8.28176L54.1669 9.85715L54.1682 9.85576Z" fill="#353950"/>
<path d="M48.7829 12.3169L50.0472 13.4682C50.2422 13.6448 50.485 13.7338 50.7278 13.7338C51.0087 13.7338 51.2883 13.617 51.4888 13.3862C51.8652 12.9579 51.8284 12.2988 51.4083 11.9164L50.144 10.7651C49.724 10.3814 49.0775 10.4189 48.7024 10.8472C48.326 11.2754 48.3629 11.9331 48.7829 12.3169Z" fill="#353950"/>
<path d="M46.1149 17.9463L47.731 18.4747C47.8347 18.508 47.9397 18.5247 48.0433 18.5247C48.4757 18.5247 48.8766 18.2439 49.0144 17.8017C49.1862 17.2539 48.8916 16.6685 48.3543 16.4919L46.7381 15.9635C46.2008 15.7883 45.6266 16.0887 45.4534 16.6365C45.2815 17.1843 45.5775 17.7697 46.1149 17.9449V17.9463Z" fill="#353950"/>
<path d="M45.8233 24.1992C45.8601 24.1992 45.897 24.1964 45.9352 24.1923L47.6222 24.0059C48.1828 23.9447 48.5878 23.4303 48.5265 22.8588C48.4664 22.2873 47.9632 21.8744 47.4013 21.9369L45.7142 22.1246C45.1537 22.1858 44.7486 22.7003 44.8086 23.2718C44.8659 23.8057 45.3078 24.2006 45.822 24.2006L45.8233 24.1992Z" fill="#353950"/>
<path d="M47.2475 28.1749C46.7606 28.4641 46.5956 29.1009 46.8793 29.5973C47.0689 29.9296 47.4112 30.1145 47.7631 30.1145C47.9376 30.1145 48.1136 30.0687 48.2759 29.9727L49.7406 29.1023C50.2275 28.8131 50.3925 28.1762 50.1089 27.6799C49.8252 27.1821 49.2005 27.0152 48.7123 27.3044L47.2462 28.1749H47.2475Z" fill="#353950"/>
<path d="M65.2851 10.3799C65.4201 10.4411 65.562 10.4717 65.7024 10.4717C66.0925 10.4717 66.4648 10.2422 66.6339 9.85568L67.3268 8.2803C67.5572 7.75609 67.3268 7.14012 66.8126 6.90514C66.2984 6.67015 65.6942 6.90514 65.4638 7.42934L64.7723 9.00472C64.5418 9.52893 64.7723 10.1449 65.2865 10.3799H65.2851Z" fill="#353950"/>
<path d="M70.0768 13.7338C70.3182 13.7338 70.5623 13.6462 70.7573 13.4682L72.0216 12.3169C72.4417 11.9331 72.4785 11.2754 72.1021 10.8472C71.7256 10.4189 71.0805 10.3814 70.6605 10.7651L69.3962 11.9164C68.9761 12.3002 68.9393 12.9579 69.3157 13.3862C69.5176 13.6156 69.7972 13.7338 70.0768 13.7338Z" fill="#353950"/>
<path d="M71.7873 17.8018C71.9264 18.244 72.3274 18.5248 72.7597 18.5248C72.8634 18.5248 72.9684 18.5082 73.072 18.4748L74.6882 17.9464C75.2242 17.7712 75.5201 17.1858 75.3483 16.638C75.1764 16.0902 74.6009 15.7884 74.0635 15.965L72.4474 16.4934C71.91 16.6686 71.6141 17.2554 71.7873 17.8032V17.8018Z" fill="#353950"/>
<path d="M75.0882 22.1234L73.4011 21.9357C72.8392 21.8718 72.3373 22.2861 72.2759 22.8576C72.2159 23.4291 72.6196 23.9435 73.1815 24.0047L74.8686 24.191C74.9068 24.1952 74.9436 24.1966 74.9804 24.1966C75.4946 24.1966 75.9365 23.8017 75.9938 23.2692C76.0551 22.6977 75.6501 22.1832 75.0895 22.122L75.0882 22.1234Z" fill="#353950"/>
<path d="M73.5556 28.1745L72.0908 27.3041C71.6039 27.0149 70.9779 27.1832 70.6942 27.6795C70.4106 28.1759 70.5756 28.8142 71.0625 29.1034L72.5272 29.9738C72.6895 30.0697 72.8655 30.1156 73.04 30.1156C73.3919 30.1156 73.7329 29.9307 73.9238 29.5984C74.2075 29.102 74.0425 28.4638 73.5556 28.1759V28.1745Z" fill="#353950"/>
</svg>
