<svg width="90" height="70" viewBox="0 0 90 70" fill="none" xmlns="http://www.w3.org/2000/svg">
<circle cx="45" cy="35" r="35" fill="#00ABB3"/>
<path d="M17.6959 46.7344C13.9073 46.7344 10.8232 49.7956 10.8232 53.5599C10.8232 57.3243 13.9056 60.3855 17.6959 60.3855C21.4863 60.3855 24.5686 57.3243 24.5686 53.5599C24.5686 49.7956 21.4863 46.7344 17.6959 46.7344ZM17.6959 57.5797C15.4643 57.5797 13.6466 55.7762 13.6466 53.5582C13.6466 51.3401 15.4626 49.5367 17.6959 49.5367C19.9293 49.5367 21.7452 51.3401 21.7452 53.5582C21.7452 55.7762 19.9293 57.5797 17.6959 57.5797Z" fill="white"/>
<path d="M61.9788 52.1546C61.9788 52.1546 61.9664 52.1546 61.9611 52.1546H59.2311C59.2188 52.1546 59.2082 52.1546 59.1976 52.1546C59.1871 52.1546 59.1747 52.1546 59.1642 52.1546H56.4341C56.3513 52.1546 56.2703 52.1458 56.1911 52.1318C56.1136 52.1458 56.0343 52.1546 55.9533 52.1546H27.1011C27.1698 52.6129 27.2068 53.0817 27.2068 53.5575C27.2068 54.0333 27.1698 54.5021 27.1011 54.9604H33.3573C33.3996 54.9604 33.4418 54.9621 33.4823 54.9674C33.5264 54.9621 33.5704 54.9604 33.6162 54.9604H36.3463C36.3586 54.9604 36.3691 54.9604 36.3797 54.9604C36.3903 54.9604 36.4026 54.9604 36.4132 54.9604H39.1432C39.1432 54.9604 39.1485 54.9604 39.152 54.9604H65.6265C65.5578 54.5021 65.5208 54.035 65.5208 53.5575C65.5208 53.0799 65.5578 52.6129 65.6265 52.1546H61.9788Z" fill="white"/>
<path d="M75.0309 46.7344C71.2423 46.7344 68.1582 49.7956 68.1582 53.5599C68.1582 57.3243 71.2405 60.3855 75.0309 60.3855C78.8212 60.3855 81.9036 57.3243 81.9036 53.5599C81.9036 49.7956 78.8212 46.7344 75.0309 46.7344ZM75.0309 57.5797C72.7993 57.5797 70.9816 55.7762 70.9816 53.5582C70.9816 51.3401 72.7975 49.5367 75.0309 49.5367C77.2642 49.5367 79.0802 51.3401 79.0802 53.5582C79.0802 55.7762 77.2642 57.5797 75.0309 57.5797Z" fill="white"/>
<path d="M75.0303 52.1562C74.2518 52.1562 73.6177 52.786 73.6177 53.5592C73.6177 54.3323 74.2518 54.962 75.0303 54.962C75.8088 54.962 76.4428 54.3323 76.4428 53.5592C76.4428 52.786 75.8088 52.1562 75.0303 52.1562Z" fill="white"/>
<path d="M57.2378 33.2672H77.6744L70.7718 25.0405H57.2378V33.2672Z" fill="white"/>
<path d="M17.6958 52.1562C16.9173 52.1562 16.2832 52.786 16.2832 53.5592C16.2832 54.3323 16.9173 54.962 17.6958 54.962C18.4743 54.962 19.1084 54.3323 19.1084 53.5592C19.1084 52.786 18.4743 52.1562 17.6958 52.1562Z" fill="white"/>
<path d="M2.84668 52.1548C3.39621 53.7868 4.94441 54.9606 6.76386 54.9606H8.29268C8.22399 54.5023 8.18701 54.0352 8.18701 53.5577C8.18701 53.0801 8.22399 52.6131 8.29268 52.1548H2.84668Z" fill="white"/>
<path d="M34.0336 44.2381C34.0336 41.2994 31.6259 38.9082 28.6669 38.9082H21.9985C17.6481 38.9082 14.1078 35.3922 14.1078 31.0715V31.0453C14.1078 28.1066 11.7001 25.7153 8.74107 25.7153H2.63281V49.5383H9.0951C10.6186 46.3372 13.9 44.1157 17.6956 44.1157C21.4913 44.1157 24.7726 46.3372 26.2962 49.5383H34.0336V44.2381Z" fill="white"/>
<path d="M81.9029 45.4232V40.0005C81.9029 39.2781 82.4929 38.6903 83.2221 38.6903H86.9755C86.6743 38.2198 86.2163 37.8524 85.658 37.6652L80.2772 35.8845H55.9216C55.1942 35.8845 54.6024 35.2985 54.6024 34.5743V23.729C54.6024 23.0065 55.1924 22.4188 55.9216 22.4188H68.5767L67.4635 21.0911C66.6762 20.1518 65.5191 19.6147 64.2914 19.6147H28.9998V19.6322H25.6234C25.5511 19.6322 25.4789 19.6252 25.4085 19.6147H24.873C24.8607 19.6147 24.8501 19.6147 24.8396 19.6147C24.829 19.6147 24.8167 19.6147 24.8061 19.6147H19.5309C19.5186 19.6147 19.5081 19.6147 19.4975 19.6147C19.4869 19.6147 19.4746 19.6147 19.464 19.6147H15.6596C15.6472 19.6147 15.6367 19.6147 15.6261 19.6147C15.6155 19.6147 15.6032 19.6147 15.5926 19.6147H6.77017C4.66716 19.6147 2.92873 21.1838 2.67334 23.2025H8.74814C13.0986 23.2025 16.6389 26.7184 16.6389 31.0391V31.0653C16.6389 34.0041 19.0466 36.3953 22.0056 36.3953H28.674C33.0244 36.3953 36.5647 39.9113 36.5647 44.2319V49.5321H55.9586C56.0414 49.5321 56.1224 49.5409 56.2017 49.5549C56.2792 49.5409 56.3584 49.5321 56.4394 49.5321H59.1695C59.1818 49.5321 59.1924 49.5321 59.2029 49.5321C59.2135 49.5321 59.2258 49.5321 59.2364 49.5321H61.6864C61.6864 49.5321 61.6987 49.5321 61.704 49.5321H66.4349C67.9585 46.331 71.2398 44.1095 75.0355 44.1095C78.8311 44.1095 82.1125 46.331 83.636 49.5321H87.3682V46.7281H83.2256C82.4982 46.7281 81.9064 46.1421 81.9064 45.4179L81.9029 45.4232ZM48.9063 29.7516L46.1762 35.1638C45.9455 35.6221 45.4805 35.8863 44.9961 35.8863C44.7971 35.8863 44.5963 35.8408 44.4061 35.7481C43.7544 35.4245 43.492 34.6373 43.8178 33.9901L45.5915 30.4741H42.2661C41.8099 30.4741 41.3854 30.2397 41.1441 29.8531C40.9046 29.4665 40.8817 28.9855 41.086 28.5796L43.816 23.1465C44.1419 22.4993 44.9327 22.2369 45.5844 22.5587C46.2361 22.8823 46.5003 23.6678 46.1762 24.315L44.3973 27.8555H47.7262C48.1841 27.8555 48.6086 28.0899 48.8481 28.4764C49.0877 28.863 49.1106 29.3441 48.9045 29.7516H48.9063ZM58.6481 41.3107H55.9181C55.1907 41.3107 54.5989 40.7247 54.5989 40.0005C54.5989 39.2763 55.1889 38.6903 55.9181 38.6903H58.6481C59.3756 38.6903 59.9674 39.2763 59.9674 40.0005C59.9674 40.7247 59.3773 41.3107 58.6481 41.3107Z" fill="white"/>
<path d="M87.3639 41.311H84.5405V44.1151H87.3639V41.311Z" fill="white"/>
<path d="M84.5393 53.5577C84.5393 54.0335 84.5023 54.5023 84.4336 54.9606H87.3627V52.1548H84.4336C84.5023 52.6131 84.5393 53.0819 84.5393 53.5577Z" fill="white"/>
<path d="M17.696 49.5376C15.4644 49.5376 13.6467 51.3411 13.6467 53.5591C13.6467 55.7772 15.4627 57.5806 17.696 57.5806C19.9294 57.5806 21.7453 55.7772 21.7453 53.5591C21.7453 51.3411 19.9294 49.5376 17.696 49.5376ZM17.696 54.9603C16.9175 54.9603 16.2834 54.3305 16.2834 53.5574C16.2834 52.7842 16.9175 52.1545 17.696 52.1545C18.4745 52.1545 19.1086 52.7842 19.1086 53.5574C19.1086 54.3305 18.4745 54.9603 17.696 54.9603Z" fill="#353950"/>
<path d="M75.0302 49.5376C72.7986 49.5376 70.981 51.3411 70.981 53.5591C70.981 55.7772 72.7969 57.5806 75.0302 57.5806C77.2636 57.5806 79.0795 55.7772 79.0795 53.5591C79.0795 51.3411 77.2636 49.5376 75.0302 49.5376ZM75.0302 54.9603C74.2517 54.9603 73.6177 54.3305 73.6177 53.5574C73.6177 52.7842 74.2517 52.1545 75.0302 52.1545C75.8087 52.1545 76.4428 52.7842 76.4428 53.5574C76.4428 54.3305 75.8087 54.9603 75.0302 54.9603Z" fill="#353950"/>
<path d="M58.6486 38.6919H55.9186C55.1912 38.6919 54.5994 39.2779 54.5994 40.0021C54.5994 40.7263 55.1894 41.3123 55.9186 41.3123H58.6486C59.3761 41.3123 59.9679 40.7263 59.9679 40.0021C59.9679 39.2779 59.3778 38.6919 58.6486 38.6919Z" fill="#353950"/>
<path d="M47.7282 27.8559H44.3993L46.1782 24.3154C46.5041 23.6682 46.2381 22.8828 45.5864 22.5591C44.9347 22.2355 44.1439 22.4997 43.818 23.1469L41.088 28.5801C40.8837 28.9859 40.9066 29.4687 41.1461 29.8535C41.3857 30.2401 41.8101 30.4745 42.2681 30.4745H45.5934L43.8198 33.9905C43.494 34.6377 43.7564 35.4231 44.4081 35.7485C44.5983 35.8429 44.7991 35.8867 44.9981 35.8867C45.4807 35.8867 45.9475 35.6225 46.1782 35.1642L48.9083 29.7521C49.1126 29.3462 49.0914 28.8634 48.8519 28.4769C48.6124 28.0903 48.1879 27.8559 47.7299 27.8559H47.7282Z" fill="#353950"/>
<path d="M90 40.0131V40.0009C90 39.9869 90 39.9729 89.9982 39.9589C89.9718 37.7881 88.5698 35.8744 86.4897 35.1834L81.2621 33.4534L72.4185 22.9142C72.4097 22.9037 72.4009 22.8932 72.3921 22.8827L69.4859 19.4192C68.1966 17.8816 66.3014 17 64.2882 17H24.8699C24.8575 17 24.847 17 24.8364 17C24.8258 17 24.8135 17 24.8029 17H19.5278C19.5154 17 19.5049 17 19.4943 17C19.4837 17 19.4714 17 19.4608 17H15.6564C15.6441 17 15.6335 17 15.6229 17C15.6124 17 15.6 17 15.5895 17H6.767C3.03476 17 0 20.0157 0 23.7206V50.8462C0 50.8462 0 50.8497 0 50.8515C0 50.8532 0 50.855 0 50.8567C0 54.5634 3.03652 57.5773 6.767 57.5773H9.09722C10.6208 60.7785 13.9021 63 17.6978 63C21.4934 63 24.7747 60.7785 26.2983 57.5773H33.3559C33.4017 57.5773 33.4457 57.5756 33.4898 57.5703C33.5303 57.5738 33.5725 57.5773 33.6148 57.5773H36.3449C36.3572 57.5773 36.3678 57.5773 36.3783 57.5773C36.3889 57.5773 36.4012 57.5773 36.4118 57.5773H39.089C39.089 57.5773 39.0943 57.5773 39.0978 57.5773H66.4265C67.95 60.7785 71.2314 63 75.027 63C78.8226 63 82.104 60.7785 83.6275 57.5773H88.6772C89.4047 57.5773 89.9965 56.9913 89.9965 56.2671V40.0166C89.9965 40.0166 89.9965 40.0114 89.9965 40.0096L90 40.0131ZM70.7717 25.0413L77.676 33.268H57.2394V25.0413H70.7734H70.7717ZM8.2923 54.9604H6.76347C4.94403 54.9604 3.39583 53.7867 2.8463 52.1547H8.2923C8.22361 52.613 8.18662 53.0818 8.18662 53.5576C8.18662 54.0333 8.22361 54.5021 8.2923 54.9604ZM17.696 60.3831C13.9074 60.3831 10.8233 57.3219 10.8233 53.5576C10.8233 49.7932 13.9056 46.732 17.696 46.732C21.4864 46.732 24.5687 49.7932 24.5687 53.5576C24.5687 57.3219 21.4864 60.3831 17.696 60.3831ZM26.2983 49.536C24.7747 46.3349 21.4934 44.1134 17.6978 44.1134C13.9021 44.1134 10.6208 46.3349 9.09722 49.536H2.63318V25.713H8.74144C11.7005 25.713 14.1082 28.1042 14.1082 31.043V31.0692C14.1082 35.3899 17.6484 38.9058 21.9989 38.9058H28.6673C31.6263 38.9058 34.034 41.2971 34.034 44.2358V49.536H26.2965H26.2983ZM65.6268 54.9604H39.1524C39.1524 54.9604 39.1471 54.9604 39.1436 54.9604H36.4136C36.4012 54.9604 36.3907 54.9604 36.3801 54.9604C36.3695 54.9604 36.3572 54.9604 36.3466 54.9604H33.6166C33.5708 54.9604 33.5267 54.9622 33.4827 54.9674C33.4422 54.9639 33.3999 54.9604 33.3577 54.9604H27.1014C27.1701 54.5021 27.2071 54.0351 27.2071 53.5576C27.2071 53.08 27.1701 52.613 27.1014 52.1547H55.9537C56.0347 52.1547 56.1139 52.1459 56.1914 52.1319C56.2707 52.1459 56.3517 52.1547 56.4345 52.1547H59.1645C59.1769 52.1547 59.1874 52.1547 59.198 52.1547C59.2086 52.1547 59.2209 52.1547 59.2315 52.1547H61.9615C61.9615 52.1547 61.9739 52.1547 61.9791 52.1547H65.6268C65.5581 52.613 65.5211 53.0818 65.5211 53.5576C65.5211 54.0333 65.5581 54.5021 65.6268 54.9604ZM75.0305 60.3831C71.2419 60.3831 68.1579 57.3219 68.1579 53.5576C68.1579 49.7932 71.2402 46.732 75.0305 46.732C78.8209 46.732 81.9032 49.7932 81.9032 53.5576C81.9032 57.3219 78.8209 60.3831 75.0305 60.3831ZM87.3633 54.9604H84.4342C84.5029 54.5021 84.5399 54.0351 84.5399 53.5576C84.5399 53.08 84.5029 52.613 84.4342 52.1547H87.3633V54.9604ZM87.3633 49.536H83.6311C82.1075 46.3349 78.8262 44.1134 75.0305 44.1134C71.2349 44.1134 67.9535 46.3349 66.43 49.536H61.6991C61.6991 49.536 61.6868 49.536 61.6815 49.536H59.2315C59.2191 49.536 59.2086 49.536 59.198 49.536C59.1874 49.536 59.1751 49.536 59.1645 49.536H56.4345C56.3535 49.536 56.2742 49.5448 56.1967 49.5588C56.1175 49.5448 56.0364 49.536 55.9537 49.536H36.5597V44.2358C36.5597 39.9152 33.0195 36.3992 28.669 36.3992H22.0007C19.0416 36.3992 16.6339 34.0079 16.6339 31.0692V31.043C16.6339 26.7223 13.0937 23.2063 8.7432 23.2063H2.66664C2.92203 21.186 4.66222 19.6186 6.76347 19.6186H15.5859C15.5983 19.6186 15.6088 19.6186 15.6194 19.6186C15.63 19.6186 15.6423 19.6186 15.6529 19.6186H19.4573C19.4696 19.6186 19.4802 19.6186 19.4908 19.6186C19.5014 19.6186 19.5137 19.6186 19.5242 19.6186H24.7994C24.8117 19.6186 24.8223 19.6186 24.8329 19.6186C24.8434 19.6186 24.8558 19.6186 24.8663 19.6186H25.4018C25.4722 19.6291 25.5444 19.6361 25.6167 19.6361H28.9931V19.6186H64.2847C65.5141 19.6186 66.6695 20.1574 67.4568 21.095L68.57 22.4227H55.9149C55.1875 22.4227 54.5957 23.0087 54.5957 23.7329V34.5782C54.5957 35.3006 55.1857 35.8884 55.9149 35.8884H80.2705L85.6513 37.6691C86.2114 37.8545 86.6693 38.2236 86.9688 38.6942H83.2154C82.488 38.6942 81.8962 39.2802 81.8962 40.0044V45.427C81.8962 46.1495 82.4862 46.7372 83.2154 46.7372H87.358V49.5413L87.3633 49.536ZM87.3633 41.3111V44.1151H84.5399V41.3111H87.3633Z" fill="#353950"/>
</svg>
