<svg width="424" height="201" viewBox="0 0 424 201" fill="none" xmlns="http://www.w3.org/2000/svg">
<g clip-path="url(#clip0_2081_1494)">
<path d="M39.2853 116.237C47.6843 116.144 54.821 123.222 54.6947 131.666C54.8126 140.076 47.6843 147.221 39.2853 147.095H15.8976V157.055H0V116.237H39.2853ZM35.313 135.129C36.2556 135.129 37.0719 134.792 37.7368 134.126C38.4353 133.427 38.7719 132.61 38.7719 131.666C38.7719 130.722 38.4353 129.871 37.7368 129.205C37.0719 128.506 36.2472 128.169 35.313 128.169H15.8976V135.121H35.313V135.129Z" fill="#363845"/>
<path d="M103.263 116.211C111.662 116.119 118.799 123.197 118.672 131.64C118.672 134.708 117.856 137.505 116.215 139.991C114.607 142.452 112.453 144.331 109.785 145.578L118.672 157.03H101.748L94.0727 147.07H79.8751V157.03H63.9775V116.211H103.263ZM79.8751 128.143V135.095H99.2569C100.225 135.095 101.049 134.758 101.714 134.093C102.413 133.393 102.741 132.576 102.741 131.632C102.741 129.686 101.193 128.143 99.2569 128.143H79.8751Z" fill="#363845"/>
<path d="M144.484 116.178V156.996H128.586V116.178H144.484Z" fill="#363845"/>
<path d="M208.562 135.104V138.078C208.621 153.507 196.065 157.974 180.748 158.007C165.397 157.974 152.841 153.507 152.9 138.078V135.104C152.841 119.641 165.397 115.209 180.748 115.175C196.098 115.175 208.562 119.666 208.562 135.104ZM192.673 136.073C192.766 129.424 187.245 128.202 180.748 128.118C174.225 128.211 168.705 129.424 168.797 136.073V137.076C168.705 143.758 174.225 144.971 180.748 145.064C187.236 144.971 192.757 143.758 192.673 137.076V136.073Z" fill="#363845"/>
<path d="M256.272 116.211C264.671 116.119 271.807 123.197 271.681 131.64C271.681 134.708 270.865 137.505 269.224 139.991C267.616 142.452 265.462 144.331 262.794 145.578L271.681 157.03H254.757L247.081 147.07H232.884V157.03H216.986V116.211H256.272ZM232.884 128.143V135.095H252.266C253.233 135.095 254.058 134.758 254.723 134.093C255.422 133.393 255.75 132.576 255.75 131.632C255.75 129.686 254.201 128.143 252.266 128.143H232.884Z" fill="#363845"/>
<path d="M296.247 116.178V156.996H280.35V116.178H296.247Z" fill="#363845"/>
<path d="M323.868 157.064V129.18H304.966V116.245H358.659V129.18H339.757V157.064H323.859H323.868Z" fill="#363845"/>
<path d="M393.181 130.882L405.131 116.245H424L401.125 143.126V157.072H385.228V143.126L362.354 116.245H381.256L393.181 130.882Z" fill="#363845"/>
<path d="M76.9545 200.604H71.6021V177.599H88.964V181.871H76.9545V200.604ZM76.5253 187.955H87.5501V192.228H76.5253V187.955Z" fill="#A2A3AC"/>
<path d="M99.1387 200.604V177.599H109.086C111.14 177.599 112.915 177.936 114.405 178.602C115.895 179.268 117.039 180.228 117.856 181.475C118.663 182.723 119.067 184.206 119.067 185.908C119.067 187.61 118.663 189.127 117.856 190.357C117.048 191.596 115.895 192.54 114.405 193.18C112.915 193.82 111.148 194.149 109.086 194.149H102.067L104.5 191.849V200.587H99.1471L99.1387 200.604ZM104.491 192.455L102.059 189.927H108.783C110.399 189.927 111.628 189.573 112.461 188.874C113.294 188.175 113.707 187.189 113.707 185.916C113.707 184.644 113.294 183.666 112.461 182.975C111.628 182.284 110.408 181.939 108.783 181.939H102.059L104.491 179.411V192.455ZM113.774 200.604L108.001 192.253H113.715L119.488 200.604H113.774Z" fill="#A2A3AC"/>
<path d="M135.108 196.331H147.614V200.604H129.823V177.599H147.185V181.871H135.108V196.331ZM134.713 186.835H145.771V191.006H134.713V186.835Z" fill="#A2A3AC"/>
<path d="M158.412 200.604V177.599H163.764V200.604H158.412Z" fill="#A2A3AC"/>
<path d="M186.832 201C185.014 201 183.34 200.713 181.808 200.132C180.276 199.55 178.955 198.725 177.836 197.654C176.725 196.584 175.849 195.32 175.227 193.879C174.604 192.43 174.292 190.846 174.292 189.118C174.292 187.391 174.604 185.798 175.227 184.357C175.849 182.908 176.733 181.652 177.869 180.582C179.005 179.512 180.343 178.678 181.875 178.105C183.407 177.523 185.09 177.237 186.933 177.237C188.97 177.237 190.796 177.574 192.429 178.256C194.061 178.939 195.433 179.925 196.544 181.214L193.161 184.366C192.311 183.464 191.385 182.807 190.409 182.377C189.424 181.947 188.339 181.737 187.16 181.737C186.066 181.737 185.056 181.914 184.139 182.276C183.222 182.638 182.431 183.144 181.757 183.801C181.093 184.458 180.579 185.234 180.217 186.135C179.855 187.037 179.679 188.031 179.679 189.127C179.679 190.222 179.855 191.158 180.217 192.068C180.579 192.978 181.093 193.761 181.757 194.419C182.422 195.076 183.213 195.59 184.122 195.961C185.031 196.332 186.033 196.517 187.127 196.517C188.221 196.517 189.197 196.34 190.198 195.994C191.2 195.649 192.159 195.059 193.102 194.25L196.123 198.093C194.852 199.053 193.397 199.786 191.755 200.275C190.114 200.764 188.473 201.017 186.832 201.017V201ZM191.259 197.385V188.739H196.115V198.067L191.259 197.376V197.385Z" fill="#A2A3AC"/>
<path d="M212.955 200.604H207.603V177.599H212.955V200.604ZM223.753 191.174H212.526V186.675H223.753V191.174ZM223.357 177.608H228.676V200.612H223.357V177.608Z" fill="#A2A3AC"/>
<path d="M245.44 200.604V181.939H238.093V177.599H258.115V181.939H250.768V200.604H245.449H245.44Z" fill="#A2A3AC"/>
<path d="M283.379 200.604V177.599H288.731V200.604H283.379Z" fill="#A2A3AC"/>
<path d="M300.707 200.604V177.599H305.1L318.658 194.157H316.529V177.599H321.781V200.604H317.379L303.821 184.045H305.95V200.604H300.699H300.707Z" fill="#A2A3AC"/>
<path d="M344.781 201C343.006 201 341.365 200.713 339.841 200.132C338.318 199.55 337.005 198.725 335.886 197.654C334.767 196.584 333.9 195.32 333.277 193.879C332.654 192.43 332.343 190.846 332.343 189.118C332.343 187.391 332.654 185.798 333.277 184.357C333.9 182.908 334.775 181.652 335.903 180.582C337.03 179.512 338.352 178.678 339.875 178.105C341.398 177.523 343.039 177.237 344.815 177.237C346.801 177.237 348.611 177.582 350.226 178.273C351.842 178.964 353.206 179.975 354.3 181.315L350.849 184.467C350.083 183.565 349.217 182.891 348.24 182.428C347.264 181.964 346.212 181.737 345.076 181.737C344.007 181.737 343.023 181.914 342.122 182.276C341.222 182.638 340.447 183.144 339.791 183.801C339.134 184.458 338.629 185.234 338.268 186.135C337.906 187.037 337.729 188.031 337.729 189.127C337.729 190.222 337.906 191.217 338.268 192.118C338.629 193.02 339.134 193.795 339.791 194.452C340.447 195.11 341.222 195.624 342.122 195.978C343.023 196.34 344.007 196.517 345.076 196.517C346.212 196.517 347.273 196.281 348.24 195.809C349.217 195.337 350.083 194.655 350.849 193.753L354.3 196.905C353.206 198.244 351.851 199.264 350.226 199.963C348.602 200.663 346.793 201.017 344.781 201.017V201Z" fill="#A2A3AC"/>
<path d="M352.953 23.7038H332.907L322.698 13.6172C320.746 11.6875 318.12 10.6089 315.376 10.6089H220.294L247.932 31.726C250.372 33.5883 253.36 34.5995 256.432 34.5826L270.057 34.5236L253.587 21.9005H310.748C313.491 21.9005 316.117 22.9792 318.07 24.9088L328.051 34.7764H304.04C292.527 34.7764 281.612 39.9419 274.299 48.8489C273.398 49.9443 273.583 51.5707 274.711 52.4386L287.84 62.5337L307.356 77.5078L297.106 62.3314C292.973 56.2137 296.996 52.2111 299.024 50.7196C303.468 47.7281 308.745 46.0681 314.215 46.0681H341.18C344.571 46.0681 347.845 47.6691 349.68 50.5258C349.823 50.7448 349.957 50.9808 350.084 51.2167L350.841 52.6156L360.317 36.7145C363.734 30.9844 359.61 23.7123 352.945 23.7123L352.953 23.7038Z" fill="#C12849"/>
<path d="M289.329 89.9625C289.329 89.9625 208.773 28.6926 208.066 28.1365L196.225 18.8503L193.085 16.4066C188.12 12.5388 181.926 10.4069 175.639 10.4069H35.6918C32.073 10.4069 28.5131 9.18501 25.6601 6.96038L16.7393 0H187.009C194.129 0 201.148 2.41001 206.761 6.79185L213.031 11.6793L250.448 40.5573L316.673 89.9625H289.329Z" fill="#363845"/>
<path d="M176.515 21.791H43.8721L52.8686 29.021C59.1553 34.0686 66.9736 36.8241 75.036 36.8241H202.343L187.666 25.5746C184.459 23.1224 180.537 21.791 176.506 21.791H176.515Z" fill="#C12849"/>
<path d="M211.6 48.6807H77.3418L86.3384 55.9107C92.625 60.9582 100.443 63.7137 108.506 63.7137H237.428L222.751 52.4642C219.545 50.0121 215.623 48.6807 211.592 48.6807H211.6Z" fill="#C12849"/>
<path d="M245.861 74.9292H110.029L119.034 82.1592C125.321 87.2068 133.139 89.9623 141.202 89.9623H271.698L257.021 78.7128C253.814 76.2606 249.893 74.9292 245.861 74.9292Z" fill="#C12849"/>
</g>
<defs>
<clipPath id="clip0_2081_1494">
<rect width="424" height="201" fill="white"/>
</clipPath>
</defs>
</svg>
