<svg width="94" height="73" viewBox="0 0 94 73" fill="none" xmlns="http://www.w3.org/2000/svg">
<path d="M51.8774 72.9995C71.9502 72.9995 88.2223 56.7274 88.2223 36.6548C88.2223 16.5821 71.9502 0.310059 51.8774 0.310059C31.8047 0.310059 15.5326 16.5821 15.5326 36.6548C15.5326 56.7274 31.8047 72.9995 51.8774 72.9995Z" fill="#00ABB3"/>
<path d="M78.0648 16.0435H45.4406V6.78516H56.6692C58.6777 6.78516 60.4663 8.08591 61.0688 10.0084L61.394 11.0413H72.2879C73.7322 11.0413 75.0712 11.5674 76.1041 12.4568C77.1371 13.3463 77.8544 14.5993 78.0648 16.0244V16.0435Z" fill="white"/>
<path d="M90.8237 34.5408V53.0766L50.8635 52.2923L45.4501 52.1871V16.0433L59.0794 13.853L70.4706 16.0433L72.4218 31.6237L90.8237 34.5408Z" fill="white"/>
<path d="M90.8238 34.541V53.0768L85.7355 52.9812V33.728L90.8238 34.5314V34.541Z" fill="white"/>
<path d="M34.1067 41.647H13.5719L9.96606 48.7629L23.8536 52.273L37.7125 48.7629L34.1067 41.647Z" fill="white"/>
<path d="M27.7463 51.2881L23.8536 52.2732L9.96606 48.7726L13.5719 41.6567H21.3669L17.7611 48.7726L27.7559 51.2881H27.7463Z" fill="white"/>
<path d="M3.51007 48.7729H75.5398V58.6338H3.51007C2.33364 58.6338 1.3772 57.6774 1.3772 56.501V50.9154C1.3772 49.739 2.33364 48.7825 3.51007 48.7825V48.7729Z" fill="white"/>
<path d="M61.0209 58.6338C61.0687 50.6667 67.5629 44.2012 75.5492 44.2012C83.5356 44.2012 90.0776 50.7145 90.0776 58.7295" fill="white"/>
<path d="M40.0558 27.2911H35.5509V4.47045L40.0558 1.37158V27.2911Z" fill="white"/>
<path d="M39.3766 37.6971H36.2204C34.8909 37.6971 33.8197 36.6163 33.8197 35.2964V19.2952C33.8197 17.9657 34.9005 16.8945 36.2204 16.8945H39.3766C40.7061 16.8945 41.7773 17.9753 41.7773 19.2952V35.2964C41.7773 36.6259 40.6965 37.6971 39.3766 37.6971Z" fill="white"/>
<path d="M82.6365 63.0619H90.8236C91.6557 63.0619 92.3348 62.3828 92.3348 61.5507V54.5878C92.3348 53.7557 91.6557 53.0767 90.8236 53.0767H82.6365V63.0619Z" fill="#F9F6F9"/>
<path d="M75.5398 68.6669C81.0334 68.6669 85.4868 64.2135 85.4868 58.7199C85.4868 53.2264 81.0334 48.7729 75.5398 48.7729C70.0462 48.7729 65.5928 53.2264 65.5928 58.7199C65.5928 64.2135 70.0462 68.6669 75.5398 68.6669Z" fill="white"/>
<path d="M75.5399 63.4162C78.1335 63.4162 80.236 61.3136 80.236 58.72C80.236 56.1264 78.1335 54.0239 75.5399 54.0239C72.9463 54.0239 70.8438 56.1264 70.8438 58.72C70.8438 61.3136 72.9463 63.4162 75.5399 63.4162Z" fill="#F9F6F9"/>
<path d="M16.2692 68.6669C21.7627 68.6669 26.2162 64.2135 26.2162 58.7199C26.2162 53.2264 21.7627 48.7729 16.2692 48.7729C10.7756 48.7729 6.32214 53.2264 6.32214 58.7199C6.32214 64.2135 10.7756 68.6669 16.2692 68.6669Z" fill="white"/>
<path d="M16.269 63.4162C18.8626 63.4162 20.9652 61.3136 20.9652 58.72C20.9652 56.1264 18.8626 54.0239 16.269 54.0239C13.6754 54.0239 11.5729 56.1264 11.5729 58.72C11.5729 61.3136 13.6754 63.4162 16.269 63.4162Z" fill="#F9F6F9"/>
<path d="M36.1727 68.6669C41.6663 68.6669 46.1197 64.2135 46.1197 58.7199C46.1197 53.2264 41.6663 48.7729 36.1727 48.7729C30.6791 48.7729 26.2257 53.2264 26.2257 58.7199C26.2257 64.2135 30.6791 68.6669 36.1727 68.6669Z" fill="white"/>
<path d="M36.1727 63.4162C38.7663 63.4162 40.8688 61.3136 40.8688 58.72C40.8688 56.1264 38.7663 54.0239 36.1727 54.0239C33.5791 54.0239 31.4766 56.1264 31.4766 58.72C31.4766 61.3136 33.5791 63.4162 36.1727 63.4162Z" fill="#F9F6F9"/>
<path d="M50.6818 31.1934H67.1135L66.0136 20.2422H50.6722V31.1934H50.6818Z" fill="#00ABB3"/>
<path d="M81.5558 36.186C79.1073 36.186 77.1274 38.1659 77.1274 40.6144C77.1274 43.0628 79.1073 45.0427 81.5558 45.0427V36.1956V36.186Z" fill="white"/>
<path d="M92.2011 52.0534V34.541C92.2011 33.8619 91.7134 33.288 91.0439 33.1828L73.6557 30.4187L72.0298 17.4016H78.0745C78.4762 17.4016 78.8492 17.2294 79.117 16.9234C79.3848 16.6173 79.49 16.2252 79.4326 15.8235C78.9162 12.3133 75.8555 9.65442 72.2976 9.65442H62.4079L62.3792 9.57791C61.5854 7.07203 59.2995 5.39826 56.6693 5.39826H45.4406C44.685 5.39826 44.0633 6.01039 44.0633 6.77554V21.103H43.1452V19.2666C43.1452 17.9372 42.4565 16.7703 41.414 16.0913V1.37165C41.414 0.864741 41.1271 0.396085 40.6775 0.156975C40.228 -0.0821347 39.6828 -0.0438771 39.262 0.243055L34.7572 3.34192C34.3841 3.60016 34.1642 4.02099 34.1642 4.47052V16.12C33.1216 16.7895 32.433 17.9659 32.433 19.2858V21.1221C32.433 21.8777 33.0451 22.4994 33.8103 22.4994C34.5754 22.4994 35.1876 21.8873 35.1876 21.1221V19.2858C35.1876 18.7119 35.6466 18.2528 36.2205 18.2528H39.3768C39.9506 18.2528 40.4097 18.7119 40.4097 19.2858V35.2966C40.4097 35.8609 39.9506 36.3295 39.3768 36.3295H36.2205C35.6466 36.3295 35.1876 35.8704 35.1876 35.2966V26.6121C35.1876 25.8565 34.5754 25.2348 33.8103 25.2348C33.0451 25.2348 32.433 25.8469 32.433 26.6121V35.2966C32.433 37.3816 34.1259 39.0745 36.2109 39.0745H39.3672C41.4523 39.0745 43.1452 37.3816 43.1452 35.2966V33.8523H44.0633V47.4051H38.5447L35.3215 41.0352C35.0919 40.5761 34.6137 40.2796 34.0972 40.2796H13.5719C13.0555 40.2796 12.5772 40.5666 12.3477 41.0352L9.12447 47.4051H3.51015C1.57813 47.4051 0 48.9832 0 50.9152V56.5008C0 58.4328 1.57813 60.011 3.51015 60.011H5.02133C5.66215 65.654 10.4635 70.0536 16.2691 70.0536C20.554 70.0536 24.2937 67.6529 26.2161 64.1332C28.1386 67.6625 31.8783 70.0536 36.1631 70.0536C41.9687 70.0536 46.7701 65.654 47.4109 60.011H64.2921C64.9329 65.654 69.7343 70.0536 75.5399 70.0536C79.7004 70.0536 83.3445 67.7964 85.3052 64.4488H90.8143C92.402 64.4488 93.6932 63.1576 93.6932 61.57V54.6071C93.6932 53.5167 93.0811 52.5603 92.182 52.0725L92.2011 52.0534ZM89.4562 51.03C88.8058 49.8536 88.0119 48.7728 87.1129 47.8164V35.3444L89.4562 35.7174V51.03ZM38.6786 3.98273V15.5174H36.9187V5.18785L38.6786 3.97317V3.98273ZM43.1547 31.0978V23.8575H44.0729V31.0978H43.1547ZM46.8179 17.4111H53.2356C53.9912 17.4111 54.6129 16.799 54.6129 16.0339C54.6129 15.2687 54.0008 14.6566 53.2356 14.6566H46.8179V8.15281H56.6693C58.0944 8.15281 59.3282 9.06143 59.7586 10.4196L60.0838 11.4525C60.2655 12.0264 60.7915 12.409 61.3941 12.409H72.288C73.9139 12.409 75.3773 13.308 76.152 14.6566H62.9627C62.2071 14.6566 61.5854 15.2687 61.5854 16.0339C61.5854 16.799 62.1975 17.4111 62.9627 17.4111H69.2465L71.0446 31.7864C71.1211 32.389 71.5898 32.8768 72.1924 32.9724L84.3583 34.9044V45.4922C83.8992 45.1862 83.4114 44.8992 82.9236 44.641V36.1861C82.9236 35.4305 82.3115 34.8088 81.5464 34.8088C78.3518 34.8088 75.7503 37.4103 75.7503 40.6048C75.7503 41.3987 75.9129 42.1447 76.1998 42.8333C75.9799 42.8333 75.7599 42.8142 75.5399 42.8142C74.7461 42.8142 73.9522 42.8716 73.1679 42.9863C72.4219 43.1011 71.9054 43.7993 72.0106 44.5453C72.1158 45.2914 72.8236 45.8078 73.5696 45.7026C74.2104 45.607 74.8704 45.5592 75.5303 45.5592C80.1021 45.5592 84.2722 47.912 86.6538 51.6995H84.4061C82.3307 49.0789 79.1266 47.386 75.5208 47.386C69.7725 47.386 65.019 51.6899 64.2921 57.2469H62.4462C62.9053 53.1724 65.2868 49.471 68.8735 47.3573C69.5239 46.9747 69.7439 46.133 69.3613 45.4827C68.9787 44.8323 68.137 44.6123 67.4866 44.9949C66.3485 45.6644 65.306 46.4773 64.3782 47.386H46.7892V17.4016L46.8179 17.4111ZM78.5049 40.6048C78.5049 39.4188 79.1935 38.3859 80.1882 37.879V43.3307C79.1935 42.8237 78.5049 41.7908 78.5049 40.6048ZM43.5469 50.1405H62.1784C60.8107 52.2638 59.9499 54.7027 59.7203 57.2564H47.4013C47.0379 54.4254 45.6224 51.9195 43.5564 50.1405H43.5469ZM28.7889 50.1405C27.756 51.03 26.8761 52.1108 26.2161 53.3159C25.5562 52.1012 24.6858 51.03 23.6433 50.1405H28.7889ZM14.4136 43.0246H33.2651L35.4841 47.3955H12.1947L14.4136 43.0246ZM2.74499 56.4913V50.9057C2.74499 50.4848 3.08931 50.1405 3.51015 50.1405H8.89492C6.82901 51.9195 5.41347 54.4254 5.05002 57.2564H3.51015C3.08931 57.2564 2.74499 56.9121 2.74499 56.4913ZM16.2691 67.299C11.5347 67.299 7.68981 63.4542 7.68981 58.7198C7.68981 53.9854 11.5347 50.1405 16.2691 50.1405C21.0035 50.1405 24.8484 53.9854 24.8484 58.7198C24.8484 63.4542 21.0035 67.299 16.2691 67.299ZM36.1727 67.299C31.4383 67.299 27.5934 63.4542 27.5934 58.7198C27.5934 53.9854 31.4383 50.1405 36.1727 50.1405C40.9071 50.1405 44.752 53.9854 44.752 58.7198C44.752 63.4542 40.9071 67.299 36.1727 67.299ZM75.5399 67.299C70.8055 67.299 66.9606 63.4542 66.9606 58.7198C66.9606 53.9854 70.8055 50.1405 75.5399 50.1405C80.2743 50.1405 84.1192 53.9854 84.1192 58.7198C84.1192 63.4542 80.2743 67.299 75.5399 67.299ZM90.9578 61.5508C90.9578 61.6273 90.9004 61.6847 90.8239 61.6847H86.4721C86.7303 60.7379 86.8738 59.7432 86.8738 58.7198C86.8738 57.2086 86.5773 55.7739 86.0321 54.4541H90.8239C90.9004 54.4541 90.9578 54.5114 90.9578 54.588V61.5508Z" fill="#353950"/>
<path d="M16.2691 52.6558C12.9215 52.6558 10.2052 55.3816 10.2052 58.7196C10.2052 62.0576 12.9311 64.7834 16.2691 64.7834C19.607 64.7834 22.3329 62.0576 22.3329 58.7196C22.3329 55.3816 19.607 52.6558 16.2691 52.6558ZM16.2691 62.0384C14.4422 62.0384 12.9502 60.5464 12.9502 58.7196C12.9502 56.8928 14.4422 55.4007 16.2691 55.4007C18.0959 55.4007 19.5879 56.8928 19.5879 58.7196C19.5879 60.5464 18.0959 62.0384 16.2691 62.0384Z" fill="#353950"/>
<path d="M36.1726 52.6558C32.8251 52.6558 30.1088 55.3816 30.1088 58.7196C30.1088 62.0576 32.8346 64.7834 36.1726 64.7834C39.5106 64.7834 42.2365 62.0576 42.2365 58.7196C42.2365 55.3816 39.5106 52.6558 36.1726 52.6558ZM36.1726 62.0384C34.3458 62.0384 32.8538 60.5464 32.8538 58.7196C32.8538 56.8928 34.3458 55.4007 36.1726 55.4007C37.9994 55.4007 39.4915 56.8928 39.4915 58.7196C39.4915 60.5464 37.9994 62.0384 36.1726 62.0384Z" fill="#353950"/>
<path d="M75.5398 52.6558C72.1923 52.6558 69.476 55.3816 69.476 58.7196C69.476 62.0576 72.2018 64.7834 75.5398 64.7834C78.8778 64.7834 81.6037 62.0576 81.6037 58.7196C81.6037 55.3816 78.8778 52.6558 75.5398 52.6558ZM75.5398 62.0384C73.713 62.0384 72.2209 60.5464 72.2209 58.7196C72.2209 56.8928 73.713 55.4007 75.5398 55.4007C77.3666 55.4007 78.8587 56.8928 78.8587 58.7196C78.8587 60.5464 77.3666 62.0384 75.5398 62.0384Z" fill="#353950"/>
<path d="M50.6819 32.5702H67.1136C67.5058 32.5702 67.8692 32.4076 68.1275 32.1207C68.3857 31.8338 68.51 31.4512 68.4718 31.0591L67.3719 20.1078C67.3049 19.4096 66.7119 18.874 66.0042 18.874H50.6628C49.9072 18.874 49.2855 19.4861 49.2855 20.2513V31.2025C49.2855 31.9581 49.8976 32.5798 50.6532 32.5798L50.6819 32.5702ZM65.5929 29.8253H56.4302V21.619H64.7703L65.5929 29.8253ZM52.0496 21.6094H53.6852V29.8157H52.0496V21.6094Z" fill="#353950"/>
<path d="M50.682 34.1963C49.9264 34.1963 49.3047 34.8084 49.3047 35.5736V39.2272C49.3047 39.9828 49.9168 40.6044 50.682 40.6044C51.4471 40.6044 52.0592 39.9923 52.0592 39.2272V35.5736C52.0592 34.818 51.4471 34.1963 50.682 34.1963Z" fill="#353950"/>
</svg>
