<svg width="85" height="73" viewBox="0 0 85 73" fill="none" xmlns="http://www.w3.org/2000/svg">
<path d="M40.8834 72.9377C61.0245 72.9377 77.3522 56.61 77.3522 36.4688C77.3522 16.3277 61.0245 0 40.8834 0C20.7422 0 4.41455 16.3277 4.41455 36.4688C4.41455 56.61 20.7422 72.9377 40.8834 72.9377Z" fill="#00ABB3"/>
<path d="M76.3543 35.4894L69.0221 22.6005C68.715 22.1878 68.2256 21.9575 67.7169 21.9575H1.22852V53.6086C1.22852 54.8946 2.2746 55.9407 3.5606 55.9407H80.9129C82.0645 55.9407 83.0051 55.0098 83.0051 53.8485V41.5163C83.0051 41.1516 82.8419 40.7965 82.554 40.5662L76.3543 35.4894Z" fill="white"/>
<path d="M75.001 51.9972C72.5249 49.5211 68.5134 49.5211 66.0373 51.9972C63.5613 54.4732 63.5613 58.4848 66.0373 60.9608C68.5134 63.4369 72.5249 63.4369 75.001 60.9608C77.477 58.4848 77.477 54.4732 75.001 51.9972Z" fill="white"/>
<path d="M70.5191 59.2234C69.7897 59.2234 69.0987 58.9355 68.5804 58.4172C67.5152 57.352 67.5152 55.6149 68.5804 54.54C69.0987 54.0218 69.7897 53.7339 70.5191 53.7339C71.2484 53.7339 71.9394 54.0218 72.4577 54.54C72.9759 55.0583 73.2638 55.7493 73.2638 56.4786C73.2638 57.208 72.9759 57.899 72.4577 58.4172C71.9394 58.9355 71.2484 59.2234 70.5191 59.2234Z" fill="#353950"/>
<path d="M82.9954 43.868H78.4656C77.6402 43.868 77.0356 44.6358 77.2179 45.4323L77.813 48.0043C77.9473 48.5802 78.4655 48.9928 79.0606 48.9928H82.9954V43.8584V43.868Z" fill="#EFEFEF"/>
<path d="M62.0451 21.9485C62.5153 21.9485 62.8608 21.4879 62.7265 21.0368L59.9241 11.6029C59.7514 11.0079 59.1947 10.5952 58.5709 10.5952H3.5606C2.2746 10.5952 1.22852 11.6413 1.22852 12.9273V53.6092C1.22852 54.8952 2.2746 55.9413 3.5606 55.9413H51.1044V23.1194C51.1044 22.4764 51.6227 21.9581 52.2657 21.9581H62.0451V21.9485Z" fill="white"/>
<path d="M55.2311 27.0537V36.6027C55.2311 36.7947 55.3846 36.9482 55.5766 36.9482H69.4059C70.452 36.9482 71.1142 35.8158 70.596 34.9041L66.0374 26.8905C65.9798 26.785 65.8646 26.7178 65.7399 26.7178H55.5766C55.3846 26.7178 55.2311 26.8713 55.2311 27.0633V27.0537Z" fill="#33D8DD"/>
<path d="M18.196 51.9972C15.72 49.5211 11.7084 49.5211 9.2324 51.9972C6.75636 54.4732 6.75636 58.4848 9.2324 60.9608C11.7084 63.4369 15.72 63.4369 18.196 60.9608C20.6721 58.4848 20.6721 54.4732 18.196 51.9972Z" fill="white"/>
<path d="M13.7142 59.2234C12.9849 59.2234 12.2939 58.9355 11.7756 58.4172C10.7104 57.352 10.7104 55.6149 11.7756 54.54C12.2939 54.0218 12.9849 53.7339 13.7142 53.7339C14.4436 53.7339 15.1346 54.0218 15.6529 54.54C16.1711 55.0583 16.459 55.7493 16.459 56.4786C16.459 57.208 16.1711 57.899 15.6529 58.4172C15.1346 58.9355 14.4436 59.2234 13.7142 59.2234Z" fill="#353950"/>
<path d="M6.33398 22.3799H45.9698V42.8024H6.33398V22.3799Z" fill="white"/>
<path d="M8.90601 30.0571C6.57392 30.0571 4.67371 28.1665 4.67371 25.8248V23.6079H13.1287V25.8248C13.1287 28.1569 11.2381 30.0571 8.89641 30.0571H8.90601Z" fill="white"/>
<path d="M17.3706 30.0571C15.0385 30.0571 13.1383 28.1665 13.1383 25.8248V23.6079H21.5933V25.8248C21.5933 28.1569 19.7027 30.0571 17.361 30.0571H17.3706Z" fill="white"/>
<path d="M25.8257 30.0571C23.4936 30.0571 21.5934 28.1665 21.5934 25.8248V23.6079H30.0484V25.8248C30.0484 28.1569 28.1578 30.0571 25.8161 30.0571H25.8257Z" fill="white"/>
<path d="M34.2903 30.0571C31.9582 30.0571 30.058 28.1665 30.058 25.8248V23.6079H38.513V25.8248C38.513 28.1569 36.6224 30.0571 34.2807 30.0571H34.2903Z" fill="white"/>
<path d="M42.7452 30.0571C40.4132 30.0571 38.5129 28.1665 38.5129 25.8248V23.6079H46.9679V25.8248C46.9679 28.1569 45.0773 30.0571 42.7356 30.0571H42.7452Z" fill="white"/>
<path d="M44.6359 17.745C44.4727 17.3324 44.0792 17.0732 43.6378 17.0732H8.01348C7.57202 17.0732 7.17854 17.342 7.01539 17.745L4.67371 23.6088H46.9679L44.6263 17.745H44.6359Z" fill="white"/>
<path d="M5.33598 41.689H46.92C47.2943 41.689 47.5918 41.9865 47.5918 42.3608V45.3838C47.5918 45.7581 47.2943 46.0556 46.92 46.0556H5.33598C4.96169 46.0556 4.66418 45.7581 4.66418 45.3838V42.3608C4.66418 41.9865 4.96169 41.689 5.33598 41.689Z" fill="white"/>
<path d="M3.43567 42.3617V45.3848C3.43567 46.4405 4.28981 47.2946 5.34548 47.2946H46.9295C47.9852 47.2946 48.8393 46.4405 48.8393 45.3848V42.3617C48.8393 41.402 48.1292 40.6055 47.2079 40.4807V28.993C47.8413 28.1005 48.2155 27.0064 48.2155 25.8356V23.6187C48.2155 23.6091 48.2155 23.5899 48.2155 23.5803C48.2155 23.5419 48.2155 23.5131 48.2155 23.4747C48.2155 23.4651 48.2155 23.4459 48.2155 23.4363C48.2155 23.3979 48.2059 23.3692 48.1963 23.3404C48.1963 23.3308 48.1963 23.3116 48.1867 23.302C48.1772 23.2636 48.1676 23.2252 48.1484 23.1964C48.1484 23.1964 48.1484 23.1868 48.1484 23.1772V23.158H48.1388L45.8067 17.3134C45.4516 16.4305 44.6166 15.8643 43.6665 15.8643H19.3476C18.6662 15.8643 18.1192 16.4113 18.1192 17.0927C18.1192 17.7741 18.6662 18.3211 19.3476 18.3211H43.561L45.1829 22.3999H6.49713L8.11903 18.3211H13.5798C14.2611 18.3211 14.8082 17.7645 14.8082 17.0927C14.8082 16.4209 14.2516 15.8643 13.5798 15.8643H8.01347C7.06336 15.8643 6.22841 16.4305 5.87332 17.3134L3.55083 23.158C3.55083 23.158 3.55083 23.158 3.55083 23.1676V23.1868C3.55083 23.1868 3.55083 23.1868 3.54124 23.1964C3.52204 23.2348 3.51245 23.2732 3.50285 23.3116C3.50285 23.3212 3.50285 23.3308 3.50285 23.3404C3.50285 23.3788 3.48365 23.4075 3.48365 23.4459C3.48365 23.4555 3.48365 23.4651 3.48365 23.4843C3.48365 23.5227 3.48365 23.5611 3.48365 23.5995C3.48365 23.5995 3.48365 23.6187 3.48365 23.6283C3.48365 23.6283 3.48365 23.6283 3.48365 23.6379V25.8548C3.48365 27.3903 4.11706 28.7723 5.14395 29.7704V40.4999C4.20343 40.6151 3.47406 41.4212 3.47406 42.3905L3.43567 42.3617ZM39.7509 24.8471H45.7491V25.8356C45.7491 27.4863 44.4055 28.8299 42.7548 28.8299C41.1041 28.8299 39.7605 27.4863 39.7605 25.8356V24.8471H39.7509ZM31.2863 24.8471H37.2845V25.8356C37.2845 27.4863 35.9409 28.8299 34.2902 28.8299C32.6395 28.8299 31.2959 27.4863 31.2959 25.8356V24.8471H31.2863ZM22.8313 24.8471H28.8295V25.8356C28.8295 27.4863 27.4859 28.8299 25.8352 28.8299C24.1845 28.8299 22.8409 27.4863 22.8409 25.8356V24.8471H22.8313ZM14.3667 24.8471H20.3649V25.8356C20.3649 27.4863 19.0213 28.8299 17.3706 28.8299C15.7199 28.8299 14.3763 27.4863 14.3763 25.8356V24.8471H14.3667ZM13.1383 29.2809C14.1364 30.5094 15.6623 31.2963 17.3706 31.2963C19.0789 31.2963 20.5952 30.5094 21.6029 29.2809C22.601 30.5094 24.1269 31.2963 25.8352 31.2963C27.5435 31.2963 29.0598 30.5094 30.0675 29.2809C31.0656 30.5094 32.5915 31.2963 34.2998 31.2963C36.0081 31.2963 37.5244 30.5094 38.5321 29.2809C39.5302 30.5094 41.0561 31.2963 42.7644 31.2963C43.465 31.2963 44.1368 31.162 44.751 30.922V40.4615H7.5624V31.1332C7.99427 31.2387 8.44533 31.2963 8.90599 31.2963C10.6143 31.2963 12.1306 30.5094 13.1383 29.2809ZM5.91171 24.8471H11.9099V25.8356C11.9099 27.4863 10.5663 28.8299 8.91559 28.8299C7.26489 28.8299 5.92131 27.4863 5.92131 25.8356V24.8471H5.91171ZM5.89252 42.9184H46.3633V44.8186H5.89252V42.9184Z" fill="#353950"/>
<path d="M83.3313 39.6067L77.3139 34.6738L70.0873 21.9865C70.0873 21.9865 70.0297 21.8905 70.0009 21.8522C69.4635 21.142 68.6094 20.7197 67.7168 20.7197H52.2752C50.9508 20.7197 49.8759 21.7946 49.8759 23.119V54.7029H21.0751C20.7584 53.3881 20.0962 52.1501 19.0694 51.1232C16.1135 48.1673 11.3149 48.1673 8.35904 51.1232C7.34175 52.1405 6.66996 53.3881 6.35325 54.7029H3.56051C2.95589 54.7029 2.46644 54.2134 2.46644 53.6088V12.9269C2.46644 12.3223 2.95589 11.8328 3.56051 11.8328H58.5804C58.6572 11.8328 58.7244 11.8808 58.7532 11.9576L60.1736 16.7561C60.3655 17.4087 61.0565 17.783 61.7091 17.5911C62.3617 17.3991 62.736 16.7081 62.544 16.0555L61.1237 11.2666C60.7974 10.1533 59.7513 9.37598 58.59 9.37598H3.56051C1.59311 9.37598 0 10.9691 0 12.9365V53.6184C0 55.5858 1.59311 57.1789 3.56051 57.1789H6.17091C6.32446 58.8872 7.05384 60.5475 8.34944 61.8431C9.82739 63.3211 11.766 64.06 13.7046 64.06C15.6432 64.06 17.5818 63.3211 19.0598 61.8431C20.365 60.5379 21.0847 58.8776 21.2383 57.1789H62.9759C63.1295 58.8872 63.8588 60.5475 65.1544 61.8431C66.6324 63.3211 68.571 64.06 70.5096 64.06C72.4482 64.06 74.3868 63.3211 75.8647 61.8431C77.17 60.5379 77.8897 58.8776 78.0433 57.1789H80.8936C82.7266 57.1789 84.2142 55.6914 84.2142 53.8583V41.5261C84.2142 40.7872 83.8879 40.0866 83.3121 39.6163L83.3313 39.6067ZM17.3227 60.0868C15.3265 62.083 12.0923 62.083 10.0961 60.0868C8.09992 58.0907 8.09992 54.8564 10.0961 52.8603C11.0654 51.891 12.3418 51.3631 13.7046 51.3631C15.0674 51.3631 16.3534 51.891 17.3131 52.8603C18.2824 53.8296 18.8102 55.106 18.8102 56.4688C18.8102 57.8315 18.2824 59.1175 17.3131 60.0772L17.3227 60.0868ZM74.1277 60.0868C72.1315 62.083 68.8973 62.083 66.9011 60.0868C64.9049 58.0907 64.9049 54.8564 66.9011 52.8603C67.8992 51.8622 69.2044 51.3631 70.5096 51.3631C71.8148 51.3631 73.1296 51.8622 74.1181 52.8603C76.1143 54.8564 76.1143 58.0907 74.1181 60.0868H74.1277ZM81.7669 47.7738H79.0702C79.0702 47.7738 79.0318 47.7546 79.0222 47.7354L78.4272 45.1634C78.4272 45.1634 78.4272 45.1442 78.4272 45.125C78.4464 45.1058 78.456 45.1058 78.4656 45.1058H81.7669V47.7738ZM81.7669 42.6298H78.4656C77.6978 42.6298 76.978 42.9753 76.4982 43.5799C76.0183 44.1845 75.8456 44.9619 76.0183 45.7104L76.6133 48.2825C76.882 49.4245 77.8801 50.2307 79.0606 50.2307H81.7669V53.8392C81.7669 54.3094 81.383 54.6933 80.9128 54.6933H77.8801C77.5634 53.3785 76.9012 52.1405 75.8743 51.1136C72.9184 48.1577 68.1199 48.1577 65.164 51.1136C64.1467 52.1309 63.4749 53.3785 63.1582 54.6933H52.3328V23.1861H67.7073C67.8128 23.1861 67.9184 23.2341 67.9952 23.3109L75.2793 36.1038C75.3561 36.2381 75.4521 36.3533 75.5672 36.4493L81.7669 41.5261V42.649V42.6298Z" fill="#353950"/>
<path d="M67.093 26.2765C66.8147 25.7871 66.2869 25.48 65.7302 25.48H55.567C54.7032 25.48 53.993 26.1902 53.993 27.0539V36.603C53.993 37.4667 54.7032 38.1769 55.567 38.1769H69.3963C70.3368 38.1769 71.1718 37.697 71.642 36.8813C72.1123 36.0751 72.1219 35.1058 71.6516 34.2901L67.093 26.2765ZM69.5115 35.6433C69.4731 35.7104 69.4155 35.7104 69.3963 35.7104H56.4595V27.9464H65.212L69.5211 35.5089C69.5211 35.5089 69.5595 35.5761 69.5211 35.6433H69.5115Z" fill="#353950"/>
</svg>
